<?xml version="1.0" encoding="UTF-8"?>
<svg id="Layer_1" data-name="Layer 1" xmlns="http://www.w3.org/2000/svg" viewBox="0 0 369.94 442.7">
  <defs>
    <style>
      .cls-1 {
        fill: #fff;
      }

      .cls-2 {
        opacity: .13;
      }

      .cls-3 {
        fill: #acd4f7;
      }
    </style>
  </defs>
  <g>
    <g>
      <rect class="cls-1" x="187.53" y="338.58" width="181.61" height="103.33" rx="51.66" ry="51.66" transform="translate(556.67 780.49) rotate(180)"/>
      <path d="m350.38,442.7h-144.09c-10.78,0-19.56-8.77-19.56-19.56v-65.81c0-10.78,8.77-19.56,19.56-19.56h144.09c10.78,0,19.56,8.77,19.56,19.56v65.81c0,10.78-8.77,19.56-19.56,19.56Zm-144.09-103.33c-9.9,0-17.96,8.06-17.96,17.96v65.81c0,9.9,8.06,17.96,17.96,17.96h144.09c9.9,0,17.96-8.06,17.96-17.96v-65.81c0-9.9-8.06-17.96-17.96-17.96h-144.09Z"/>
    </g>
    <path d="m343.13,419.22h-69.5c-.44,0-.8-.36-.8-.8s.36-.8.8-.8h69.5c.44,0,.8.36.8.8s-.36.8-.8.8Z"/>
    <path d="m343.13,401.83h-55.21c-.44,0-.8-.36-.8-.8s.36-.8.8-.8h55.21c.44,0,.8.36.8.8s-.36.8-.8.8Z"/>
    <path d="m343.13,384.44h-78.6c-.44,0-.8-.36-.8-.8s.36-.8.8-.8h78.6c.44,0,.8.36.8.8s-.36.8-.8.8Z"/>
    <path d="m343.13,367.06h-55.21c-.44,0-.8-.36-.8-.8s.36-.8.8-.8h55.21c.44,0,.8.36.8.8s-.36.8-.8.8Z"/>
    <path d="m264.54,367.05h-51c-.44,0-.8-.36-.8-.8s.36-.8.8-.8h51c.44,0,.8.36.8.8s-.36.8-.8.8Z"/>
    <path d="m243.13,384.44h-29.59c-.44,0-.8-.36-.8-.8s.36-.8.8-.8h29.59c.44,0,.8.36.8.8s-.36.8-.8.8Z"/>
    <path d="m264.54,401.83h-51c-.44,0-.8-.36-.8-.8s.36-.8.8-.8h51c.44,0,.8.36.8.8s-.36.8-.8.8Z"/>
    <path d="m253.41,419.22h-39.87c-.44,0-.8-.36-.8-.8s.36-.8.8-.8h39.87c.44,0,.8.36.8.8s-.36.8-.8.8Z"/>
  </g>
  <g>
    <g>
      <path class="cls-3" d="m102.46,135.27c4.73,10.57,2.78,24.22-5.82,31.98-4.69,4.22-10.82,6.48-15.83,10.32-5.01,3.83-8.96,10.48-6.55,16.31.61,1.48,1.6,2.82,1.91,4.38.84,4.22-3.25,7.55-6.19,10.68-6.62,7.04-8.22,19.46-1.16,26.05,5.57,5.2,14.1,5.18,21.7,4.55,10.29-.86,20.89-2.38,29.69-7.78,8.69-5.34,14.91-14.14,18.43-23.71,3.52-9.57,4.51-19.91,4.38-30.11-.15-11.74-1.96-24.02-8.91-33.49s-20.23-15.08-31.65-9.18Z"/>
      <path d="m84.55,240.62c-6.01,0-11.98-1.04-16.27-5.04-3.02-2.82-4.7-6.75-4.85-11.36-.19-5.74,2.05-11.65,5.97-15.82.42-.44.86-.89,1.3-1.34,2.62-2.67,5.33-5.42,4.69-8.63-.18-.89-.61-1.72-1.08-2.6-.27-.52-.56-1.07-.79-1.64-2.6-6.28,1.71-13.35,6.81-17.25,2.26-1.73,4.76-3.16,7.18-4.53,2.97-1.69,6.05-3.45,8.6-5.74,8.06-7.27,10.43-20.33,5.63-31.06-.17-.39-.01-.84.36-1.03,12.13-6.27,25.89.17,32.66,9.41,5.99,8.17,8.87,18.96,9.06,33.95.15,11.93-1.3,21.87-4.43,30.39-3.86,10.49-10.52,19.05-18.76,24.11-8.93,5.49-19.72,7.04-30.04,7.89-1.97.16-4.01.28-6.04.28Zm18.94-104.97c4.67,11.21,2.07,24.63-6.32,32.19-2.67,2.41-5.83,4.21-8.87,5.94-2.37,1.35-4.83,2.75-7,4.42-4.63,3.54-8.58,9.87-6.3,15.38.21.5.46.99.73,1.5.49.94,1,1.92,1.23,3.03.81,4.04-2.34,7.24-5.12,10.06-.44.44-.87.88-1.28,1.32-3.59,3.81-5.71,9.43-5.54,14.68.14,4.18,1.64,7.72,4.34,10.25,5.26,4.91,13.25,4.99,21.09,4.33,10.13-.84,20.69-2.35,29.34-7.66,7.94-4.87,14.37-13.15,18.1-23.31,3.06-8.33,4.48-18.09,4.33-29.82-.19-14.65-2.97-25.14-8.75-33.03-6.26-8.54-18.8-14.57-29.98-9.27Z"/>
    </g>
    <g>
      <path class="cls-3" d="m149.97,86.6c3.27,16.48,7.13,34.07,19.3,45.65,3.96,3.76,8.66,6.72,12.32,10.78,4.35,4.82,6.99,10.94,8.96,17.12,3.72,11.69,5.19,24.67.67,36.08-4.53,11.4-16.3,20.5-28.47,18.91-10.68-1.39-19.11-10.48-22.73-20.62s-3.31-21.22-2.58-31.96c1.76-25.8,5.68-51.46,12.53-75.95Z"/>
      <path d="m165.44,216.1c-.93,0-1.87-.06-2.79-.18-10.08-1.31-19.25-9.61-23.38-21.14-3.74-10.45-3.35-21.68-2.62-32.28,1.87-27.41,6.1-53.02,12.56-76.11.1-.35.42-.61.8-.58.37.01.68.28.75.64,3.62,18.27,7.56,34.28,19.07,45.22,1.64,1.56,3.44,3.01,5.19,4.41,2.46,1.97,5,4.01,7.17,6.41,3.78,4.19,6.68,9.73,9.13,17.41,4.48,14.09,4.7,26.41.65,36.61-4.6,11.59-15.65,19.59-26.52,19.59Zm-15.59-126.05c-5.93,22.14-9.84,46.53-11.62,72.56-.71,10.43-1.11,21.47,2.53,31.63,3.93,10.97,12.6,18.86,22.09,20.1,11.01,1.43,22.89-6.48,27.62-18.41,3.91-9.85,3.68-21.81-.69-35.54-2.37-7.46-5.17-12.81-8.79-16.83-2.08-2.31-4.57-4.3-6.98-6.24-1.77-1.42-3.61-2.9-5.29-4.5-11.15-10.59-15.35-25.6-18.87-42.77Z"/>
    </g>
    <g>
      <path class="cls-1" d="m155.63,178.64c-2.84-8.31-4.76-16.9-6.71-26.77-3.9-.67-7.92-.74-11.84-.2-1.76.24-3.69.71-4.68,2.12-.62.88-.75,1.98-.86,3.04l-2.36,21.72c-.06.56-.12,1.14.08,1.66.28.75,1.02,1.25,1.75,1.66,7.58,4.27,18.09,3.15,24.63-3.23Z"/>
      <path d="m141.03,185.23c-3.61,0-7.21-.87-10.42-2.68-.83-.47-1.73-1.08-2.1-2.08-.27-.71-.19-1.44-.12-2.03l2.36-21.72c.11-1.04.25-2.34,1-3.41,1.19-1.71,3.42-2.21,5.22-2.45,4.02-.55,8.09-.48,12.09.21.33.06.58.31.65.63,2,10.13,3.9,18.54,6.68,26.67.1.29.02.61-.2.83-4.05,3.95-9.6,6.03-15.16,6.03Zm1.31-33.13c-1.72,0-3.44.12-5.15.35-1.48.2-3.29.59-4.13,1.79-.51.74-.63,1.76-.72,2.67l-2.36,21.72c-.05.46-.1.94.03,1.3.19.52.81.92,1.39,1.25,7.27,4.09,17.19,2.89,23.32-2.76-2.67-7.92-4.53-16.09-6.47-25.84-1.96-.31-3.93-.46-5.91-.46Z"/>
    </g>
    <g>
      <path class="cls-1" d="m155.02,88.85c2.16,7.91,3.95,16.4,9.02,23.04,2.77,3.62,11.36,24.34-2.75,37.2-7.42,6.76-17.7,10.33-28.99,8.66-7.66-1.13-19.9-9.52-23.22-21.55-4.46,3.52-10.88,2.22-12.85-2.3-1.13-2.6.37-7.1,3.49-8.23,2.41-.88,2.7-.97,5.07-.35-1.02-5.87-2.57-11.63-5.26-17.75,3.08-8.73,10.92-15.83,19.54-21.08,2.85-1.74,5.85-3.33,9.1-4.24,9.3-2.61,24.64-1.53,26.86,6.59Z"/>
      <path d="m137.86,158.97c-1.87,0-3.76-.14-5.68-.42-7.54-1.12-19.66-9.01-23.55-21.05-2.28,1.42-5.05,1.88-7.61,1.24-2.54-.64-4.55-2.28-5.52-4.51-.66-1.52-.57-3.64.24-5.52.78-1.83,2.13-3.2,3.7-3.77,2.11-.77,2.78-.97,4.34-.66-1.12-5.98-2.72-11.21-4.99-16.37-.08-.19-.09-.39-.02-.59,3.49-9.88,12.74-17.14,19.88-21.49,2.44-1.48,5.69-3.31,9.3-4.33,6.62-1.86,16.95-1.96,23.08,1.51,2.53,1.43,4.13,3.33,4.76,5.64.26.96.52,1.93.78,2.91,1.84,6.96,3.75,14.15,8.11,19.86,3.4,4.45,11.33,25.35-2.85,38.27-6.67,6.08-15.03,9.28-23.97,9.28Zm-28.78-23.55c.08,0,.17.01.25.04.25.08.45.29.52.55,3.27,11.83,15.42,19.91,22.57,20.97,10.57,1.56,20.63-1.44,28.34-8.46,14.29-13.03,4.55-33.65,2.66-36.13-4.55-5.96-6.5-13.31-8.38-20.42-.26-.97-.51-1.94-.77-2.9h0c-.51-1.89-1.86-3.46-4.01-4.68-5.75-3.26-15.56-3.13-21.86-1.36-3.42.96-6.56,2.73-8.91,4.16-6.85,4.17-15.69,11.07-19.1,20.37,2.41,5.53,4.06,11.15,5.19,17.64.05.27-.05.54-.24.72-.2.18-.48.25-.74.19-2.15-.56-2.29-.51-4.6.33-1.16.42-2.17,1.48-2.78,2.9-.64,1.5-.74,3.13-.24,4.26.77,1.77,2.39,3.09,4.45,3.6,2.44.61,5.13.01,7.18-1.61.14-.11.32-.17.49-.17Z"/>
    </g>
    <path class="cls-1" d="m235.32,146.77c-.14-.76.31-1.53.92-2,.61-.47,1.38-.69,2.12-.88,8.77-2.32,17.97-2.74,26.99-1.85.88.09,2,.44,2.01,1.32,0,.4-.25.76-.51,1.06-1.68,1.91-4.17,2.85-6.61,3.57-6.96,2.06-14.49,2.83-21.48.88-1.22-.34-3.17-.6-3.44-2.09Z"/>
    <path d="m126.37,133.61c-5.32,0-10.35-3.91-11.96-9.77-.92-3.33-.61-6.79.87-9.74,1.49-2.98,4-5.08,7.05-5.93,3.05-.84,6.28-.32,9.09,1.47,2.78,1.77,4.82,4.58,5.74,7.91,1.91,6.9-1.64,13.93-7.92,15.67-.95.26-1.92.39-2.87.39Zm-1.15-24.23c-.83,0-1.66.11-2.47.34-2.61.72-4.76,2.54-6.05,5.11-1.3,2.6-1.57,5.65-.75,8.6,1.67,6.06,7.45,9.77,12.88,8.27,5.43-1.5,8.48-7.65,6.81-13.71-.82-2.95-2.61-5.43-5.06-6.99-1.67-1.06-3.51-1.61-5.34-1.61Z"/>
    <path d="m156.91,122.38c-2.13,0-4.26-.63-6.19-1.86-2.78-1.77-4.82-4.58-5.74-7.91s-.61-6.79.87-9.74c1.49-2.98,4-5.08,7.05-5.93,3.05-.84,6.28-.32,9.09,1.47,2.78,1.77,4.82,4.58,5.74,7.91.92,3.33.61,6.79-.87,9.74-1.49,2.98-4,5.08-7.05,5.93-.95.26-1.93.39-2.9.39Zm-1.13-24.24c-.83,0-1.66.11-2.47.34-2.61.72-4.76,2.54-6.05,5.11-1.3,2.6-1.57,5.65-.75,8.6.81,2.95,2.61,5.43,5.06,6.99,2.42,1.54,5.2,1.99,7.81,1.27,2.61-.72,4.76-2.54,6.05-5.11,1.3-2.6,1.57-5.65.75-8.6-.81-2.95-2.61-5.43-5.06-6.99-1.67-1.06-3.51-1.61-5.34-1.61Z"/>
    <path class="cls-1" d="m262.46,126.64c-1.33-1.45-2.64-2.91-3.94-4.38-2.27-2.56-4.49-5.17-6.67-7.8-.23.05-.5.04-.65.18-1.37-1.16-3.56-1.66-5.51-1.3-1.05,1.09-2.3,2.06-3.57,3.01-.48.36-.95.74-1.49,1.04-.34.19-.67.4-1,.61,0,0-.01.01-.02.02-.09.09-.2.15-.3.19-.08.05-.16.11-.24.16-1.08.73-2.12,1.49-3.19,2.21-.28.19-.61.25-.87.16,0,0,0,.39,0,.4-.29.93-.83,5.02,1.74,10.7,2.48,5.47,3.45,11.86,3.6,17.4,5.21,1.63,9.15-.17,14.62-1.14,2.06-.36,4.15-.75,5.83-1.53,1.59-5.87,2.81-11.81,3.67-17.78-.67-.72-1.33-1.44-1.99-2.16Z"/>
    <g>
      <path class="cls-3" d="m73.19,69.41c-1.18-11.37,7.09-21.54,18.46-22.72,11.37-1.18,21.54,7.09,22.72,18.46,1.18,11.37-7.09,21.54-18.46,22.72-11.37,1.18-21.54-7.09-22.72-18.46Z"/>
      <path d="m93.74,88.78c-4.92,0-9.65-1.67-13.51-4.82-4.46-3.62-7.24-8.76-7.83-14.47-.59-5.71,1.08-11.31,4.7-15.77,3.62-4.46,8.76-7.24,14.47-7.83,5.71-.59,11.31,1.08,15.77,4.7,4.46,3.62,7.24,8.76,7.83,14.47.59,5.71-1.08,11.31-4.7,15.77-3.62,4.46-8.76,7.24-14.47,7.83-.75.08-1.51.12-2.25.12Zm.08-41.4c-.69,0-1.39.04-2.09.11-5.29.55-10.05,3.12-13.4,7.25-3.35,4.13-4.9,9.31-4.35,14.6.55,5.29,3.12,10.05,7.25,13.4,4.13,3.35,9.31,4.9,14.6,4.35,5.29-.55,10.05-3.12,13.4-7.25,3.35-4.13,4.9-9.31,4.35-14.6-.55-5.29-3.12-10.05-7.25-13.4-3.58-2.91-7.96-4.46-12.51-4.46Z"/>
    </g>
    <g>
      <path class="cls-3" d="m105.78,125.82c1.69-9.56,2.39-16.22.14-26.04,22.35,3.05,38.58-5.92,55.44-13.79-.86-3.07-2.73-5.81-5.1-8.06-5.81-5.52-11.97-9.82-24.26-10.08-8.61-.18-19.27,1.78-26.65,6.21-7.33,4.41-12.26,11.45-15.6,18.81-2.65,5.86-3.55,14.01-2.1,21.08,1.24,6.06,4.34,9.6,9.24,14.24,1.09-1.35,2.09-2.67,3.85-3.05s3.16.01,5.04.68Z"/>
      <path d="m96.89,128.99c-.2,0-.4-.08-.55-.22-4.55-4.31-8.13-8.12-9.47-14.66-1.46-7.14-.63-15.4,2.16-21.57,3.96-8.74,9.31-15.19,15.91-19.16,8.17-4.92,19.34-6.49,27.08-6.33,11.88.25,18.29,4.13,24.79,10.3,2.64,2.5,4.48,5.41,5.32,8.42.11.38-.08.77-.43.94-1.43.67-2.86,1.35-4.29,2.02-14.92,7.07-30.34,14.39-50.47,11.98,2.06,9.77,1.14,16.68-.38,25.25-.04.23-.18.43-.38.55-.2.12-.45.14-.67.06-1.95-.69-3.13-.96-4.61-.65-1.41.3-2.27,1.36-3.26,2.6l-.14.17c-.14.17-.34.28-.57.29-.02,0-.04,0-.05,0Zm34.03-60.35c-7.44,0-17.64,1.59-25.15,6.11-6.32,3.8-11.46,10.01-15.28,18.46-2.62,5.79-3.43,13.87-2.05,20.59,1.1,5.35,3.6,8.63,8.38,13.23.97-1.18,2.04-2.29,3.76-2.65,1.69-.36,3.08-.08,4.58.4,1.44-8.28,2.21-15.09-.01-24.81-.06-.25.01-.52.19-.71s.44-.29.7-.25c20.21,2.76,35.71-4.59,50.7-11.7,1.22-.58,2.45-1.16,3.67-1.73-.84-2.5-2.45-4.93-4.68-7.05-5.1-4.84-11.13-9.59-23.73-9.86-.35,0-.71-.01-1.07-.01Z"/>
    </g>
    <path class="cls-1" d="m241.88,122.13c-.15-2.29.54-4.62,1.91-6.45.86-1.15,1.99-2.12,2.64-3.4.65-1.28.66-3.08-.5-3.93-.73-.53-1.73-.55-2.61-.36-2.33.49-4.22,2.16-5.89,3.86-1.04,1.06-2.04,2.18-2.67,3.52-.56,1.2-.8,2.52-.92,3.84-.07.82-.1,1.67.23,2.42.46,1.04,1.49,1.68,2.51,2.19,1.05.53,2.23,1,3.39.8,1.16-.2,1.99-1.3,1.91-2.49Z"/>
    <path d="m140.1,146.39c-2.24,0-3.93-1.84-5.56-3.61-.55-.6-1.07-1.16-1.6-1.65-.23-.21-.32-.54-.22-.83.1-.3.36-.51.67-.55,4.44-.52,10.61-.48,14.66.1.26.04.48.19.6.42.12.23.12.5,0,.73-1.17,2.26-6.11,5.38-8.54,5.38h-.01Zm-4.87-5.21c.16.18.32.35.49.53,1.4,1.52,2.84,3.1,4.38,3.1h0c1.47,0,4.74-1.92,6.35-3.53-3.33-.34-7.64-.37-11.23-.09Z"/>
    <path class="cls-1" d="m111.38,270.7c-1.39-16.57-2.79-28.4-4.18-44.96-2.01,11.24-8.08,33.32-10.59,45.32,23.83.76,39.34,1.52,59.92,4.17-3.96,3.13-7.14,7.24-8.96,11.72-1.81,4.48-2.41,9.34-2.89,14.14-25.41-.85-50.39-1.28-75.33-.48-2.79.09-5.76.15-8.14-1.3-1.8-1.09-3.04-2.93-3.8-4.88-2.08-5.37-.81-11.39.48-17,3.84-16.64,11.27-48.2,18.11-63.85,2.95-6.75,6.49-13.35,11.58-18.67,10.64-11.13,26.46-15.27,41.75-18.86.66,3.81,4.68,6.08,8.46,6.9,3.36.73,6.97.74,10.15-.57,3.18-1.31,5.86-4.09,7.39-8.64,11.72-1.06,19.12-1.03,24.29-.27,6.83.99,13.45,5.96,18.03,10.95,9.52,10.38,14.46,19.13,24.48,31.17,8.61-21.77,13.6-44.97,13.15-69.22,2.14,4.92,29.64,4.44,32.57-3.37-1.93,28.9-3.92,58.12-12.7,85.72-2.83,8.88-6.44,17.71-12.51,24.79s-14.93,12.23-24.25,11.97c-9.32-.26-15.28-2.82-21.29-14.33-1.03,1.64-2.07,3.28-2.57,5.22-.07,12.32,1.09,26.69,1.26,38.79-27.47,4.35-56.28.67-83.88-1.1-.07-8.16.06-16.33-.53-23.35Z"/>
    <path d="m125.82,117.9c-.27-.99.35-2.02,1.39-2.31,1.04-.29,2.11.28,2.38,1.27.27.99-.35,2.02-1.39,2.31-1.04.29-2.11-.28-2.38-1.27Z"/>
    <path d="m152.84,108.5c-.27-.99.35-2.02,1.39-2.31,1.04-.29,2.11.28,2.38,1.27.27.99-.35,2.02-1.39,2.31s-2.11-.28-2.38-1.27Z"/>
    <path d="m192.53,293.81c-.43,0-.79-.35-.8-.78,0-.44.34-.8.78-.81l2.21-.05c-.79-5.29-.77-11.31-.75-17.65.02-5.72.04-11.64-.49-17.88-.04-.44.29-.82.73-.86.44-.03.82.29.86.73.53,6.31.51,12.26.49,18.02-.02,6.64-.04,12.92.87,18.29.04.23-.02.46-.17.64-.15.18-.37.28-.6.29l-3.12.07h-.02Z"/>
    <g>
      <path class="cls-1" d="m.8.8v357.29h302.6V.8H.8Zm278.91,288.13H22.8V37.82h256.9v251.11Z"/>
      <path d="m303.4,358.88H.8c-.44,0-.8-.36-.8-.8V.8c0-.44.36-.8.8-.8h302.6c.44,0,.8.36.8.8v357.29c0,.44-.36.8-.8.8Zm-301.81-1.59h301.01V1.59H1.59v355.69Zm278.11-67.56H22.8c-.44,0-.8-.36-.8-.8V37.82c0-.44.36-.8.8-.8h256.9c.44,0,.8.36.8.8v251.11c0,.44-.36.8-.8.8Zm-256.1-1.59h255.31V38.61H23.6v249.52Z"/>
    </g>
    <path d="m149.12,128.2c-.21,0-.42-.08-.58-.25-.3-.32-.29-.82.03-1.13l2.05-1.95c.08-.08.14-.14.18-.19-.1-.07-.25-.16-.3-.2-3.26-1.92-5.49-5.27-5.94-8.94-.05-.44.26-.83.69-.89.43-.05.83.26.89.69.4,3.19,2.33,6.09,5.17,7.77.36.21,1.11.66,1.14,1.5.02.69-.49,1.18-.73,1.41l-2.05,1.95c-.15.15-.35.22-.55.22Zm1.76-3.44h0,0Z"/>
    <path class="cls-1" d="m142.43,296.05c5.1.01,10.2.65,15.14,1.9,1.72.43,3.44.95,4.97,1.84,3.28,1.9,5.4,5.38,6.5,9.01.26.86.48,1.76.96,2.53.48.77,1.28,1.4,2.19,1.4.9,0,1.8-.85,1.46-1.56.5.69.76,1.52,1.16,2.28s1.01,1.48,1.85,1.64c1.49.28,2.65-1.29,3.08-2.75.71-2.44.49-5.06.06-7.57-.6-3.49-1.61-6.92-3.26-10.25,3,1.11,4.92,4.11,5.85,7.17s1.11,6.3,1.84,9.41c.28,1.18.99,2.59,2.2,2.47.94-.1,1.47-1.11,1.75-2.01,1.32-4.32.48-8.97-.37-13.41,2.57,2.42,4.25,5.6,6.07,8.63.36.6.75,1.22,1.32,1.63.57.41,1.38.57,1.99.21.72-.44.87-1.41.87-2.25,0-5.36-3.25-10.17-6.85-14.15-3.13-3.46-6.65-6.61-10.71-8.91-4.06-2.3-8.67-3.73-13.23-3.67-5.2-.7-10.4-1.4-15.6-2.1-.92-.12-1.9-.24-2.72.19-.52.27-.92.73-1.28,1.19-3.86,4.87-5.82,11.21-5.24,17.13Z"/>
    <path d="m134.9,114.26c-.12,0-.24-.03-.35-.08-.39-.19-.56-.67-.36-1.07,1.28-2.61,4.02-4.59,6.98-5.03,1.84-.28,4,.23,4.7,1.96.16.41-.04.87-.44,1.04-.41.16-.87-.04-1.04-.44-.35-.88-1.77-1.16-2.99-.98-2.46.37-4.73,2-5.79,4.16-.14.28-.42.45-.72.45Z"/>
    <path d="m106.36,125.72c-.3,0-.59-.17-.73-.47-.18-.4,0-.87.4-1.05l8.26-3.73c.4-.18.87,0,1.05.4.18.4,0,.87-.4,1.05l-8.26,3.73c-.11.05-.22.07-.33.07Z"/>
    <path d="m172.07,313.67c-1.49,0-2.72-1.26-3.5-3.57l-.13-.39c-.84-2.52-1.71-5.12-3.44-7.02-1.68-1.86-4.22-3.26-7.54-4.15-3.73-1.01-8.16-1.16-11.1-1.26-.99-.03-1.84-.06-2.45-.12-.44-.04-.76-.43-.72-.86s.43-.76.86-.72c.57.05,1.4.08,2.37.11,3.01.1,7.55.26,11.46,1.31,3.62.98,6.42,2.53,8.31,4.62,1.95,2.15,2.87,4.91,3.76,7.58l.13.39c.26.78.99,2.58,2.09,2.48.28-.03.5-.15.69-.38.46-.58.67-1.77.52-2.97-.49-3.83-1.78-7.61-3.72-10.95-.22-.38-.09-.87.29-1.09.38-.22.87-.09,1.09.29,2.05,3.52,3.41,7.51,3.93,11.55.17,1.29.03,3.06-.86,4.16-.46.57-1.08.91-1.79.97-.08,0-.16.01-.24.01Z"/>
    <path d="m177.59,315.88c-.69,0-1.36-.27-1.86-.65-1.05-.8-1.88-2.81-2.29-5.52-.07-.43.23-.84.67-.91.43-.07.84.23.91.67.43,2.86,1.26,4.17,1.68,4.49.36.28.95.44,1.32.21.38-.24.54-.88.64-1.47,1.04-5.96.12-12.18-2.64-17.97-.15-.31-.08-.68.17-.92.25-.24.62-.29.93-.12,2.66,1.43,4.87,4.06,6.24,7.4,1.24,3.02,1.7,6.26,2.01,9.3.06.62.12,1.18.36,1.62.19.34.53.57.79.53.33-.06.64-.53.87-1.34,1.92-6.78.38-13.89-4.12-19.04-.29-.33-.26-.83.08-1.12.33-.29.83-.26,1.12.08,4.85,5.55,6.52,13.22,4.46,20.52-.42,1.47-1.13,2.3-2.13,2.47-1.08.18-2.01-.53-2.45-1.33-.4-.72-.48-1.51-.55-2.21-.3-2.94-.74-6.04-1.9-8.88-.81-1.97-1.93-3.66-3.27-4.95,2,5.3,2.56,10.86,1.62,16.23-.16.93-.45,1.96-1.35,2.54-.4.26-.85.37-1.28.37Z"/>
    <path d="m196.51,309.85c-.08,0-.16,0-.24-.02-.98-.13-1.53-.98-1.74-1.3l-.04-.06c-.73-1.02-1.37-1.93-1.94-2.73-2.53-3.57-3.68-5.2-5.49-7.24-.29-.33-.26-.83.07-1.12.33-.29.83-.26,1.12.07,1.88,2.11,3.12,3.87,5.6,7.38.57.81,1.21,1.71,1.94,2.73.02.03.05.07.08.12.1.15.36.56.61.59.15.02.39-.1.65-.34.28-.26.48-1.74.34-2.51-1.3-7.43-6.44-13.06-13.75-19.22-2.41-2.03-4.66-3.42-6.9-4.24-2.43-.9-5.09-1.22-7.65-1.53-2.92-.36-5.92-.63-8.83-.9-2.92-.27-5.93-.55-8.89-.91-.44-.05-.75-.45-.69-.89.05-.44.45-.74.89-.69,2.93.36,5.93.63,8.84.9,2.91.27,5.93.54,8.87.9,2.66.32,5.41.66,8.01,1.62,2.41.89,4.82,2.37,7.37,4.52,7.58,6.39,12.91,12.26,14.29,20.17.14.81.1,3.1-.84,3.96-.55.5-1.12.75-1.68.75Z"/>
    <path d="m190.07,261.82c-.17,0-.34-.05-.48-.16-.35-.27-.42-.77-.15-1.12,4.69-6.14,9.36-12.43,13.89-18.7.59-.82,1.05-1.51,1.09-2.25.04-.62-.24-1.29-.5-1.93l-12.87-31.14c-.17-.41.03-.87.43-1.04.41-.17.87.03,1.04.43l12.87,31.14c.3.73.68,1.65.62,2.63-.07,1.26-.84,2.32-1.39,3.09-4.53,6.28-9.22,12.58-13.91,18.73-.16.21-.39.31-.63.31Z"/>
    <path class="cls-1" d="m145.31,273.69c-6.66-.62-13.32-1.12-19.98-1.71-3.23-.29-6.45-.67-9.68-.91-1.42-.1-2.84-.2-4.26-.31.02.27.04.55.06.83-4.63-.19-9.53-.36-14.84-.53.5-2.39,1.14-5.19,1.87-8.22-1.69,0-3.39-.02-5.08-.03-10.71-.06-21.43.01-32.13.32-1.29,5.35-2.44,10.26-3.37,14.3-1.3,5.61-2.57,11.63-.48,17,.76,1.96,2,3.8,3.8,4.88,2.39,1.44,5.35,1.38,8.14,1.3,24.82-.8,49.69-.38,74.98.47-.35-3.03-.19-6.03.69-8.99.79-2.67,1.81-5.32,3.05-7.81,1.18-2.38,2.85-4.54,4.64-6.49,1-1.09,2.06-2.13,3.16-3.13-3.52-.33-7.03-.64-10.55-.97Z"/>
    <path d="m144.68,301.89s-.02,0-.03,0c-30.46-1.02-53.68-1.17-75.27-.48-2.65.09-5.94.19-8.58-1.41-2.25-1.36-3.49-3.62-4.13-5.28-2.25-5.79-.75-12.26.45-17.47,3-13.01,10.98-47.57,18.15-63.99,3.68-8.43,7.3-14.26,11.73-18.9,10.47-10.95,25.28-15.12,42.15-19.09.21-.05.44,0,.62.11.18.12.31.31.35.53.61,3.49,4.45,5.52,7.85,6.26,2.51.55,6.22.9,9.68-.53,3.19-1.32,5.59-4.14,6.94-8.16.1-.3.37-.51.68-.54,11.08-1,18.85-1.09,24.48-.27,8.57,1.24,15.79,8.25,18.5,11.2,5.36,5.84,9.28,11.18,13.43,16.83,3.07,4.17,6.23,8.48,10.21,13.33,8.77-22.61,13.01-45.37,12.6-67.66,0-.39.28-.73.66-.8.39-.06.77.16.89.54.45,1.37,4.18,2.86,11.3,2.81,8.75-.03,18.54-2.35,19.75-6.17.12-.38.51-.61.91-.54.4.08.67.43.65.84-1.9,28.55-3.87,58.07-12.73,85.91-2.42,7.62-6.05,17.36-12.66,25.07-6.78,7.92-16.08,12.51-24.87,12.25-9.27-.26-15.76-2.79-21.45-14.97-.19-.4-.01-.87.38-1.06.4-.19.87-.01,1.06.38,5.37,11.49,11.19,13.81,20.05,14.06,8.32.23,17.15-4.14,23.62-11.69,6.42-7.49,9.98-17.04,12.35-24.52,8.51-26.77,10.63-55.18,12.48-82.77-3.98,3.45-13.23,4.79-19.52,4.81-2.74.03-8.39-.21-11.24-2.04.12,22.23-4.33,44.9-13.23,67.4-.1.26-.34.45-.61.49-.28.05-.56-.06-.74-.28-4.43-5.32-7.83-9.96-11.13-14.45-4.13-5.61-8.02-10.92-13.32-16.7-2.59-2.83-9.49-9.53-17.55-10.7-5.41-.79-12.92-.71-23.6.23-1.53,4.21-4.17,7.19-7.67,8.63-3.04,1.26-6.71,1.47-10.63.62-3.64-.8-7.75-2.97-8.88-6.72-16.29,3.85-30.58,7.99-40.59,18.46-4.3,4.5-7.82,10.18-11.43,18.44-7.11,16.29-15.07,50.74-18.06,63.71-1.15,4.99-2.59,11.2-.52,16.53.55,1.43,1.6,3.36,3.47,4.49,2.24,1.36,5.14,1.26,7.7,1.18,21.35-.68,44.28-.55,74.19.44-.98-3.64.27-9.51,2.02-13.84l.14-.35c1.49-3.68,3.27-8.11,7.59-10.44-18.33-2.24-32.73-3-56.69-3.76-.24,0-.45-.12-.6-.3-.15-.18-.2-.42-.15-.65,1.1-5.26,2.85-12.33,4.7-19.81,2.34-9.44,4.75-19.2,5.88-25.49.07-.39.43-.68.82-.65.4.02.72.33.76.73.7,8.28,1.41,15.49,2.09,22.47.69,6.98,1.4,14.2,2.09,22.49,0,.07,0,.13,0,.19,16.63.7,28.96,1.62,44.46,3.61.38.05.67.36.69.75.02.38-.23.73-.61.82-5.83,1.42-7.81,6.33-9.56,10.66l-.14.35c-1.89,4.67-3.06,10.88-1.63,13.72.13.25.11.55-.04.79-.15.23-.4.37-.67.37Zm-47.09-31.59c4.66.15,8.96.3,13,.47-.7-8.28-1.41-15.49-2.09-22.46-.53-5.39-1.07-10.91-1.61-16.96-1.27,5.86-3.06,13.09-4.81,20.14-1.74,7.03-3.39,13.7-4.49,18.82Z"/>
    <path d="m158.04,279.06s-.08,0-.12,0c-.44-.06-.74-.47-.67-.9.09-.64-.08-1.34-.46-1.86-.15-.21-.32-.31-.37-.32-.42.12-.86-.14-.97-.56-.12-.42.14-.86.56-.98.72-.2,1.52.16,2.07.92.63.87.9,1.97.75,3.03-.06.4-.4.68-.79.68Z"/>
    <path d="m146.21,302.45c-.97,0-2.07-.44-2.49-1.48-.16-.41.03-.87.44-1.04.41-.16.87.03,1.04.44.15.36.72.53,1.18.47,1.02-.11,1.93-.9,2.69-1.65.86-.85,1.66-1.77,2.4-2.73.27-.35.77-.42,1.12-.15.35.27.42.77.15,1.12-.78,1.02-1.63,1.99-2.54,2.89-.95.95-2.13,1.94-3.64,2.11-.11.01-.22.02-.34.02Z"/>
    <path d="m235.2,146.98c-.4,0-.75-.31-.79-.72-.05-.54.13-1.1.51-1.58.31-.38.69-.65,1.02-.86,1.16-.73,2.89-1.2,5.31-1.44.44-.04.83.28.87.71.04.44-.28.83-.71.87-2.13.21-3.68.61-4.61,1.2-.22.14-.47.31-.63.51-.11.14-.18.3-.17.42.04.44-.27.83-.71.87-.03,0-.05,0-.08,0Z"/>
    <path d="m267.79,144h-.02c-.44,0-.79-.37-.78-.81,0-.04-.04-.13-.14-.21-.15-.13-.39-.22-.58-.28-.68-.22-1.39-.32-2.11-.29-.43.02-.81-.33-.82-.77-.01-.44.33-.81.77-.82.9-.03,1.79.09,2.65.37.33.11.76.27,1.12.58.46.39.71.92.7,1.46,0,.43-.36.78-.8.78Z"/>
    <path d="m139.18,190.23c-5.46,0-10.88-3.16-13.47-7.97-.21-.39-.06-.87.32-1.08.39-.21.87-.06,1.08.32,2.5,4.63,7.9,7.54,13.14,7.09.44-.04.82.29.86.72.04.44-.29.82-.73.86-.4.03-.8.05-1.2.05Z"/>
    <path d="m126.33,191c-.1,0-.19-.02-.29-.05-2.51-.97-4.46-3.31-4.95-5.95-.08-.43.2-.85.64-.93.43-.08.85.2.93.64.4,2.12,1.95,3.99,3.96,4.76.41.16.61.62.46,1.03-.12.32-.42.51-.74.51Z"/>
    <path d="m89.68,84.78c-.08,0-.16-.01-.23-.04-.42-.13-.66-.57-.53-1,.8-2.61,2.39-5.11,4.73-7.42,2.08-2.07,4.52-3.76,6.85-5.28.37-.24.86-.14,1.1.23.24.37.14.86-.23,1.1-2.25,1.47-4.61,3.11-6.6,5.08-2.14,2.13-3.6,4.4-4.33,6.76-.11.34-.42.56-.76.56Z"/>
    <path d="m218.54,222.21c-.17,0-.34-.05-.49-.17-.35-.27-.41-.77-.14-1.12,1.69-2.18,3.05-4.28,4.17-7.42.15-.41.6-.63,1.02-.48.41.15.63.6.48,1.02-1.2,3.34-2.63,5.56-4.41,7.86-.16.2-.39.31-.63.31Z"/>
    <path d="m87.53,272.57c-.39,0-.73-.28-.79-.68-.07-.43.23-.84.67-.91,3.96-.61,7.4-.79,11.9-.64.44.02.78.38.77.82-.01.44-.38.8-.82.77-4.39-.15-7.75.03-11.6.62-.04,0-.08,0-.12,0Z"/>
    <path d="m107.33,132.53c-.31,0-.6-.18-.73-.48-1.01-2.33-1.54-4.91-1.53-7.45,0-.44.36-.79.8-.79h0c.44,0,.8.36.79.8,0,2.32.48,4.68,1.4,6.81.17.4-.01.87-.41,1.05-.1.04-.21.07-.32.07Z"/>
    <g class="cls-2">
      <path d="m111.06,65.53c-.67-.12-1.29.16-1.92.35-.99.35-1.96.74-2.9,1.2-5.64,2.51-10.35,6.72-14.08,11.59-.97,1.3-1.79,2.7-2.66,4.07-.47.85-1.17,1.71-1.17,2.72-.15,2.51,3.4,3.32,4.43,1.04,1.58-3.45,5.58-8.49,8.7-10.92,2.96-2.44,3.75-2.84,6.76-4.3.85-.43,1.72-.84,2.61-1.18.77-.24,1.57-.62,1.9-1.42.62-1.29-.26-2.91-1.66-3.13Z"/>
    </g>
    <g class="cls-2">
      <path d="m153.99,90.56c-.53-.45-1.32-.49-1.92-.18-.22.09-1.32.63-1.56.78-1.71.85-3.38,1.78-5.15,2.51-3.41,1.33-6.74,2.87-10.28,3.82-4.21,1.38-8.09,2.12-13.25,2.8-4.59.5-8.28.1-13.36-.85-.85-.1-1.82-.56-2.59-.02-.96.66-.58,2.3.58,2.45,5.55,1.02,11.21,2.04,16.86,1.28,3.3-.36,6.57-.96,9.79-1.73,2.55-.7,5.03-1.61,7.53-2.48,3.75-1.4,7.54-2.71,11.14-4.49.59-.27,1.15-.59,1.72-.9.32-.2.68-.4.85-.76.5-.7.28-1.72-.37-2.25Z"/>
    </g>
    <g class="cls-2">
      <path d="m152.54,166.7c-.19-.68-.38-1.36-.58-2.04-.45-1.27-.84-2.56-1.08-3.88-.33-1.23-.67-2.46-1.01-3.68-.04-.14-.02-.27.03-.37-.03-.09-.07-.18-.1-.27-.11-.28,0-.5.19-.62-.86-.61-1.97.22-2.89.64-.64.29-1.4.63-2.83.97-1.16.31-4.84.48-5.91.71-.38.11-.63.34-.77.62-.64-.28-1.28-.55-1.91-.83-.41-.18-.83-.36-1.24-.55-.99,0-1.97-.03-2.95-.12,0,.12,0,.24,0,.35,0,.15,0,.3-.02.45-.02.11-.06.21-.09.32-.13.4-.27.79-.39,1.19.08.07.17.14.28.2,3.67,1.86,7.44,3.53,11.05,5.52,1.8,1,3.61,1.97,5.43,2.94.79.36,1.57.85,2.43,1.03,0,0-.02,0-.03,0,.02,0,.03,0,.05,0,.03,0,.07.01.1.02.07.01.13.03.2.04.1.02.19.03.29.03.01,0,.03,0,.04,0,0,0,0,0-.01,0,.17,0,.34,0,.5-.05.64-.15,1.05-.64,1.21-1.21.11-.12.19-.26.25-.41-.08-.33-.16-.65-.25-.97Z"/>
    </g>
    <g class="cls-2">
      <path d="m231.94,260.01c-.77-.09-.58.08-1.08.21-2.68.91-4.1.89-6.99.9-3.32.14-7.46-1.18-9.78-2.15-.16-.09-1.31-.65-1.53-.84-.31-.17-1.45-1.01-1.76-1.23-.87-.69-1.71-1.43-2.4-2.3,0-.01-.01-.02-.02-.03-1.53-2.25-2.68-4.74-3.8-7.21-.03-.06-.05-.13-.09-.21-.26-.57-.31-1.25-.73-1.73-.19-.27-.43-.45-.68-.58-.21.22-.41.44-.62.67-.02.12-.08.25-.2.36-.24.22-.48.46-.72.69-1.29,1.53-2.49,3.12-3.62,4.77.03.18.08.37.19.55.63,1.04,1.34,2.02,2.09,2.96,1.73,3.78,4.17,7.35,8.3,8.54,2.76.79,5.64,1.16,8.48,1.49,1.73.15,3.45-.15,5.17-.23,1.29-.04,2.57-.1,3.86-.05.77-.05,1.61.1,2.34-.18.64-.22.98-.88.96-1.52.63-.15,1.25-.34,1.85-.58.43-.21.99-.29,1.29-.69.47-.53.14-1.44-.53-1.61Z"/>
    </g>
    <g class="cls-2">
      <path d="m267.77,142.92c-.12-.47-.5-.82-.96-.96-.09-.03-.18-.04-.28-.04-.24-.79-1.32-1.08-1.9-.47-.51.65-1.04,1.27-1.64,1.84-.15.15-.31.3-.47.45-.86.32-1.93.68-3.24,1.03-1.46.51-2.93,1.07-4.46,1.3-1.74.26-1.9.26-4.04.47-1.85.25-5.33,1.21-8.02,1.27-3.26.84,1-5.41-1.75-4.81-.73.16-2.63.29-3.72.97-.4.25-.83.5-1.08.92-.03.06-.05.11-.07.17-.06,0-.12,0-.18,0-1.21.1-1.56,1.84-.49,2.43,2.85,1.49,6.04,2.35,9.26,2.43,1.1,0,2.2-.17,3.3-.16,1.05-.01,2.11.05,3.16-.07,2.19-.24,4.35-.66,6.51-1.09.04,0,.07-.01.1-.01-.07.01-.17.02-.25.03.09-.01.18-.02.27-.04.14-.02.11-.02.02,0,1.01-.13,2.02-.27,2.98-.61,2.8-.98,5.71-2.11,6.45-3.42.14-.18.26-.37.36-.58,0,0,0,.02,0,.01.19-.32.24-.71.14-1.06Z"/>
    </g>
    <g>
      <g class="cls-2">
        <path d="m257.13,120.73s0,0,0,0c.23-.18.32-.25,0,0Z"/>
      </g>
      <g class="cls-2">
        <path d="m246.52,125.55c-.09-.02-.2-.03-.24-.03.08.01.16.02.24.03Z"/>
      </g>
      <g class="cls-2">
        <path d="m246.67,125.57c-.05,0-.1-.01-.15-.02.11.02.2.03.15.02Z"/>
      </g>
    </g>
    <g>
      <path class="cls-1" d="m227.58,105.11c7.75,8.51,14.85,17.6,21.24,27.17,3.38,5.07,6.94,10.58,12.61,12.81,1.23.48,2.57.79,3.87.57,1.94-.34,3.53-1.85,4.34-3.64.81-1.79.93-3.82.77-5.78-.12-1.51-.41-3.04-1.15-4.36-.68-1.23-1.63-2.33-2.73-3.2-3.24-2.56-2.01-3.79-2.66-6.48-1.87-7.83-13.38-7.82-17.98-14.54,1.15-.79,2.31-1.59,3.24-2.62s1.64-2.34,1.7-3.73c.08-2.12-1.29-3.98-2.48-5.8,15.02-5.35,30.69-8.85,46.48-10.76-3.46-6.74-6.26-13.8-9.05-20.85-3.79-9.56-7.57-19.13-11.66-28.18-9.97,10.03-22.09,17.61-34.09,25.1-8.24,5.14-16.51,10.3-25.32,14.41-4.7,2.19-9.96,4.48-12.07,9.22-1.33,2.99-1.11,6.49-.06,9.59,1.05,3.1,2.86,5.88,4.68,8.6,1.5,2.23,3.31,4.64,6.09,5.32,4.97.15,9.97-.92,14.23-2.82Z"/>
      <path class="cls-1" d="m292.35,43.51c2.43,7.96,5.58,15.71,9.4,23.11,2.37-.4,4.25-2.37,5.18-4.59.93-2.22,1.06-4.69,1.11-7.1.02-.99.02-2-.26-2.95-.25-.85-.73-1.61-1.21-2.34-1.19-1.81-2.51-3.59-4.28-4.84-2.86-2.02-6.81-2.38-9.94-1.28Z"/>
      <path class="cls-3" d="m294.43,85.51c-6.72-16.94-13.45-33.89-20.18-51.1,3.72-3.48,6.67-7.84,8.55-12.64,0,0,27.18,65.25,27.21,64.98-4.97-1.72-10.33-2.25-15.58-1.24Z"/>
      <path d="m239.28,99.54c-.3,0-.59-.17-.72-.46-4.57-9.91-8.56-20.22-11.86-30.66-.11-.34.03-.72.33-.91,3.3-2.09,6.74-4.18,10.07-6.22,19.19-11.72,39.03-23.83,44.89-40.62.11-.31.4-.52.73-.53.34-.01.63.18.76.49l27.58,66.02c.17.41-.02.87-.43,1.04-.16.07-.33.08-.49.04-.21.14-.48.17-.73.08-18.96-7.42-69.34,11.5-69.84,11.69-.09.04-.19.05-.28.05Zm-10.88-31.02c3.17,9.94,6.96,19.77,11.29,29.22,6.33-2.35,50.29-18.13,69.35-11.76l-26.28-62.91c-6.8,16.35-26.13,28.15-44.84,39.57-3.15,1.92-6.39,3.9-9.53,5.87Z"/>
      <path d="m294.13,84.96c-.32,0-.61-.19-.74-.5l-19.45-48.32c-.16-.41.03-.87.44-1.04.41-.16.87.03,1.04.44l19.45,48.32c.16.41-.03.87-.44,1.04-.1.04-.2.06-.3.06Z"/>
      <path d="m302.5,67.67c-.26,0-.52-.13-.67-.36-.24-.37-.14-.86.23-1.1,2.64-1.72,4.59-4.63,5.22-7.79.63-3.16-.06-6.62-1.83-9.25-.86-1.28-1.99-2.41-3.34-3.35-2.3-1.61-5.81-2.78-8.76-1.26-.39.2-.87.05-1.07-.34-.2-.39-.05-.87.34-1.07,3.58-1.85,7.72-.5,10.4,1.37,1.51,1.06,2.77,2.32,3.74,3.76,2.01,2.97,2.79,6.88,2.08,10.45-.71,3.57-2.92,6.87-5.92,8.81-.13.09-.28.13-.43.13Z"/>
      <path d="m215.99,109.03c-1.34,0-2.66-.24-3.92-.82-3.14-1.44-5.02-4.54-6.82-7.85-1.46-2.68-3.11-5.71-3.8-9.08-.78-3.79-.12-7.4,1.8-9.91,1.54-2.01,3.82-3.23,5.65-4.21,5.89-3.16,11.76-6.26,18.68-9.46.4-.18.87-.01,1.06.39.19.4.01.87-.39,1.06-6.88,3.19-12.72,6.28-18.59,9.42-1.7.91-3.8,2.04-5.14,3.78-1.64,2.14-2.19,5.28-1.51,8.62.65,3.13,2.24,6.06,3.64,8.64,1.67,3.07,3.39,5.92,6.09,7.16,3.67,1.68,7.95-.02,12.02-1.92,2.56-1.19,4.9-2.32,7.15-3.42,2.26-1.1,4.61-2.24,7.18-3.43.4-.18.87-.01,1.06.39.19.4.01.87-.39,1.06-2.56,1.19-4.9,2.33-7.16,3.42-2.26,1.1-4.6,2.24-7.18,3.43-2.97,1.38-6.26,2.75-9.44,2.75Z"/>
      <path d="m263.78,146.98c-4.17,0-7.78-3.34-9.29-4.98-2.89-3.12-5.18-6.79-7.39-10.34-.5-.81-1.01-1.62-1.52-2.42-5.41-8.49-11.7-16.41-18.7-23.54-.31-.31-.3-.82,0-1.13.31-.31.82-.3,1.13,0,7.08,7.21,13.45,15.21,18.91,23.8.51.81,1.02,1.62,1.53,2.44,2.17,3.49,4.42,7.09,7.2,10.1,1.59,1.71,5.73,5.54,9.97,4.18,3.82-1.23,5.44-6.39,4.35-10.18-.98-3.4-3.3-5.22-6.52-7.73-.61-.47-1.24-.97-1.89-1.5l-.19-.15c-4.89-3.93-9.98-9.14-15.13-15.5-1.33-1.64-2.6-4.23-3.95-6.97-.74-1.5-1.5-3.04-2.26-4.4-.21-.38-.08-.87.31-1.08.38-.21.87-.08,1.08.31.78,1.4,1.55,2.96,2.3,4.48,1.31,2.66,2.54,5.17,3.76,6.67,5.08,6.27,10.09,11.41,14.89,15.26l.19.16c.65.52,1.27,1.01,1.87,1.48,3.32,2.6,5.94,4.65,7.07,8.54,1.3,4.51-.6,10.6-5.39,12.14-.79.25-1.57.37-2.33.37Z"/>
      <path d="m246.46,108.44c-.21,0-.41-.08-.57-.24-.31-.31-.3-.82.01-1.13l2.79-2.73c.36-.35.72-.71.97-1.1.54-.88.59-2.15.13-3.39-.45-1.22-1.29-2.29-2.1-3.32-.27-.35-.21-.85.14-1.12.35-.27.85-.21,1.12.14.84,1.08,1.8,2.3,2.33,3.75.63,1.7.53,3.49-.27,4.78-.35.56-.81,1.01-1.21,1.41l-2.79,2.73c-.16.15-.36.23-.56.23Z"/>
      <path d="m209.42,87.18c-.29,0-.56-.16-.71-.43-.2-.39-.05-.87.34-1.07,5.13-2.68,10.45-5.13,15.82-7.27.41-.16.87.04,1.03.44.16.41-.04.87-.44,1.03-5.32,2.12-10.59,4.54-15.67,7.2-.12.06-.24.09-.37.09Z"/>
      <path d="m212.48,93.68c-.31,0-.6-.18-.73-.48-.18-.4,0-.87.41-1.05,5.26-2.3,10.64-4.54,16-6.63.41-.16.87.04,1.03.45.16.41-.04.87-.45,1.03-5.34,2.09-10.7,4.31-15.94,6.61-.1.05-.21.07-.32.07Z"/>
      <path d="m215.49,100.73c-.29,0-.57-.16-.71-.44-.2-.39-.04-.87.36-1.07,5.19-2.59,10.58-4.91,16.02-6.89.41-.15.87.06,1.02.48.15.41-.06.87-.48,1.02-5.38,1.96-10.72,4.26-15.85,6.82-.11.06-.24.08-.36.08Z"/>
      <path d="m307.73,41.22c-.21,0-.42-.08-.58-.25-.3-.32-.29-.82.03-1.13,4.84-4.56,8.15-10.74,9.32-17.39.08-.43.49-.72.92-.65.43.08.72.49.65.92-1.23,6.98-4.71,13.47-9.79,18.27-.15.15-.35.22-.55.22Z"/>
      <path d="m312.68,47.8c-.26,0-.51-.13-.67-.36-.24-.37-.14-.86.23-1.1,3.83-2.51,7.93-4.62,12.17-6.27.41-.16.87.04,1.03.45.16.41-.04.87-.45,1.03-4.14,1.61-8.13,3.67-11.87,6.12-.13.09-.29.13-.44.13Z"/>
      <path d="m333.91,59.09c-.12,0-.24-.03-.35-.08-5.61-2.74-11.86-4.01-18.08-3.69-.44.01-.81-.31-.84-.75-.02-.44.31-.81.75-.84,6.48-.34,13.01.99,18.86,3.84.4.19.56.67.37,1.06-.14.28-.42.45-.72.45Z"/>
      <path d="m286.21,81.75c-.1,0-.19-.05-.23-.14l-5.71-10.82c-.07-.13-.02-.29.11-.36.13-.07.29-.02.36.11l5.71,10.82c.07.13.02.29-.11.36-.04.02-.08.03-.12.03Z"/>
      <path d="m281.24,83.12c-.09,0-.19-.05-.23-.14l-2.91-5.41c-.07-.13-.02-.29.11-.36.13-.07.29-.02.36.11l2.91,5.41c.07.13.02.29-.11.36-.04.02-.08.03-.13.03Z"/>
      <path d="m275.7,85.17c-.09,0-.19-.05-.23-.14l-2.21-4.05c-.07-.13-.02-.29.11-.36.13-.07.29-.02.36.11l2.21,4.05c.07.13.02.29-.11.36-.04.02-.08.03-.13.03Z"/>
      <path d="m269.57,86.44c-.1,0-.19-.05-.24-.14l-1.6-3.12c-.07-.13-.02-.29.11-.36.13-.07.29-.02.36.11l1.6,3.12c.07.13.02.29-.11.36-.04.02-.08.03-.12.03Z"/>
      <g class="cls-2">
        <path d="m308.48,56.06c-.24-.93-1.5-1.25-2.2-.62-.42.35-.47.92-.69,1.38-.6,1.68-1.98,3.59-3.06,4.55-1.23,1.2-.93.5-2.05,1.64-1.18,1.74,1.08,3.76,2.67,2.4,2.82-1.92,3.51-3.89,4.74-6.31.29-.7.52-1.43.6-2.18.07-.29.12-.58-.01-.86Z"/>
      </g>
      <g class="cls-2">
        <path d="m307.95,82.17c-2.48-1.02-5.22-.76-7.84-1.03-6.06-.26-12.17.23-18.16,1.14-2.64.6-5.34.75-8.02,1.06-2.3.26-4.53.91-6.77,1.5-6.64,1.82-13.46,3-19.95,5.34-6.84,2.42-13.28,5.79-19.69,9.16-4.2,2.2-6.82,3.74-10.71,4.34-1.85.31-2.65.13-5.33-.17-.87-.18-1.96-.09-2.35.83-.58.99.19,2.38,1.34,2.44,2,.28,3.96.91,6,.78,4.57-.11,8.52-2.64,12.55-4.5.41-.18.82-.37,1.23-.56-.6.35-1.2.7-1.79,1.07-1.12.48-1.94,1.86-1.12,2.96.36.63,1.11.91,1.8.82.45.33,1.05.45,1.62.16,1.03-.58,2.13-1.03,3.26-1.41.9-.26,1.11-.41,2.65-.53.16,0,.57.02.85.06,1.27.36,1,.39,1.55.68.31.21.6.43.88.67,1.32,1.36,2.74,2.64,4.05,4.01.71.75,1.35,1.56,2.16,2.21.25.16.72.55,1.3,1.05.09.09.17.18.26.26.55.52,1.12,1.01,1.71,1.48.8.71,1.62,1.44,2.31,2.04.04.03,1.2,1.08,1.97,1.72.56.57,1.45,1.09,2.19.52.44-.25.66-.76.63-1.26-.17-.14-.34-.29-.49-.42-.73-.65-1.45-1.3-2.16-1.97-1.41-1.33-2.81-2.71-4.05-4.19-2.49-2.98-4.76-6.16-6.52-9.64-.18-.35-.06-.67.17-.86-.27-.42-.46-.73-.7-1.08,2.24-.69,2.51-.97,4.87-1.22.01,0,.02.01.03.02.93.36,2.05-.17,2.37-1.11.61-1.6-1.25-3.11-2.71-2.22,0,0,0,0,0,0-.07.02-.15.03-.22.05-.58.09-1.16.22-1.73.36,1.92-.74,3.6-1.39,4.2-1.6,5.4-1.63,9.57-2.86,15.68-4.3,3.89-.95,5.21-1.69,8.39-2.41,4.36-.78,8.67-1.82,13.07-2.31,1.39-.18,2.78-.4,4.19-.47,1.19-.12,1.23.01,1.79-.16.36-.09.67-.36.82-.7.02-.03.03-.06.05-.1,2.59-.18,5.15-.24,8.39.05,2.64.16,3.68.07,5.58.87.07.03.13.05.2.08.04.02.07.05.11.07.67.41,1.61.13,2.04-.5.94-1.59-.62-2.56-1.95-3.08Zm-67.05,16.63c-.11-.07-.22-.13-.34-.19.17-.06.34-.13.52-.2-.08.12-.14.25-.18.39Z"/>
      </g>
    </g>
    <g class="cls-2">
      <path d="m158.74,276.74c-.35-.59-1.06-.73-1.69-.79-1.05-.09-2.12-.21-3.17-.1-.53.01-1.08.1-1.46.5-.46.43-.56,1.04-.4,1.58-.5.41-.97.85-1.41,1.33-2.27,2.5-3.9,5.53-5.09,8.67-.72,2.26-.67,2.53-1.11,4.69-.58,3-.76,5.68.08,7.64,1.24,2.05,3.44,1.01,4.88-.21.22-.16.44-.33.66-.5.81-.57,1.41-1.4.88-2.39-.38-.64-1.12-.81-1.82-.7-.62.04-1.34-.05-1.8.46-.13.15-.23.3-.3.46-.01-.06-.02-.1-.03-.14,0-.03,0-.06-.01-.08-.12-2.07.11-2.19.5-4.33.66-3.31,1.53-5.31,2.79-7.61,1.35-2.4,1.8-3,3.57-4.88,1.04-.86.54-.59,1.63-1.04.44-.18.94-.25,1.38-.44.24-.02.48-.04.71-.06.03,0,.05-.01.07-.01,1,.02,1.68-1.18,1.15-2.03Z"/>
    </g>
    <g class="cls-2">
      <path d="m103.12,238.1c-1.13,0-1.24,1.28-1.5,2.11-.49,1.71-.89,3.45-1.4,5.15-1.28,4.82-3.19,9.06-4.28,11.64-.4,1.13-3.05,6.39-4.44,8.92-.41.77-.82,1.54-1.26,2.29-.28.49-.69.97-.7,1.56-.1.62.04,1.16.33,1.59,1.67-.35,3.41-.39,5.11-.4.1-.06.2-.14.29-.23,2.11-1.76,2.91-4.53,3.53-7.11.17-.69.3-1.39.45-2.09.11-.41.18-.87-.07-1.25-.11-.2-.27-.35-.46-.45,1.2-3.47,2.33-6.95,3.46-10.44.78-2.54,1.2-5.17,1.7-7.78.12-.82.42-1.65.41-2.47-.04-.58-.59-1.01-1.15-1.02Z"/>
    </g>
    <g class="cls-2">
      <path d="m162.65,300.2c-1.82-.71-4.06-2.26-7.15-2.53.11.01.19.03.25.03-.25-.03-.71-.07-.95-.04-.8.02-1.62.16-2.29.63-1.38,1.07-2.92,3-3.33,3.06-.01,0-.02.02-.03.03-.19.12-.39.23-.59.32-.41.15-.84.26-1.27.34-2.15.14-4.31-.22-6.45-.41-2.25-.24-4.52-.25-6.78-.4-2.55-.17-5.08-.45-7.62-.67-4.56-.53-9.14-.37-13.71-.6-3.62-.26-7.25-.05-10.88-.11-6.23-.03-12.69.26-18.92.64-4.17.35-13.23.71-16.84-.44-.98-.18-1.99-.97-2.96-.46-1,.55-.82,2.21.32,2.48,2.85,1.02,5.78,1.75,8.8,1.98,2.33.35,7.42.47,11.19.2,3.52-.26,7.06-.21,10.59-.41,3.79-.29,7.58-.1,11.37.05,2.27.04,4.55-.04,6.82.08,3.2.17,6.41.07,9.62.18,4.42.27,8.82.77,13.24,1,2.14.09,4.28.12,6.4.37,2.86.31,5.88.5,8.6-.59,1.82-.61,2.98-2.19,4.26-3.51.05,0,.09,0,.14,0,1.19.26.77.05,2.65.6,3.94,1.09,6.31,2.39,9.04,4.91.99,1.07.59.55,1.16,1.52.18.37.32.79.7,1.01,1.08.96,2.94.02,2.89-1.41-.5-3.26-5.49-6.44-8.26-7.87Z"/>
    </g>
    <path class="cls-1" d="m265.58,127.45c.58-1.01.63-.05.96-1.17s.38-2.36-.08-3.43c-.46-1.07-1.5-1.94-2.67-1.98-1.43-.05-2.61,1.06-3.58,2.11-1.65,1.8-3.23,3.69-4.42,5.83-.44.79-.8,1.87-.18,2.54.33.35.84.47,1.32.49,1.39.06,2.79-.52,3.72-1.56.4-.45.72-.98,1.15-1.4.43-.42,1.11-.97,1.32-1.53.6-1.63.58-2.73,2.47.1Z"/>
    <path class="cls-1" d="m262.12,122.81c.58-1.01,1.16-2.04,1.49-3.16.33-1.12.38-2.36-.08-3.43s-1.5-1.94-2.67-1.98c-1.43-.05-2.61,1.06-3.58,2.11-1.65,1.8-3.23,3.69-4.42,5.83-.44.79-.8,1.87-.18,2.54.33.35.84.47,1.32.49,1.39.06,2.66.49,3.58-.55.4-.45,4.39-4.05,4.54-1.85Z"/>
    <path class="cls-1" d="m258.92,117.32c.58-1.01,1.16-2.04,1.49-3.16s.38-2.36-.08-3.43c-.46-1.07-1.5-1.94-2.67-1.98-1.43-.05-2.61,1.06-3.58,2.11-1.65,1.8-3.23,3.69-4.42,5.83-.44.79-.8,1.87-.18,2.54.33.35.84,1.62,1.32,1.64,1.39.06,2.79-1.68,3.72-2.71.4-.45,4.26-3.03,4.41-.84Z"/>
    <path class="cls-1" d="m257.66,108.75c1.17,0,.03-4.25-.43-5.32-.46-1.07-1.5-1.94-2.67-1.98-1.43-.05-2.61,1.06-3.58,2.11-1.65,1.8-3.23,3.69-4.42,5.83-.44.79-.8,1.87-.18,2.53.33.35-.59,4.94-.11,4.96,1.39.06,3.09-.5,4.02-1.54.4-.45,4.27-6.61,7.37-6.61Z"/>
    <path class="cls-1" d="m243.16,113.76c1.87-2.35,6.19-7.49,3.72-8.86-1.25-.7-4.25.8-5.21,1.86-1.65,1.8-5.02,3.49-6.21,5.62-.44.79-2.14,5.35-1.53,6.01.33.35.02,4.65.5,4.67,1.39.06,7.07,1.64,8,.61.4-.45-3.2-4.97.72-9.91Z"/>
    <path d="m256.94,133.21c-.17,0-.35-.02-.52-.05-1.31-.25-1.82-.98-2.02-1.56-.88-2.53,2.82-7.08,3.98-8.42,1.3-1.5,2.86-3.11,5.01-3.37,1.86-.22,3.61,1.04,4.17,3,.54,1.89-.38,3.77-1.13,5.28l-.05.1c-.19.4-.67.56-1.07.36-.39-.19-.56-.67-.36-1.07l.05-.1c.65-1.33,1.4-2.84,1.03-4.14-.29-1.01-1.25-2-2.45-1.86-1.59.19-2.85,1.5-4,2.83-2.15,2.48-4.1,5.63-3.68,6.85.04.11.14.39.81.52,1.93.36,4.67-3.78,5.85-5.54.14-.22.27-.41.39-.58.25-.36.74-.46,1.11-.21.36.25.46.74.21,1.11-.11.16-.24.35-.38.56-1.49,2.23-4.18,6.28-6.95,6.28Z"/>
    <path d="m249.9,124.47c-.52,0-.98-.18-1.31-.51-.89-.9-1.27-4.09.14-7.26,1.45-3.26,4.32-7.24,7.2-8.29,2.2-.8,3.59-.23,4.37.39,1.36,1.09,1.98,3.28,1.66,5.86-.05.44-.45.74-.89.69-.44-.05-.75-.45-.69-.89.25-2-.16-3.69-1.07-4.42-.66-.53-1.62-.58-2.83-.14-2.33.85-4.93,4.38-6.28,7.44-1.28,2.88-.71,5.17-.45,5.5.04.04.19.05.36.01.76-.15,1.72-.93,1.94-1.45.17-.41.64-.59,1.05-.42.4.17.59.64.42,1.05-.45,1.06-1.88,2.16-3.11,2.39-.17.03-.33.05-.49.05Z"/>
    <path d="m253.72,130.47c-.71,0-1.43-.19-1.94-.71-.59-.59-.91-1.44-.97-2.59-.1-1.79.33-3.74,1.32-5.96,1.31-2.95,3.31-5.28,5.8-6.76,1.19-.7,3.68-1.15,5.52.07,1.12.74,2.36,2.36,1.88,5.85-.06.44-.46.74-.9.68-.44-.06-.74-.46-.68-.9.2-1.47.16-3.42-1.18-4.31-1.19-.79-2.98-.52-3.82-.02-2.2,1.3-3.98,3.39-5.16,6.03-.88,1.99-1.27,3.7-1.18,5.23.04.74.21,1.25.51,1.56.46.46,1.71.16,2-.04.33-.29.82-.25,1.11.08.29.33.25.84-.08,1.13-.37.33-1.28.66-2.22.66Z"/>
    <path d="m241.67,149.52s-.02,0-.03,0c-.44-.02-.78-.39-.76-.83.27-6.53-1.8-10.77-3.8-14.87-1.12-2.31-2.19-4.48-2.85-7.02l-.19-.71c-1-3.76-2.13-8.01-.57-11.83,1.02-2.5,3.05-4.39,5.03-6.11l.27-.24c1.19-1.04,2.83-2.46,4.21-3.2,1.83-.98,3.21-1.2,4.11-.66.41.25.9.76.9,1.8,0,3.41-.91,4.45-2.55,6.35-.35.41-.75.86-1.18,1.4-2.28,2.81-2.52,7.36-.58,10.82.22.38.08.87-.3,1.08-.38.22-.87.08-1.08-.3-2.25-4-1.94-9.3.73-12.6.45-.55.85-1.02,1.21-1.44,1.57-1.82,2.16-2.5,2.16-5.31,0-.11-.01-.37-.12-.43-.2-.12-.99-.13-2.54.7-1.22.65-2.78,2.01-3.91,3l-.27.24c-1.92,1.66-3.71,3.34-4.6,5.51-1.36,3.32-.35,7.13.63,10.82l.19.71c.63,2.38,1.65,4.49,2.74,6.72,2.09,4.28,4.24,8.7,3.96,15.63-.02.43-.37.76-.79.76Z"/>
    <path d="m247.44,119.2c-.6,0-1.09-.19-1.32-.3-2.04-.96-1.96-3.7-1.27-5.76l.22-.67c.83-2.48,1.68-5.05,3.16-7.3,1.47-2.25,4.92-5.39,7.89-4.29,2.87,1.07,2.66,4.34,2.52,6.51-.03.53-.07,1.03-.05,1.38.03.44-.31.82-.74.84-.44.03-.82-.31-.85-.74-.03-.45,0-.97.05-1.58.15-2.33.15-4.3-1.49-4.91-1.88-.71-4.69,1.68-6,3.67-1.36,2.07-2.18,4.54-2.98,6.93l-.23.67c-.36,1.08-.74,3.26.43,3.81.16.08.59.24,1.04.08.4-.15.75-.53,1.03-1.15.18-.4.66-.58,1.06-.39.4.18.57.66.39,1.06-.47,1.01-1.12,1.68-1.93,1.98-.33.12-.65.17-.95.17Z"/>
    <g>
      <path class="cls-1" d="m25.52,18.04c0-5.2,4.22-9.42,9.42-9.42s9.42,4.22,9.42,9.42-4.22,9.42-9.42,9.42-9.42-4.22-9.42-9.42Z"/>
      <path d="m34.94,28.26c-5.63,0-10.22-4.58-10.22-10.22s4.58-10.22,10.22-10.22,10.22,4.58,10.22,10.22-4.58,10.22-10.22,10.22Zm0-18.85c-4.76,0-8.63,3.87-8.63,8.63s3.87,8.63,8.63,8.63,8.63-3.87,8.63-8.63-3.87-8.63-8.63-8.63Z"/>
    </g>
    <path d="m135.15,18.84H56.55c-.44,0-.8-.36-.8-.8s.36-.8.8-.8h78.6c.44,0,.8.36.8.8s-.36.8-.8.8Z"/>
    <path d="m103.52,313.03H24.92c-.44,0-.8-.36-.8-.8s.36-.8.8-.8h78.6c.44,0,.8.36.8.8s-.36.8-.8.8Z"/>
    <path d="m80.13,326.33H24.92c-.44,0-.8-.36-.8-.8s.36-.8.8-.8h55.21c.44,0,.8.36.8.8s-.36.8-.8.8Z"/>
  </g>
</svg>