<?xml version="1.0" encoding="UTF-8"?>
<svg id="Layer_1" data-name="Layer 1" xmlns="http://www.w3.org/2000/svg" viewBox="0 0 369.35 440.54">
  <defs>
    <style>
      .cls-1 {
        fill: #fff;
      }

      .cls-2 {
        opacity: .13;
      }

      .cls-3 {
        fill: #acd4f7;
      }
    </style>
  </defs>
  <g>
    <g>
      <g>
        <path class="cls-1" d="m36.74,202.15c15.44,0,27.96,13,27.96,29.04,0,6.63-2.15,12.75-5.75,17.64l3.42,14.06-11.73-6.5c-4.1,2.44-8.84,3.85-13.9,3.85-15.44,0-27.96-13-27.96-29.04s12.52-29.04,27.96-29.04Z"/>
        <path d="m62.37,263.63c-.12,0-.25-.03-.36-.09l-11.36-6.29c-4.24,2.45-9.05,3.74-13.91,3.74-15.83,0-28.7-13.36-28.7-29.79s12.88-29.79,28.7-29.79,28.7,13.36,28.7,29.79c0,6.48-1.97,12.62-5.69,17.8l3.34,13.72c.07.29-.04.59-.27.77-.13.1-.29.15-.45.15Zm-11.73-7.98c.12,0,.25.03.36.09l10.25,5.68-3.02-12.41c-.05-.21,0-.44.12-.62,3.67-4.98,5.61-10.92,5.61-17.2,0-15.61-12.21-28.3-27.22-28.3s-27.22,12.7-27.22,28.3,12.21,28.3,27.22,28.3c4.74,0,9.42-1.29,13.52-3.74.12-.07.25-.1.38-.1Z"/>
      </g>
      <g>
        <path class="cls-3" d="m36.03,245.16l11.28-15.92c1.87-2.63,1.29-6.32-1.28-8.23-2.57-1.91-6.17-1.32-8.04,1.31l-1.96,2.76-1.96-2.76c-1.87-2.63-5.46-3.22-8.04-1.31-2.57,1.91-3.15,5.59-1.28,8.23l11.28,15.92Z"/>
        <path d="m36.03,245.9c-.24,0-.47-.12-.61-.31l-11.28-15.92c-2.09-2.96-1.45-7.11,1.44-9.25,1.4-1.04,3.11-1.46,4.82-1.19,1.73.27,3.24,1.22,4.26,2.67l1.35,1.91,1.35-1.91c1.02-1.44,2.54-2.39,4.26-2.67,1.71-.27,3.42.15,4.82,1.19,2.89,2.15,3.54,6.3,1.44,9.25l-11.28,15.92c-.14.2-.37.31-.61.31Zm-6.63-25.27c-1.05,0-2.06.34-2.93.98-2.25,1.67-2.75,4.9-1.12,7.2l10.67,15.06,10.67-15.06c1.63-2.3,1.13-5.53-1.12-7.2-1.08-.8-2.39-1.12-3.7-.91-1.33.21-2.49.94-3.29,2.06l-1.96,2.76c-.28.39-.93.39-1.21,0l-1.96-2.76c-.79-1.12-1.96-1.85-3.29-2.06-.26-.04-.52-.06-.78-.06Z"/>
      </g>
    </g>
    <g class="cls-2">
      <path d="m13.76,247.64c-1.23-2.28-2.39-4.61-3.54-6.94.09-.05.18-.09.29-.14,1.38-.36,1.84,1.29,2.54,2.12,1.4,1.89,2.1,3.04,3.2,4.25,2.88,2.95,7.32,4.98,11.56,7.63,5.01,2.92,10.49,2.46,15.38,1.33,2.26-.5,4.36-1.58,6.62-2.08,1.96-.42,3.84.5,5.35,1.68,1.21.94,2.5,1.76,3.82,2.54.74.46,1.46.94,2.17,1.43.3.17.52.46.61.79.33,1.09-.97,2.11-1.94,1.5-2.28-1.5-4.7-2.76-6.91-4.35-1.4-.9-1.79-.77-2.32-.75-2.25.6-4.33,1.77-6.6,2.37-6.62,1.81-13.19,1.57-18.99-2.4-3.36-2.26-7.1-4.1-10.05-6.9-.41-.67-.8-1.36-1.18-2.07Z"/>
    </g>
  </g>
  <g>
    <g>
      <g>
        <rect class="cls-1" x="27.13" y="27.25" width="169.29" height="96.32" rx="48.16" ry="48.16"/>
        <path d="m178.94,124.3H44.62c-10.05,0-18.23-8.18-18.23-18.23v-61.34c0-10.05,8.18-18.23,18.23-18.23h134.31c10.05,0,18.23,8.18,18.23,18.23v61.34c0,10.05-8.18,18.23-18.23,18.23ZM44.62,27.99c-9.23,0-16.74,7.51-16.74,16.74v61.34c0,9.23,7.51,16.74,16.74,16.74h134.31c9.23,0,16.74-7.51,16.74-16.74v-61.34c0-9.23-7.51-16.74-16.74-16.74H44.62Z"/>
      </g>
      <path d="m116.16,49.88H51.38c-.41,0-.74-.33-.74-.74s.33-.74.74-.74h64.78c.41,0,.74.33.74.74s-.33.74-.74.74Z"/>
      <path d="m102.84,66.08h-51.47c-.41,0-.74-.33-.74-.74s.33-.74.74-.74h51.47c.41,0,.74.33.74.74s-.33.74-.74.74Z"/>
      <path d="m124.64,82.29H51.38c-.41,0-.74-.33-.74-.74s.33-.74.74-.74h73.27c.41,0,.74.33.74.74s-.33.74-.74.74Z"/>
      <path d="m102.84,98.5h-51.47c-.41,0-.74-.33-.74-.74s.33-.74.74-.74h51.47c.41,0,.74.33.74.74s-.33.74-.74.74Z"/>
      <path d="m172.18,98.5h-47.54c-.41,0-.74-.33-.74-.74s.33-.74.74-.74h47.54c.41,0,.74.33.74.74s-.33.74-.74.74Z"/>
      <path d="m172.18,82.29h-27.59c-.41,0-.74-.33-.74-.74s.33-.74.74-.74h27.59c.41,0,.74.33.74.74s-.33.74-.74.74Z"/>
      <path d="m172.18,66.08h-47.54c-.41,0-.74-.33-.74-.74s.33-.74.74-.74h47.54c.41,0,.74.33.74.74s-.33.74-.74.74Z"/>
      <path d="m172.18,49.88h-37.17c-.41,0-.74-.33-.74-.74s.33-.74.74-.74h37.17c.41,0,.74.33.74.74s-.33.74-.74.74Z"/>
    </g>
    <g>
      <g>
        <circle class="cls-1" cx="33.04" cy="33.04" r="32.3" transform="translate(-10.23 15.4) rotate(-22.81)"/>
        <path d="m33.04,66.08C14.82,66.08,0,51.26,0,33.04S14.82,0,33.04,0s33.04,14.82,33.04,33.04-14.82,33.04-33.04,33.04Zm0-64.6C15.64,1.48,1.48,15.64,1.48,33.04s14.16,31.56,31.56,31.56,31.56-14.16,31.56-31.56S50.44,1.48,33.04,1.48Z"/>
      </g>
      <g>
        <g>
          <path class="cls-1" d="m20.5,40.48c1.65-1.78,4.35-1.97,6.03-.42s1.7,4.26.05,6.04-4.35,1.97-6.03.42c-1.68-1.55-1.7-4.26-.05-6.04Z"/>
          <path d="m23.28,48.31c-1.17,0-2.33-.41-3.23-1.25-1.98-1.83-2.02-5.01-.09-7.09,1.93-2.08,5.1-2.29,7.07-.46,1.98,1.83,2.02,5.01.09,7.09-1.04,1.13-2.46,1.71-3.84,1.71Zm.52-8.56c-.99,0-2,.42-2.75,1.23-1.37,1.48-1.37,3.72,0,4.99,1.37,1.27,3.61,1.1,4.98-.38,1.37-1.48,1.37-3.72,0-4.99-.62-.57-1.41-.85-2.22-.85Z"/>
        </g>
        <g>
          <path class="cls-3" d="m48.27,21.41c1.51-1.64,1.49-4.12-.04-5.54-1.54-1.42-4.01-1.25-5.53.38l-1.82,1.96h0c-3.08-2.85-8.02-2.5-11.05.77l-9.31,10.06-9.68,2.49,24.65,22.82,1.73-9.84,9.31-10.06c3.03-3.27,2.99-8.23-.09-11.08l1.82-1.96Z"/>
          <path d="m35.49,55.1c-.18,0-.36-.07-.5-.2l-24.65-22.82c-.2-.18-.28-.46-.22-.73.07-.26.27-.47.53-.54l9.47-2.43,9.16-9.9c1.59-1.72,3.72-2.76,6-2.91,2.04-.14,3.97.43,5.53,1.63l1.34-1.44c.86-.93,2.01-1.49,3.25-1.58,1.25-.09,2.43.32,3.33,1.15.9.83,1.39,1.98,1.4,3.23,0,1.24-.46,2.43-1.32,3.36h0l-1.34,1.44c1.31,1.46,2.03,3.35,2.05,5.39.02,2.28-.85,4.49-2.44,6.21l-9.16,9.9-1.7,9.62c-.05.27-.24.49-.49.57-.08.03-.16.04-.24.04ZM12.34,31.92l22.65,20.97,1.5-8.5c.02-.14.09-.27.19-.38l9.31-10.06c1.34-1.44,2.06-3.28,2.05-5.19-.02-1.88-.76-3.6-2.09-4.84-.14-.13-.23-.32-.24-.52,0-.2.06-.39.2-.53l1.82-1.96c.6-.65.93-1.48.92-2.34,0-.84-.34-1.6-.93-2.15-.59-.55-1.38-.81-2.22-.76-.85.06-1.66.45-2.26,1.1l-1.82,1.96c-.13.14-.32.23-.52.24-.2.01-.39-.06-.53-.2-1.34-1.24-3.1-1.84-4.99-1.71-1.9.13-3.68,1-5.01,2.44l-9.31,10.06c-.1.1-.22.18-.36.22l-8.36,2.15Zm35.92-10.5h0,0Z"/>
        </g>
      </g>
    </g>
    <g class="cls-2">
      <path d="m51.45,60.55c2.43-2.39,4.8-4.84,7.1-7.35.13-.14.25-.28.38-.42.6-1.12,1.24-2.23,1.87-3.34.76-1.57,1.55-3.12,2.32-4.68-.47.36-.84.97-1.19,1.55-.13.23-.76,1.08-1.01,1.42-1.91,2.3-3.98,4.47-6.3,6.35-1.84,1.74-6.35,4.31-8.53,5.05-3.78,1.08-3.52.8-7.03,1.1-3.01.24-6.02.62-9.05.39-4.1-.22-9.24-1.59-13.06-3.75-2.04-1.15-4.16-2.16-6.16-3.38-1.43-.95-2.59-1.92-3.72-2.83-1.26-1.19-1.18-1.39-2.49-3.22-.31-.6-.69-1.25-1.4-1.42-.26-.08-.52-.09-.76-.05,1.09,1.74,2.17,3.48,3.24,5.23,1.63,1.86,3.34,3.66,5.08,5.39.88.87,1.77,1.72,2.68,2.55,3.35,1.88,6.82,3.62,10.6,4.46,4.35.98,8.81,1.07,13.23.58,2.38-.2,4.78-.21,7.12-.74,2.48-.51,4.78-1.61,6.97-2.85.03-.02.07-.04.1-.06Z"/>
    </g>
  </g>
  <g>
    <path class="cls-1" d="m210.11,376.3c1.23-23.8-1.12-49.06-10.63-70.9-5.47,12.2-11.93,23.81-19.18,34.9-2.34-3.99-4.41-8.2-6.48-12.4-.53-1.08-1.06-2.16-1.59-3.24-2.91-5.92-5.82-11.84-8.47-17.87,3.55-14.37,7.48-28.65,12.04-42.72.63-1.94,1.28-3.89,2.36-5.62,2.24-3.57,6.08-5.79,9.86-7.67,10.38-5.19,21.45-9.01,32.6-11.17,1.04-1.64,2.56-2.98,4.32-3.81,1.54,5.88,5.19,11,9.43,15.35,1.95,2,4.52,4,7.16,3.72,7.21-2.47,11.32-9.93,17.37-14.57,2.11-1.62,4.67-2.95,7.54-2.69,6.22,1.2,12.45,2.4,18.67,3.6,10.27,1.98,20.89,4.11,29.44,10.14,1.86,1.32,3.63,2.83,5.4,4.92,9.84,22.33,17.36,45.63,23.38,69.27,2.93,11.5,5.52,23.55,2.95,35.41-1.55,3.5-4.14,6.46-7.06,8.93-1.78,1.51-3.74,2.87-5.94,3.64-2.51.87-5.21.93-7.86.98-5.63.11-11.25.22-16.88.33l-98.42,1.5Z"/>
    <g>
      <g>
        <path class="cls-1" d="m86.53,106.75v333.04h282.07V106.75H86.53Zm259.98,268.58H107.05v-234.07h239.47v234.07Z"/>
        <path d="m368.6,440.54H86.53c-.41,0-.74-.33-.74-.74V106.75c0-.41.33-.74.74-.74h282.07c.41,0,.74.33.74.74v333.04c0,.41-.33.74-.74.74Zm-281.33-1.48h280.59V107.5H87.27v331.56Zm259.24-62.98H107.05c-.41,0-.74-.33-.74-.74v-234.07c0-.41.33-.74.74-.74h239.47c.41,0,.74.33.74.74v234.07c0,.41-.33.74-.74.74Zm-238.73-1.48h237.98v-232.59H107.79v232.59Z"/>
      </g>
      <g>
        <path class="cls-1" d="m109.57,122.83c0-4.85,3.93-8.78,8.78-8.78s8.78,3.93,8.78,8.78-3.93,8.78-8.78,8.78-8.78-3.93-8.78-8.78Z"/>
        <path d="m118.36,132.35c-5.25,0-9.53-4.27-9.53-9.53s4.27-9.53,9.53-9.53,9.53,4.27,9.53,9.53-4.27,9.53-9.53,9.53Zm0-17.57c-4.43,0-8.04,3.61-8.04,8.04s3.61,8.04,8.04,8.04,8.04-3.61,8.04-8.04-3.61-8.04-8.04-8.04Z"/>
      </g>
      <path d="m211.77,123.57h-73.27c-.41,0-.74-.33-.74-.74s.33-.74.74-.74h73.27c.41,0,.74.33.74.74s-.33.74-.74.74Z"/>
      <path d="m182.28,397.8h-73.27c-.41,0-.74-.33-.74-.74s.33-.74.74-.74h73.27c.41,0,.74.33.74.74s-.33.74-.74.74Z"/>
      <path d="m160.48,410.2h-51.47c-.41,0-.74-.33-.74-.74s.33-.74.74-.74h51.47c.41,0,.74.33.74.74s-.33.74-.74.74Z"/>
    </g>
    <path class="cls-1" d="m210.05,338.98c-6.65,4.18-11.8,10.66-14.46,18.05-.36,1-.68,2.09-.4,3.11.29,1.02,1.42,1.88,2.63,1.46-.24,1.14.51,2.39,1.62,2.72s2.42-.31,2.84-1.4c.31.67,1.18.93,1.9.77.72-.16,1.33-.63,1.91-1.09,1.51-1.19,3.02-2.39,4.54-3.58,1.95-1.54,3.92-3.1,6.16-4.2,1.22-.6,2.51-1.06,3.61-1.86,2.26-1.64,3.37-4.75,2.57-7.43-.72-2.39-2.72-4.15-4.74-5.62-1.05-.76-2.19-1.5-3.47-1.66-1.89-.22-3.73.85-4.7.72Z"/>
    <g>
      <path class="cls-3" d="m192.21,376.3c12.7-.19,25.41-.38,38.11-.56l-.16-8.48-40.9.96,2.95,8.08Z"/>
      <path d="m192.21,377.04c-.31,0-.59-.19-.7-.49l-2.95-8.08c-.08-.22-.05-.48.08-.67.13-.2.36-.32.6-.32l40.9-.96c.19,0,.39.07.53.21.14.14.22.32.23.52l.16,8.48c0,.2-.07.39-.21.53-.14.14-.33.22-.52.23l-38.11.56h-.01Zm-1.9-8.11l2.42,6.61,36.84-.54-.13-6.99-39.12.92Z"/>
    </g>
    <g>
      <path class="cls-1" d="m222.95,211.99c1.67,11.17,2.37,22.49,2.1,33.78-.02.94-.04,1.93.38,2.77.44.86,1.27,1.44,2.1,1.94,5.7,3.46,12.74,5.04,19.19,3.34,6.45-1.7,12.07-6.99,12.67-14.15-2.72-9.18-7.28-21.97-10.8-36.7-7.9,3.5-16.18,6.16-25.65,9.01Z"/>
      <path d="m241.3,255.25c-4.73,0-9.67-1.42-14.15-4.14-.93-.57-1.87-1.23-2.38-2.24-.51-1.01-.49-2.13-.46-3.12.27-11.23-.43-22.55-2.09-33.65-.05-.36.17-.71.52-.82,10.18-3.06,18-5.63,25.56-8.98.2-.09.43-.09.63.01.2.1.34.28.39.49,2.49,10.41,5.55,20.02,8.01,27.74,1.02,3.21,1.99,6.24,2.78,8.92.03.09.04.18.03.27-.58,6.93-5.89,12.88-13.22,14.81-1.81.47-3.69.71-5.61.71Zm-17.52-42.74c1.61,10.99,2.28,22.18,2.01,33.27-.02.85-.04,1.74.3,2.42.36.71,1.13,1.22,1.82,1.64,5.96,3.62,12.74,4.81,18.62,3.26,5.56-1.46,11.44-6.15,12.11-13.36-.78-2.63-1.73-5.61-2.73-8.75-2.4-7.53-5.37-16.86-7.83-26.98-7.23,3.14-14.73,5.61-24.31,8.5Z"/>
    </g>
    <g>
      <g>
        <path class="cls-3" d="m275.13,159.24c-2.23,8.49-4.48,16.06-8.61,27-1.96,5.2-5.01,10.88-8.36,15.45-1.58,2.15-2.73,3.16-5.55,4.12.1-2.34-2.2-3.75-2.33-6.1-.16-2.89,1.93-5.2.49-7.9-2.75-5.14-4.41-10.63-4.87-16.14-.38-4.52.08-9.18,2.61-13.05,2.52-3.87,7.42-6.79,12.86-6.58,4.14.16,10.81.25,13.76,3.19Z"/>
        <path d="m252.61,206.56c-.16,0-.31-.05-.44-.15-.2-.15-.31-.38-.3-.63.04-.99-.46-1.8-1.03-2.73-.57-.93-1.22-1.98-1.29-3.29-.07-1.27.24-2.39.54-3.48.41-1.47.76-2.75.04-4.11-2.81-5.26-4.48-10.79-4.96-16.43-.47-5.57.42-9.99,2.72-13.52,2.87-4.41,8.18-7.12,13.51-6.92l.65.02c4.22.15,10.6.39,13.6,3.38.19.19.26.46.19.71-2.24,8.54-4.47,16.05-8.63,27.07-2.02,5.35-5.1,11.04-8.46,15.63-1.6,2.18-2.83,3.33-5.91,4.39-.08.03-.16.04-.24.04Zm8.22-49.78c-4.64,0-9.19,2.42-11.69,6.25-2.12,3.24-2.93,7.36-2.49,12.58.46,5.44,2.07,10.77,4.79,15.85,1.01,1.89.54,3.57.09,5.21-.28,1.01-.55,1.97-.49,3,.05.94.55,1.74,1.07,2.6.46.74.96,1.55,1.16,2.51,2.04-.82,2.98-1.73,4.3-3.53,3.28-4.48,6.3-10.05,8.27-15.28,4.07-10.77,6.27-18.17,8.47-26.49-2.74-2.32-8.46-2.53-12.3-2.67l-.66-.02c-.17,0-.34,0-.51,0Z"/>
      </g>
      <g>
        <path class="cls-1" d="m208.58,165.79c-.84,7.64-3.59,14.96-4.87,22.54s-.91,15.85,3.96,22.59c4.29,5.93,11.97,10.09,19.97,10.8,8,.71,16.1-2.03,21.06-7.14,4.66-4.8,7.28-16.51,8.82-22.33,3.43,1.11,7.51.66,10.03-1.41s3.11-5.77,1.04-8.37c-2.07-2.6-5.11-3.45-9.19-.74,1.04-4.83.98-9.73.96-11.97-.05-6.1,1.28-14.93-2.44-18.13-2.11-1.81-6.84-3.87-9.49-5.04-4.57-2.02-11.71-.08-16.71-.91-5-.83-10.5.72-14.94,2.56-5.31,2.2-7.57,11.83-8.2,17.55Z"/>
        <path d="m230.17,222.58c-.86,0-1.73-.04-2.6-.12-8.23-.74-16.08-4.99-20.51-11.11-4.3-5.95-5.68-13.74-4.09-23.15.56-3.33,1.42-6.65,2.24-9.87,1.06-4.11,2.15-8.37,2.62-12.63h0c.28-2.55,2.01-15.4,8.65-18.15,5.89-2.44,11.06-3.32,15.34-2.6,1.97.33,4.29.21,6.74.08,3.58-.19,7.29-.38,10.15.88l.29.13c2.72,1.2,7.26,3.21,9.38,5.03,3.22,2.77,2.99,9.08,2.79,14.64-.05,1.44-.1,2.8-.09,4.05v.16c.02,2.07.05,6.12-.67,10.36,3.41-1.69,6.47-1.1,8.73,1.74,2.28,2.87,1.78,7-1.14,9.41-2.45,2.02-6.38,2.69-9.98,1.77-.1.39-.21.8-.32,1.23-1.66,6.47-4.18,16.24-8.5,20.69-4.58,4.72-11.71,7.47-19.06,7.47Zm-1.36-76.38c-3.42,0-7.36.91-11.75,2.73-4.55,1.88-7.02,10.3-7.74,16.94h0c-.48,4.37-1.59,8.67-2.66,12.84-.82,3.18-1.67,6.47-2.22,9.74-1.52,9.01-.23,16.42,3.83,22.03,4.18,5.78,11.63,9.8,19.44,10.5,7.8.7,15.64-1.95,20.46-6.91,4.05-4.17,6.6-14.1,8.13-20.03.18-.71.35-1.37.51-1.97.05-.2.18-.36.36-.46.18-.1.39-.12.58-.05,3.33,1.08,7.08.57,9.33-1.28,2.29-1.89,2.7-5.11.93-7.34-2.09-2.62-4.84-2.81-8.19-.58-.25.17-.58.17-.83,0-.25-.17-.37-.47-.31-.77,1-4.64.96-9.38.94-11.66v-.16c-.01-1.28.04-2.66.09-4.11.19-5.23.4-11.16-2.28-13.46-1.95-1.68-6.37-3.63-9.01-4.79l-.29-.13c-2.54-1.12-6.06-.94-9.47-.76-2.42.13-4.93.26-7.06-.09-.88-.15-1.81-.22-2.78-.22Zm-20.23,19.59h0,0Z"/>
      </g>
      <g>
        <path class="cls-3" d="m233.65,157.09c-1.11,3.3-6.86,7.51-10.2,7.5-3.33-.01-4.41-1.67-5.4-4.98-3.2,2.29-5.68,4.7-8.79,5.52-4.75,1.25-10.09-2.21-11.09-7.19-1-4.98,2.54-10.51,7.34-11.49-3.2.42-5.98-3.08-5.68-6.43.29-3.35,2.96-6.13,6-7.29,3.04-1.16,6.37-.98,9.65-1.1-.87-3.37,1.09-7.11,4-8.91,2.91-1.79,6.52-1.91,9.79-1.15,2.15.5,4.27,1.39,5.83,2.99s2.49,4,2.14,6.44c3.28-3.35,8.22-5.31,12.51-3.78,4.29,1.52,7.04,7.27,6.98,11.01,2.42-2.41,5.46-4.28,8.74-3.75,6.51,1.05,7.4,6.78,3.68,13.64,3.67-1.35,8.71.71,9.83,5.96.83,3.91-1.19,9.77-4.13,12.45-2.94,2.68-12.48,4.21-18.47-1.12-3.33-2.96-4.66-6.66-5.36-10.08-2.27,3.1-3.92,5.22-8.89,6.29-3.63.78-7.65-1.06-8.47-4.53Z"/>
        <path d="m266.43,169.72c-3.57,0-7.48-1.01-10.55-3.75-3.14-2.79-4.51-6.18-5.22-8.9-1.85,2.41-3.8,4.3-8.37,5.28-3.61.78-7.16-.73-8.71-3.46-2.08,3.2-6.94,6.44-10.1,6.44h-.02c-3.39-.02-4.77-1.59-5.79-4.52-.49.36-.97.73-1.43,1.09-2.21,1.69-4.29,3.29-6.77,3.95-2.4.63-5.1.18-7.39-1.25-2.41-1.5-4.09-3.87-4.62-6.5-.89-4.46,1.52-9.25,5.33-11.39-.53-.26-1.04-.62-1.51-1.07-1.52-1.46-2.35-3.63-2.18-5.67.3-3.37,2.9-6.55,6.47-7.92,2.6-.99,5.38-1.05,8.08-1.1.32,0,.63-.01.95-.02-.4-3.27,1.42-6.93,4.5-8.82,2.77-1.71,6.44-2.15,10.34-1.24,2.64.61,4.72,1.69,6.2,3.19,1.4,1.43,2.24,3.29,2.4,5.23,3.66-3.01,8.2-4.09,11.97-2.75,3.95,1.4,6.78,6.1,7.36,10.12,2.76-2.35,5.52-3.32,8.22-2.89,2.78.45,4.78,1.75,5.77,3.77,1.19,2.43.89,5.76-.83,9.52,1.65-.2,3.4.13,4.92.98,2.19,1.21,3.7,3.31,4.25,5.91.87,4.1-1.17,10.25-4.36,13.16-1.6,1.46-5.06,2.63-8.91,2.63Zm-15.41-15.12c.05,0,.11,0,.16.02.29.06.51.29.57.58.55,2.68,1.67,6.6,5.12,9.67,5.56,4.95,14.66,3.69,17.48,1.12,2.81-2.56,4.67-8.16,3.91-11.75-.46-2.17-1.71-3.92-3.52-4.92-1.67-.92-3.66-1.1-5.32-.49-.29.11-.61.02-.82-.21-.2-.23-.24-.57-.09-.84,2.11-3.9,2.65-7.31,1.53-9.6-.78-1.59-2.36-2.59-4.68-2.96-2.59-.41-5.31.77-8.1,3.54-.21.21-.54.27-.81.16-.28-.12-.46-.39-.45-.69.05-3.32-2.39-8.85-6.48-10.3-3.69-1.31-8.3.1-11.73,3.6-.23.23-.57.29-.86.14-.29-.14-.45-.45-.41-.77.3-2.06-.44-4.29-1.93-5.81-1.27-1.3-3.11-2.24-5.47-2.78-3.52-.82-6.79-.44-9.23,1.06-2.83,1.74-4.41,5.22-3.67,8.09.06.22.01.45-.12.63-.13.18-.34.29-.57.3-.61.02-1.22.03-1.84.05-2.69.05-5.23.1-7.58,1.01-2.54.97-5.24,3.41-5.52,6.67-.14,1.6.52,3.32,1.72,4.47.93.89,2.04,1.3,3.12,1.16.4-.05.76.22.83.61.07.39-.19.77-.58.85-4.39.89-7.68,6.05-6.76,10.61.45,2.23,1.89,4.25,3.95,5.54,1.95,1.21,4.22,1.61,6.23,1.08,2.19-.58,4.07-2.02,6.25-3.69.73-.56,1.49-1.14,2.3-1.72.2-.14.45-.18.67-.1.23.08.4.26.47.49.93,3.13,1.79,4.44,4.69,4.45h.01c3,0,8.48-4.04,9.47-6.99.11-.31.41-.52.74-.5.33.01.61.25.69.57.76,3.19,4.54,4.64,7.6,3.98,4.81-1.03,6.33-3.12,8.45-6,.14-.19.37-.3.6-.3Z"/>
      </g>
      <path d="m214.49,177.61c0-.95.8-1.73,1.81-1.74,1,0,1.82.76,1.83,1.71,0,.95-.8,1.73-1.81,1.74-1,0-1.82-.76-1.83-1.71Z"/>
      <path d="m239.52,181.64c0-.95.8-1.73,1.81-1.74,1,0,1.82.76,1.83,1.71s-.8,1.73-1.81,1.74c-1,0-1.82-.76-1.83-1.71Z"/>
      <path d="m229.89,210.59c-1.13,0-2.27-.2-3.33-.6-.38-.15-.58-.58-.43-.96.15-.38.58-.57.96-.43,2.84,1.08,6.22.41,8.42-1.68.3-.28.77-.27,1.05.03.28.3.27.77-.03,1.05-1.78,1.68-4.21,2.59-6.64,2.59Z"/>
      <path d="m226.51,200.66c-1.49,0-3.06-.4-4.68-1.18-.69-.33-1.47-.78-1.99-1.53-.67-.96-.8-2.29-.37-3.64.31-.94.82-1.75,1.32-2.54l.22-.35c2.63-4.21,4.29-9.04,4.79-13.97.04-.41.41-.71.81-.66.41.04.71.41.66.81-.52,5.16-2.26,10.21-5.01,14.61l-.23.36c-.47.74-.92,1.44-1.16,2.2-.29.89-.22,1.76.17,2.33.33.47.9.79,1.42,1.04,1.54.74,3,1.09,4.35,1.03,1.52-.07,2.93-.72,3.77-1.72.26-.31.73-.36,1.05-.09.31.26.36.73.09,1.05-1.12,1.34-2.89,2.16-4.84,2.25-.13,0-.25,0-.38,0Z"/>
    </g>
    <path d="m323.23,374.66c-12.52,0-30.92-2.52-48.92-4.98-10.14-1.39-19.72-2.7-27.82-3.5-.41-.04-.71-.4-.67-.81.04-.41.4-.7.81-.67,8.13.8,17.72,2.11,27.87,3.5,25.56,3.5,54.52,7.47,61.57,2.95,5.9-3.78,9.93-9.43,10.29-14.4.41-5.77-.72-19.05-1.83-24.38-4.52-21.64-21.17-70.72-27.05-77.34-5.73-6.45-14.55-9.08-22.37-11.05-11.57-2.9-23.43-5.09-35.28-6.49-1.82,5.66-5.77,13.36-14.31,19.14-1.81,1.22-3.98.17-5.73-.68-.33-.16-.66-.32-.98-.46-.14-.06-.73-.16-1.25-.25-3.03-.53-9.34-1.63-12.42-6.32-1.6-2.44-2.08-5.49-1.42-9.1-10.73,1.8-20.89,4.85-31.04,9.33-4.36,1.92-9.24,4.43-12.42,8.46-2.85,3.62-4.21,8.28-5.41,12.4-6.87,23.58-13.23,47.65-18.91,71.54-.1.4-.5.65-.89.55-.4-.09-.65-.49-.55-.89,5.69-23.92,12.05-48.02,18.93-71.62,1.24-4.24,2.64-9.05,5.67-12.9,3.37-4.29,8.46-6.9,12.99-8.9,10.6-4.67,21.22-7.81,32.47-9.61.25-.04.49.05.66.23.17.18.24.44.18.68-.87,3.66-.54,6.7.99,9.02,2.73,4.15,8.61,5.18,11.44,5.67.88.15,1.31.23,1.6.36.33.15.67.31,1.02.48,1.55.75,3.15,1.53,4.25.79,8.48-5.73,12.24-13.46,13.9-18.93.1-.34.44-.56.8-.52,12.11,1.41,24.25,3.63,36.08,6.6,8.03,2.02,17.11,4.73,23.12,11.5,6.54,7.36,23.14,57.64,27.39,78.03,1.13,5.42,2.28,18.92,1.86,24.79-.38,5.42-4.69,11.52-10.97,15.54-2.52,1.61-7.34,2.25-13.65,2.25Z"/>
    <g>
      <path class="cls-1" d="m239.86,263.05c-3.13,15.53-6.06,31.12-8.8,46.77-.46,2.65-.92,5.36-.69,8.06.33,3.8,2,7.18,3.63,10.41,1.99,3.94,3.98,7.89,6.66,11.8,3.19-7.25,6.04-14.73,8.46-22.33.82-17.33-4.83-34.18-5.29-51.54-.03-1.07-.05-2.2-.48-3.13s-1.43-1.53-3.51-.04Z"/>
      <path d="m240.67,340.83c-.24,0-.47-.12-.61-.32-2.71-3.95-4.74-7.98-6.71-11.88-1.57-3.12-3.36-6.66-3.71-10.68-.25-2.84.25-5.72.7-8.25,2.72-15.58,5.68-31.33,8.8-46.79.04-.18.14-.35.29-.46,1.21-.87,2.27-1.2,3.15-.97.64.17,1.15.62,1.46,1.3.49,1.04.52,2.27.55,3.35v.07c.2,7.69,1.46,15.43,2.67,22.91,1.51,9.34,3.08,19,2.62,28.68,0,.06-.01.13-.03.19-2.4,7.5-5.25,15.04-8.49,22.41-.11.25-.34.42-.61.44-.02,0-.05,0-.07,0Zm-.14-77.34c-3.09,15.36-6.03,30.99-8.73,46.46-.43,2.44-.91,5.21-.68,7.87.33,3.74,2.04,7.14,3.56,10.14,1.76,3.48,3.57,7.07,5.86,10.59,2.98-6.89,5.63-13.92,7.87-20.92.44-9.49-1.11-19.04-2.61-28.28-1.22-7.53-2.48-15.32-2.69-23.11v-.07c-.03-.98-.05-1.99-.41-2.76-.19-.41-.42-.47-.49-.49-.22-.06-.73-.05-1.67.58Z"/>
    </g>
    <path d="m246.56,366.18c-.31,0-.61-.2-.71-.52-.13-.39.09-.81.48-.93,3.87-1.24,5.43-4.38,5.22-10.49-.47-13.87-2.68-14.95-3.12-15.02-.37-.06-.64-.4-.62-.78.02-.38.33-.68.71-.7l2.39-.11c20.33-.9,43.31-1.91,57.65-3.65-2.39-7.46-4.67-14.28-6.88-20.89-2.33-6.97-4.74-14.18-7.26-22.07-.12-.39.09-.81.48-.93.39-.12.81.09.93.48,2.51,7.88,4.92,15.08,7.25,22.05,2.3,6.86,4.67,13.96,7.16,21.76.07.21.04.44-.08.62-.12.19-.31.31-.53.34-14.33,1.81-37.88,2.85-58.66,3.77l-.45.02c1.15,1.8,2.2,5.87,2.51,15.05.16,4.58-.42,10.08-6.25,11.96-.08.02-.15.04-.23.04Z"/>
    <g>
      <polygon class="cls-3" points="61.83 304.32 162.82 304.87 197.62 376.36 95.75 376.96 61.83 304.32"/>
      <path d="m95.75,377.7c-.29,0-.55-.17-.67-.43l-33.91-72.64c-.11-.23-.09-.5.05-.71.14-.21.37-.34.63-.34h0l100.99.55c.28,0,.54.16.66.42l34.81,71.49c.11.23.1.5-.04.72-.13.22-.37.35-.63.35l-101.88.59h0Zm-32.75-72.63l33.22,71.14,100.22-.58-34.09-70.01-99.35-.54Z"/>
    </g>
    <g>
      <path class="cls-1" d="m125.71,333.45c-2.87-.28-6,.49-7.17,3.12-1.17,2.63-.27,5.93,1.85,7.87,2.13,1.94,5.27,2.57,8.08,1.93,1.52-.34,3.02-1.08,3.9-2.37.61-.89.86-1.99.87-3.07.02-3.55-1.59-6.91-7.54-7.49Z"/>
      <path d="m126.33,347.36c-2.42,0-4.76-.83-6.44-2.37-2.43-2.22-3.29-5.89-2.03-8.72,1.15-2.6,4.11-3.93,7.92-3.56,6.82.67,8.23,4.85,8.21,8.24,0,1.33-.35,2.53-1,3.48-1.12,1.65-2.98,2.37-4.35,2.67-.77.17-1.54.26-2.31.26Zm-1.7-13.22c-1.65,0-4.37.38-5.41,2.73-1.01,2.27-.3,5.22,1.68,7.03,1.86,1.7,4.7,2.37,7.42,1.76,1.56-.35,2.78-1.08,3.44-2.06.6-.89.74-1.94.74-2.66.03-4.08-2.22-6.29-6.87-6.75-.24-.02-.59-.05-1.01-.05Z"/>
    </g>
    <g>
      <path class="cls-1" d="m243.82,255.11c-1.37-1-3.23-.91-4.71-.3-2.19.9-4.03,2.19-4.44,4.52-.1.6,1.05,3.08,1.64,3.98.7,1.06,2.48,3.01,4.02,3.13,1.32.11,2.54-.67,3.52-1.55,1.78-1.59,3.24-3.95,2.67-6.27-.34-1.39-1.34-2.53-2.7-3.52Z"/>
      <path d="m240.58,267.2c-.1,0-.21,0-.31-.01-1.99-.16-3.98-2.56-4.58-3.47-.41-.63-1.93-3.5-1.75-4.52.52-2.95,3.04-4.31,4.89-5.08,1.96-.81,3.99-.66,5.43.39h0c1.65,1.2,2.63,2.49,2.98,3.94.56,2.27-.53,4.89-2.89,7-1.32,1.17-2.55,1.75-3.76,1.75Zm.76-12.1c-.7,0-1.39.16-1.95.4-2.46,1.02-3.69,2.24-3.99,3.96,0,.42.93,2.54,1.53,3.45.73,1.12,2.35,2.71,3.46,2.8.89.08,1.86-.37,2.97-1.36.73-.65,3.07-2.98,2.44-5.54-.27-1.1-1.06-2.11-2.41-3.09h0c-.61-.44-1.33-.61-2.04-.61Z"/>
    </g>
    <path d="m213.58,366.27c-.48,0-1-.17-1.57-.65-1.2-1.01-.42-2.86-.16-3.47.4-.94,1.04-1.71,1.68-2.4,1.94-2.09,4.23-3.92,6.81-5.45h-.02c-1.3,0-2.67.58-3.73,1.17-2.44,1.36-4.62,3.24-6.73,5.05-1.08.93-2.19,1.88-3.33,2.77-.56.43-1.17.88-1.91,1.09-.95.27-1.92.07-2.53-.54-.43-.42-.68-1.03-.73-1.76-.12-1.73.91-3.24,1.69-4.23,4.56-5.77,9.38-8.98,14.73-9.82.4-.06.79.21.85.62.06.41-.21.79-.62.85-4.96.78-9.47,3.81-13.8,9.28-.63.79-1.45,1.99-1.37,3.21.02.35.13.64.29.8.26.25.73.27,1.08.17.48-.14.94-.47,1.4-.83,1.11-.87,2.21-1.81,3.28-2.73,2.17-1.86,4.41-3.79,6.98-5.23,2.66-1.48,5.02-1.75,6.82-.78.24.13.39.38.39.66,0,.28-.16.53-.4.65-3.12,1.61-5.84,3.65-8.06,6.05-.55.59-1.1,1.24-1.41,1.97-.45,1.07-.42,1.61-.25,1.76.6.51.86.35,1.68-.26l.06-.04c3.21-2.69,6.46-4.91,9.91-6.77,1.19-.64,2.73-1.29,4.13-.6,1.56.76,6.04,2.48,13.93,1.99,2.95-.18,6.01.22,9.11,1.2.39.12.61.54.48.93-.12.39-.54.61-.93.48-2.92-.93-5.8-1.31-8.56-1.13-8.24.52-13.01-1.32-14.67-2.13-.79-.39-1.9.1-2.78.57-3.36,1.81-6.52,3.97-9.69,6.62l-.09.07c-.47.36-1.14.86-1.96.86Z"/>
    <path d="m199.74,365.47c-.24,0-.47-.03-.69-.1-1.28-.4-1.83-1.79-1.91-2.95-.2-2.69,1.22-5.17,2.31-6.8,3.63-5.44,7.39-8.88,11.17-10.22.39-.14.81.07.95.45.14.39-.07.81-.45.95-3.47,1.23-6.98,4.47-10.43,9.64-.97,1.45-2.23,3.63-2.06,5.87.05.65.31,1.47.88,1.65.29.09.67,0,1.03-.23.38-.25.69-.62,1.06-1.07.26-.32.73-.37,1.04-.11.32.26.37.73.11,1.04-.44.54-.84,1.01-1.4,1.38-.51.33-1.06.51-1.6.51Z"/>
    <path d="m196.67,362.55c-.63,0-1.28-.2-1.83-.58-1.84-1.29.38-7.7,2.15-10.62,4.04-6.66,9.19-11.48,14.92-13.92,3.05-1.97,15.95,1.94,21.39,3.73,1.35.44,3.13.96,4.96,1.02,4.74.15,10.84.23,12.43-.02.41-.06.78.21.85.62.06.41-.21.78-.62.85-2.18.34-10.97.09-12.71.03-2.02-.06-3.93-.62-5.38-1.09-10.32-3.39-18.61-4.99-20.14-3.89-.05.03-.09.06-.14.08-5.38,2.28-10.46,7.02-14.29,13.35-2.11,3.49-3.01,8.01-2.53,8.66.48.33,1.15.39,1.6.12.35-.21.81-.1,1.02.26.21.35.09.81-.26,1.02-.42.25-.91.38-1.41.38Z"/>
    <g>
      <path class="cls-1" d="m225.03,235.24c2.67,6.55,8.4,15.62,14.23,19.12-3.17,2.77-7.15,7.14-13.83,12.1-2.35-11.76-4.79-17.36-6.2-26.56,1.53-1.14,3.89-3.52,5.79-4.66Z"/>
      <path d="m225.43,267.2c-.09,0-.18-.02-.27-.05-.24-.09-.41-.3-.46-.55-1.09-5.48-2.23-9.69-3.23-13.41-1.19-4.42-2.22-8.24-2.98-13.18-.04-.27.07-.54.29-.71.56-.42,1.26-1.03,2-1.67,1.23-1.07,2.62-2.29,3.86-3.03.19-.11.41-.14.62-.07.21.07.37.22.45.42,2.79,6.84,8.47,15.48,13.93,18.76.2.12.34.33.36.57.02.24-.07.47-.25.62-.92.81-1.91,1.74-3.05,2.83-2.71,2.58-6.09,5.79-10.82,9.31-.13.1-.29.15-.44.15Zm-5.4-26.98c.74,4.65,1.73,8.34,2.88,12.59.94,3.48,1.99,7.38,3.02,12.35,4.18-3.2,7.25-6.12,9.75-8.49.86-.82,1.63-1.55,2.36-2.21-5.24-3.61-10.51-11.52-13.35-18.1-.95.68-1.99,1.58-2.93,2.4-.62.54-1.2,1.05-1.73,1.47Z"/>
    </g>
    <g>
      <path class="cls-1" d="m243.24,254.32c3.32,4.19,6.65,8.38,10.65,12.68,4.84-9.45,9.73-19.19,11.94-29.58-2.07-.96-6.58-3.94-8.65-4.9.6,2.21,1.83,4.2,1.54,4.9-.19.44-10.29,12.03-15.48,16.9Z"/>
      <path d="m253.89,267.74c-.2,0-.4-.08-.54-.24-4.02-4.32-7.41-8.59-10.68-12.72-.24-.3-.21-.74.07-1.01,4.94-4.64,14.35-15.37,15.29-16.65-.01-.31-.35-1.13-.6-1.75-.32-.8-.69-1.7-.96-2.66-.08-.28.02-.58.24-.76.22-.19.53-.23.79-.11,1.07.5,2.68,1.46,4.39,2.49,1.6.96,3.26,1.95,4.26,2.41.31.15.49.49.41.83-2.29,10.8-7.45,20.87-12,29.76-.11.22-.32.36-.56.4-.03,0-.07,0-.1,0Zm-9.65-13.35c2.93,3.69,5.97,7.49,9.47,11.32,4.31-8.41,9.04-17.86,11.27-27.88-1.04-.53-2.41-1.36-3.86-2.22-.9-.54-1.82-1.09-2.64-1.55.1.26.21.52.31.77.54,1.33.9,2.2.61,2.89-.31.74-10.18,11.88-15.16,16.68Z"/>
    </g>
    <path d="m208.99,340.52c-.37,0-.69-.27-.74-.65-2.2-16.96-8.4-34.72-17-48.72-.21-.35-.11-.81.24-1.02.35-.21.81-.1,1.02.24,8.71,14.18,14.98,32.15,17.21,49.31.05.41-.23.78-.64.83-.03,0-.06,0-.1,0Z"/>
    <path d="m180.23,341.38c-.14,0-.28-.04-.4-.12-.34-.22-.44-.68-.22-1.03,6.27-9.71,14.1-22.49,19.12-35.21.15-.38.58-.57.96-.42.38.15.57.58.42.96-5.06,12.84-12.95,25.7-19.25,35.47-.14.22-.38.34-.62.34Z"/>
    <path d="m210.11,367.93h0c-.41,0-.74-.34-.73-.75l.08-7.89c0-.41.34-.74.74-.74h0c.41,0,.74.34.74.75l-.08,7.89c0,.41-.34.73-.74.73Z"/>
    <path d="m258.58,186.32c-.06,0-.12,0-.17-.02-.4-.1-.64-.5-.55-.9.5-2.05.72-3.15,1.11-5.14.08-.4.47-.66.87-.58.4.08.66.47.58.87-.4,2.01-.62,3.12-1.13,5.19-.08.34-.39.57-.72.57Z"/>
    <path d="m309.15,335.4c-.4,0-.72-.31-.74-.71-.02-.41.3-.76.71-.77,3.46-.15,6.97-.24,10.44-.28.43,0,.75.32.75.73,0,.41-.32.75-.73.75-3.46.04-6.95.14-10.4.28-.01,0-.02,0-.03,0Z"/>
    <path d="m268.66,253.18c-.05,0-.11,0-.16-.02-.4-.09-.65-.49-.56-.89.64-2.85,1.17-5.75,1.57-8.63.06-.41.44-.69.84-.63.41.06.69.43.63.84-.41,2.92-.94,5.86-1.59,8.75-.08.35-.38.58-.72.58Z"/>
    <path d="m274.78,248.89s-.04,0-.07,0c-.41-.04-.71-.4-.67-.81l.46-5.08c.04-.41.39-.71.81-.67.41.04.71.4.67.81l-.46,5.08c-.03.39-.36.68-.74.68Z"/>
    <path d="m268.12,163.04c-.31,0-.59-.19-.7-.49-.14-.39.06-.81.45-.95,2.95-1.05,5.07-4.08,5.06-7.21,0-.41.33-.74.74-.75h0c.41,0,.74.33.74.74.02,3.74-2.53,7.36-6.05,8.62-.08.03-.17.04-.25.04Z"/>
    <path d="m245.88,343.78s-.05,0-.08,0c-.41-.04-.7-.41-.66-.82.07-.64.18-1.29.33-1.91.15-.61.38-1.39.87-2.06.56-.76,1.38-1.22,2.21-1.24,0,0,.01,0,.02,0,.4,0,.73.32.74.72.01.41-.31.75-.72.76-.37,0-.77.26-1.05.64-.33.45-.5,1.02-.62,1.52-.14.56-.24,1.14-.3,1.72-.04.38-.36.67-.74.67Z"/>
    <path d="m246.42,366.03c-.5,0-1-.26-1.35-.69-.27-.33-.4-.71-.51-1.06-.45-1.45-.58-3.02-.37-4.52.06-.41.43-.69.84-.63.41.06.69.43.63.84-.18,1.29-.07,2.63.32,3.88.07.22.14.44.26.58.08.1.17.15.18.13.4,0,.75.32.76.73,0,.41-.32.75-.73.76h-.03Z"/>
    <g class="cls-2">
      <path d="m250.5,155.06c-.47.47-.96.91-1.46,1.35-.06.1-.15.26-.37.62-.34.49-.72.95-1.12,1.4-1.52,1.47-2.93,2.35-4.3,2.95-.2-.44-.69-.76-1.21-.6-.08.02-.16.03-.25.05-.04,0-.08,0-.14,0-.94-.03-1.88.09-2.82-.06l.3.04c-.3.02-1.69-.37-2.77-.8-.06-.03-.18-.08-.29-.13-.21-.13-.47-.17-.71-.15-.05-.03-.11-.06-.17-.08,0-.02-.02-.05-.04-.1,0-.02,0-.04-.01-.06.03-.1.05-.2.07-.31.09-.78-.66-1.57-1.44-1.46-.79,0-1.31.75-1.42,1.49-.17.23-.34.46-.53.67-.79.79-1.66,1.5-2.52,2.2-.17.14-.63.47-.7.53-.04.03-.07.05-.11.08-.95.63-2.86,1.64-4.54,1.81,0,0-.02,0-.02,0-.39,0-.78-.04-1.17-.11-.1-.03-.23-.07-.34-.11-.05-.03-.1-.06-.15-.09-.12-.08-.24-.17-.35-.27-.02-.02-.05-.05-.09-.09-.04-.04-.07-.09-.11-.13-.43-.09-.85-.28-1.17-.55-.4-.19-.71-.47-.97-.84-.14-.2-.24-.42-.33-.65-.01-.03-.02-.06-.04-.1,0,0-.05-.07-.06-.09-.05-.09-.1-.17-.15-.26-.32-.58-.59-1.19-.76-1.82-.01,0-.02,0-.03,0-.48-.03-1.01.2-1.28.61-.11.19-.23.37-.37.54-.04.05-.08.1-.12.14-.01.01-.04.04-.09.1,0,0,0,0,0,0-.01.01-.02.03-.04.04-.43.32-.79.73-1.23,1.04-.17.12-.35.23-.53.35-.05.03-.1.06-.16.1-.02.01-.05.03-.07.05-.9.57-1.87,1.03-2.85,1.43-.68.34-1.57.41-2.11.98-1.15,1.18.29,3.13,1.77,2.41,2.07-.76,4.07-1.74,5.75-3.18.28-.23.55-.48.8-.74.69,1.32,1.56,2.54,2.72,3.46,1.78,1.24,4.16,1.12,6.12.38,1.91-.71,2.64-1.3,3.72-2.05,1.07-.8,2.08-1.68,2.96-2.68.43.74.98,1.41,1.66,1.93.94.69,2.11,1.13,3.28,1.12-.05,0-.11,0-.15,0,.11.01.23.02.35.02,1.48.03,2.93-.35,4.32-.83,2.03-.71,3.97-1.74,5.59-3.17.99-.92,1.92-1.95,2.56-3.15.14-.31.03-.03-.06.12.28-.44.52-.89.75-1.35.14-.27.3-.55.24-.86-.01-.72-.6-1.13-1.2-1.15Z"/>
    </g>
    <g class="cls-2">
      <path d="m271.61,168.93c-.38-.9-1.33-.63-2.08-.46-1.11.23-2.24.3-3.36.5-.82.16-1.64.35-2.47.41,0,0,.02,0,.02,0-.26.02-.46.04,0,0-.44.06-.9.01-1.34.1-.09-.21-.21-.41-.41-.54-.87-.68-2.23.25-2.01,1.38.16.86.33,1.72.37,2.6-.08,1.29-.12,3.33,1.61,3.04.34-.07.62-.3.85-.57-.05.1.79-.61,1-.73.88-.65,2.53-1.64,4.17-2.63.85-.48,1.71-.94,2.59-1.34.07-.03.14-.05.21-.08.06-.02.15-.05.24-.09.58-.27.86-1.01.61-1.6Z"/>
    </g>
    <g class="cls-2">
      <path d="m256.15,231.25c-.43-1.27-.86-2.53-1.23-3.82-.8-2.7-1.51-5.43-2.12-8.18-.76-2.01-1.49-4.04-2.07-6.11-.03-.1-.03-.19-.03-.28-.38-.19-.85-.18-1.22.05.05.15.05.32-.03.46-.25.44-.6.84-.93,1.22-.31.36-.63.7-.96,1.04-.68.68-1.39,1.31-2.11,1.94-.07.06-.15.1-.23.13-.04.21-.03.43.03.64-.04.03-.09.05-.13.08-.3.12-1.19.69-3.55,1.73-.68.28-1.37.56-2.06.82-.26-.07-.51-.07-.77,0,.13-.02.26-.03.39-.05-.16.02-.32.04-.48.07,0,0-.12,0-.33.03-.68.04-1.36.05-2.04.06-2.08,1.07-4.41.96-6.71.96-.28.11-.49.3-.64.53-.47-.14-.94-.28-1.41-.42-.03,0-.07-.02-.1-.03-.18.02-.37.04-.55.06-.29.04-.49-.16-.56-.41-.35-.09-.7-.15-1.05-.08-1.49.29-1.44,2.53.06,2.78,6.16,2.05,17.95,5.94,22.23,7.17,1.47.44,2.99.77,4.52.86-.14,0-.28-.01-.42-.02.13.02.26.04.4.06.13,0,.34.03.53.06.41.18.83.35,1.25.51.38.1.79.29,1.2.34.29.3.79.35,1.15.14.91-.55.22-1.59,0-2.34Z"/>
    </g>
    <g class="cls-2">
      <path d="m241.65,266.65c-.45-.4-.93-.82-1.46-.89-1.52-.26-2.24,1.88-.91,2.64.99.71,1.53,1.09,1.81,1.39.35.37.67.86,1.24.87.88.17,1.66-.71,1.54-1.57.08-1.24-.09-1.41.13-2.07.35-1.73-2.1-2.06-2.36-.37Z"/>
    </g>
    <g class="cls-2">
      <path d="m253.33,266c-.35-.58-1.08-.89-1.54-1.4-1.1-.99-2.32-2.31-2.63-2.81-.26-.35-.54-.7-.77-1.07-.21-.4-.48-.8-.95-.91-1.03-.32-1.99.92-1.41,1.84.13.21.28.41.42.62-.11-.05-.22-.09-.34-.09-1.35-.23-1.99,1.67-.81,2.34,1.41.78,2.78,1.63,4.15,2.49,1.32.74,2.34,1.23,3.04,1.39,1.38.24,2.03-1.7.84-2.4Z"/>
    </g>
    <g class="cls-2">
      <path d="m236.16,262.4c-.33-.61-.61-1.23-.99-1.81-.18-.3-.28-.69-.6-.88-.75-.62-1.71-.16-2,.58-.04,0-.09.01-.13.02-.53.14-.86.62-1.22.99-.61.65-.55.79-.63,1,0,0,0,.01-.01.02-.1.16-.16.33-.19.49-.54.21-1.07.44-1.59.68-.79.39-1.76.61-2.36,1.28-.86,1.04.46,2.52,1.61,1.83.86-.48,1.86-.8,3.42-1.43.89-.32,1.84-.43,2.76-.65.24-.07.43-.16.59-.29.95.26,1.94-.83,1.35-1.85Z"/>
    </g>
    <g class="cls-2">
      <path d="m339.25,366.28c-1.35,1.12-4.52,2.49-4.86,2.69-2.69,1.37-4.29,1.95-7.28,1.95-8.96-.15-16.57-.93-24.52-1.87-4.08-.42-7.53-.43-10.34-1.06-6.45-1.37-12.89-2.79-19.41-3.81-5.22-.85-10.48-1.29-15.74-1.81-1.2-.17-1.48-.17-3.74-.56-.79-.07-1.58-.41-2.37-.3-.12.01-.24.04-.35.07.02-.04.05-.09.07-.13.94-2.01,1.4-4.27,1.5-6.48.02-2.9-.08-5.8-.41-8.68-.11-1.4-.32-2.8-.83-4.11-.34-.91-.69-1.84-1.22-2.66-.33-.54-.66-1.15-1.33-1.3-1.36-.41-2.58,1.17-1.84,2.39,0,0,0,0,0,.01-.17.46-.52.91-.45,1.41.07.8.95,1.08,1.54.78.24.67.42,1.42.66,2.58.21,2.05.42,4.1.43,6.16-.03,1.43-.02,2.86-.15,4.29-.35,1.84-.6,3.39-1.03,4.6-.03-.05-.06-.11-.1-.16-.29-.35-.52-.81-.98-.95-1.42-.66-2.69,1.26-1.58,2.35.09.1.21.24.29.34.03.04.05.08.07.12,0,.02.01.04.02.06,0,.16,0,.32-.02.47,0,0,0-.01,0-.02,0,.01,0,.03,0,.04-.02.11-.03.21-.03.32-.04.28.02.57.15.82.12.22.3.37.51.47.22.65.95,1.09,1.65.89.57-.14.84-.7,1.25-1.08.15-.17.3-.34.44-.51.02.82.49,1.63,1.46,1.89,4.57.94,9.21,1.38,13.84,1.86,2.03.25,10.26,1.51,14.37,2.37,4.84.8,9.64,1.82,14.49,2.5,3.15.34,6.33.23,9.47.59,1.74.18,3.47.35,5.2.58,4.65.72,9.37.88,14.07.96,1.5.02,3,.12,4.5.11.36,0,1.32-.1,1.77-.16-.01,0-.02,0-.03,0,.1,0,.21-.02.31-.03,4.15-.31,7.56-2.9,11.05-4.9.2-.12.39-.26.58-.4.19-.17.82-.62.26-.2.33-.2.61-.5.71-.89.35-1.16-1.02-2.23-2.06-1.59Z"/>
    </g>
    <g>
      <g class="cls-2">
        <path d="m301.51,333.91s0,0,0,0c0,0,0,0,0,0Z"/>
      </g>
      <g class="cls-2">
        <path d="m309.34,331.65c-.1-.2-.2-.4-.3-.6-.12-.29-.31-.75-.39-.96-1.67-4.44-2.58-6.27-4.05-10.45-.02-.09-.05-.18-.07-.27,0,0-.01,0-.02,0-.23-.69-.63-1.24-1.41-1.4-.6-2.5-1.31-4.97-2-7.45-1.86-6.25-2.97-12.7-4.92-18.92-.66-2.19-3.93-1.32-3.38.93,1.63,5.64,1.97,10.6,2.84,15.09.35,2.14,1.56,7.61,2.4,11.6.56,2.81,1,5.64,1.64,8.43.52,2.12.99,4.29,1.85,6.3,0,0-.02-.03-.03-.05.7,1.3,2.39,2.01,3.73,1.19.29-.16.51-.36.69-.59.94,1.56,3.46,1.2,3.91-.58.23-.83-.14-1.56-.51-2.28Z"/>
      </g>
      <g class="cls-2">
        <path d="m301.3,333.39c.05.18.13.35.21.51-.08-.17-.23-.6-.21-.51Z"/>
      </g>
    </g>
    <g class="cls-2">
      <path d="m199.33,305.16c-.1-1.4-2-2.01-2.95-1-.48.46-.52,1.14-.72,1.74-.34,1.2-.77,2.36-1.21,3.52-2.03,5.79-6.03,12.23-10.02,18.38-1.45,2.2-3.09,4.27-4.64,6.41-.48.79-1.34,1.46-1.47,2.41-.34,1.99,2.47,2.95,3.47,1.2,1.9-2.69,3.97-5.25,5.79-7.99,1.77-2.57,3.28-5.29,4.82-7.99,2.11-3.54,3.88-7.26,5.26-11.15.44-1.2.85-2.4,1.25-3.62.16-.62.52-1.26.4-1.91Z"/>
    </g>
  </g>
</svg>