<?xml version="1.0" encoding="utf-8"?>
<!-- Generator: Adobe Illustrator 27.3.1, SVG Export Plug-In . SVG Version: 6.00 Build 0)  -->
<svg version="1.1" xmlns="http://www.w3.org/2000/svg" xmlns:xlink="http://www.w3.org/1999/xlink" x="0px" y="0px"
	 viewBox="0 0 900 600" style="enable-background:new 0 0 900 600;" xml:space="preserve">
<style type="text/css">
	.st0{fill:#2563EB;}
	.st1{fill:#70BADB;}
	.st2{fill:#F2C87E;}
	.st3{clip-path:url(#SVGID_00000107572468055040158170000004793996310748880792_);}
	.st4{fill:#FFFFFF;}
	.st5{clip-path:url(#SVGID_00000081618517835256059900000000243460539204465845_);}
</style>
<g id="background">
</g>
<g id="objects">
	<g>
		<g>
			<g>
				<path d="M838.8,441.9c-0.3,0-0.7,0-1-0.1c-1.9-0.3-3.3-1.5-4.1-3.4c-0.9-2.3-0.6-5.2,0.8-7c1.1-2.2,3.8-4.4,6.8-5.7
					c-0.6-0.8-1.3-1.4-2.2-1.7c-2-0.8-5.6-1-8.4,0.3c-1.4,0.7-2.4,1.6-2.8,2.8c-0.1,0.4-0.5,0.6-0.9,0.5c-0.4-0.1-0.6-0.5-0.5-0.9
					c0.5-1.6,1.7-2.8,3.5-3.6c2.7-1.3,6.8-1.4,9.5-0.4c1.2,0.5,2.3,1.4,3.1,2.5c0.5-0.2,1-0.3,1.5-0.4c3-1,5.6-1,7.7,0.2
					c2.2,1.2,3.7,3.8,4.5,7.5c0.1,0.4-0.2,0.8-0.5,0.8c-0.4,0.1-0.8-0.2-0.8-0.5c-0.7-3.3-2-5.5-3.9-6.5c-1.7-1-3.9-1-6.6-0.1
					c-0.4,0.1-0.8,0.2-1.1,0.3c1.5,3,1.7,7.1,0.7,10.4C843.2,440,841.2,441.9,838.8,441.9z M842.1,426.9c-2.8,1.2-5.4,3.3-6.4,5.3
					c-1.1,1.5-1.4,3.9-0.7,5.7c0.4,1,1.2,2.2,3,2.5c3,0.6,4.3-2.6,4.7-4C843.7,433.3,843.4,429.5,842.1,426.9z"/>
			</g>
			<g>
				<path d="M247.6,483c-3.5,0-6.7-1.4-9.2-3.9c-1.1-1.2-1.9-2.9-2.4-4.7c-1.8-0.2-3.6-0.8-5.2-1.9c-2.7-1.9-4.6-5-5-8.5
					c-0.5-4.3,0.9-7,3.3-10.6c0.2-0.3,0.7-0.4,1-0.2c0.3,0.2,0.4,0.7,0.2,1c-2.2,3.4-3.6,5.7-3.1,9.6c0.4,3.1,2,5.8,4.4,7.5
					c1.2,0.8,2.6,1.4,4,1.6c-0.3-1.7-0.3-3.5,0.1-5.1c0.7-3,2.5-5.3,5.2-6.4c1.7-0.7,3.4-0.5,4.7,0.5c1.5,1.2,2.1,3.2,1.6,5.5
					c-0.7,3-4.1,5.9-7.8,6.8c-0.6,0.1-1.3,0.2-1.9,0.3c0.4,1.4,1.1,2.7,2,3.7c2.3,2.4,5.5,3.6,8.8,3.5c3.5-0.2,6.8-1.9,8.9-4.6
					c0.2-0.3,0.7-0.4,1-0.1c0.3,0.2,0.4,0.7,0.1,1c-2.4,3.1-6.1,4.9-10,5.1C248,483,247.8,483,247.6,483z M242.9,462.4
					c-0.5,0-1,0.1-1.4,0.3c-2.9,1.2-4,3.6-4.4,5.4c-0.3,1.5-0.3,3.3,0,4.9c0.7,0,1.3-0.1,2-0.2c3.2-0.8,6.2-3.3,6.8-5.7
					c0.3-1.7-0.1-3.2-1.1-4.1C244.1,462.6,243.5,462.4,242.9,462.4z"/>
			</g>
			<g>
				<path d="M253.4,74.9c-0.4,0-0.7-0.3-0.7-0.7c0-6.1,2.3-12.2,6.1-15.9c2.7-2.6,6-4,9.7-4.1c2.9-4.5,8.9-7.3,14.2-6.4
					c3.1,0.5,5.8,2.2,8.4,3.8c4.9,3,9,5.6,14.4,0c0.3-0.3,0.7-0.3,1,0c0.3,0.3,0.3,0.7,0,1c-6.2,6.5-11.3,3.3-16.2,0.3
					c-2.5-1.6-5.1-3.2-7.9-3.7c-4.4-0.7-9.5,1.5-12.3,5.1c5.7,0.6,8.6,4.2,9.4,7.5c0.8,3.1-0.1,6.2-2.2,7.3
					c-1.2,0.7-3.7,1.2-7.3-2.4c-3.2-3.3-4.1-7.2-2.4-11c-3,0.2-5.7,1.4-7.9,3.6c-3.5,3.5-5.7,9.2-5.7,14.9
					C254.1,74.6,253.7,74.9,253.4,74.9C253.4,74.9,253.4,74.9,253.4,74.9z M269.3,55.7c0,0-0.1,0.1-0.1,0.1
					c-1.7,3.4-1.1,6.9,1.9,9.9c2.2,2.2,4.2,3,5.6,2.2c1.5-0.8,2.1-3.3,1.5-5.7C277.8,60.7,276.1,56,269.3,55.7z"/>
			</g>
			<g>
				<path class="st0" d="M838.7,274.5c-5,0-8.9-3.1-9.9-7.8c-0.9-4.3,0.5-7.2,1.8-8.8c1.9-2.4,5-3.8,8.3-3.8c4.6,0,8.4,2.6,10.3,7
					c0.8,2,0.7,4.5-0.4,6.8c-1.2,2.7-3.5,5-5.9,5.9C841.6,274.3,840.2,274.5,838.7,274.5z M839,255.4c-2.8,0-5.5,1.2-7.2,3.3
					c-1.6,2-2.2,4.7-1.5,7.7c0.9,4.1,4.2,6.7,8.5,6.7c1.2,0,2.5-0.2,3.7-0.7c2.1-0.8,4.1-2.7,5.1-5.1c0.9-2,1-4.1,0.3-5.7
					C846.3,257.7,843,255.4,839,255.4z"/>
			</g>
			<g>
				<path class="st1" d="M126,469.2c-5,0-8.9-3.1-9.9-7.8c-0.9-4.3,0.5-7.2,1.8-8.8c1.9-2.4,5-3.8,8.3-3.8c4.6,0,8.4,2.6,10.3,7
					c0.8,2,0.7,4.5-0.4,6.8c-1.2,2.7-3.5,5-5.9,5.9C128.8,468.9,127.4,469.2,126,469.2z M126.2,450.1c-2.8,0-5.5,1.2-7.2,3.3
					c-1.6,2-2.2,4.7-1.5,7.7c0.9,4.1,4.2,6.7,8.5,6.7c1.2,0,2.5-0.2,3.7-0.7c2.1-0.8,4.1-2.7,5.1-5.1c0.9-2,1-4.1,0.3-5.7
					C133.5,452.4,130.2,450.1,126.2,450.1z"/>
			</g>
			<g>
				<path class="st1" d="M823.1,370.8c-2.7,0-5.1-1.3-6.6-3.5l-14.3-21c-1.2-1.8-1.6-3.9-1.2-6c0.4-2.1,1.6-3.9,3.3-5.1l21-14.3
					c1.3-0.9,2.9-1.4,4.5-1.4c2.7,0,5.1,1.3,6.6,3.5l14.3,21c2.5,3.6,1.5,8.6-2.1,11.1l-21,14.3
					C826.3,370.3,824.7,370.8,823.1,370.8z M829.8,320.9c-1.3,0-2.6,0.4-3.7,1.1l-21,14.3c-1.4,1-2.4,2.5-2.8,4.2
					c-0.3,1.7,0,3.5,1,4.9l14.3,21c1.2,1.8,3.3,2.9,5.4,2.9c1.3,0,2.6-0.4,3.7-1.1l21-14.3c3-2,3.8-6.1,1.7-9.1l-14.3-21
					C834,322,832,320.9,829.8,320.9z"/>
			</g>
			<g>
				<path class="st0" d="M196.9,555.8c-2.9,0-5.1-2.3-5.6-6.1l-4.1-29.2c-0.3-2.5,0.1-4.5,1.3-5.9c1.6-1.9,4.4-2.2,7.5-1l27.3,11
					c2.7,1.1,4.3,2.9,4.6,5c0.3,2.1-0.8,4.3-3.1,6.1l-23.2,18.2C200.1,555.1,198.4,555.8,196.9,555.8z M192.5,514.3
					c-1.2,0-2.3,0.4-3,1.2c-0.9,1.1-1.3,2.7-1,4.7l4.1,29.2c0.4,3,2,4.8,4.2,4.8c1.2,0,2.6-0.5,3.9-1.6l23.2-18.2
					c1.9-1.5,2.8-3.2,2.5-4.7c-0.2-1.6-1.6-3-3.8-3.9l-27.3-11C194.4,514.6,193.4,514.3,192.5,514.3z"/>
			</g>
			<g>
				<path class="st2" d="M418.3,68.3c-1.3,0-2.7-0.4-4.1-1.2l-25.8-14.2c-2.5-1.4-4-3.3-4-5.5c0-2.1,1.3-4.2,3.8-5.7l25.2-15.3
					c1.5-0.9,2.9-1.3,4.3-1.3c3.3,0,5.4,2.6,5.5,6.7l0.6,29.5c0,2.3-0.6,4.2-1.8,5.5C421,67.8,419.8,68.3,418.3,68.3z M417.7,26.6
					c-1.1,0-2.3,0.4-3.5,1.1L388.9,43c-2,1.2-3.1,2.8-3.1,4.4c0,1.6,1.2,3.1,3.3,4.3l25.8,14.2c2.4,1.3,4.7,1.3,6-0.1
					c0.9-1,1.4-2.5,1.4-4.4l-0.6-29.5C421.7,28.6,420.1,26.6,417.7,26.6z"/>
			</g>
		</g>
		<g>
			<path d="M519.7,592.7C519.7,592.7,519.7,592.7,519.7,592.7c-58.9,0-110.1-4.4-144-12.5c-38.6-9.1-64.3-25-76.4-47.1
				c-10.2-18.7-10.7-41.6-1.4-68.2c0.3-1,0.7-2,1.1-3.1c7.3-21,20.8-60.2,85.1-138.3c46.8-56.8,106.8-88,169-88
				c23,0,45.8,4.2,67.8,12.6c55,20.8,100.9,54.2,132.9,96.6c26.9,35.7,43.7,77.5,47.3,117.6c3.8,43.3-8.5,79-32.2,93.2
				C725.8,581.2,612.6,592.7,519.7,592.7z M553.1,236.9c-61.8,0-121.4,31.1-167.9,87.5c-64.2,77.9-77.6,116.9-84.9,137.8
				c-0.4,1.1-0.7,2.1-1.1,3.1c-9.2,26.2-8.7,48.8,1.3,67.1c11.9,21.7,37.3,37.4,75.5,46.4c33.8,8,84.8,12.4,143.6,12.4c0,0,0,0,0,0
				c92.8,0,205.6-11.5,248.5-37.1c23.2-13.8,35.3-49,31.5-91.8c-6.1-69.3-56.8-166.7-179.3-213C598.5,241.1,575.9,236.9,553.1,236.9
				z"/>
		</g>
		<g>
			<g>
				<defs>
					<path id="SVGID_1_" d="M55.1,233.5C48,264.8,38.7,352,70.6,385.4c32,33.5,56.2,38.1,110.8,39.2c54.6,1,81.9,4.1,122.1,1.5
						c40.2-2.6,103.1-4,109.8-94.8c12.1-164.1-111.1-239.8-210.1-231C104.3,109.1,68.7,174.4,55.1,233.5z"/>
				</defs>
				<clipPath id="SVGID_00000059286730497742796350000012004785311192396177_">
					<use xlink:href="#SVGID_1_"  style="overflow:visible;"/>
				</clipPath>
				<g style="clip-path:url(#SVGID_00000059286730497742796350000012004785311192396177_);">
					<g>
						<path class="st4" d="M239.9,178.3c2.8,4.6,5.1,12.9,6.4,21.9c0.9,6.3,2.6,7,8.8,9.8c6.2,2.8,7.6,8.2,4.3,11.3
							c-4.8,4.4-4.8,2-5.4,7c-0.4,3.3,0.5,5.9-4,4.5c-1.7-0.6-5.4-2.7-5.9-2.3c-1.5,1.2-1.1,5.7,4.8,9.1c2.1,1.2,3.9,1.1,2,10.9
							c-1.6,8.5-12,9.9-22.2,7.9c-10.2-1.9-8.1,5.8-12.2,16.8c-4.1,11-4.6,17.2,1,21.8c5.6,4.6,10,26.9,9.5,32.3
							c-0.6,5.4-19.9,16.6-36.3-1.5c-8.9-12.4-18.9-36.1-18.9-36.1s10.4-14.5,10.2-28.6c-0.2-14.1-6.2-67.3,13.3-82.3
							S238,174.6,239.9,178.3z"/>
						<path d="M210.8,338.4c-5.2,0-13.1-1.8-20.7-10.2c-8.9-12.4-19-36.1-19.1-36.3c-0.1-0.2-0.1-0.5,0.1-0.7
							c0.1-0.1,10.3-14.5,10.1-28.2c0-1.9-0.2-4.7-0.3-7.9c-1-20.1-3.2-61.8,13.9-75c9.2-7.1,18.8-8.6,25.2-8.6
							c10.5,0,19.1,3.8,20.5,6.4c2.8,4.5,5.1,12.6,6.5,22.1c0.8,5.8,2.2,6.4,8,9.1l0.4,0.2c3.6,1.6,5.9,4.2,6.4,7.1
							c0.3,2-0.4,4-1.9,5.4c-1.7,1.6-2.8,2.3-3.6,2.8c-1.2,0.8-1.3,0.8-1.6,3.7c-0.1,0.6-0.1,1.2-0.1,1.7c-0.1,2.2-0.3,4.8-4.8,3.4
							c-0.7-0.2-1.8-0.7-2.7-1.2c-0.9-0.4-2.1-1-2.6-1.1c-0.3,0.3-0.4,0.8-0.3,1.4c0.1,1.7,1.5,4.2,5.2,6.4c0.2,0.1,0.4,0.2,0.6,0.3
							c2.3,1.2,3.5,2.3,1.8,11.3c-1.2,6-6.5,9.3-15.2,9.3c-2.5,0-5.1-0.3-7.9-0.8c-1-0.2-1.9-0.3-2.7-0.3c-4.2,0-5,2.6-6.4,8.5
							c-0.6,2.4-1.2,5.1-2.3,8.2c-4.3,11.7-4.1,17,0.8,21c5.8,4.8,10.3,27.2,9.7,32.9C227.3,333,220,338.4,210.8,338.4z
							 M172.5,291.7c1.3,3,10.6,24.3,18.7,35.6c7.2,8,14.6,9.7,19.6,9.7c8.6,0,15.2-5,15.5-7.8c0.6-5.2-3.9-27.3-9.2-31.6
							c-6.1-5.1-5.1-11.9-1.2-22.6c1.1-2.9,1.7-5.6,2.3-8c1.3-5.6,2.3-9.6,7.8-9.6c0.9,0,1.8,0.1,2.9,0.3c2.7,0.5,5.3,0.8,7.6,0.8
							c5.6,0,12.5-1.4,13.8-8.1c1.6-8.4,0.5-8.9-1.1-9.8c-0.2-0.1-0.4-0.2-0.6-0.3c-3.5-2-5.7-4.8-5.9-7.5c-0.1-1.2,0.3-2.2,1-2.8
							c0.6-0.5,1.7,0,4,1.1c0.9,0.4,1.9,0.9,2.6,1.1c0.7,0.2,1.4,0.4,1.8,0.4c0.8,0,1-0.3,1.1-2.5c0-0.6,0.1-1.2,0.2-1.8
							c0.4-3.3,0.6-3.7,2.3-4.7c0.7-0.5,1.8-1.2,3.4-2.6c1.2-1.1,1.7-2.6,1.5-4.1c-0.4-2.4-2.4-4.6-5.5-6l-0.4-0.2
							c-5.9-2.7-7.9-3.6-8.8-10.2c-1.3-9.3-3.6-17.2-6.3-21.6c-0.9-1.7-8.5-5.7-19.2-5.7c-6.2,0-15.5,1.4-24.4,8.3
							c-16.5,12.8-14.4,54-13.4,73.8c0.2,3.2,0.3,6,0.3,8C182.8,276.2,174.1,289.4,172.5,291.7z"/>
					</g>
					<path d="M181.4,424.6c3.6,1.5,37.6,3.3,37.6,3.3s14.9-47.7,8.8-102.3c-12.4,10.8-26.3,8.2-40.2-3.1
						C196.4,349.4,192.2,404.5,181.4,424.6z"/>
					<path d="M233.8,213.1c0.8,2.4,2.5,4,3.9,3.6c1.4-0.4,1.9-2.7,1.1-5.1c-0.8-2.4-2.5-4-3.8-3.6
						C233.5,208.4,233,210.7,233.8,213.1z"/>
					<g>
						<path d="M236.1,209.2c-0.1,0-0.1,0-0.2,0c-0.4-0.1-0.6-0.5-0.5-0.9l1.3-4.4c0.1-0.4,0.5-0.6,0.9-0.5c0.4,0.1,0.6,0.5,0.5,0.9
							l-1.3,4.4C236.7,209,236.4,209.2,236.1,209.2z"/>
					</g>
					<path class="st1" d="M201.8,354.5c-4-29.3-17.1-48.7-28.7-66.7c-1.8-2.8-3.4-2.4-4.2-2.2c-5.5,1.1-11.7,3.7-10.2,7.1
						c0.3,0.7,0.9,1.5,1.5,2.3c-2.4,0.5-5.3,1.1-8.7,1.8c-12.9,2.8-20.9,7.9-28.8,15.9s-48.8,57.5-60.2,70.1
						c14.9,28.9,40.6,33.1,40.6,33.1s23.4-23.6,38.1-41.6c-0.5,3.6-2.3,37.1-7.5,50.2c9.1,5.3,34.4,5,48.5,4.4
						c2.3,2.1,11.3,0.2,11.3,0.2S205.9,384.9,201.8,354.5z"/>
					<path d="M158.4,186.3c-6.8,2.5-14.3,8.7-18.4,35.2c-2,12.8-6.7,26.5-5.8,39.6c0.8,12.2,11.4,15.6,22.2,17.7
						c9.5,1.9,46.4,10.7,48.8-5.2c2.7-18.6-26.5-27.9-22.3-45.1c0.9-3.5,4.4-7.9,8-8.7c4.6-1,6,2.9,9.6,5.3c4.4,3,7,1.2,9.6-3.2
						c2.5-4.2,1.6-10.9,1.2-15.6c-0.5-6.2-1.2-8.4,4.1-10.1c7.2-2.4,13.4-7.3,6.5-15.5c9.3,11,13.9,9.3,21.4,4.4s7.9-9.3,5-17.6
						c-2.9-8.3-11.8-21.1-27.4-19.1c-15.7,1.9-14.1,6.2-32.9,10C169.2,162.3,157.2,167.9,158.4,186.3z"/>
					<g>
						<path d="M228.3,200.7c-0.1,0-0.2,0-0.2,0c-0.4-0.1-0.6-0.5-0.4-0.9c0.5-1.4,3.4-8.6,10-9.9c0.4-0.1,0.8,0.2,0.8,0.6
							c0.1,0.4-0.2,0.8-0.6,0.8c-5.9,1.2-8.5,7.7-8.9,9C228.9,200.5,228.6,200.7,228.3,200.7z"/>
					</g>
					<g>
						<path class="st4" d="M181.7,428.4C181.7,428.4,181.6,428.4,181.7,428.4c-0.4,0-0.7-0.4-0.7-0.8c0-0.6,0.2-2.3,0.4-4.8
							c1.1-14.3,4.1-52.4,3-61.1c-1.1-9.1,1.3-11.4,5.1-14.8c0.5-0.4,1-0.9,1.5-1.4c-1.8-1.2-6.7-4.2-10.3-6.5
							c-3.8-2.3-4.7-5.5-6.9-14c-0.7-2.5-1.4-5.4-2.4-8.9c-3.1-10.6-7.4-15.9-10.3-19.4c-0.7-0.9-1.3-1.6-1.8-2.3
							c-0.2-0.3-0.2-0.8,0.2-1c0.3-0.2,0.8-0.2,1,0.2c0.5,0.7,1.1,1.4,1.8,2.2c3,3.6,7.4,9,10.6,19.9c1,3.5,1.8,6.5,2.4,8.9
							c2.1,8.1,2.9,11.1,6.3,13.1c4.6,2.8,11,6.9,11.1,7c0.2,0.1,0.3,0.3,0.3,0.5c0,0.2-0.1,0.4-0.2,0.6c-0.8,0.8-1.5,1.4-2.1,2
							c-3.7,3.4-5.7,5.2-4.6,13.6c1.1,8.8-1.9,47-3,61.4c-0.2,2.4-0.3,4.1-0.4,4.7C182.4,428.1,182.1,428.4,181.7,428.4z"/>
					</g>
					<path class="st1" d="M281.1,335.2l-5.4,16c0,0-12.9-23.4-21.1-33.8c-7.7-9.6-18.8-15.7-27.6-18.9c-5.9-9.8-14.3-11.2-14.3-11.2
						s-0.7,2.3,0.6,5.3c1.2,2.9,14.5,25.9,11.4,62.5c-3.1,36.6-13.7,72.9-13.7,72.9h8c0,0,0.1-0.2,0.2-0.6c6,0.8,18.2,2,18.6-0.7
						c0.5-3.6,7.5-32.5,11.6-41.5c12.4,22.9,23.8,27.6,40.4,20.6c11.9-5,21.7-44.9,22.9-60.6C313.1,345,281.1,335.2,281.1,335.2z"/>
					<g>
						<path class="st4" d="M219,428.7c-0.1,0-0.1,0-0.2,0c-0.4-0.1-0.6-0.5-0.5-0.9c0.2-0.5,16-52.4,18.3-62.3
							c2.4-10.2,2.3-11.4,0.7-14.4c-1.9-3.8-3.6-7.1-3.6-7.1c-0.2-0.3-0.1-0.7,0.3-0.9c1.7-1.1,6.1-4.5,5.3-7.4
							c-1.6-6.5-7.9-27.8-12.5-36l-0.1-0.3c-0.2-0.3-0.1-0.8,0.3-1c0.3-0.2,0.8-0.1,1,0.3l0.2,0.3c4.7,8.2,11,29.8,12.6,36.3
							c1,3.8-3.8,7.5-5.4,8.6c0.6,1.1,1.8,3.7,3.3,6.5c1.8,3.5,1.7,5.2-0.6,15.4c-2.3,10-18.1,61.9-18.3,62.4
							C219.6,428.5,219.3,428.7,219,428.7z"/>
					</g>
					<g>
						<path d="M249.4,385.9c-0.1,0-0.2,0-0.3-0.1c-0.4-0.2-0.5-0.6-0.4-0.9c11.6-25.4,7.3-34.5,4.7-39.9c-0.4-0.9-0.8-1.8-1.1-2.6
							c-0.1-0.4,0.1-0.8,0.5-0.9c0.4-0.1,0.8,0.1,0.9,0.5c0.2,0.7,0.6,1.5,1,2.4c2.7,5.7,7.2,15.2-4.7,41.1
							C250,385.7,249.7,385.9,249.4,385.9z"/>
					</g>
					<g>
						<path d="M279.9,361.6c-0.3,0-0.5-0.1-0.6-0.4c0-0.1-2.9-6-5.4-12.1c-0.2-0.4,0-0.8,0.4-0.9c0.4-0.1,0.8,0,0.9,0.4
							c2.5,6.1,5.4,12,5.4,12.1c0.2,0.4,0,0.8-0.3,0.9C280.1,361.5,280,361.6,279.9,361.6z"/>
					</g>
					<g>
						<path class="st4" d="M283.2,329.1c2.9-9.1,7.1-33.6,8.1-42.7c1-9.1-4.4-21.8,1.9-30c6.4-8.1,10.4-12.2,12.2-16.2
							c1.7-4.1,5.8-4.6,7.9-0.6c2.1,4.1-1.2,11.2-6,16.2c11.8-7.5,12.8-4.8,16.4-10.6c3.7-5.8,10.8-20.7,15.5-20.3
							c3.9-5.2,8.3-2.3,9.1,4.8c2.3-0.2,4.4,5.2,2.9,13.3c5.6,3.3,5,15.3-2.9,24.3c-7.9,9.1-23,14.5-26.3,21.8
							c-3.3,7.3-8.7,50.4-8.7,50.4L283.2,329.1z"/>
						<path d="M313.3,340.4c-0.1,0-0.2,0-0.2,0L283,329.8c-0.4-0.1-0.6-0.5-0.4-0.9c2.9-9.1,7.2-33.8,8.1-42.6
							c0.3-3.1-0.1-6.5-0.5-10.2c-0.9-7.1-1.7-14.5,2.6-20.1c2-2.5,3.7-4.6,5.2-6.5c3.4-4.2,5.7-6.9,6.9-9.6c1-2.4,2.8-3.8,4.8-3.8
							c1.8,0,3.4,1.1,4.4,3.2c1.9,3.6,0,9.1-3.4,13.7c3-1.7,5.2-2.7,6.7-3.4c2.8-1.2,3.9-1.7,5.9-4.8c0.8-1.2,1.8-2.9,2.8-4.7
							c4.9-8.6,9.2-15.7,12.9-15.9c1.7-2.2,3.4-2.7,4.4-2.7c2.8,0,5,2.9,5.6,7.6c0.5,0.1,1,0.4,1.6,1.1c1.4,1.7,2.6,6,1.5,12.6
							c1.8,1.2,3,3.3,3.4,6.1c1,5.9-1.6,13.4-6.6,19c-3.7,4.3-8.9,7.7-13.9,11c-5.4,3.6-10.6,7-12.3,10.7
							c-3.2,7.2-8.6,49.8-8.6,50.2c0,0.2-0.1,0.4-0.3,0.5C313.6,340.4,313.5,340.4,313.3,340.4z M284.1,328.6l28.7,10.1
							c0.8-6.3,5.6-42.9,8.6-49.8c1.8-4.1,7.2-7.6,12.8-11.3c4.9-3.2,10-6.6,13.6-10.7c4.7-5.4,7.1-12.4,6.3-17.9
							c-0.4-2.5-1.5-4.4-3.2-5.4c-0.3-0.2-0.4-0.5-0.3-0.7c1.1-5.9,0.3-10.2-1.1-11.9c-0.2-0.3-0.6-0.6-1-0.6
							c-0.4,0-0.8-0.3-0.8-0.6c-0.4-4.1-2.2-6.9-4.3-6.9c-1.2,0-2.4,0.8-3.5,2.4c-0.1,0.2-0.4,0.3-0.6,0.3c0,0,0,0,0,0
							c-3.3,0-8.5,9.1-12,15.2c-1,1.8-2,3.5-2.8,4.8c-2.2,3.5-3.6,4.1-6.5,5.4c-2.2,1-5.2,2.3-10.2,5.5c-0.3,0.2-0.7,0.1-0.9-0.1
							c-0.2-0.3-0.2-0.7,0-0.9c4.4-4.6,7.9-11.5,5.9-15.4c-0.8-1.5-1.9-2.4-3.2-2.4c-1.4,0-2.7,1.1-3.5,2.9c-1.2,2.9-3.6,5.7-7.1,10
							c-1.5,1.8-3.3,3.9-5.2,6.4c-4,5.1-3.1,12.2-2.3,19c0.5,3.8,0.9,7.3,0.5,10.6C291.1,295,287,318.9,284.1,328.6z"/>
					</g>
					<g>
						<path d="M314.3,269.1c-0.3,0-0.6-0.2-0.7-0.5c-1-4.1-4.6-10.8-6.7-12.1c-0.3-0.2-0.4-0.7-0.2-1c0.2-0.3,0.7-0.4,1-0.2
							c2.5,1.7,6.3,8.8,7.3,13c0.1,0.4-0.1,0.8-0.5,0.9C314.4,269.1,314.4,269.1,314.3,269.1z"/>
					</g>
					<g>
						<path d="M337.9,265.3c-0.3,0-0.5-0.1-0.6-0.4c-0.7-1.4-9.3-11.7-12.5-12.8c-0.4-0.1-0.6-0.5-0.4-0.9c0.1-0.4,0.5-0.6,0.9-0.4
							c3.7,1.2,12.6,11.9,13.4,13.5c0.2,0.4,0,0.8-0.3,1C338.1,265.2,338,265.3,337.9,265.3z"/>
					</g>
					<g>
						<path d="M336.1,266.2c-0.3,0-0.5-0.2-0.6-0.4c-0.2-0.4,0-0.8,0.3-0.9c2.2-1,7.2-7.3,8.5-14.6c0.7-3.7,1.8-6,3.5-7
							c1.5-1,3.2-0.6,4.4-0.3c0.4,0.1,0.6,0.5,0.5,0.9c-0.1,0.4-0.5,0.6-0.9,0.5c-1.4-0.4-2.4-0.4-3.2,0.1c-1.3,0.8-2.2,2.8-2.8,6.1
							c-1.4,7.4-6.5,14.3-9.3,15.6C336.3,266.2,336.2,266.2,336.1,266.2z"/>
					</g>
					<g>
						<path d="M333.6,259.8c-0.2,0-0.4-0.1-0.5-0.2c-0.3-0.3-0.2-0.7,0.1-1c4.2-3.7,5.9-9,7.5-17c1.4-7.4,4.2-11.4,8.3-12.2
							c0.4-0.1,0.8,0.2,0.8,0.6c0.1,0.4-0.2,0.8-0.6,0.8c-3.4,0.6-5.8,4.3-7.2,11c-1.6,8.3-3.4,13.9-8,17.8
							C334,259.8,333.8,259.8,333.6,259.8z"/>
					</g>
					<g>
						<path d="M329.2,254.8c-0.1,0-0.3,0-0.4-0.1c-0.3-0.2-0.4-0.7-0.2-1c2.1-3,4.7-11.5,6.8-18.3c1.6-5.1,2.9-9.5,3.9-11.3
							c0.2-0.3,0.6-0.5,1-0.3c0.3,0.2,0.5,0.6,0.3,1c-0.9,1.7-2.3,6.3-3.8,11.1c-2.3,7.3-4.8,15.6-7,18.7
							C329.6,254.7,329.4,254.8,329.2,254.8z"/>
					</g>
					<g>
						<path d="M139.7,376.6c-0.2,0-0.3-0.1-0.5-0.2c-0.3-0.3-0.3-0.7-0.1-1c4.3-5.1,13.1-14.4,13.2-14.5c0.3-0.3,0.7-0.3,1,0
							c0.3,0.3,0.3,0.7,0,1c-0.1,0.1-8.8,9.3-13.1,14.4C140.1,376.5,139.9,376.6,139.7,376.6z"/>
					</g>
					<path d="M281.9,326.8c-2.8,5.3-4.5,14-3.9,14.8c0.6,0.8,21.7,2.5,36.1,12.8c3.3,1.5,4.3-13.7,3.8-15.4
						C316.6,334.3,283.7,324.9,281.9,326.8z"/>
					<g>
						<path class="st4" d="M201.5,354c-0.2,0-0.3-0.1-0.5-0.2c-0.1-0.1-6.6-5.7-9.6-7.7c-0.3-0.2-0.4-0.7-0.2-1
							c0.2-0.3,0.7-0.4,1-0.2c3.1,2.1,9.5,7.6,9.7,7.8c0.3,0.3,0.3,0.7,0.1,1C201.9,353.9,201.7,354,201.5,354z"/>
					</g>
					<g>
						<path class="st4" d="M225,351.1c-0.2,0-0.4-0.1-0.5-0.2c-0.3-0.3-0.3-0.7,0-1c2.7-2.7,6.2-4.8,8.5-6.2
							c0.6-0.3,1.1-0.6,1.4-0.9c0.3-0.2,0.8-0.1,1,0.2c0.2,0.3,0.1,0.8-0.2,1c-0.4,0.3-0.9,0.6-1.5,0.9c-2.2,1.3-5.6,3.4-8.2,6
							C225.4,351,225.2,351.1,225,351.1z"/>
					</g>
					<path class="st0" d="M204.3,249.8c-0.8-7-6.3-14.2-12.9-10c-5.7,3.7-7.5,13.5-2.2,18.1c2.2,2,5.8,2.9,8.8,2.3
						C203.1,259.3,204.8,254.6,204.3,249.8z"/>
				</g>
			</g>
			<g>
				<path d="M271.8,427.9C271.8,427.9,271.8,427.9,271.8,427.9c-13.9,0-27.5-0.5-43.3-1.1c-13.5-0.5-28.9-1.1-47.1-1.4
					c-53.4-1-78.4-4.8-111.3-39.4c-30.8-32.3-23.9-116.8-15.7-152.6c18.7-81.6,68.7-126.6,148.7-133.7c5.1-0.5,10.4-0.7,15.6-0.7
					c52.9,0,106.1,23.2,142.2,62.1c27.7,29.9,59.5,83.6,53.1,170.4c-6.6,89-67.1,92.8-107.1,95.3l-3.3,0.2
					C292.9,427.5,282.8,427.9,271.8,427.9z M218.8,100.4c-5.2,0-10.4,0.2-15.5,0.7c-79.3,7-128.9,51.6-147.5,132.6
					C47.7,269.3,40.7,353.1,71.1,385c32.6,34.1,57.4,37.9,110.3,38.9c18.3,0.3,33.6,0.9,47.2,1.4c15.7,0.6,29.3,1.1,43.2,1.1
					c0,0,0,0,0,0c11,0,21.1-0.3,31.7-1l3.3-0.2c39.6-2.5,99.3-6.2,105.8-94c5-68.2-13.2-126.8-52.7-169.3
					C324.1,123.4,271.3,100.4,218.8,100.4z"/>
			</g>
		</g>
		<g>
			<path class="st1" d="M291.6,134.6c9.7-2.5,40.5-8.4,56.7-11.8c16.2-3.4,33.8-5.7,36.1-4.6c2.3,1-23.3,33.4-35.3,46.2
				c-4,2.7-9.4-2.3-9.4-2.3c-11.3,11.8-24.1,16.2-26.2,16.6c-2.1,0.4-3.1-12.6-3.4-20.4c-0.2-7.8,1.2-9.3-5.2-12.4
				C284.9,136.3,291.6,134.6,291.6,134.6z"/>
			<g>
				<path d="M313.4,179.4c-0.3,0-0.6-0.2-0.7-0.5c-0.1-0.4,0.1-0.8,0.5-0.9c1.1-0.4,4.9-6.6,7.7-11.1c3-4.9,5.8-9.5,7.5-11.2
					c3.2-3.2,32.5-23.2,45-31.7l-61,24.2c-0.4,0.1-0.8,0-0.9-0.4c-0.1-0.4,0-0.8,0.4-0.9l67.1-26.6c0.4-0.1,0.8,0,0.9,0.4
					c0.2,0.3,0,0.8-0.3,0.9c-2.1,1.1-46.8,31.8-50.2,35.1c-1.6,1.6-4.5,6.3-7.3,10.9c-4.9,7.9-7.1,11.4-8.5,11.7
					C313.5,179.4,313.5,179.4,313.4,179.4z"/>
			</g>
			<g>
				<path d="M340.9,163.7c-0.1,0-0.3,0-0.4-0.1l-0.3-0.2c-4.3-3.1-9.7-7.1-10.9-6.4c-0.4,0.2-0.8,0-1-0.3c-0.2-0.4,0-0.8,0.3-1
					c1.9-1,5.8,1.7,12.4,6.6l0.3,0.2c0.3,0.2,0.4,0.7,0.2,1C341.3,163.6,341.1,163.7,340.9,163.7z"/>
			</g>
		</g>
		<g>
			<path class="st0" d="M395.7,278.5c-8.1,0.7-12.7,5.8-11.8,20c0.8,14.3-2.4,29,3.2,34.5c5.7,5.5,19.9,5.5,33.1,5.8
				c13.2,0.2,30.3-0.2,35.3-0.2c11.9-0.2,16.1-2.2,17.8-11.6c1-5.5-1.3-36.4-1.4-39.7c-0.2-8.1-5.5-9.1-17-9.7
				C443.9,277.1,403.2,277.8,395.7,278.5z"/>
			<g>
				<path d="M428.1,316.3c-0.1,0-0.1,0-0.2,0c-5.7-0.1-10.3-4.9-13.7-9c-6.3-7.7-20.3-23.4-23.8-26.3c-0.3-0.3-0.3-0.7-0.1-1
					c0.3-0.3,0.7-0.3,1-0.1c3.5,3,17.7,18.8,23.9,26.5c3.2,3.9,7.5,8.4,12.6,8.5c3.6,0,7.4-2.2,11.3-6.7
					c10.7-12.3,26.5-27.8,26.6-28c0.3-0.3,0.7-0.3,1,0c0.3,0.3,0.3,0.7,0,1c-0.2,0.2-15.9,15.6-26.6,27.9
					C436.2,313.9,432.1,316.3,428.1,316.3z"/>
			</g>
			<g>
				<path d="M387.1,333.7c-0.3,0-0.5-0.1-0.6-0.4c-0.2-0.4,0-0.8,0.3-1c1.9-0.9,11.3-9.8,18.2-16.3c5.7-5.4,9-8.5,9.8-8.9
					c0.3-0.2,0.8-0.1,1,0.2c0.2,0.3,0.1,0.8-0.2,1c-0.7,0.4-5,4.5-9.5,8.8c-9.3,8.8-16.6,15.6-18.5,16.6
					C387.3,333.7,387.2,333.7,387.1,333.7z"/>
			</g>
			<g>
				<path d="M467.5,336c-0.2,0-0.5-0.1-0.6-0.4c-0.5-0.8-5.8-6.5-10.9-12.1c-6.8-7.3-13.8-14.9-14.8-16.6c-0.2-0.3-0.1-0.8,0.2-1
					c0.3-0.2,0.8-0.1,1,0.2c1,1.6,8.3,9.4,14.7,16.4c6.5,7.1,10.6,11.5,11.1,12.3c0.2,0.3,0.1,0.8-0.3,1
					C467.8,336,467.7,336,467.5,336z"/>
			</g>
		</g>
		<g>
			<g>
				<defs>
					<path id="SVGID_00000166670772288316046070000001239836551828982448_" d="M588.6,21.2c-49.8,10.5-127.6,32.1-124,127.1
						c3.6,94.9,40.1,143.8,101,162.8c60.9,19,210.4,38.5,242.2-24.6c31.7-63.1,21.3-153.2,4.9-190.6
						C796.3,58.4,756.6-14.2,588.6,21.2z"/>
				</defs>
				<clipPath id="SVGID_00000026134153161536970760000018118503774834658201_">
					<use xlink:href="#SVGID_00000166670772288316046070000001239836551828982448_"  style="overflow:visible;"/>
				</clipPath>
				<g style="clip-path:url(#SVGID_00000026134153161536970760000018118503774834658201_);">
					<path d="M723.2,98.6c-3.9-16.6-40-38-55.4-32s4.3,12.8,4.3,12.8c-23.7-4.3-35.1-1.4-37.5,4.5c-2.4,5.9,7.6,8.3,7.6,8.3
						c-16.1,0.5-34.2,13.1-31.6,21.8c2.6,8.8,13.3,5.6,13.3,5.6c-15.2,12.2-12.7,24.7,3.1,23.2c-16.7,12.5-19,35.6-12.6,43.9
						c6.4,8.3,12.6-4.3,12.6-4.3c-6.7,18.5,3.3,30.6,12.8,15.2c-2.1,21.1,16.6,24,22.5,13.5c5.7,20.2,19.2,17.1,21.6,7.1
						c7.4,9.3,21.8,6.2,24.7-3.8c8.1,9.5,15.2,0.8,14.5-6.5c8.3,9.7,21.4,10.9,24-6.8c11.9,8.8,17.8,8.5,14.6-12.5
						c19.8,7.2,30.3-14.8,7.5-33.8c15.2,4,13.5-11.6-8.2-21c15.3-0.4,17.2-10.8,9.6-18.5C763,107.7,750.1,92.7,723.2,98.6z"/>
					<g>
						<path class="st4" d="M647.8,139.2c-2.3,13.9,1.8,18,5.9,27.8c4.1,9.8-1.6,20.1,9.3,32.3c10.2,11.4,25.7,10.7,25.7,10.7
							l4.4,17.8L731,218l-8.2-35.7c0,0,7.7-4.3,5.4-19.5c-2.3-15.2-2.6-52.8-39.4-47.2C651.9,121.4,651.1,128.1,647.8,139.2z"/>
						<path d="M693.1,228.5c-0.1,0-0.3,0-0.4-0.1c-0.2-0.1-0.3-0.3-0.3-0.4l-4.2-17.2c-2.7,0-16.3-0.6-25.7-10.9
							c-7.1-7.9-7.4-15.1-7.7-21.5c-0.2-3.8-0.3-7.5-1.8-11c-0.8-1.9-1.6-3.6-2.4-5.2c-3.1-6.5-5.5-11.6-3.6-23l0.4-1.2
							c3.2-10.8,5.2-17.3,41.2-22.8c2.5-0.4,5-0.6,7.2-0.6c27.1,0,30.4,27,32.3,43.1c0.2,1.9,0.4,3.7,0.7,5.3
							c2.1,13.5-3.6,18.7-5.3,19.9l8.1,35.2c0.1,0.4-0.1,0.8-0.5,0.8l-37.9,9.8C693.2,228.5,693.2,228.5,693.1,228.5z M688.7,209.3
							c0.3,0,0.6,0.2,0.7,0.5l4.2,17.1l36.5-9.4l-8.1-35c-0.1-0.3,0.1-0.6,0.4-0.8c0.1,0,7.3-4.3,5-18.7c-0.2-1.6-0.5-3.4-0.7-5.3
							c-1.9-15.6-5-41.8-30.9-41.8c-2.2,0-4.6,0.2-7,0.6c-35.2,5.4-37,11.6-40.1,21.8l-0.3,1.1c-1.8,10.9,0.4,15.6,3.5,22.1
							c0.8,1.6,1.6,3.3,2.4,5.2c1.6,3.8,1.8,7.5,1.9,11.5c0.3,6.5,0.6,13.2,7.3,20.6c8.9,10,22.1,10.5,24.6,10.5
							C688.9,209.3,688.7,209.3,688.7,209.3z"/>
					</g>
					<path d="M736.9,149.9c-1.3-7.8-2.9-15.1-6.9-22c-2.5-4.3-4.7-8.7-8.9-11.5c-11.8-8-27.6-7.5-41-4.7c-10.6,2.2-22.4,6-30.7,13.3
						c-2.7,2.4-13.8,13.5-6.6,16.7c4.2,1.9,8.8-2.1,12-4.8c0.1,0.4,0.4,0.8,0.7,1.3c2.1,3.2,7.5,3.6,11,2.8
						c9.3-1.4,18.2-7.5,24.9-14.2c-1.4,2.1-3.2,5-2.5,7.8c1.4,3.2,4.6,3.6,7.5,3.6c6.1-0.4,11.7-5.3,16-9.3
						c-3.6,6.8-7.5,13.5-7.8,21.4c-0.4,3.6,0,7.5,1.4,10.7c1.8,4.3,5.7,4.3,9.3,1.8c-1.8,5.7-2.8,11-0.4,16.7
						c1.5,3.4,6.2,9.1,12.7,8c5.2-0.9,6.2-13.2,8.1-17.4C739.3,162,738.3,158.6,736.9,149.9z"/>
					<g>
						<path class="st4" d="M640.6,144.2c-3.2,0-6.3-1.1-7.1-4.4c-0.5-1.9-0.2-4.2,0.2-5.7c0.9-2.9,3.5-7.1,5.9-9.2
							c0.3-0.3,0.7-0.2,1,0.1c0.3,0.3,0.2,0.7-0.1,1c-2.2,2-4.7,5.9-5.5,8.6c-0.4,1.3-0.7,3.3-0.2,4.9c1.1,4,6.7,3.3,7.9,3.1
							c3.4-0.5,5.9-1.3,7.9-2.4c0.3-0.2,0.8-0.1,1,0.3c0.2,0.3,0.1,0.8-0.3,1c-2.1,1.2-4.8,2-8.3,2.6
							C642.2,144.1,641.4,144.2,640.6,144.2z"/>
					</g>
					<g>
						<path d="M678.2,186C678.2,186,678.2,186,678.2,186c-4.7-0.3-7.7-1.3-9-3.3c-1.7-2.4-0.6-5.6,0.4-8.7c0.2-0.6,0.4-1.2,0.6-1.8
							c1.6-5.3-2-11.6-6.1-15.3c-3.2-2.9-7.2-3.4-9.8-2.7c-1.5,0.4-2.5,1.3-2.8,2.3c-0.1,0.4-0.5,0.6-0.9,0.5
							c-0.4-0.1-0.6-0.5-0.5-0.9c0.4-1.5,1.8-2.7,3.8-3.3c3-0.9,7.6-0.3,11.2,3c4.5,4.1,8.2,10.9,6.5,16.8c-0.2,0.6-0.4,1.2-0.6,1.8
							c-0.9,2.8-1.9,5.6-0.6,7.5c1.1,1.6,3.7,2.5,7.9,2.7c0.4,0,0.7,0.4,0.7,0.8C678.9,185.7,678.6,186,678.2,186z"/>
					</g>
					<g>
						<path d="M676,154.5c-0.2,0-0.3,0-0.4-0.2c-0.3-0.2-0.4-0.7-0.1-1c2.5-3.1,9.7-9.6,22.8-2.2c0.3,0.2,0.5,0.6,0.3,1
							c-0.2,0.3-0.6,0.5-1,0.3c-11.7-6.7-18.2-1.7-21,1.8C676.4,154.4,676.2,154.5,676,154.5z"/>
					</g>
					<path d="M692.8,165.5c1.2,2.2,1.1,4.6-0.1,5.3c-1.3,0.7-3.3-0.6-4.5-2.8c-1.2-2.2-1.1-4.6,0.1-5.3
						C689.6,162,691.6,163.3,692.8,165.5z"/>
					<g>
						<path d="M689.2,163.8c-0.1,0-0.2,0-0.3-0.1l-4-2.1c-0.3-0.2-0.5-0.6-0.3-1c0.2-0.3,0.6-0.5,1-0.3l4,2.1c0.3,0.2,0.5,0.6,0.3,1
							C689.7,163.6,689.4,163.8,689.2,163.8z"/>
					</g>
					<path d="M665.9,167.8c1.2,2.2,1.1,4.6-0.1,5.3c-1.3,0.7-3.3-0.6-4.5-2.8c-1.2-2.2-1.1-4.6,0.1-5.3
						C662.7,164.4,664.7,165.6,665.9,167.8z"/>
					<g>
						<path d="M662.3,166.1c-0.1,0-0.2,0-0.3-0.1l-4-2.1c-0.3-0.2-0.5-0.6-0.3-1c0.2-0.3,0.6-0.5,1-0.3l4,2.1c0.3,0.2,0.5,0.6,0.3,1
							C662.8,166,662.6,166.1,662.3,166.1z"/>
					</g>
					<g>
						<path d="M683,198.1c-3.4,0-6.7-3.2-9.4-8.9c-0.1-0.2-0.1-0.5,0.1-0.7c0.1-0.2,0.4-0.3,0.7-0.3c0.7,0.1,1.5,0.1,2.2,0.1
							c2.7,0,6-1.1,14.5-6.6c0.2-0.1,0.5-0.2,0.8,0c0.2,0.1,0.4,0.4,0.3,0.7C691.3,192.1,687.7,198.1,683,198.1z M675.4,189.7
							c2.3,4.4,5,6.9,7.6,6.9c3.7,0,6.6-5,7.6-12.9C681.6,189.4,678.7,190,675.4,189.7z"/>
					</g>
					<g>
						<path d="M681,197.5c-0.1,0-0.1,0-0.2,0c-0.4-0.1-0.6-0.5-0.5-0.9c1.3-4.6,6.4-8,9.7-7.8c0.4,0,0.7,0.4,0.7,0.8
							c0,0.4-0.3,0.7-0.8,0.7c-2.9-0.2-7.2,2.9-8.3,6.8C681.6,197.3,681.3,197.5,681,197.5z"/>
					</g>
					<path class="st0" d="M595.4,318.6c6.8-6.6,39-49.3,51.6-64.5c12.6-15.3,27.1-15.7,46.8-15.8c-4.9-19.4-3.6-19.9-2.6-19.7
						c1,0.2,19.4,4.2,37.7-8.5c4.9-1.3,4.7,18.2,9.3,20.7c4.6,2.5,35.6-3.9,50.8,11.4c15.3,15.3,25.9,51.4,25.9,51.4
						c-8.3,13.3-64.7,55.3-135.7,35.9c-1.4-6-11-15.3-13.9-27.1c-12,15.7-20.5,27.2-20.5,27.2S606.8,327.1,595.4,318.6z"/>
					<g>
						<path d="M708.5,244c-7.8,0-13.2-3.1-15.3-5.4c-0.3-0.3-0.3-0.7,0-1c0.3-0.3,0.7-0.3,1,0c4,4.2,20.4,11.7,42.5-8
							c0.3-0.3,0.7-0.2,1,0.1c0.3,0.3,0.2,0.7-0.1,1C726.3,240.9,716.2,244,708.5,244z"/>
					</g>
					<g>
						<path d="M704.4,243.9c-0.3,0-0.6-0.2-0.7-0.5c-0.3-0.8-6.3-20.8-7-23.6c-0.1-0.4,0.2-0.8,0.5-0.9c0.4-0.1,0.8,0.2,0.9,0.5
							c0.6,2.8,6.9,23.3,6.9,23.5c0.1,0.4-0.1,0.8-0.5,0.9C704.6,243.8,704.5,243.9,704.4,243.9z"/>
					</g>
					<g>
						<path d="M712.8,243.7c-0.3,0-0.6-0.2-0.7-0.5l-7.5-23.8c-0.1-0.4,0.1-0.8,0.5-0.9c0.4-0.1,0.8,0.1,0.9,0.5l7.5,23.8
							c0.1,0.4-0.1,0.8-0.5,0.9C713,243.7,712.9,243.7,712.8,243.7z"/>
					</g>
					<g>
						<path d="M721.6,241.2c-0.3,0-0.6-0.2-0.7-0.5l-7.5-22.8c-0.1-0.4,0.1-0.8,0.5-0.9c0.4-0.1,0.8,0.1,0.9,0.5l7.5,22.8
							c0.1,0.4-0.1,0.8-0.5,0.9C721.7,241.1,721.7,241.2,721.6,241.2z"/>
					</g>
					<g>
						<path d="M729.6,237c-0.3,0-0.6-0.2-0.7-0.5l-6.3-21.4c-0.1-0.4,0.1-0.8,0.5-0.9c0.4-0.1,0.8,0.1,0.9,0.5l6.3,21.4
							c0.1,0.4-0.1,0.8-0.5,0.9C729.7,237,729.6,237,729.6,237z"/>
					</g>
					<g>
						<path d="M688.9,210.9c-0.1,0-0.2,0-0.2,0c-0.4,0-0.7-0.3-0.7-0.7c0-0.4,0.3-0.7,0.7-0.7c5,0.2,18.6-4.3,27.3-14.9
							c0.2-0.3,0.7-0.4,1-0.1c0.3,0.2,0.4,0.7,0.1,1C708.3,206.3,694.4,210.9,688.9,210.9z"/>
					</g>
					<g>
						<path d="M668.1,310.2c-0.3,0-0.5-0.2-0.7-0.4c-4.7-10.7-5.1-21.4-5.1-24.4c0-0.4,0.3-0.7,0.7-0.7s0.7,0.3,0.7,0.7
							c0,2.1,0.2,13.1,5,23.9c0.2,0.4,0,0.8-0.4,0.9C668.2,310.2,668.1,310.2,668.1,310.2z"/>
					</g>
					<g>
						<path d="M771.8,323.7c-0.3,0-0.6-0.2-0.7-0.5c-0.1-0.2-6.4-21.9-9.1-30.1c-0.1-0.4,0.1-0.8,0.5-0.9c0.4-0.1,0.8,0.1,0.9,0.5
							c2.7,8.2,9,29.9,9.1,30.2c0.1,0.4-0.1,0.8-0.5,0.9C772,323.7,771.9,323.7,771.8,323.7z"/>
					</g>
					<g>
						<path class="st4" d="M725.1,188.7c-2.2,0-4.8-0.7-7.5-2.2c-0.3-0.2-0.5-0.6-0.3-1c0.2-0.3,0.6-0.5,1-0.3
							c3.3,1.7,6.2,2.3,8.4,1.8c5.3-1.2,7.5-10.5,7.5-15.2c0-0.3,0.2-0.6,0.5-0.7c0.3-0.1,0.6,0,0.8,0.2c2.4,3.2,5.3,4.6,9,4.6
							c3.6-0.2,7.1-4.2,7.5-7.4c0.1-0.4,0.4-0.7,0.8-0.6c0.4,0.1,0.7,0.4,0.6,0.8c-0.5,3.7-4.5,8.3-8.9,8.6c0,0,0,0,0,0
							c-3.6,0-6.5-1.2-8.9-3.8c-0.5,5.8-3.2,13.5-8.5,14.7C726.4,188.6,725.8,188.7,725.1,188.7z"/>
					</g>
				</g>
			</g>
			<g>
				<path d="M692.9,330.3C692.9,330.3,692.9,330.3,692.9,330.3c-50.3,0-100.2-10-127.6-18.5c-64.9-20.2-98.1-73.7-101.5-163.5
					c-1.6-41.7,12.7-73.9,42.3-95.8c24.5-18.1,55.4-26.3,82.3-32c29.9-6.3,57.3-9.5,81.7-9.5c43.9,0,79,10.4,104.4,30.8
					c20.9,16.8,31.7,37.5,38.8,53.7c9,20.6,15,53.6,15.7,86c0.6,28.3-2.6,69.5-20.6,105.3C790.3,322.7,735.6,330.3,692.9,330.3z
					 M670.1,12.5c-24.2,0-51.6,3.2-81.4,9.5C525.8,35.2,462,60.6,465.3,148.2c3.4,89.1,36.2,142.1,100.5,162.2
					c29.5,9.2,80.3,18.5,127.1,18.5c0,0,0,0,0,0c42.3,0,96.4-7.4,114.2-42.7c17.9-35.6,21-76.5,20.4-104.6
					c-0.6-32.2-6.6-65-15.5-85.4C802,73.2,775.4,12.5,670.1,12.5z"/>
			</g>
		</g>
		<g>
			<g>
				<path class="st4" d="M527.5,84.8h-55.8c-9.7,0-17.1,8.3-16.5,18.4l1.5,25.6c0.5,9.3,8.4,16.7,17.5,16.5l40.4-0.6
					c2.1,6.3,3.7,12.4,7.7,12.1c2.9-0.3,4.1-6.4,5-12.3c8.5-0.5,15.4-7.7,15.8-16.6l0.9-25.1C544.2,93,536.9,84.8,527.5,84.8z"/>
				<path d="M522,157.6c-4,0-5.6-5-7.5-10.7c-0.1-0.5-0.3-0.9-0.5-1.4l-40.1,0.6c-9.5,0-17.4-7.6-17.9-17.2l-1.5-25.6
					c-0.3-5.2,1.5-10.2,4.9-13.9c3.2-3.4,7.6-5.3,12.3-5.3h55.8c4.5,0,8.8,1.8,11.9,5.1c3.4,3.5,5.3,8.5,5.1,13.7l-0.9,25.1
					c-0.3,9-7.2,16.4-15.9,17.3c-0.9,6.3-2.2,12-5.5,12.3C522.2,157.6,522.1,157.6,522,157.6z M514.6,144.1c0.3,0,0.6,0.2,0.7,0.5
					c0.2,0.6,0.4,1.3,0.6,1.9c1.8,5.4,3.3,10,6.3,9.7c2.7-0.3,3.9-8.6,4.3-11.7c0-0.3,0.3-0.6,0.7-0.6c8.2-0.5,14.8-7.5,15.1-16
					l0.9-25.1c0.2-4.7-1.5-9.3-4.7-12.6c-2.9-3-6.8-4.7-10.9-4.7h-55.8c-4.3,0-8.3,1.7-11.3,4.9c-3.1,3.3-4.8,8-4.5,12.8l1.5,25.6
					c0.5,8.8,7.9,15.9,16.5,15.9l0.2,0L514.6,144.1C514.5,144.1,514.5,144.1,514.6,144.1z"/>
			</g>
			<path class="st1" d="M482.5,115.9c0,3.1-2.5,5.6-5.5,5.6c-3,0-5.5-2.5-5.5-5.6c0-3.1,2.5-5.6,5.5-5.6
				C480,110.3,482.5,112.8,482.5,115.9z"/>
			<path class="st1" d="M504.1,115.9c0,3.1-2.5,5.6-5.5,5.6c-3,0-5.5-2.5-5.5-5.6c0-3.1,2.5-5.6,5.5-5.6
				C501.7,110.3,504.1,112.8,504.1,115.9z"/>
			<path class="st1" d="M525.7,115.9c0,3.1-2.5,5.6-5.5,5.6c-3,0-5.5-2.5-5.5-5.6c0-3.1,2.5-5.6,5.5-5.6
				C523.3,110.3,525.7,112.8,525.7,115.9z"/>
		</g>
		<g>
			<g>
				<path d="M707.1,567.1h-55.4c-0.4,0-0.7-0.3-0.7-0.7c0-0.4,0.3-0.7,0.7-0.7h55.4c0.4,0,0.7,0.3,0.7,0.7
					C707.8,566.8,707.5,567.1,707.1,567.1z"/>
			</g>
			<path d="M543.3,365.3c-16.4-7.9-19.5-25.7,4.4-32.5c-16.8-20.7,0.2-32.7,11.6-35c11.4-2.3,34,3.5,55.8,22.2
				c21.8,18.7,31.3,19.7,37.9,34.4c6.6,14.7,3.5,26.1-3.1,41c-6.6,14.9-7.3,19.5,5.4,31.5c12.8,12,23.2,24,14.3,46.6
				c-8.9,22.6-115.2,14.3-120.2-1.2c-5-15.5,7-72.1,7-72.1L543.3,365.3z"/>
			<path d="M531.1,457.9c-2.5-11,0.4-36.3,22.4-48.9c16.1-9.2,24.5,3.7,24.5,3.7l2.5,42.3C580.6,455,536.5,458.1,531.1,457.9z"/>
			<g>
				<path class="st4" d="M407.4,394.3c-1.9-2.7-4.8-6.4-7.5-4.5c-2.7,1.9,1.6,17.6,13.7,15.7C410.5,400.9,407.4,394.3,407.4,394.3z"
					/>
				<path d="M411.6,406.4C411.6,406.4,411.6,406.4,411.6,406.4c-6.8,0-11-5.5-12.5-10.3c-0.8-2.5-1.2-5.7,0.4-6.8
					c0.6-0.4,1.3-0.7,2-0.7c2.4,0,4.6,2.6,6.5,5.3c0.1,0.2,3.2,6.7,6.2,11.2c0.1,0.2,0.2,0.5,0.1,0.7c-0.1,0.2-0.3,0.4-0.5,0.4
					C413,406.4,412.3,406.4,411.6,406.4z M401.5,390c-0.4,0-0.8,0.1-1.2,0.4c-0.5,0.4-0.8,2.4,0.1,5.2c1.4,4.5,5.1,9.3,11.1,9.3
					c0,0,0,0,0,0c0.3,0,0.5,0,0.8,0c-2.9-4.5-5.6-10.3-5.6-10.3C405.8,393.3,403.5,390,401.5,390z"/>
			</g>
			<g>
				<path class="st4" d="M441.6,396.1c-6.6-2.1-10.8-7.3-8.7-11.6c2.1-4.3,9.1,1.4,13.9,5.2c4.8,3.9,9.5,4.6,9.5,4.6
					S449.2,398,441.6,396.1z"/>
				<path d="M446.2,397.3c-1.7,0-3.3-0.2-4.8-0.6c-4.4-1.4-7.9-4.2-9.2-7.3c-0.8-1.8-0.7-3.6,0.1-5.3c0.6-1.3,1.7-1.9,3.1-1.9
					c3.3,0,8,3.8,11.8,6.8c4.7,3.8,9.2,4.6,9.2,4.6c0.3,0.1,0.5,0.3,0.6,0.6c0,0.3-0.1,0.6-0.4,0.7
					C456.5,395.1,451.9,397.3,446.2,397.3z M435.4,383.7c-0.8,0-1.4,0.4-1.8,1.1c-0.6,1.3-0.6,2.6,0,4.1c1.1,2.7,4.3,5.2,8.3,6.5
					c1.4,0.3,2.8,0.5,4.4,0.5c3.2,0,6.1-0.8,7.9-1.4c-1.9-0.6-4.7-1.9-7.7-4.2C442.9,387.4,438.2,383.7,435.4,383.7z"/>
			</g>
			<g>
				<path class="st4" d="M448.5,455.4c-0.5-11.3-1.8-34-3.6-41.2c-1.8-7.2-13.1-5.2-13.9-5.4c-0.8-0.3-14.9,5.1-21.8-9
					c-7-14.1-1.4-19.3,2.5-18c1.4-4.6,5.2-3.3,7.3-1c1.9-4.1,7.5,0.2,8.9,5.4c1.4,5.2,2.7,9.9,13.5,8.5c10.8-1.4,24.2-4.4,29.4,11.2
					c5.2,15.7,9.5,40,9.5,40S478.2,461.4,448.5,455.4z"/>
				<path d="M460.9,457.5c-3.7,0-7.9-0.5-12.5-1.4c-0.3-0.1-0.6-0.3-0.6-0.7c-0.3-7.7-1.6-33.3-3.6-41.1c-0.8-3.3-4.1-5-9.7-5
					c-0.9,0-1.7,0-2.3,0.1c-0.7,0-1.1,0.1-1.3,0c-0.2,0-0.4,0.1-0.8,0.1c-1.2,0.2-3.2,0.6-5.7,0.6c-7.1,0-12.6-3.5-15.9-10.2
					c-4.8-9.8-3.4-14.7-2.2-16.8c1.1-1.8,3-2.7,4.9-2.4c1-2.6,2.7-3,3.7-3c1.3,0,2.7,0.6,3.9,1.7c0.6-0.8,1.5-1.2,2.4-1.2
					c2.8,0,6.2,3.5,7.3,7.6c1.1,4.4,2.1,8.2,9.4,8.2c1,0,2.2-0.1,3.4-0.2c0.8-0.1,1.6-0.2,2.4-0.3c3.2-0.4,6.5-0.9,9.7-0.9
					c5.9,0,14.2,1.3,18,12.9c5.2,15.5,9.5,39.9,9.5,40.1c0,0.1,0,0.1,0,0.2C481,446.1,479.2,457.5,460.9,457.5z M449.2,454.8
					c4.3,0.8,8.2,1.3,11.7,1.3c16.2,0,18.4-9.1,18.6-10.1c-0.3-1.9-4.5-24.9-9.4-39.8c-3.5-10.6-10.8-11.9-16.7-11.9
					c-3.1,0-6.4,0.4-9.5,0.9c-0.8,0.1-1.6,0.2-2.4,0.3c-1.3,0.2-2.5,0.2-3.6,0.2c-8.3,0-9.6-4.9-10.7-9.3c-0.9-3.7-4-6.5-5.9-6.5
					c-0.7,0-1.3,0.4-1.7,1.2c-0.1,0.2-0.3,0.4-0.5,0.4c-0.2,0-0.5,0-0.6-0.2c-1.1-1.2-2.4-1.9-3.6-1.9c-1.2,0-2.1,0.9-2.6,2.6
					c-0.1,0.2-0.2,0.3-0.4,0.4c-0.2,0.1-0.4,0.1-0.6,0c-1.4-0.5-3,0.2-3.9,1.6c-0.9,1.4-2.5,5.8,2.2,15.4c3.1,6.2,8,9.4,14.6,9.4
					c2.3,0,4.2-0.4,5.4-0.6c0.5-0.1,0.9-0.2,1.1-0.2c0.1,0,0.2,0,0.3,0c0.3,0,0.6,0,0.9,0c0.6,0,1.5-0.1,2.4-0.1
					c6.3,0,10.1,2,11.1,6C447.5,421.8,448.8,446.5,449.2,454.8z"/>
			</g>
			<g>
				<path d="M414.7,407.3c-0.2,0-0.3,0-0.4-0.1c-4.4-3.4-7.3-8.4-8.6-15c-0.1-0.4,0.2-0.8,0.6-0.8c0.4-0.1,0.8,0.2,0.8,0.6
					c1.3,6.2,4,11,8.1,14.2c0.3,0.2,0.4,0.7,0.1,1C415.1,407.2,414.9,407.3,414.7,407.3z"/>
			</g>
			<g>
				<path d="M432.9,404.7C432.9,404.7,432.9,404.7,432.9,404.7c-4-0.2-7.3-1.9-9.8-5.1c-4.8-6.1-5.4-15.9-4.8-19
					c0.1-0.4,0.4-0.6,0.8-0.6c0.4,0.1,0.6,0.4,0.6,0.8c-0.5,2.8,0,12.2,4.5,17.8c2.3,2.8,5.2,4.4,8.7,4.5c0.4,0,0.7,0.4,0.7,0.7
					C433.6,404.4,433.3,404.7,432.9,404.7z"/>
			</g>
			<g>
				<path d="M425.4,409.9C425.4,409.9,425.4,409.9,425.4,409.9c-3.8-0.3-6.9-2-9.3-5.2c-5.7-7.4-5.7-20.2-5.1-23.1
					c0.1-0.4,0.4-0.7,0.8-0.6c0.4,0.1,0.6,0.4,0.6,0.8c-0.5,2.8-0.5,15,4.9,22c2.1,2.8,4.9,4.3,8.2,4.6c0.4,0,0.7,0.4,0.7,0.8
					C426.1,409.6,425.8,409.9,425.4,409.9z"/>
			</g>
			<path d="M559.3,468.2c6.4,2.9,24.9,9.5,58.6,1c-1.2,23.2-3.5,72.1-3.5,72.1s-28,15.8-46.8,9.3
				C562.4,541.6,559.3,468.2,559.3,468.2z"/>
			<g>
				<path class="st4" d="M565.1,449.8c5.6-0.8,11.7-2.9,11.1-12.2c-0.6-9.3-2.1-21.5-2.1-21.5c-14.5-0.2-28.8-7.7-35.4-22.6
					c-6.6-14.9,2.1-22.6,7-38.1c4.8-15.5,13.9-28.2,34.2-26.9c20.3,1.4,31.1,11,31.1,11c-3.5,18.2-7,43.9,0.6,45.4
					c7.5,1.5,9.5-11.8,9.5-11.8c11.4-5.6,23.3,1.2,18.7,11.2c-5.6,12.2-18.9,6-18.9,6c-2.7,7-14.1,14.7-14.1,14.7
					c1.7,14.3,3.5,38,14.3,39.3c-4.4,22.6-6.8,30.8-6.8,30.8s-38.8,9.5-53-4.4C561.8,466,565.1,449.8,565.1,449.8z"/>
				<path d="M587.7,479.2c-12.6,0-21.7-2.6-26.9-7.8c-0.2-0.2-0.2-0.4-0.2-0.6c0.6-4.8,3.7-20.4,3.8-21.1c0.1-0.3,0.3-0.5,0.6-0.6
					c5.5-0.8,11-2.7,10.5-11.4c-0.5-8-1.7-18.2-2-20.8c-15.8-0.4-29.3-9.2-35.4-23c-4.8-10.9-1.7-18,2.3-27
					c1.6-3.5,3.2-7.2,4.6-11.6c6.1-19.6,17.5-28.5,34.9-27.4c20.3,1.4,31.1,10.8,31.5,11.2c0.2,0.2,0.3,0.4,0.2,0.7
					c-5.2,27.3-5.2,43.5,0,44.6c0.4,0.1,0.7,0.1,1,0.1c5.9,0,7.6-11.2,7.6-11.3c0-0.2,0.2-0.4,0.4-0.5c2.8-1.4,5.8-2.1,8.7-2.1
					c4.7,0,8.8,1.9,10.8,5.1c1.7,2.6,1.8,5.9,0.3,9.2c-3,6.6-8.3,8-12.1,8c-3.1,0-5.9-0.9-7.1-1.4c-2.9,6.3-11.8,12.7-13.7,14.1
					c0.1,1.1,0.3,2.2,0.4,3.4c1.6,14.2,3.9,33.7,13.2,34.9c0.2,0,0.4,0.1,0.5,0.3c0.1,0.2,0.2,0.4,0.1,0.6
					c-4.4,22.4-6.7,30.8-6.8,30.9c-0.1,0.2-0.3,0.4-0.5,0.5C614.2,476,601.2,479.2,587.7,479.2z M562,470.6c5,4.7,13.6,7.1,25.7,7.1
					c12,0,23.7-2.5,26-3c0.5-1.9,2.7-10.6,6.5-29.7c-9.8-2.2-12.1-21.6-13.7-36c-0.2-1.3-0.3-2.6-0.4-3.8c0-0.3,0.1-0.5,0.3-0.7
					c0.1-0.1,11.2-7.7,13.8-14.4c0.1-0.2,0.2-0.3,0.4-0.4c0.2-0.1,0.4-0.1,0.6,0c0,0,3.3,1.5,7.2,1.5c5,0,8.6-2.4,10.8-7.1
					c1.3-2.9,1.3-5.6-0.2-7.8c-1.8-2.8-5.4-4.4-9.6-4.4c-2.5,0-5.2,0.6-7.7,1.8c-0.4,2.1-2.5,12.1-8.9,12.1c-0.4,0-0.9,0-1.3-0.1
					c-6.3-1.3-6.8-16.7-1.2-45.8c-1.9-1.5-12.4-9.4-30.4-10.6c-16.9-1.1-27.5,7.2-33.5,26.4c-1.4,4.4-3.1,8.3-4.6,11.7
					c-3.9,8.7-6.9,15.5-2.3,25.9c6,13.5,19.3,22,34.7,22.2c0.4,0,0.7,0.3,0.7,0.6c0,0.1,1.6,12.3,2.1,21.5
					c0.6,9.7-5.9,12.1-11.2,12.9C565.1,453.1,562.6,466,562,470.6z"/>
			</g>
			<g>
				<path d="M560.5,385c-0.1,0-0.2,0-0.4-0.1c-4.1-2.3-6.2-4.6-6.5-7c-0.4-2.9,2-5.3,4.3-7.6c0.4-0.5,0.9-0.9,1.3-1.3
					c3.8-4,3.4-11.3,1.4-16.4c-0.8-2.2-2.3-3.5-4.2-3.8c-2.6-0.5-5.4,0.8-6.7,2.3c-0.3,0.3-0.7,0.3-1,0c-0.3-0.3-0.3-0.7,0-1
					c1.6-1.8,4.9-3.3,8-2.7c1.7,0.3,4,1.4,5.3,4.7c2.2,5.7,2.5,13.4-1.7,17.9c-0.4,0.5-0.9,0.9-1.3,1.4c-2.1,2.1-4.2,4.2-3.9,6.4
					c0.3,1.9,2.2,3.9,5.8,5.9c0.3,0.2,0.5,0.6,0.3,1C561,384.9,560.7,385,560.5,385z"/>
			</g>
			<g>
				<path d="M595.4,360.9c-0.2,0-0.5-0.1-0.6-0.3c-7.5-11.2-15.5-9.7-19.6-7.7c-0.4,0.2-0.8,0-0.9-0.3c-0.2-0.4,0-0.8,0.3-0.9
					c3.6-1.7,13-4.3,21.4,8.2c0.2,0.3,0.1,0.8-0.2,1C595.7,360.9,595.5,360.9,595.4,360.9z"/>
			</g>
			<path d="M583.9,371c-0.8,2.4-2.5,4-3.9,3.6c-1.4-0.4-1.9-2.7-1.1-5.1c0.8-2.4,2.5-4,3.8-3.6C584.2,366.3,584.7,368.6,583.9,371z"
				/>
			<g>
				<path d="M583.2,367.5c-0.3,0-0.6-0.2-0.7-0.5l-1.3-4.4c-0.1-0.4,0.1-0.8,0.5-0.9c0.4-0.1,0.8,0.1,0.9,0.5l1.3,4.4
					c0.1,0.4-0.1,0.8-0.5,0.9C583.3,367.5,583.2,367.5,583.2,367.5z"/>
			</g>
			<path d="M555.8,365.8c-0.8,2.4-2.5,4-3.9,3.6c-1.4-0.4-1.9-2.7-1.1-5.1c0.8-2.4,2.5-4,3.8-3.6C556,361,556.5,363.3,555.8,365.8z"
				/>
			<g>
				<path d="M555,362.2c-0.3,0-0.6-0.2-0.7-0.5l-1.3-4.4c-0.1-0.4,0.1-0.8,0.5-0.9c0.4-0.1,0.8,0.1,0.9,0.5l1.3,4.4
					c0.1,0.4-0.1,0.8-0.5,0.9C555.1,362.2,555.1,362.2,555,362.2z"/>
			</g>
			<g>
				<path d="M560.2,399.3c-1.5,0-2.8-0.5-3.7-1.5c-1.7-1.8-2.5-5.2-2.3-10c0-0.3,0.2-0.5,0.4-0.6c0.3-0.1,0.5-0.1,0.8,0.1
					c1,0.9,4,2,9.1,2c3.2,0,6.7-0.4,10.1-1.3c0.3-0.1,0.6,0.1,0.8,0.3c0.2,0.3,0.1,0.6-0.1,0.8C569.6,395.6,564.1,399.3,560.2,399.3
					z M555.6,389.1c0,3.7,0.6,6.3,1.9,7.6c2.7,2.8,8.7-0.1,15.2-6.9C565.8,391.3,558.8,390.9,555.6,389.1z"/>
			</g>
			<g>
				<path d="M557.2,398c-0.1,0-0.2,0-0.4-0.1c-0.3-0.2-0.5-0.6-0.3-1c1.7-2.9,8.5-4.7,12.5-3.4c0.4,0.1,0.6,0.5,0.4,0.9
					c-0.1,0.4-0.5,0.6-0.9,0.4c-3.7-1.2-9.6,0.6-10.8,2.7C557.7,397.9,557.4,398,557.2,398z"/>
			</g>
			<g>
				<path d="M573.7,416.9c-0.4,0-0.8-0.3-0.8-0.7c0-0.4,0.3-0.7,0.7-0.7c0,0,0.1,0,0.1,0c7.2,0,18.8-4.2,26.6-8.3
					c0.3-0.2,0.8-0.1,1,0.3c0.2,0.3,0.1,0.8-0.3,1C593.1,412.7,581.2,416.9,573.7,416.9z"/>
			</g>
			<path class="st1" d="M448,452.1c3.3,1.2,19.3,1.2,32.3-6.2c2.1,11.8,10,47,10,47c11-12,26.3-26.1,33.2-32.1
				c7-6,17.6-11.8,28-11.4c10.4,0.4,15.8-0.2,15.8-0.2s-8.3,14.7-4.1,55.5c4.3,40.8,5.6,46.2,5.6,46.2l-14.3-1.4
				c0,0,2.9-9.1-5.8-19.5c-8.7-10.4-11.2-17-12.4-24.7c-9.3,9.5-34,35.8-54.7,35.9c-20.7,0.2-28-18.4-30.9-41.5
				C448,476.5,448,452.1,448,452.1z"/>
			<g>
				<path class="st4" d="M607.3,540.9c-5.8,1.7-30.7,9.1-42.1,8.4c-11.4-0.8-23.2-6.4-32.5-4.1c-9.3,2.3-25.2,14-24.1,18.6
					c0.9,3.6,5.1,1.6,5.1,1.6c1.5,3.3,4.6,1.5,4.6,1.5c1.5,3.3,8.7,1.4,12.9-2.3c4.3-3.7,9.5-5.6,16-3.3c6.6,2.3,16.8,5.6,28.8,6.2
					s40.2-0.7,40.2-0.7S620.6,550.2,607.3,540.9z"/>
				<path d="M521.8,569.5c-2,0-3.1-0.7-3.7-1.5c-0.4,0.1-0.9,0.3-1.5,0.3c-0.9,0-2.2-0.3-3.1-1.8c-0.5,0.2-1.3,0.4-2,0.4
					c-1.8,0-3-1-3.4-2.7c-1.3-5.5,15.7-17.3,24.6-19.5c1.6-0.4,3.2-0.6,5.1-0.6c4.5,0,9.2,1.1,14.3,2.3c4.4,1,8.9,2.1,13.3,2.4
					c10,0.7,30.8-5,41.9-8.3c0.2-0.1,0.4,0,0.6,0.1c13.6,9.4,9.4,26.6,9.4,26.8c-0.1,0.3-0.3,0.5-0.7,0.5c-0.2,0-19.1,0.9-32.4,0.9
					c0,0,0,0,0,0c-3.2,0-5.8-0.1-7.8-0.1c-11.7-0.6-21.6-3.6-29-6.2c-5.6-2-10.6-1-15.3,3.2C528.9,567.8,524.8,569.5,521.8,569.5z
					 M518.4,566.4c0.1,0,0.1,0,0.2,0c0.2,0.1,0.3,0.2,0.4,0.4c0.5,1.1,1.8,1.3,2.8,1.3c2.7,0,6.5-1.6,9.1-3.8
					c5.1-4.4,10.7-5.6,16.7-3.4c7.3,2.6,17.1,5.6,28.6,6.1c2,0.1,4.6,0.1,7.8,0.1c12,0,28.6-0.7,31.8-0.9c0.5-2.8,2.5-16.5-8.6-24.5
					c-11.2,3.4-31.9,9-42.1,8.3c-4.5-0.3-9.1-1.4-13.5-2.4c-5-1.1-9.6-2.2-14-2.2c-1.7,0-3.3,0.2-4.7,0.5
					c-9.3,2.3-24.5,13.8-23.5,17.8c0.3,1.1,0.9,1.6,2.1,1.6c1,0,2.1-0.5,2.1-0.5c0.4-0.2,0.8,0,0.9,0.3c0.5,1.1,1.2,1.6,2.2,1.6
					c0.8,0,1.5-0.4,1.5-0.4C518.1,566.4,518.2,566.4,518.4,566.4z"/>
			</g>
			<g>
				<path class="st1" d="M694.8,527.3c-8.5-22.8-15.8-47.5-22.8-58.7c-7-11.2-15.3-21.6-30.7-23.2c-11.2-0.8-21.3-1.2-21.3-1.2
					c-3.7,9.7-15.5,56.4-9.3,95.7c-2.7,0-4.6,1.5-4.6,1.5c6.2,5,9.7,14.1,8.1,26.3c26.9,2.1,55.3-2.1,64.5-4.4
					C688,560.9,703.3,550.1,694.8,527.3z M640.3,534.4l1.4-16.2l4.4,15.1L640.3,534.4z"/>
			</g>
			<g>
				<path d="M437.6,395.6c-0.4,0-0.7-0.3-0.7-0.7c0-0.4,0.3-0.7,0.7-0.8c1.3-0.1,2.9-0.2,4.7-0.4c5.8-0.6,13.1-1.2,17.5-0.1
					c0.4,0.1,0.6,0.5,0.5,0.9c-0.1,0.4-0.5,0.6-0.9,0.5c-4.1-1.1-11.2-0.4-17,0.2C440.6,395.3,439,395.5,437.6,395.6
					C437.7,395.6,437.7,395.6,437.6,395.6z"/>
			</g>
			<g>
				<path d="M537.1,509.3c-0.3,0-0.6-0.2-0.7-0.6c-1.3-6.5,0.2-14.8,2.2-20.1c0.1-0.4,0.6-0.6,0.9-0.4c0.4,0.1,0.6,0.5,0.4,0.9
					c-1.4,3.8-3.5,12.2-2.1,19.3c0.1,0.4-0.2,0.8-0.6,0.8C537.2,509.2,537.1,509.3,537.1,509.3z"/>
			</g>
			<g>
				<path d="M606.5,541.6c-0.3,0-0.6-0.2-0.7-0.5c-0.1-0.4,0.1-0.8,0.5-0.9c6.3-1.7,45.4-9.3,59.2-10.5c0.4,0,0.7,0.3,0.8,0.6
					c0,0.4-0.3,0.7-0.6,0.8c-13.7,1.2-52.7,8.8-59,10.5C606.6,541.6,606.6,541.6,606.5,541.6z"/>
			</g>
			<g>
				<path d="M642.6,521.4c-0.3,0-0.6-0.2-0.7-0.5c-1.4-4.4-4.8-18.2-6.5-24.8l-0.5-1.9c-0.1-0.4,0.1-0.8,0.5-0.9
					c0.4-0.1,0.8,0.1,0.9,0.5l0.5,1.9c1.6,6.6,5.1,20.4,6.5,24.7c0.1,0.4-0.1,0.8-0.5,0.9C642.8,521.4,642.7,521.4,642.6,521.4z"/>
			</g>
			<g>
				<path d="M518.4,567.8C518.3,567.8,518.3,567.8,518.4,567.8c-0.5,0-0.7-0.4-0.7-0.8c0.2-2.6,10.6-11.3,20-14
					c0.4-0.1,0.8,0.1,0.9,0.5c0.1,0.4-0.1,0.8-0.5,0.9c-9.4,2.7-18.9,11-19,12.7C519,567.5,518.7,567.8,518.4,567.8z"/>
			</g>
			<g>
				<path d="M513.7,566.3c-0.4,0-0.7-0.3-0.7-0.7c0-3.7,7.8-11.5,20-15.4c0.4-0.1,0.8,0.1,0.9,0.5c0.1,0.4-0.1,0.8-0.5,0.9
					c-12.5,3.9-19,11.6-19,14C514.4,565.9,514.1,566.3,513.7,566.3z"/>
			</g>
			<g>
				<path class="st0" d="M564.1,565h-61l-24.6-71.7c-2.1-6.3-9.3-11.4-15.9-11.4H358.4c-6.6,0-10.3,5.1-8.1,11.4l25.3,73.9
					c2.8,7.2,3.1,13.1,10.3,13.1h178.3c4.2,0,7.6-3.4,7.6-7.6C571.8,568.4,568.3,565,564.1,565z"/>
				<g>
					<path d="M497.7,567H376.5c-0.4,0-0.7-0.3-0.7-0.7c0-0.4,0.3-0.7,0.7-0.7h121.2c0.4,0,0.7,0.3,0.7,0.7
						C498.4,566.7,498.1,567,497.7,567z"/>
				</g>
				<g>
					<path d="M425,541.4c-5.3,0-11.1-5.2-12.9-11.6c-1.1-3.7-0.7-7.1,1.1-9.4c1.3-1.7,3.2-2.6,5.4-2.6c5.3,0,11.1,5.2,12.9,11.6
						c1.1,3.7,0.7,7.1-1.1,9.4C429.1,540.5,427.2,541.4,425,541.4z M418.6,519.2c-1.8,0-3.3,0.7-4.3,2.1c-1.5,1.9-1.8,4.9-0.8,8.2
						c1.7,5.9,6.9,10.6,11.5,10.6c1.8,0,3.3-0.7,4.3-2.1c1.5-1.9,1.8-4.9,0.8-8.2C428.4,523.9,423.2,519.2,418.6,519.2z"/>
				</g>
			</g>
		</g>
	</g>
</g>
</svg>
