<?xml version="1.0" encoding="utf-8"?>
<!-- Generator: Adobe Illustrator 27.3.1, SVG Export Plug-In . SVG Version: 6.00 Build 0)  -->
<svg version="1.1" id="Layer_1" xmlns="http://www.w3.org/2000/svg" xmlns:xlink="http://www.w3.org/1999/xlink" x="0px" y="0px"
	 viewBox="0 0 596 544" style="enable-background:new 0 0 596 544;" xml:space="preserve">
<style type="text/css">
	.st0{fill:#00CD2D;}
	.st1{fill:#AE61FC;}
	.st2{fill:#F358D1;}
	.st3{fill:#FF555F;}
	.st4{fill:#FF2525;}
	.st5{fill:#22AFFF;}
	.st6{fill:#CACDE3;}
	.st7{fill:#FFFFFF;filter:url(#Adobe_OpacityMaskFilter);}
	
		.st8{mask:url(#path-9-outside-1_72_1633_00000026133508996123677110000008504175463130908089_);fill:none;stroke:#CACDE3;stroke-width:2.8;}
	.st9{fill:#FFFFFF;filter:url(#Adobe_OpacityMaskFilter_00000103252305595666405890000010713692254834122886_);}
	
		.st10{mask:url(#path-9-outside-1_72_1633_00000013902305065920386520000004651089554382351000_);fill:none;stroke:#CACDE3;stroke-width:2.8;}
	.st11{fill-rule:evenodd;clip-rule:evenodd;fill:#CACDE3;}
	.st12{fill:#F4EAE2;}
	.st13{fill:#292929;}
	.st14{fill:#0353EE;}
	.st15{fill:#FFE2E2;}
	.st16{fill:#0895FF;}
	.st17{fill:#501DBC;}
</style>
<g>
	<circle class="st0" cx="404" cy="2.5" r="2.5"/>
	<circle class="st1" cx="571.5" cy="52" r="2"/>
	<circle class="st2" cx="118.5" cy="245" r="2"/>
	<circle class="st3" cx="69" cy="25.5" r="2.5"/>
	<circle class="st4" cx="3" cy="213.5" r="2.5"/>
	<circle class="st5" cx="571" cy="175.5" r="2.5"/>
	<path class="st6" d="M382.7,472.9c-0.1-0.5-0.2-1-0.3-1.6c-6.1,0-12.2-1-18-2.8c-0.2,0.5-0.5,1-0.7,1.4c-4.5,7.5-14.3,9.9-21.8,5.3
		c-3.6-2.2-6.2-5.7-7.2-9.8c-1-4.1-0.4-8.4,1.8-12c0.2-0.4,0.5-0.8,0.9-1.3c-4.3-4.4-7.9-9.4-10.8-14.8c-0.5,0.2-1,0.3-1.5,0.5
		c-8.5,2.1-17.1-3.2-19.2-11.7c-1-4.1-0.4-8.4,1.8-12c2.2-3.6,5.7-6.2,9.8-7.2c0.5-0.1,1-0.2,1.6-0.3c0.1-6.1,1-12.2,2.8-18.1
		c-0.5-0.2-1-0.5-1.4-0.7c-7.5-4.5-9.9-14.3-5.3-21.8c4.5-7.5,14.3-9.9,21.8-5.3c0.4,0.2,0.8,0.5,1.3,0.9c4.4-4.3,9.3-7.9,14.7-10.8
		c-0.2-0.5-0.3-1-0.5-1.5c-1-4.1-0.4-8.4,1.8-12c2.2-3.6,5.7-6.2,9.8-7.2c8.5-2.1,17.1,3.2,19.2,11.7c0.1,0.5,0.2,1,0.3,1.6
		c6.1,0.1,12.2,1,18,2.8c0.2-0.5,0.5-1,0.7-1.4c4.5-7.5,14.3-9.9,21.8-5.3c7.5,4.5,9.9,14.3,5.3,21.8c-0.2,0.4-0.5,0.8-0.9,1.3
		c4.3,4.4,7.9,9.4,10.8,14.8c0.5-0.2,1-0.3,1.5-0.5c4.1-1,8.4-0.4,12,1.9c3.6,2.2,6.2,5.7,7.2,9.8c2.1,8.5-3.1,17.1-11.6,19.2
		c-0.5,0.1-1,0.2-1.6,0.3c-0.1,6.1-1,12.2-2.8,18.1c0.5,0.2,1,0.5,1.4,0.7c3.6,2.2,6.2,5.7,7.2,9.8c1,4.1,0.4,8.4-1.8,12
		c-2.2,3.6-5.7,6.2-9.8,7.2c-4.1,1-8.4,0.4-12-1.9c-0.4-0.2-0.8-0.5-1.3-0.9c-4.4,4.3-9.3,7.9-14.7,10.8c0.2,0.5,0.3,1,0.5,1.5
		c1,4.1,0.4,8.4-1.8,12c-2.2,3.6-5.7,6.2-9.8,7.2c-1.3,0.3-2.5,0.5-3.8,0.5C391,485,384.5,480.1,382.7,472.9z M428,452.1
		c0.5,0.4,1,0.8,1.5,1c3.4,2.1,7.5,2.7,11.4,1.8c3.9-1,7.2-3.4,9.3-6.8c2.1-3.5,2.7-7.5,1.8-11.4c-1-3.9-3.4-7.2-6.8-9.3
		c-0.5-0.3-1-0.6-1.6-0.9c-0.2-0.1-0.3-0.3-0.2-0.5c1.9-6,2.8-12.3,2.8-18.5c0-0.2,0.1-0.4,0.3-0.4c0.7-0.1,1.3-0.2,1.8-0.3
		c8.1-2,13-10.2,11.1-18.3c-1-3.9-3.4-7.2-6.8-9.3c-3.4-2.1-7.5-2.7-11.4-1.8c-0.5,0.1-1.1,0.3-1.7,0.6c-0.2,0.1-0.4,0-0.5-0.2
		c-2.9-5.6-6.6-10.7-11.1-15.1c-0.1-0.1-0.2-0.4,0-0.5c0.4-0.5,0.8-1,1-1.5c4.3-7.1,2-16.4-5.1-20.8c-7.1-4.3-16.4-2-20.7,5.1
		c-0.3,0.5-0.6,1-0.9,1.6c-0.1,0.2-0.3,0.3-0.5,0.2c-6-1.9-12.2-2.8-18.5-2.8c-0.2,0-0.4-0.1-0.4-0.3c-0.1-0.7-0.2-1.3-0.3-1.8
		c-2-8.1-10.1-13.1-18.2-11.1c-3.9,1-7.2,3.4-9.3,6.8c-2.1,3.5-2.7,7.5-1.8,11.4c0.1,0.5,0.3,1.1,0.6,1.7c0.1,0.2,0,0.4-0.2,0.5
		c-5.5,2.9-10.6,6.7-15.1,11.1c-0.1,0.1-0.4,0.2-0.5,0c-0.5-0.4-1-0.8-1.5-1c-7.1-4.3-16.4-2-20.7,5.1c-4.3,7.1-2,16.4,5.1,20.8
		c0.5,0.3,1,0.6,1.6,0.9c0.2,0.1,0.3,0.3,0.2,0.5c-1.9,6-2.8,12.3-2.8,18.5c0,0.2-0.1,0.4-0.3,0.4c-0.7,0.1-1.3,0.2-1.8,0.3
		c-3.9,1-7.2,3.4-9.3,6.8c-2.1,3.5-2.7,7.5-1.8,11.4c2,8.1,10.1,13.1,18.2,11.1c0.5-0.1,1.1-0.3,1.7-0.6c0.2-0.1,0.4,0,0.5,0.2
		c2.9,5.6,6.6,10.6,11.1,15.1c0.1,0.1,0.2,0.4,0,0.5c-0.4,0.5-0.8,1-1,1.5c-2.1,3.5-2.7,7.5-1.8,11.4c1,3.9,3.4,7.2,6.8,9.3
		c7.1,4.3,16.4,2,20.7-5.1c0.3-0.5,0.6-1,0.9-1.6c0.1-0.2,0.3-0.3,0.5-0.2c6,1.9,12.2,2.8,18.5,2.8c0.2,0,0.4,0.1,0.4,0.3
		c0.1,0.7,0.2,1.3,0.3,1.8c2,8.1,10.2,13.1,18.2,11.1c3.9-1,7.2-3.4,9.3-6.8c2.1-3.5,2.7-7.5,1.8-11.4c-0.1-0.5-0.3-1.1-0.6-1.7
		c-0.1-0.2,0-0.4,0.2-0.5c5.5-2.9,10.6-6.7,15.1-11.1c0.1-0.1,0.2-0.1,0.3-0.1C427.8,452.1,427.9,452.1,428,452.1z M367.9,432.2
		c-6.7-4-11.3-10.5-13.2-18c-1.8-7.6-0.6-15.4,3.4-22.1c8.3-13.8,26.2-18.2,40-9.8c13.7,8.4,18.1,26.3,9.8,40.1
		c-4,6.7-10.4,11.4-18,13.2c-2.3,0.6-4.6,0.9-7,0.9C377.7,436.5,372.5,435,367.9,432.2z M397.7,383c-13.4-8.1-30.8-3.8-38.9,9.5
		c-3.9,6.5-5.1,14.1-3.3,21.5c1.8,7.4,6.4,13.6,12.8,17.5s14.1,5.1,21.4,3.3c7.3-1.8,13.5-6.4,17.5-12.9
		C415.3,408.6,411.1,391.1,397.7,383z"/>
	<path class="st6" d="M269,413c-2.2-1.3-3.7-3.4-4.3-5.8c-0.1-0.2-0.1-0.5-0.2-0.8c-3.5-0.1-7-0.6-10.3-1.6
		c-0.1,0.3-0.3,0.5-0.4,0.7c-1.3,2.2-3.4,3.7-5.8,4.3c-2.4,0.6-5,0.2-7.1-1.1c-2.2-1.3-3.7-3.4-4.3-5.8c-0.6-2.5-0.2-5,1.1-7.2
		c0.1-0.2,0.3-0.4,0.4-0.7c-2.4-2.5-4.5-5.4-6.2-8.5c-0.3,0.1-0.5,0.2-0.8,0.2c-5.1,1.2-10.2-1.9-11.4-6.9
		c-1.2-5.1,1.9-10.2,6.9-11.5c0.2-0.1,0.5-0.1,0.8-0.2c0.1-3.5,0.6-7,1.6-10.4c-0.3-0.1-0.5-0.3-0.7-0.4c-2.2-1.3-3.7-3.4-4.3-5.8
		c-0.6-2.5-0.2-5,1.1-7.2c1.3-2.2,3.4-3.7,5.8-4.3c2.5-0.6,5-0.2,7.1,1.1c0.2,0.1,0.4,0.3,0.7,0.4c2.5-2.5,5.3-4.5,8.4-6.2
		c-0.1-0.3-0.2-0.5-0.2-0.8c-1.2-5.1,1.9-10.2,6.9-11.5c2.4-0.6,5-0.2,7.1,1.1c2.2,1.3,3.7,3.4,4.3,5.8c0.1,0.2,0.1,0.5,0.2,0.8
		c3.5,0.1,7,0.6,10.3,1.6c0.1-0.3,0.3-0.5,0.4-0.7c1.3-2.2,3.4-3.7,5.8-4.3c2.5-0.6,5-0.2,7.1,1.1c2.2,1.3,3.7,3.4,4.3,5.8
		c0.6,2.5,0.2,5-1.1,7.2c-0.1,0.2-0.3,0.4-0.4,0.7c2.4,2.5,4.5,5.4,6.2,8.5c0.3-0.1,0.5-0.2,0.8-0.2c2.5-0.6,5-0.2,7.1,1.1
		c2.2,1.3,3.7,3.4,4.3,5.8c0.6,2.5,0.2,5-1.1,7.2c-1.3,2.2-3.4,3.7-5.8,4.3c-0.2,0.1-0.5,0.1-0.8,0.2c-0.1,3.5-0.6,7-1.6,10.4
		c0.3,0.1,0.5,0.3,0.7,0.4c2.2,1.3,3.7,3.4,4.3,5.8c0.6,2.5,0.2,5-1.1,7.2c-2.7,4.5-8.5,5.9-13,3.2c-0.2-0.1-0.4-0.3-0.7-0.4
		c-2.5,2.5-5.3,4.5-8.4,6.2c0.1,0.3,0.2,0.5,0.2,0.8c1.2,5.1-1.9,10.2-6.9,11.5c-0.7,0.2-1.5,0.3-2.3,0.3
		C272.2,414.4,270.5,413.9,269,413z M291.5,394.8c0.3,0.2,0.6,0.4,0.9,0.6c4.1,2.5,9.4,1.2,11.9-2.9c2.5-4.1,1.2-9.4-2.9-11.9
		c-0.3-0.2-0.6-0.3-0.9-0.5c-0.2-0.1-0.3-0.3-0.2-0.5c1.1-3.5,1.7-7.1,1.7-10.8c0-0.2,0.1-0.4,0.3-0.4c0.4,0,0.7-0.1,1-0.2
		c2.2-0.6,4.1-2,5.3-3.9c1.2-2,1.6-4.3,1-6.6c-0.6-2.2-2-4.1-3.9-5.4c-2-1.2-4.3-1.6-6.6-1c-0.3,0.1-0.6,0.2-1,0.3
		c-0.2,0.1-0.4,0-0.5-0.2c-1.7-3.2-3.9-6.2-6.4-8.8c-0.1-0.1-0.2-0.4,0-0.5c0.2-0.3,0.4-0.6,0.6-0.9c2.5-4.1,1.2-9.4-2.9-11.9
		c-2-1.2-4.3-1.6-6.6-1c-2.2,0.6-4.1,2-5.3,3.9c-0.2,0.3-0.3,0.6-0.5,0.9c-0.1,0.2-0.3,0.3-0.5,0.2c-3.5-1.1-7.1-1.6-10.8-1.7
		c-0.2,0-0.4-0.1-0.4-0.3c0-0.4-0.1-0.7-0.2-1c-0.5-2.2-2-4.1-3.9-5.4c-2-1.2-4.3-1.6-6.6-1c-4.6,1.1-7.5,5.9-6.4,10.5
		c0.1,0.3,0.2,0.6,0.3,1c0.1,0.2,0,0.4-0.2,0.5c-3.2,1.7-6.2,3.9-8.8,6.5c-0.1,0.1-0.4,0.2-0.5,0c-0.3-0.2-0.6-0.4-0.9-0.6
		c-4.1-2.5-9.4-1.2-11.9,2.9c-1.2,2-1.6,4.3-1,6.6c0.6,2.2,2,4.1,3.9,5.4c0.3,0.2,0.6,0.3,0.9,0.5c0.2,0.1,0.3,0.3,0.2,0.5
		c-1.1,3.5-1.7,7.1-1.7,10.8c0,0.2-0.1,0.4-0.3,0.4c-0.4,0-0.7,0.1-1,0.2c-4.6,1.1-7.5,5.9-6.4,10.5c1.1,4.6,5.8,7.5,10.5,6.4
		c0.3-0.1,0.6-0.2,1-0.3c0.2-0.1,0.4,0,0.5,0.2c1.7,3.2,3.9,6.2,6.4,8.8c0.1,0.1,0.2,0.4,0,0.5c-0.2,0.3-0.4,0.6-0.6,0.9
		c-1.2,2-1.6,4.3-1,6.6c0.5,2.2,2,4.1,3.9,5.4c2,1.2,4.3,1.6,6.6,1c2.2-0.6,4.1-2,5.3-3.9c0.2-0.3,0.3-0.6,0.5-0.9
		c0.1-0.2,0.3-0.3,0.5-0.2c3.5,1.1,7.1,1.6,10.8,1.7c0.2,0,0.4,0.1,0.4,0.3c0,0.4,0.1,0.7,0.2,1c0.6,2.2,2,4.1,3.9,5.4
		s4.3,1.6,6.6,1c4.6-1.1,7.5-5.9,6.4-10.5c-0.1-0.3-0.2-0.6-0.3-1c-0.1-0.2,0-0.4,0.2-0.5c3.2-1.7,6.2-3.9,8.8-6.5
		c0.1-0.1,0.2-0.1,0.3-0.1C291.3,394.7,291.4,394.8,291.5,394.8z M256.1,383.4c-8.1-4.9-10.7-15.6-5.8-23.7
		c2.4-3.9,6.2-6.7,10.6-7.8c4.5-1.1,9.1-0.4,13,2c3.9,2.4,6.7,6.2,7.8,10.6s0.4,9.1-2,13.1c-2.4,3.9-6.2,6.7-10.6,7.8
		c-1.4,0.3-2.8,0.5-4.1,0.5C261.9,385.9,258.9,385.1,256.1,383.4z M261.1,352.6c-4.3,1.1-7.9,3.7-10.1,7.5
		c-4.7,7.8-2.2,17.9,5.5,22.6c3.8,2.3,8.2,3,12.4,1.9s7.9-3.7,10.1-7.5c2.3-3.8,3-8.2,1.9-12.5c-1-4.3-3.7-7.9-7.4-10.2
		c-2.6-1.6-5.5-2.4-8.5-2.4C263.8,352.2,262.5,352.3,261.1,352.6z"/>
	<defs>
		<filter id="Adobe_OpacityMaskFilter" filterUnits="userSpaceOnUse" x="304.1" y="328.1" width="157.8" height="158.3">
			<feColorMatrix  type="matrix" values="1 0 0 0 0  0 1 0 0 0  0 0 1 0 0  0 0 0 1 0"/>
		</filter>
	</defs>
	
		<mask maskUnits="userSpaceOnUse" x="304.1" y="328.1" width="157.8" height="158.3" id="path-9-outside-1_72_1633_00000026133508996123677110000008504175463130908089_">
		<rect x="217.5" y="321" class="st7" width="245" height="166"/>
		<path d="M382.7,472.9c-0.1-0.5-0.2-1-0.3-1.6c-6.1,0-12.2-1-18-2.8c-0.2,0.5-0.5,1-0.7,1.4c-4.5,7.5-14.3,9.9-21.8,5.3
			c-3.6-2.2-6.2-5.7-7.2-9.8c-1-4.1-0.4-8.4,1.8-12c0.2-0.4,0.5-0.8,0.9-1.3c-4.3-4.4-7.9-9.4-10.8-14.8c-0.5,0.2-1,0.3-1.5,0.5
			c-8.5,2.1-17.1-3.2-19.2-11.7c-1-4.1-0.4-8.4,1.8-12c2.2-3.6,5.7-6.2,9.8-7.2c0.5-0.1,1-0.2,1.6-0.3c0.1-6.1,1-12.2,2.8-18.1
			c-0.5-0.2-1-0.5-1.4-0.7c-7.5-4.5-9.9-14.3-5.3-21.8c4.5-7.5,14.3-9.9,21.8-5.3c0.4,0.2,0.8,0.5,1.3,0.9
			c4.4-4.3,9.3-7.9,14.7-10.8c-0.2-0.5-0.3-1-0.5-1.5c-1-4.1-0.4-8.4,1.8-12c2.2-3.6,5.7-6.2,9.8-7.2c8.5-2.1,17.1,3.2,19.2,11.7
			c0.1,0.5,0.2,1,0.3,1.6c6.1,0.1,12.2,1,18,2.8c0.2-0.5,0.5-1,0.7-1.4c4.5-7.5,14.3-9.9,21.8-5.3c7.5,4.5,9.9,14.3,5.3,21.8
			c-0.2,0.4-0.5,0.8-0.9,1.3c4.3,4.4,7.9,9.4,10.8,14.8c0.5-0.2,1-0.3,1.5-0.5c4.1-1,8.4-0.4,12,1.9c3.6,2.2,6.2,5.7,7.2,9.8
			c2.1,8.5-3.1,17.1-11.6,19.2c-0.5,0.1-1,0.2-1.6,0.3c-0.1,6.1-1,12.2-2.8,18.1c0.5,0.2,1,0.5,1.4,0.7c3.6,2.2,6.2,5.7,7.2,9.8
			c1,4.1,0.4,8.4-1.8,12c-2.2,3.6-5.7,6.2-9.8,7.2c-4.1,1-8.4,0.4-12-1.9c-0.4-0.2-0.8-0.5-1.3-0.9c-4.4,4.3-9.3,7.9-14.7,10.8
			c0.2,0.5,0.3,1,0.5,1.5c1,4.1,0.4,8.4-1.8,12c-2.2,3.6-5.7,6.2-9.8,7.2c-1.3,0.3-2.5,0.5-3.8,0.5C391,485,384.5,480.1,382.7,472.9
			z M428,452.1c0.5,0.4,1,0.8,1.5,1c3.4,2.1,7.5,2.7,11.4,1.8c3.9-1,7.2-3.4,9.3-6.8c2.1-3.5,2.7-7.5,1.8-11.4
			c-1-3.9-3.4-7.2-6.8-9.3c-0.5-0.3-1-0.6-1.6-0.9c-0.2-0.1-0.3-0.3-0.2-0.5c1.9-6,2.8-12.3,2.8-18.5c0-0.2,0.1-0.4,0.3-0.4
			c0.7-0.1,1.3-0.2,1.8-0.3c8.1-2,13-10.2,11.1-18.3c-1-3.9-3.4-7.2-6.8-9.3c-3.4-2.1-7.5-2.7-11.4-1.8c-0.5,0.1-1.1,0.3-1.7,0.6
			c-0.2,0.1-0.4,0-0.5-0.2c-2.9-5.6-6.6-10.7-11.1-15.1c-0.1-0.1-0.2-0.4,0-0.5c0.4-0.5,0.8-1,1-1.5c4.3-7.1,2-16.4-5.1-20.8
			c-7.1-4.3-16.4-2-20.7,5.1c-0.3,0.5-0.6,1-0.9,1.6c-0.1,0.2-0.3,0.3-0.5,0.2c-6-1.9-12.2-2.8-18.5-2.8c-0.2,0-0.4-0.1-0.4-0.3
			c-0.1-0.7-0.2-1.3-0.3-1.8c-2-8.1-10.1-13.1-18.2-11.1c-3.9,1-7.2,3.4-9.3,6.8c-2.1,3.5-2.7,7.5-1.8,11.4c0.1,0.5,0.3,1.1,0.6,1.7
			c0.1,0.2,0,0.4-0.2,0.5c-5.5,2.9-10.6,6.7-15.1,11.1c-0.1,0.1-0.4,0.2-0.5,0c-0.5-0.4-1-0.8-1.5-1c-7.1-4.3-16.4-2-20.7,5.1
			c-4.3,7.1-2,16.4,5.1,20.8c0.5,0.3,1,0.6,1.6,0.9c0.2,0.1,0.3,0.3,0.2,0.5c-1.9,6-2.8,12.3-2.8,18.5c0,0.2-0.1,0.4-0.3,0.4
			c-0.7,0.1-1.3,0.2-1.8,0.3c-3.9,1-7.2,3.4-9.3,6.8c-2.1,3.5-2.7,7.5-1.8,11.4c2,8.1,10.1,13.1,18.2,11.1c0.5-0.1,1.1-0.3,1.7-0.6
			c0.2-0.1,0.4,0,0.5,0.2c2.9,5.6,6.6,10.6,11.1,15.1c0.1,0.1,0.2,0.4,0,0.5c-0.4,0.5-0.8,1-1,1.5c-2.1,3.5-2.7,7.5-1.8,11.4
			c1,3.9,3.4,7.2,6.8,9.3c7.1,4.3,16.4,2,20.7-5.1c0.3-0.5,0.6-1,0.9-1.6c0.1-0.2,0.3-0.3,0.5-0.2c6,1.9,12.2,2.8,18.5,2.8
			c0.2,0,0.4,0.1,0.4,0.3c0.1,0.7,0.2,1.3,0.3,1.8c2,8.1,10.2,13.1,18.2,11.1c3.9-1,7.2-3.4,9.3-6.8c2.1-3.5,2.7-7.5,1.8-11.4
			c-0.1-0.5-0.3-1.1-0.6-1.7c-0.1-0.2,0-0.4,0.2-0.5c5.5-2.9,10.6-6.7,15.1-11.1c0.1-0.1,0.2-0.1,0.3-0.1
			C427.8,452.1,427.9,452.1,428,452.1z M367.9,432.2c-6.7-4-11.3-10.5-13.2-18c-1.8-7.6-0.6-15.4,3.4-22.1
			c8.3-13.8,26.2-18.2,40-9.8c13.7,8.4,18.1,26.3,9.8,40.1c-4,6.7-10.4,11.4-18,13.2c-2.3,0.6-4.6,0.9-7,0.9
			C377.7,436.5,372.5,435,367.9,432.2z M397.7,383c-13.4-8.1-30.8-3.8-38.9,9.5c-3.9,6.5-5.1,14.1-3.3,21.5
			c1.8,7.4,6.4,13.6,12.8,17.5s14.1,5.1,21.4,3.3c7.3-1.8,13.5-6.4,17.5-12.9C415.3,408.6,411.1,391.1,397.7,383z"/>
		<path d="M269,413c-2.2-1.3-3.7-3.4-4.3-5.8c-0.1-0.2-0.1-0.5-0.2-0.8c-3.5-0.1-7-0.6-10.3-1.6c-0.1,0.3-0.3,0.5-0.4,0.7
			c-1.3,2.2-3.4,3.7-5.8,4.3c-2.4,0.6-5,0.2-7.1-1.1c-2.2-1.3-3.7-3.4-4.3-5.8c-0.6-2.5-0.2-5,1.1-7.2c0.1-0.2,0.3-0.4,0.4-0.7
			c-2.4-2.5-4.5-5.4-6.2-8.5c-0.3,0.1-0.5,0.2-0.8,0.2c-5.1,1.2-10.2-1.9-11.4-6.9c-1.2-5.1,1.9-10.2,6.9-11.5
			c0.2-0.1,0.5-0.1,0.8-0.2c0.1-3.5,0.6-7,1.6-10.4c-0.3-0.1-0.5-0.3-0.7-0.4c-2.2-1.3-3.7-3.4-4.3-5.8c-0.6-2.5-0.2-5,1.1-7.2
			c1.3-2.2,3.4-3.7,5.8-4.3c2.5-0.6,5-0.2,7.1,1.1c0.2,0.1,0.4,0.3,0.7,0.4c2.5-2.5,5.3-4.5,8.4-6.2c-0.1-0.3-0.2-0.5-0.2-0.8
			c-1.2-5.1,1.9-10.2,6.9-11.5c2.4-0.6,5-0.2,7.1,1.1c2.2,1.3,3.7,3.4,4.3,5.8c0.1,0.2,0.1,0.5,0.2,0.8c3.5,0.1,7,0.6,10.3,1.6
			c0.1-0.3,0.3-0.5,0.4-0.7c1.3-2.2,3.4-3.7,5.8-4.3c2.5-0.6,5-0.2,7.1,1.1c2.2,1.3,3.7,3.4,4.3,5.8c0.6,2.5,0.2,5-1.1,7.2
			c-0.1,0.2-0.3,0.4-0.4,0.7c2.4,2.5,4.5,5.4,6.2,8.5c0.3-0.1,0.5-0.2,0.8-0.2c2.5-0.6,5-0.2,7.1,1.1c2.2,1.3,3.7,3.4,4.3,5.8
			c0.6,2.5,0.2,5-1.1,7.2c-1.3,2.2-3.4,3.7-5.8,4.3c-0.2,0.1-0.5,0.1-0.8,0.2c-0.1,3.5-0.6,7-1.6,10.4c0.3,0.1,0.5,0.3,0.7,0.4
			c2.2,1.3,3.7,3.4,4.3,5.8c0.6,2.5,0.2,5-1.1,7.2c-2.7,4.5-8.5,5.9-13,3.2c-0.2-0.1-0.4-0.3-0.7-0.4c-2.5,2.5-5.3,4.5-8.4,6.2
			c0.1,0.3,0.2,0.5,0.2,0.8c1.2,5.1-1.9,10.2-6.9,11.5c-0.7,0.2-1.5,0.3-2.3,0.3C272.2,414.4,270.5,413.9,269,413z M291.5,394.8
			c0.3,0.2,0.6,0.4,0.9,0.6c4.1,2.5,9.4,1.2,11.9-2.9c2.5-4.1,1.2-9.4-2.9-11.9c-0.3-0.2-0.6-0.3-0.9-0.5c-0.2-0.1-0.3-0.3-0.2-0.5
			c1.1-3.5,1.7-7.1,1.7-10.8c0-0.2,0.1-0.4,0.3-0.4c0.4,0,0.7-0.1,1-0.2c2.2-0.6,4.1-2,5.3-3.9c1.2-2,1.6-4.3,1-6.6
			c-0.6-2.2-2-4.1-3.9-5.4c-2-1.2-4.3-1.6-6.6-1c-0.3,0.1-0.6,0.2-1,0.3c-0.2,0.1-0.4,0-0.5-0.2c-1.7-3.2-3.9-6.2-6.4-8.8
			c-0.1-0.1-0.2-0.4,0-0.5c0.2-0.3,0.4-0.6,0.6-0.9c2.5-4.1,1.2-9.4-2.9-11.9c-2-1.2-4.3-1.6-6.6-1c-2.2,0.6-4.1,2-5.3,3.9
			c-0.2,0.3-0.3,0.6-0.5,0.9c-0.1,0.2-0.3,0.3-0.5,0.2c-3.5-1.1-7.1-1.6-10.8-1.7c-0.2,0-0.4-0.1-0.4-0.3c0-0.4-0.1-0.7-0.2-1
			c-0.5-2.2-2-4.1-3.9-5.4c-2-1.2-4.3-1.6-6.6-1c-4.6,1.1-7.5,5.9-6.4,10.5c0.1,0.3,0.2,0.6,0.3,1c0.1,0.2,0,0.4-0.2,0.5
			c-3.2,1.7-6.2,3.9-8.8,6.5c-0.1,0.1-0.4,0.2-0.5,0c-0.3-0.2-0.6-0.4-0.9-0.6c-4.1-2.5-9.4-1.2-11.9,2.9c-1.2,2-1.6,4.3-1,6.6
			c0.6,2.2,2,4.1,3.9,5.4c0.3,0.2,0.6,0.3,0.9,0.5c0.2,0.1,0.3,0.3,0.2,0.5c-1.1,3.5-1.7,7.1-1.7,10.8c0,0.2-0.1,0.4-0.3,0.4
			c-0.4,0-0.7,0.1-1,0.2c-4.6,1.1-7.5,5.9-6.4,10.5c1.1,4.6,5.8,7.5,10.5,6.4c0.3-0.1,0.6-0.2,1-0.3c0.2-0.1,0.4,0,0.5,0.2
			c1.7,3.2,3.9,6.2,6.4,8.8c0.1,0.1,0.2,0.4,0,0.5c-0.2,0.3-0.4,0.6-0.6,0.9c-1.2,2-1.6,4.3-1,6.6c0.5,2.2,2,4.1,3.9,5.4
			c2,1.2,4.3,1.6,6.6,1c2.2-0.6,4.1-2,5.3-3.9c0.2-0.3,0.3-0.6,0.5-0.9c0.1-0.2,0.3-0.3,0.5-0.2c3.5,1.1,7.1,1.6,10.8,1.7
			c0.2,0,0.4,0.1,0.4,0.3c0,0.4,0.1,0.7,0.2,1c0.6,2.2,2,4.1,3.9,5.4s4.3,1.6,6.6,1c4.6-1.1,7.5-5.9,6.4-10.5
			c-0.1-0.3-0.2-0.6-0.3-1c-0.1-0.2,0-0.4,0.2-0.5c3.2-1.7,6.2-3.9,8.8-6.5c0.1-0.1,0.2-0.1,0.3-0.1
			C291.3,394.7,291.4,394.8,291.5,394.8z M256.1,383.4c-8.1-4.9-10.7-15.6-5.8-23.7c2.4-3.9,6.2-6.7,10.6-7.8c4.5-1.1,9.1-0.4,13,2
			c3.9,2.4,6.7,6.2,7.8,10.6s0.4,9.1-2,13.1c-2.4,3.9-6.2,6.7-10.6,7.8c-1.4,0.3-2.8,0.5-4.1,0.5
			C261.9,385.9,258.9,385.1,256.1,383.4z M261.1,352.6c-4.3,1.1-7.9,3.7-10.1,7.5c-4.7,7.8-2.2,17.9,5.5,22.6
			c3.8,2.3,8.2,3,12.4,1.9s7.9-3.7,10.1-7.5c2.3-3.8,3-8.2,1.9-12.5c-1-4.3-3.7-7.9-7.4-10.2c-2.6-1.6-5.5-2.4-8.5-2.4
			C263.8,352.2,262.5,352.3,261.1,352.6z"/>
	</mask>
	<path class="st8" d="M382.7,472.9c-0.1-0.5-0.2-1-0.3-1.6c-6.1,0-12.2-1-18-2.8c-0.2,0.5-0.5,1-0.7,1.4c-4.5,7.5-14.3,9.9-21.8,5.3
		c-3.6-2.2-6.2-5.7-7.2-9.8c-1-4.1-0.4-8.4,1.8-12c0.2-0.4,0.5-0.8,0.9-1.3c-4.3-4.4-7.9-9.4-10.8-14.8c-0.5,0.2-1,0.3-1.5,0.5
		c-8.5,2.1-17.1-3.2-19.2-11.7c-1-4.1-0.4-8.4,1.8-12c2.2-3.6,5.7-6.2,9.8-7.2c0.5-0.1,1-0.2,1.6-0.3c0.1-6.1,1-12.2,2.8-18.1
		c-0.5-0.2-1-0.5-1.4-0.7c-7.5-4.5-9.9-14.3-5.3-21.8c4.5-7.5,14.3-9.9,21.8-5.3c0.4,0.2,0.8,0.5,1.3,0.9c4.4-4.3,9.3-7.9,14.7-10.8
		c-0.2-0.5-0.3-1-0.5-1.5c-1-4.1-0.4-8.4,1.8-12c2.2-3.6,5.7-6.2,9.8-7.2c8.5-2.1,17.1,3.2,19.2,11.7c0.1,0.5,0.2,1,0.3,1.6
		c6.1,0.1,12.2,1,18,2.8c0.2-0.5,0.5-1,0.7-1.4c4.5-7.5,14.3-9.9,21.8-5.3c7.5,4.5,9.9,14.3,5.3,21.8c-0.2,0.4-0.5,0.8-0.9,1.3
		c4.3,4.4,7.9,9.4,10.8,14.8c0.5-0.2,1-0.3,1.5-0.5c4.1-1,8.4-0.4,12,1.9c3.6,2.2,6.2,5.7,7.2,9.8c2.1,8.5-3.1,17.1-11.6,19.2
		c-0.5,0.1-1,0.2-1.6,0.3c-0.1,6.1-1,12.2-2.8,18.1c0.5,0.2,1,0.5,1.4,0.7c3.6,2.2,6.2,5.7,7.2,9.8c1,4.1,0.4,8.4-1.8,12
		c-2.2,3.6-5.7,6.2-9.8,7.2c-4.1,1-8.4,0.4-12-1.9c-0.4-0.2-0.8-0.5-1.3-0.9c-4.4,4.3-9.3,7.9-14.7,10.8c0.2,0.5,0.3,1,0.5,1.5
		c1,4.1,0.4,8.4-1.8,12c-2.2,3.6-5.7,6.2-9.8,7.2c-1.3,0.3-2.5,0.5-3.8,0.5C391,485,384.5,480.1,382.7,472.9z M428,452.1
		c0.5,0.4,1,0.8,1.5,1c3.4,2.1,7.5,2.7,11.4,1.8c3.9-1,7.2-3.4,9.3-6.8c2.1-3.5,2.7-7.5,1.8-11.4c-1-3.9-3.4-7.2-6.8-9.3
		c-0.5-0.3-1-0.6-1.6-0.9c-0.2-0.1-0.3-0.3-0.2-0.5c1.9-6,2.8-12.3,2.8-18.5c0-0.2,0.1-0.4,0.3-0.4c0.7-0.1,1.3-0.2,1.8-0.3
		c8.1-2,13-10.2,11.1-18.3c-1-3.9-3.4-7.2-6.8-9.3c-3.4-2.1-7.5-2.7-11.4-1.8c-0.5,0.1-1.1,0.3-1.7,0.6c-0.2,0.1-0.4,0-0.5-0.2
		c-2.9-5.6-6.6-10.7-11.1-15.1c-0.1-0.1-0.2-0.4,0-0.5c0.4-0.5,0.8-1,1-1.5c4.3-7.1,2-16.4-5.1-20.8c-7.1-4.3-16.4-2-20.7,5.1
		c-0.3,0.5-0.6,1-0.9,1.6c-0.1,0.2-0.3,0.3-0.5,0.2c-6-1.9-12.2-2.8-18.5-2.8c-0.2,0-0.4-0.1-0.4-0.3c-0.1-0.7-0.2-1.3-0.3-1.8
		c-2-8.1-10.1-13.1-18.2-11.1c-3.9,1-7.2,3.4-9.3,6.8c-2.1,3.5-2.7,7.5-1.8,11.4c0.1,0.5,0.3,1.1,0.6,1.7c0.1,0.2,0,0.4-0.2,0.5
		c-5.5,2.9-10.6,6.7-15.1,11.1c-0.1,0.1-0.4,0.2-0.5,0c-0.5-0.4-1-0.8-1.5-1c-7.1-4.3-16.4-2-20.7,5.1c-4.3,7.1-2,16.4,5.1,20.8
		c0.5,0.3,1,0.6,1.6,0.9c0.2,0.1,0.3,0.3,0.2,0.5c-1.9,6-2.8,12.3-2.8,18.5c0,0.2-0.1,0.4-0.3,0.4c-0.7,0.1-1.3,0.2-1.8,0.3
		c-3.9,1-7.2,3.4-9.3,6.8c-2.1,3.5-2.7,7.5-1.8,11.4c2,8.1,10.1,13.1,18.2,11.1c0.5-0.1,1.1-0.3,1.7-0.6c0.2-0.1,0.4,0,0.5,0.2
		c2.9,5.6,6.6,10.6,11.1,15.1c0.1,0.1,0.2,0.4,0,0.5c-0.4,0.5-0.8,1-1,1.5c-2.1,3.5-2.7,7.5-1.8,11.4c1,3.9,3.4,7.2,6.8,9.3
		c7.1,4.3,16.4,2,20.7-5.1c0.3-0.5,0.6-1,0.9-1.6c0.1-0.2,0.3-0.3,0.5-0.2c6,1.9,12.2,2.8,18.5,2.8c0.2,0,0.4,0.1,0.4,0.3
		c0.1,0.7,0.2,1.3,0.3,1.8c2,8.1,10.2,13.1,18.2,11.1c3.9-1,7.2-3.4,9.3-6.8c2.1-3.5,2.7-7.5,1.8-11.4c-0.1-0.5-0.3-1.1-0.6-1.7
		c-0.1-0.2,0-0.4,0.2-0.5c5.5-2.9,10.6-6.7,15.1-11.1c0.1-0.1,0.2-0.1,0.3-0.1C427.8,452.1,427.9,452.1,428,452.1z M367.9,432.2
		c-6.7-4-11.3-10.5-13.2-18c-1.8-7.6-0.6-15.4,3.4-22.1c8.3-13.8,26.2-18.2,40-9.8c13.7,8.4,18.1,26.3,9.8,40.1
		c-4,6.7-10.4,11.4-18,13.2c-2.3,0.6-4.6,0.9-7,0.9C377.7,436.5,372.5,435,367.9,432.2z M397.7,383c-13.4-8.1-30.8-3.8-38.9,9.5
		c-3.9,6.5-5.1,14.1-3.3,21.5c1.8,7.4,6.4,13.6,12.8,17.5s14.1,5.1,21.4,3.3c7.3-1.8,13.5-6.4,17.5-12.9
		C415.3,408.6,411.1,391.1,397.7,383z"/>
	<defs>
		
			<filter id="Adobe_OpacityMaskFilter_00000093858888543380708860000014046111998975114136_" filterUnits="userSpaceOnUse" x="218.1" y="321.6" width="93.9" height="94.2">
			<feColorMatrix  type="matrix" values="1 0 0 0 0  0 1 0 0 0  0 0 1 0 0  0 0 0 1 0"/>
		</filter>
	</defs>
	
		<mask maskUnits="userSpaceOnUse" x="218.1" y="321.6" width="93.9" height="94.2" id="path-9-outside-1_72_1633_00000013902305065920386520000004651089554382351000_">
		
			<rect x="217.5" y="321" style="fill:#FFFFFF;filter:url(#Adobe_OpacityMaskFilter_00000093858888543380708860000014046111998975114136_);" width="245" height="166"/>
		<path d="M382.7,472.9c-0.1-0.5-0.2-1-0.3-1.6c-6.1,0-12.2-1-18-2.8c-0.2,0.5-0.5,1-0.7,1.4c-4.5,7.5-14.3,9.9-21.8,5.3
			c-3.6-2.2-6.2-5.7-7.2-9.8c-1-4.1-0.4-8.4,1.8-12c0.2-0.4,0.5-0.8,0.9-1.3c-4.3-4.4-7.9-9.4-10.8-14.8c-0.5,0.2-1,0.3-1.5,0.5
			c-8.5,2.1-17.1-3.2-19.2-11.7c-1-4.1-0.4-8.4,1.8-12c2.2-3.6,5.7-6.2,9.8-7.2c0.5-0.1,1-0.2,1.6-0.3c0.1-6.1,1-12.2,2.8-18.1
			c-0.5-0.2-1-0.5-1.4-0.7c-7.5-4.5-9.9-14.3-5.3-21.8c4.5-7.5,14.3-9.9,21.8-5.3c0.4,0.2,0.8,0.5,1.3,0.9
			c4.4-4.3,9.3-7.9,14.7-10.8c-0.2-0.5-0.3-1-0.5-1.5c-1-4.1-0.4-8.4,1.8-12c2.2-3.6,5.7-6.2,9.8-7.2c8.5-2.1,17.1,3.2,19.2,11.7
			c0.1,0.5,0.2,1,0.3,1.6c6.1,0.1,12.2,1,18,2.8c0.2-0.5,0.5-1,0.7-1.4c4.5-7.5,14.3-9.9,21.8-5.3c7.5,4.5,9.9,14.3,5.3,21.8
			c-0.2,0.4-0.5,0.8-0.9,1.3c4.3,4.4,7.9,9.4,10.8,14.8c0.5-0.2,1-0.3,1.5-0.5c4.1-1,8.4-0.4,12,1.9c3.6,2.2,6.2,5.7,7.2,9.8
			c2.1,8.5-3.1,17.1-11.6,19.2c-0.5,0.1-1,0.2-1.6,0.3c-0.1,6.1-1,12.2-2.8,18.1c0.5,0.2,1,0.5,1.4,0.7c3.6,2.2,6.2,5.7,7.2,9.8
			c1,4.1,0.4,8.4-1.8,12c-2.2,3.6-5.7,6.2-9.8,7.2c-4.1,1-8.4,0.4-12-1.9c-0.4-0.2-0.8-0.5-1.3-0.9c-4.4,4.3-9.3,7.9-14.7,10.8
			c0.2,0.5,0.3,1,0.5,1.5c1,4.1,0.4,8.4-1.8,12c-2.2,3.6-5.7,6.2-9.8,7.2c-1.3,0.3-2.5,0.5-3.8,0.5C391,485,384.5,480.1,382.7,472.9
			z M428,452.1c0.5,0.4,1,0.8,1.5,1c3.4,2.1,7.5,2.7,11.4,1.8c3.9-1,7.2-3.4,9.3-6.8c2.1-3.5,2.7-7.5,1.8-11.4
			c-1-3.9-3.4-7.2-6.8-9.3c-0.5-0.3-1-0.6-1.6-0.9c-0.2-0.1-0.3-0.3-0.2-0.5c1.9-6,2.8-12.3,2.8-18.5c0-0.2,0.1-0.4,0.3-0.4
			c0.7-0.1,1.3-0.2,1.8-0.3c8.1-2,13-10.2,11.1-18.3c-1-3.9-3.4-7.2-6.8-9.3c-3.4-2.1-7.5-2.7-11.4-1.8c-0.5,0.1-1.1,0.3-1.7,0.6
			c-0.2,0.1-0.4,0-0.5-0.2c-2.9-5.6-6.6-10.7-11.1-15.1c-0.1-0.1-0.2-0.4,0-0.5c0.4-0.5,0.8-1,1-1.5c4.3-7.1,2-16.4-5.1-20.8
			c-7.1-4.3-16.4-2-20.7,5.1c-0.3,0.5-0.6,1-0.9,1.6c-0.1,0.2-0.3,0.3-0.5,0.2c-6-1.9-12.2-2.8-18.5-2.8c-0.2,0-0.4-0.1-0.4-0.3
			c-0.1-0.7-0.2-1.3-0.3-1.8c-2-8.1-10.1-13.1-18.2-11.1c-3.9,1-7.2,3.4-9.3,6.8c-2.1,3.5-2.7,7.5-1.8,11.4c0.1,0.5,0.3,1.1,0.6,1.7
			c0.1,0.2,0,0.4-0.2,0.5c-5.5,2.9-10.6,6.7-15.1,11.1c-0.1,0.1-0.4,0.2-0.5,0c-0.5-0.4-1-0.8-1.5-1c-7.1-4.3-16.4-2-20.7,5.1
			c-4.3,7.1-2,16.4,5.1,20.8c0.5,0.3,1,0.6,1.6,0.9c0.2,0.1,0.3,0.3,0.2,0.5c-1.9,6-2.8,12.3-2.8,18.5c0,0.2-0.1,0.4-0.3,0.4
			c-0.7,0.1-1.3,0.2-1.8,0.3c-3.9,1-7.2,3.4-9.3,6.8c-2.1,3.5-2.7,7.5-1.8,11.4c2,8.1,10.1,13.1,18.2,11.1c0.5-0.1,1.1-0.3,1.7-0.6
			c0.2-0.1,0.4,0,0.5,0.2c2.9,5.6,6.6,10.6,11.1,15.1c0.1,0.1,0.2,0.4,0,0.5c-0.4,0.5-0.8,1-1,1.5c-2.1,3.5-2.7,7.5-1.8,11.4
			c1,3.9,3.4,7.2,6.8,9.3c7.1,4.3,16.4,2,20.7-5.1c0.3-0.5,0.6-1,0.9-1.6c0.1-0.2,0.3-0.3,0.5-0.2c6,1.9,12.2,2.8,18.5,2.8
			c0.2,0,0.4,0.1,0.4,0.3c0.1,0.7,0.2,1.3,0.3,1.8c2,8.1,10.2,13.1,18.2,11.1c3.9-1,7.2-3.4,9.3-6.8c2.1-3.5,2.7-7.5,1.8-11.4
			c-0.1-0.5-0.3-1.1-0.6-1.7c-0.1-0.2,0-0.4,0.2-0.5c5.5-2.9,10.6-6.7,15.1-11.1c0.1-0.1,0.2-0.1,0.3-0.1
			C427.8,452.1,427.9,452.1,428,452.1z M367.9,432.2c-6.7-4-11.3-10.5-13.2-18c-1.8-7.6-0.6-15.4,3.4-22.1
			c8.3-13.8,26.2-18.2,40-9.8c13.7,8.4,18.1,26.3,9.8,40.1c-4,6.7-10.4,11.4-18,13.2c-2.3,0.6-4.6,0.9-7,0.9
			C377.7,436.5,372.5,435,367.9,432.2z M397.7,383c-13.4-8.1-30.8-3.8-38.9,9.5c-3.9,6.5-5.1,14.1-3.3,21.5
			c1.8,7.4,6.4,13.6,12.8,17.5s14.1,5.1,21.4,3.3c7.3-1.8,13.5-6.4,17.5-12.9C415.3,408.6,411.1,391.1,397.7,383z"/>
		<path d="M269,413c-2.2-1.3-3.7-3.4-4.3-5.8c-0.1-0.2-0.1-0.5-0.2-0.8c-3.5-0.1-7-0.6-10.3-1.6c-0.1,0.3-0.3,0.5-0.4,0.7
			c-1.3,2.2-3.4,3.7-5.8,4.3c-2.4,0.6-5,0.2-7.1-1.1c-2.2-1.3-3.7-3.4-4.3-5.8c-0.6-2.5-0.2-5,1.1-7.2c0.1-0.2,0.3-0.4,0.4-0.7
			c-2.4-2.5-4.5-5.4-6.2-8.5c-0.3,0.1-0.5,0.2-0.8,0.2c-5.1,1.2-10.2-1.9-11.4-6.9c-1.2-5.1,1.9-10.2,6.9-11.5
			c0.2-0.1,0.5-0.1,0.8-0.2c0.1-3.5,0.6-7,1.6-10.4c-0.3-0.1-0.5-0.3-0.7-0.4c-2.2-1.3-3.7-3.4-4.3-5.8c-0.6-2.5-0.2-5,1.1-7.2
			c1.3-2.2,3.4-3.7,5.8-4.3c2.5-0.6,5-0.2,7.1,1.1c0.2,0.1,0.4,0.3,0.7,0.4c2.5-2.5,5.3-4.5,8.4-6.2c-0.1-0.3-0.2-0.5-0.2-0.8
			c-1.2-5.1,1.9-10.2,6.9-11.5c2.4-0.6,5-0.2,7.1,1.1c2.2,1.3,3.7,3.4,4.3,5.8c0.1,0.2,0.1,0.5,0.2,0.8c3.5,0.1,7,0.6,10.3,1.6
			c0.1-0.3,0.3-0.5,0.4-0.7c1.3-2.2,3.4-3.7,5.8-4.3c2.5-0.6,5-0.2,7.1,1.1c2.2,1.3,3.7,3.4,4.3,5.8c0.6,2.5,0.2,5-1.1,7.2
			c-0.1,0.2-0.3,0.4-0.4,0.7c2.4,2.5,4.5,5.4,6.2,8.5c0.3-0.1,0.5-0.2,0.8-0.2c2.5-0.6,5-0.2,7.1,1.1c2.2,1.3,3.7,3.4,4.3,5.8
			c0.6,2.5,0.2,5-1.1,7.2c-1.3,2.2-3.4,3.7-5.8,4.3c-0.2,0.1-0.5,0.1-0.8,0.2c-0.1,3.5-0.6,7-1.6,10.4c0.3,0.1,0.5,0.3,0.7,0.4
			c2.2,1.3,3.7,3.4,4.3,5.8c0.6,2.5,0.2,5-1.1,7.2c-2.7,4.5-8.5,5.9-13,3.2c-0.2-0.1-0.4-0.3-0.7-0.4c-2.5,2.5-5.3,4.5-8.4,6.2
			c0.1,0.3,0.2,0.5,0.2,0.8c1.2,5.1-1.9,10.2-6.9,11.5c-0.7,0.2-1.5,0.3-2.3,0.3C272.2,414.4,270.5,413.9,269,413z M291.5,394.8
			c0.3,0.2,0.6,0.4,0.9,0.6c4.1,2.5,9.4,1.2,11.9-2.9c2.5-4.1,1.2-9.4-2.9-11.9c-0.3-0.2-0.6-0.3-0.9-0.5c-0.2-0.1-0.3-0.3-0.2-0.5
			c1.1-3.5,1.7-7.1,1.7-10.8c0-0.2,0.1-0.4,0.3-0.4c0.4,0,0.7-0.1,1-0.2c2.2-0.6,4.1-2,5.3-3.9c1.2-2,1.6-4.3,1-6.6
			c-0.6-2.2-2-4.1-3.9-5.4c-2-1.2-4.3-1.6-6.6-1c-0.3,0.1-0.6,0.2-1,0.3c-0.2,0.1-0.4,0-0.5-0.2c-1.7-3.2-3.9-6.2-6.4-8.8
			c-0.1-0.1-0.2-0.4,0-0.5c0.2-0.3,0.4-0.6,0.6-0.9c2.5-4.1,1.2-9.4-2.9-11.9c-2-1.2-4.3-1.6-6.6-1c-2.2,0.6-4.1,2-5.3,3.9
			c-0.2,0.3-0.3,0.6-0.5,0.9c-0.1,0.2-0.3,0.3-0.5,0.2c-3.5-1.1-7.1-1.6-10.8-1.7c-0.2,0-0.4-0.1-0.4-0.3c0-0.4-0.1-0.7-0.2-1
			c-0.5-2.2-2-4.1-3.9-5.4c-2-1.2-4.3-1.6-6.6-1c-4.6,1.1-7.5,5.9-6.4,10.5c0.1,0.3,0.2,0.6,0.3,1c0.1,0.2,0,0.4-0.2,0.5
			c-3.2,1.7-6.2,3.9-8.8,6.5c-0.1,0.1-0.4,0.2-0.5,0c-0.3-0.2-0.6-0.4-0.9-0.6c-4.1-2.5-9.4-1.2-11.9,2.9c-1.2,2-1.6,4.3-1,6.6
			c0.6,2.2,2,4.1,3.9,5.4c0.3,0.2,0.6,0.3,0.9,0.5c0.2,0.1,0.3,0.3,0.2,0.5c-1.1,3.5-1.7,7.1-1.7,10.8c0,0.2-0.1,0.4-0.3,0.4
			c-0.4,0-0.7,0.1-1,0.2c-4.6,1.1-7.5,5.9-6.4,10.5c1.1,4.6,5.8,7.5,10.5,6.4c0.3-0.1,0.6-0.2,1-0.3c0.2-0.1,0.4,0,0.5,0.2
			c1.7,3.2,3.9,6.2,6.4,8.8c0.1,0.1,0.2,0.4,0,0.5c-0.2,0.3-0.4,0.6-0.6,0.9c-1.2,2-1.6,4.3-1,6.6c0.5,2.2,2,4.1,3.9,5.4
			c2,1.2,4.3,1.6,6.6,1c2.2-0.6,4.1-2,5.3-3.9c0.2-0.3,0.3-0.6,0.5-0.9c0.1-0.2,0.3-0.3,0.5-0.2c3.5,1.1,7.1,1.6,10.8,1.7
			c0.2,0,0.4,0.1,0.4,0.3c0,0.4,0.1,0.7,0.2,1c0.6,2.2,2,4.1,3.9,5.4s4.3,1.6,6.6,1c4.6-1.1,7.5-5.9,6.4-10.5
			c-0.1-0.3-0.2-0.6-0.3-1c-0.1-0.2,0-0.4,0.2-0.5c3.2-1.7,6.2-3.9,8.8-6.5c0.1-0.1,0.2-0.1,0.3-0.1
			C291.3,394.7,291.4,394.8,291.5,394.8z M256.1,383.4c-8.1-4.9-10.7-15.6-5.8-23.7c2.4-3.9,6.2-6.7,10.6-7.8c4.5-1.1,9.1-0.4,13,2
			c3.9,2.4,6.7,6.2,7.8,10.6s0.4,9.1-2,13.1c-2.4,3.9-6.2,6.7-10.6,7.8c-1.4,0.3-2.8,0.5-4.1,0.5
			C261.9,385.9,258.9,385.1,256.1,383.4z M261.1,352.6c-4.3,1.1-7.9,3.7-10.1,7.5c-4.7,7.8-2.2,17.9,5.5,22.6
			c3.8,2.3,8.2,3,12.4,1.9s7.9-3.7,10.1-7.5c2.3-3.8,3-8.2,1.9-12.5c-1-4.3-3.7-7.9-7.4-10.2c-2.6-1.6-5.5-2.4-8.5-2.4
			C263.8,352.2,262.5,352.3,261.1,352.6z"/>
	</mask>
	<path class="st10" d="M269,413c-2.2-1.3-3.7-3.4-4.3-5.8c-0.1-0.2-0.1-0.5-0.2-0.8c-3.5-0.1-7-0.6-10.3-1.6
		c-0.1,0.3-0.3,0.5-0.4,0.7c-1.3,2.2-3.4,3.7-5.8,4.3c-2.4,0.6-5,0.2-7.1-1.1c-2.2-1.3-3.7-3.4-4.3-5.8c-0.6-2.5-0.2-5,1.1-7.2
		c0.1-0.2,0.3-0.4,0.4-0.7c-2.4-2.5-4.5-5.4-6.2-8.5c-0.3,0.1-0.5,0.2-0.8,0.2c-5.1,1.2-10.2-1.9-11.4-6.9
		c-1.2-5.1,1.9-10.2,6.9-11.5c0.2-0.1,0.5-0.1,0.8-0.2c0.1-3.5,0.6-7,1.6-10.4c-0.3-0.1-0.5-0.3-0.7-0.4c-2.2-1.3-3.7-3.4-4.3-5.8
		c-0.6-2.5-0.2-5,1.1-7.2c1.3-2.2,3.4-3.7,5.8-4.3c2.5-0.6,5-0.2,7.1,1.1c0.2,0.1,0.4,0.3,0.7,0.4c2.5-2.5,5.3-4.5,8.4-6.2
		c-0.1-0.3-0.2-0.5-0.2-0.8c-1.2-5.1,1.9-10.2,6.9-11.5c2.4-0.6,5-0.2,7.1,1.1c2.2,1.3,3.7,3.4,4.3,5.8c0.1,0.2,0.1,0.5,0.2,0.8
		c3.5,0.1,7,0.6,10.3,1.6c0.1-0.3,0.3-0.5,0.4-0.7c1.3-2.2,3.4-3.7,5.8-4.3c2.5-0.6,5-0.2,7.1,1.1c2.2,1.3,3.7,3.4,4.3,5.8
		c0.6,2.5,0.2,5-1.1,7.2c-0.1,0.2-0.3,0.4-0.4,0.7c2.4,2.5,4.5,5.4,6.2,8.5c0.3-0.1,0.5-0.2,0.8-0.2c2.5-0.6,5-0.2,7.1,1.1
		c2.2,1.3,3.7,3.4,4.3,5.8c0.6,2.5,0.2,5-1.1,7.2c-1.3,2.2-3.4,3.7-5.8,4.3c-0.2,0.1-0.5,0.1-0.8,0.2c-0.1,3.5-0.6,7-1.6,10.4
		c0.3,0.1,0.5,0.3,0.7,0.4c2.2,1.3,3.7,3.4,4.3,5.8c0.6,2.5,0.2,5-1.1,7.2c-2.7,4.5-8.5,5.9-13,3.2c-0.2-0.1-0.4-0.3-0.7-0.4
		c-2.5,2.5-5.3,4.5-8.4,6.2c0.1,0.3,0.2,0.5,0.2,0.8c1.2,5.1-1.9,10.2-6.9,11.5c-0.7,0.2-1.5,0.3-2.3,0.3
		C272.2,414.4,270.5,413.9,269,413z M291.5,394.8c0.3,0.2,0.6,0.4,0.9,0.6c4.1,2.5,9.4,1.2,11.9-2.9c2.5-4.1,1.2-9.4-2.9-11.9
		c-0.3-0.2-0.6-0.3-0.9-0.5c-0.2-0.1-0.3-0.3-0.2-0.5c1.1-3.5,1.7-7.1,1.7-10.8c0-0.2,0.1-0.4,0.3-0.4c0.4,0,0.7-0.1,1-0.2
		c2.2-0.6,4.1-2,5.3-3.9c1.2-2,1.6-4.3,1-6.6c-0.6-2.2-2-4.1-3.9-5.4c-2-1.2-4.3-1.6-6.6-1c-0.3,0.1-0.6,0.2-1,0.3
		c-0.2,0.1-0.4,0-0.5-0.2c-1.7-3.2-3.9-6.2-6.4-8.8c-0.1-0.1-0.2-0.4,0-0.5c0.2-0.3,0.4-0.6,0.6-0.9c2.5-4.1,1.2-9.4-2.9-11.9
		c-2-1.2-4.3-1.6-6.6-1c-2.2,0.6-4.1,2-5.3,3.9c-0.2,0.3-0.3,0.6-0.5,0.9c-0.1,0.2-0.3,0.3-0.5,0.2c-3.5-1.1-7.1-1.6-10.8-1.7
		c-0.2,0-0.4-0.1-0.4-0.3c0-0.4-0.1-0.7-0.2-1c-0.5-2.2-2-4.1-3.9-5.4c-2-1.2-4.3-1.6-6.6-1c-4.6,1.1-7.5,5.9-6.4,10.5
		c0.1,0.3,0.2,0.6,0.3,1c0.1,0.2,0,0.4-0.2,0.5c-3.2,1.7-6.2,3.9-8.8,6.5c-0.1,0.1-0.4,0.2-0.5,0c-0.3-0.2-0.6-0.4-0.9-0.6
		c-4.1-2.5-9.4-1.2-11.9,2.9c-1.2,2-1.6,4.3-1,6.6c0.6,2.2,2,4.1,3.9,5.4c0.3,0.2,0.6,0.3,0.9,0.5c0.2,0.1,0.3,0.3,0.2,0.5
		c-1.1,3.5-1.7,7.1-1.7,10.8c0,0.2-0.1,0.4-0.3,0.4c-0.4,0-0.7,0.1-1,0.2c-4.6,1.1-7.5,5.9-6.4,10.5c1.1,4.6,5.8,7.5,10.5,6.4
		c0.3-0.1,0.6-0.2,1-0.3c0.2-0.1,0.4,0,0.5,0.2c1.7,3.2,3.9,6.2,6.4,8.8c0.1,0.1,0.2,0.4,0,0.5c-0.2,0.3-0.4,0.6-0.6,0.9
		c-1.2,2-1.6,4.3-1,6.6c0.5,2.2,2,4.1,3.9,5.4c2,1.2,4.3,1.6,6.6,1c2.2-0.6,4.1-2,5.3-3.9c0.2-0.3,0.3-0.6,0.5-0.9
		c0.1-0.2,0.3-0.3,0.5-0.2c3.5,1.1,7.1,1.6,10.8,1.7c0.2,0,0.4,0.1,0.4,0.3c0,0.4,0.1,0.7,0.2,1c0.6,2.2,2,4.1,3.9,5.4
		s4.3,1.6,6.6,1c4.6-1.1,7.5-5.9,6.4-10.5c-0.1-0.3-0.2-0.6-0.3-1c-0.1-0.2,0-0.4,0.2-0.5c3.2-1.7,6.2-3.9,8.8-6.5
		c0.1-0.1,0.2-0.1,0.3-0.1C291.3,394.7,291.4,394.8,291.5,394.8z M256.1,383.4c-8.1-4.9-10.7-15.6-5.8-23.7
		c2.4-3.9,6.2-6.7,10.6-7.8c4.5-1.1,9.1-0.4,13,2c3.9,2.4,6.7,6.2,7.8,10.6s0.4,9.1-2,13.1c-2.4,3.9-6.2,6.7-10.6,7.8
		c-1.4,0.3-2.8,0.5-4.1,0.5C261.9,385.9,258.9,385.1,256.1,383.4z M261.1,352.6c-4.3,1.1-7.9,3.7-10.1,7.5
		c-4.7,7.8-2.2,17.9,5.5,22.6c3.8,2.3,8.2,3,12.4,1.9s7.9-3.7,10.1-7.5c2.3-3.8,3-8.2,1.9-12.5c-1-4.3-3.7-7.9-7.4-10.2
		c-2.6-1.6-5.5-2.4-8.5-2.4C263.8,352.2,262.5,352.3,261.1,352.6z"/>
	<path class="st11" d="M208.5,449.2L442,506.5c-6.3,25.6-32.2,41.3-57.8,35l-13.9-3.4l5.7-23.2l-20.7-5.1l-5.7,23.2l-11.3-2.8
		l2.8-11.3l-11-11l-4.7,19.1l-29.2-7.1l3.4-13.9l-11.1-2.7l-3.4,13.9l-88-21.6c-19.5,35.5-61.1,55-102.3,44.9
		c-49.3-12.1-79.4-61.8-67.3-111.1c12.1-49.3,61.8-79.4,111.1-67.3C179.8,372.2,207.6,408.7,208.5,449.2z M60.5,437.5
		c-2.8,11.3,4.1,22.6,15.4,25.4c11.3,2.8,22.6-4.1,25.4-15.4c2.8-11.3-4.1-22.6-15.4-25.4C74.6,419.4,63.3,426.3,60.5,437.5z"/>
	<path class="st6" d="M198.6,492.9c-0.2-0.1-0.3-0.4-0.2-0.7c3-6.1,5.4-12.5,7-19.1c12-48.9-18.1-98.5-67-110.5
		c-8.9-2.2-18-3-27.1-2.5c-0.3,0-0.5-0.2-0.5-0.5c0-0.3,0.2-0.5,0.5-0.5c9.2-0.5,18.4,0.3,27.4,2.5c49.4,12.1,79.8,62.2,67.7,111.6
		c-1.6,6.7-4,13.2-7.1,19.3c-0.1,0.2-0.3,0.3-0.4,0.3C198.7,492.9,198.6,492.9,198.6,492.9z"/>
	<path d="M165.2,239.6c1.1-4.2,1.8-8.6,2.1-12.9c0.5-7.6-0.6-16-6.3-21.1c-4.8-4.3-11.9-5.1-18.2-3.6c-6.3,1.5-11.8,5-17.2,8.5
		c-18.4,12.2-35.8,26.1-50.9,42.1c-7,7.4-13.8,16-14.7,26.1c-1.7,19.4,15.7,13.4,27.8,14.6c16.7,1.7,34-2.3,48-11.7
		c10.6-7.1,19.2-17.3,24.7-28.9L165.2,239.6z"/>
	<path class="st12" d="M283.4,362.1l-53.5,90.4l-4.6,19.6c-0.8,3.5-5.2,4.4-7.4,1.6c-8.7-11.3-25.7-33.9-33.8-48
		c-2.9-5.1-2.4-11.5,1.3-16.1l38.3-48c0,0-73.4,1.7-65.2-27.5l26.8-12.6l65.1-9C277.8,308.6,297.5,338.2,283.4,362.1z"/>
	<path class="st13" d="M283.4,362.1l-52.8,89.2c-0.9-1-38.6-45.6-40.2-48l33.2-41.7c0,0-86.1,7.1-77.9-22.2l39.6-17.9l65.1-9
		C277.8,308.6,297.5,338.2,283.4,362.1z"/>
	<path class="st12" d="M110.2,382.9c-9,20.2,92.9,15.3,92.9,15.3l50.9,90.2c4.4,7.8,12.3,13.2,21.2,14.3l55.3,7.3
		c3.6,0.5,5.9-3.7,3.6-6.5c-19.6-24-47.2-82.8-65-122.8c-10.8-24.4-35.3-39.9-61.9-39.2l-55.4,1.4
		C151.9,342.7,119.2,362.7,110.2,382.9z"/>
	<path class="st13" d="M251.1,483.2l-48-85.1c0,0-101.9,4.9-92.9-15.3c9-20.2,41.7-40.2,41.7-40.2l55.4-1.4
		c26.7-0.7,51.1,14.8,61.9,39.2c14.1,31.7,34.4,75.2,51.9,103.9c-2.4,0.2-4.7,0.3-7.1,0.4c-8.8,0.4-17.7,0.5-26.5,0.5
		c-4.4,0-8.8,0-13.2-0.3c-4.4-0.2-8.8-0.6-13.2-1C257.9,483.8,254.5,483.5,251.1,483.2z"/>
	<path d="M268.8,380.7c-10.6-23.8-33.9-39-59.8-39c-0.6,0-1.1,0-1.7,0l-48.4,1.2c0,0,0,0,0,0c-0.3,0-0.5-0.2-0.5-0.5
		c0-0.3,0.2-0.5,0.5-0.5l48.4-1.2c0.6,0,1.1,0,1.7,0c26.3,0,50,15.4,60.7,39.5c0.1,0.2,0,0.5-0.2,0.6c-0.1,0-0.1,0-0.2,0
		C269,381,268.9,380.9,268.8,380.7z"/>
	<path d="M230.7,448l-27.9-49.4c-0.9,0-4,0.2-8.4,0.3c-0.3,0-0.5-0.2-0.5-0.5c0-0.3,0.2-0.5,0.5-0.5c5.3-0.2,8.6-0.3,8.6-0.3
		c0.2,0,0.4,0.1,0.4,0.2l28,49.7c0.1,0.2,0.1,0.5-0.2,0.7c-0.1,0-0.2,0.1-0.2,0.1C231,448.3,230.8,448.2,230.7,448z"/>
	<path d="M205.9,398.6c-0.3,0-0.5-0.2-0.5-0.5c0-0.3,0.2-0.5,0.5-0.5l17.7,0.1c0.3,0,0.5,0.2,0.5,0.5s-0.2,0.5-0.5,0.5L205.9,398.6z
		"/>
	<path class="st13" d="M156.3,325.9l-70.3,2c-15.4,61.3,40.1,67.2,40.1,67.2c2.1-27.1,30.7-52.8,30.7-52.8l28.5-20.8L156.3,325.9z"
		/>
	<path class="st14" d="M167.4,334.8c-0.7-13.4-2.2-81.2-2.2-81.2c-13.4-3-51.7-2.3-51.7-2.3l-20.7,83.5H167.4z"/>
	<path class="st15" d="M167.4,320.5l-2.2-66.9c13.6-0.7,24.8,66.9,24.8,66.9H167.4z"/>
	<path d="M166.9,320.5l-2.2-67c0-0.3,0.2-0.5,0.5-0.5c5.9-0.3,11.9,11,18,33.6c4.5,16.7,7.3,33.6,7.3,33.8c0,0.2,0,0.3-0.1,0.4
		c-0.1,0.1-0.2,0.2-0.4,0.2h-22.6C167.1,321,166.9,320.8,166.9,320.5z M182.3,286.9c-5.7-21.1-11.4-32.4-16.5-32.9l2.1,66h21.6
		C188.9,317,186.3,301.8,182.3,286.9z"/>
	<path class="st16" d="M252,317.9l0.9-3.2H146.8c-2.8,0-5,2.2-5,5v3.1h103.8C248.6,322.9,251.2,320.9,252,317.9z"/>
	<path class="st16" d="M252.5,316.1l11.8-47.7c0.6-2.6-1.3-5.1-4-5.1h-62.6c-1.9,0-3.5,1.3-4,3.1l-11.8,47.7c-0.6,2.6,1.3,5.1,4,5.1
		h62.6C250.4,319.2,252.1,317.9,252.5,316.1z"/>
	<path class="st12" d="M229.4,281.7c0-1.1-0.9-2.1-2.1-2.1c-1.1,0-2.1,0.9-2.1,2.1c0,1.1,0.9,2.1,2.1,2.1
		C228.4,283.8,229.4,282.8,229.4,281.7z"/>
	<path class="st15" d="M144.9,319.2c-5.2,0-38.2,34.7-51.4,34.5c-13.2-0.2-31.7-13.9-19.3-54.1c12.4-40.2,39.3-48.3,39.3-48.3
		c5.1,13.6-15.5,69.4-15.5,69.4s22.2-13.9,37.8-19.7c15.6-5.8,27,13.8,27,13.8L144.9,319.2z"/>
	<path d="M93.4,354.2c-7-0.1-13.7-3.8-18-9.7c-5-6.9-9.4-20.3-1.7-45c6.4-20.9,16.9-33,24.5-39.5c8.3-7,14.9-9.1,15.2-9.2
		c0.2-0.1,0.5,0,0.6,0.3c4.7,12.6-11.8,59.7-15,68.4c4.8-3,23.3-14,36.7-19c15.8-5.9,27.5,13.8,27.6,14c0.1,0.1,0.1,0.3,0,0.4
		c-0.1,0.2-0.2,0.2-0.3,0.3l-18.1,4.4c0,0-0.1,0-0.1,0c-1.8,0-8.4,5.5-15.3,11.3c-12.3,10.3-27.6,23.2-36,23.2
		C93.5,354.2,93.5,354.2,93.4,354.2z M162.2,314.5c-2-3.1-12.5-18-26.1-13c-15.4,5.7-37.5,19.5-37.7,19.6c-0.2,0.1-0.4,0.1-0.6,0
		c-0.2-0.1-0.2-0.3-0.2-0.5c0.2-0.5,20-54.6,15.6-68.6c-1.6,0.6-7.5,3-14.4,8.9c-7.5,6.4-17.8,18.3-24.2,39
		c-7.5,24.3-3.3,37.4,1.6,44.2c4.1,5.7,10.6,9.2,17.2,9.3c0,0,0.1,0,0.1,0c8,0,23.8-13.3,35.3-23c8.7-7.3,13.7-11.4,15.8-11.5
		L162.2,314.5z"/>
	<path d="M148.4,316.5c-1-2.9-3.3-5.3-6.1-6.5c-0.2-0.1-0.3-0.4-0.2-0.6c0.1-0.2,0.4-0.4,0.6-0.2c3,1.3,5.5,4,6.6,7.1
		c0.1,0.2-0.1,0.5-0.3,0.6c0,0-0.1,0-0.2,0C148.7,316.9,148.5,316.8,148.4,316.5z"/>
	<path d="M154.1,315.4c-1.1-3.5-3.7-6.6-7-8.1c-0.2-0.1-0.4-0.4-0.2-0.6c0.1-0.2,0.4-0.4,0.6-0.2c3.6,1.7,6.4,4.9,7.5,8.7
		c0.1,0.2-0.1,0.5-0.3,0.6c0,0-0.1,0-0.1,0C154.4,315.7,154.2,315.6,154.1,315.4z"/>
	<path class="st12" d="M152,236l-5.5,15.6c0,0,9.6,9.5-1.7,8c-11.3-1.5-16.3-8.2-16.3-8.2l9-22.8L152,236z"/>
	<path d="M144.7,260.1c-11.4-1.5-16.5-8.1-16.7-8.4c-0.1-0.1-0.1-0.3-0.1-0.5l9-22.8c0.1-0.1,0.2-0.2,0.3-0.3c0.1,0,0.3,0,0.4,0
		l14.5,7.4c0.2,0.1,0.3,0.4,0.2,0.6l-5.4,15.3c1,1,4.7,5,3.5,7.3c-0.5,1-1.7,1.5-3.6,1.5C146.3,260.3,145.6,260.2,144.7,260.1z
		 M137.7,229.3l-8.7,22c1,1.1,6,6.5,15.9,7.8c2.7,0.4,4.4,0.1,4.9-0.8c0.7-1.4-1.8-4.7-3.6-6.4c-0.1-0.1-0.2-0.3-0.1-0.5l5.3-15.2
		L137.7,229.3z"/>
	<path class="st12" d="M163.3,220.3c-0.1-1,0.2-3.6-1.1-4c-0.7-0.2-1.6,0.2-2.3,0.2c-0.9,0.1-1.7,0-2.5,0c-1.6-0.2-3.3-0.6-4.8-1.3
		c-0.8-0.4-1.5-0.8-2.2-1.2c-0.3-0.2-1.9-1.2-1.8-1.5c-0.2,3.6-1.7,7.2-4.3,9.8c-0.8,0.8-1.7,1.6-2.8,1.9c-1.1,0.3-2.4,0.3-3.3-0.5
		c-0.8-0.7-1.2-1.7-2-2.4c-1.4-1.2-3.7-0.9-4.9,0.5c-1.2,1.4-1.4,3.4-0.9,5.1c0.9,3,4.1,5.2,7.2,5c1.2,2.8,3,5.3,5.3,7.2
		c2.4,1.9,5.4,3,8.4,2.7c3.5-0.3,6.6-2.4,8.6-5.3c2-2.8,3-6.3,3.3-9.8C163.4,224.6,163.4,222.4,163.3,220.3z"/>
	<path d="M142.6,239.5c-2.2-1.7-4-4.1-5.3-7.1c-3.3,0.1-6.4-2.2-7.4-5.3c-0.6-2.1-0.3-4.2,1-5.6c1.5-1.6,4.1-1.9,5.6-0.5
		c0.4,0.4,0.7,0.8,1,1.2c0.3,0.4,0.6,0.9,0.9,1.1c0.7,0.6,1.8,0.7,2.8,0.4c0.9-0.3,1.7-0.9,2.6-1.8c2.4-2.5,4-6,4.1-9.5
		c0-0.3,0.2-0.5,0.5-0.5c0.2,0,0.4,0.2,0.5,0.4c0.1,0.1,0.4,0.4,1.4,1.1c0.1,0.1,0.2,0.1,0.2,0.1c0.7,0.5,1.4,0.9,2.1,1.2
		c1.5,0.7,3,1.1,4.6,1.3c0.8,0.1,1.6,0.1,2.4,0c0.2,0,0.5-0.1,0.7-0.1c0.5-0.1,1.2-0.2,1.7-0.1c1.5,0.4,1.5,2.4,1.5,3.8
		c0,0.2,0,0.5,0,0.6c0.1,2.6,0.1,4.7-0.1,6.6c-0.4,4-1.5,7.4-3.4,10c-2.2,3.1-5.6,5.2-9,5.5c-0.3,0-0.6,0-0.9,0
		C147.7,242.4,144.9,241.4,142.6,239.5z M160.7,216.8c-0.3,0.1-0.6,0.1-0.9,0.1c-0.9,0-1.7,0-2.6-0.1c-1.7-0.2-3.4-0.6-4.9-1.4
		c-0.8-0.4-1.6-0.8-2.3-1.3c0,0-0.1-0.1-0.2-0.1c-0.4-0.3-0.7-0.5-1-0.7c-0.4,3.4-1.9,6.6-4.3,9c-1,1.1-2,1.7-3,2.1
		c-1.3,0.4-2.8,0.2-3.7-0.5c-0.5-0.4-0.8-0.9-1.1-1.3c-0.3-0.4-0.5-0.8-0.9-1.1c-1.1-1-3.1-0.7-4.2,0.5c-1,1.1-1.3,3-0.8,4.7
		c0.9,2.8,3.8,4.9,6.7,4.7c0.2,0,0.4,0.1,0.5,0.3c1.3,3,3.1,5.4,5.2,7c2.4,1.9,5.4,2.9,8.1,2.6c3.1-0.3,6.2-2.2,8.3-5.1
		c1.8-2.5,2.8-5.7,3.2-9.6c0.2-1.8,0.2-3.9,0.1-6.4c0-0.2,0-0.4,0-0.7c0-1,0-2.6-0.7-2.9c-0.1,0-0.2,0-0.3,0
		C161.5,216.7,161.1,216.8,160.7,216.8z"/>
	<path d="M137,228.7c-0.2-1.5-1.4-2.7-2.8-3c-0.3,0-0.4-0.3-0.4-0.6c0-0.3,0.3-0.4,0.6-0.4c1.8,0.4,3.3,2,3.6,3.8
		c0,0.3-0.1,0.5-0.4,0.5c0,0-0.1,0-0.1,0C137.2,229.1,137,229,137,228.7z"/>
	<path class="st17" d="M158.9,149.9c0-3.2-2.6-5.8-5.8-5.8s-5.8,2.6-5.8,5.8c0,3.2,2.6,5.8,5.8,5.8S158.9,153.2,158.9,149.9z"/>
</g>
</svg>
