<?xml version="1.0" encoding="utf-8"?>
<!-- Generator: Adobe Illustrator 27.3.1, SVG Export Plug-In . SVG Version: 6.00 Build 0)  -->
<svg version="1.1" id="Layer_1" xmlns="http://www.w3.org/2000/svg" xmlns:xlink="http://www.w3.org/1999/xlink" x="0px" y="0px"
	 viewBox="0 0 500 500" style="enable-background:new 0 0 500 500;" xml:space="preserve">
<style type="text/css">
	.st0{fill:#ECF2FA;}
	.st1{fill:#101C3A;}
	.st2{fill:#7A99FC;}
	.st3{fill:#CFE0FA;}
	.st4{fill:#FFFFFF;}
	.st5{fill:#0031CE;}
	.st6{fill:#EAEAEA;}
	.st7{fill:#425FEC;}
	.st8{fill:#FC721A;}
	.st9{opacity:0.3;}
	.st10{fill:#091022;}
	.st11{fill-rule:evenodd;clip-rule:evenodd;fill:#7A99FC;}
	.st12{fill:#7109B5;}
	.st13{fill:#CBCBCB;}
	.st14{clip-path:url(#SVGID_00000166639897067585096430000000332485615029232831_);}
	.st15{fill:#F8A3A2;}
	.st16{fill:#00B5F6;}
	.st17{fill:#131313;}
</style>
<g>
	<g>
		<g>
			<path class="st0" d="M276,97.3c-71.1,15-60.5,98-182.8,144.6c-131.1,49.9-51.7,238.2,97.5,249c148.5,10.7,217-56.3,232.2-183.5
				C434.3,211.7,381.6,75,276,97.3z"/>
		</g>
		<g>
			<path class="st0" d="M109,224.8c31.9-11,80.2-62.1,62.7-119.4C154.2,48,14.9,257.1,109,224.8z"/>
		</g>
	</g>
	<g>
		<g>
			<path class="st1" d="M386.1,491.9H245.2c-4.2,0-7.1-3.4-6.5-7.6l13.5-103c0.6-4.2,4.5-7.6,8.7-7.6h140.9c4.2,0,7.1,3.4,6.5,7.6
				l-13.5,103C394.2,488.5,390.3,491.9,386.1,491.9z"/>
			<path class="st2" d="M381.5,484.7H240.5c-4.2,0-7.1-3.4-6.5-7.6l13.5-95.9c0.6-4.2,4.5-7.6,8.7-7.6h140.9c4.2,0,7.1,3.4,6.5,7.6
				l-13.8,97C389.3,482.4,385.6,484.7,381.5,484.7z"/>
			<g>
				<path class="st3" d="M376.5,480.7H246.6c-3.9,0-6.6-3.1-6-7l12.5-88.9c0.5-3.9,4.1-7,8-7H391c3.9,0,6.6,3.1,6,7l-12.5,88.9
					C384,477.5,380.4,480.7,376.5,480.7z"/>
			</g>
			<g>
				<path class="st1" d="M318.6,412.3l-1.7-7.7c-0.4-1.6-1.8-2.8-3.5-2.8h-45.8c-2.1,0-4,1.7-4.1,3.8l-0.7,9.5l-0.4,5.3l-4.5,64.7
					c-0.1,2.1,1.5,3.8,3.6,3.8H368c2.1,0,4-1.7,4.1-3.8l4.6-66.2c0.1-2.1-1.5-3.8-3.6-3.8h-51.1
					C320.4,415.1,318.9,413.9,318.6,412.3z"/>
				<g>
					<g>
						
							<rect x="269.2" y="371.5" transform="matrix(1 -1.142741e-03 1.142741e-03 1 -0.4843 0.3572)" class="st4" width="86.4" height="105"/>
					</g>
					<g>
						<g>
							
								<rect x="281.9" y="391.9" transform="matrix(1 -1.140612e-03 1.140612e-03 1 -0.4483 0.342)" class="st1" width="35.5" height="2.7"/>
						</g>
						<g>
							
								<rect x="281.9" y="399.5" transform="matrix(1 -1.141202e-03 1.141202e-03 1 -0.4573 0.3321)" class="st1" width="17.7" height="2.7"/>
						</g>
						<g>
							
								<rect x="304.7" y="399.5" transform="matrix(1 -1.220631e-03 1.220631e-03 1 -0.489 0.3831)" class="st1" width="17.7" height="2.7"/>
						</g>
						<g>
							
								<rect x="327.8" y="399.4" transform="matrix(1 -1.140022e-03 1.140022e-03 1 -0.4567 0.384)" class="st1" width="17.7" height="2.7"/>
						</g>
						<g>
							
								<rect x="320.8" y="391.8" transform="matrix(1 -1.146565e-03 1.146565e-03 1 -0.4506 0.3822)" class="st1" width="24.7" height="2.7"/>
						</g>
						<g>
							
								<rect x="310" y="406.8" transform="matrix(1 -1.140652e-03 1.140652e-03 1 -0.4654 0.3741)" class="st1" width="35.5" height="2.7"/>
						</g>
						<g>
							
								<rect x="281.9" y="406.9" transform="matrix(1 -1.146509e-03 1.146509e-03 1 -0.4678 0.3376)" class="st1" width="24.7" height="2.7"/>
						</g>
					</g>
					<g>
						<g>
							
								<rect x="281.9" y="414.2" transform="matrix(1 -1.180951e-03 1.180951e-03 1 -0.4905 0.3542)" class="st1" width="35.5" height="2.7"/>
						</g>
						<g>
							
								<rect x="281.9" y="421.8" transform="matrix(1 -1.140022e-03 1.140022e-03 1 -0.4822 0.3318)" class="st1" width="17.7" height="2.7"/>
						</g>
						<g>
							
								<rect x="304.7" y="421.8" transform="matrix(1 -1.140113e-03 1.140113e-03 1 -0.4822 0.3578)" class="st1" width="17.7" height="2.7"/>
						</g>
						<g>
							
								<rect x="327.8" y="421.8" transform="matrix(1 -1.208950e-03 1.208950e-03 1 -0.5113 0.4073)" class="st1" width="17.7" height="2.7"/>
						</g>
						<g>
							
								<rect x="320.8" y="414.2" transform="matrix(1 -1.203601e-03 1.203601e-03 1 -0.4999 0.4013)" class="st1" width="24.7" height="2.7"/>
						</g>
						<g>
							
								<rect x="310.1" y="429.2" transform="matrix(1 -1.140658e-03 1.140658e-03 1 -0.4909 0.3742)" class="st1" width="35.5" height="2.7"/>
						</g>
						<g>
							
								<rect x="281.9" y="429.2" transform="matrix(1 -1.146499e-03 1.146499e-03 1 -0.4934 0.3377)" class="st1" width="24.7" height="2.7"/>
						</g>
					</g>
				</g>
				<path class="st5" d="M297.3,414.9l-3.6-7.7c-0.8-1.6-2.5-2.8-4.2-2.8h-45.8c-2.1,0-3.5,1.7-3.2,3.8l1.7,9.5l0.9,5.3l11.4,64.7
					c0.4,2.1,2.4,3.8,4.5,3.8h106.5c2.1,0,3.5-1.7,3.2-3.8l-11.7-66.2c-0.4-2.1-2.4-3.8-4.5-3.8h-51.1
					C299.8,417.7,298.1,416.5,297.3,414.9z"/>
			</g>
			<g>
				<g>
					<rect x="190.9" y="477.4" class="st1" width="16" height="2.7"/>
				</g>
				<g>
					<rect x="209.7" y="477.4" class="st1" width="16" height="2.7"/>
				</g>
				<g>
					<rect x="228.5" y="477.4" class="st1" width="16" height="2.7"/>
				</g>
				<g>
					<rect x="247.3" y="477.4" class="st1" width="52.9" height="2.7"/>
				</g>
				<g>
					<rect x="303.6" y="477.4" class="st1" width="16" height="2.7"/>
				</g>
				<g>
					<rect x="322.4" y="477.4" class="st1" width="16" height="2.7"/>
				</g>
				<g>
					<rect x="341.2" y="477.4" class="st1" width="16" height="2.7"/>
				</g>
				<g>
					<rect x="360" y="477.4" class="st1" width="16" height="2.7"/>
				</g>
			</g>
			<g>
				<path class="st1" d="M381.3,491.9H189.9c-5.2,0-9.4-0.7-9.4-5.9v-5.9h210.3v5.9C390.7,491.2,386.5,491.9,381.3,491.9z"/>
				<path class="st2" d="M383.4,486H180.6v-6h208.8l0,0C389.4,483.3,386.7,486,383.4,486z"/>
			</g>
			<path class="st1" d="M389.6,480.6l0.5-2.2l2.8,1l-1.5,8.6l-2.5,3.2l-2.2,0.5c0,0-0.3,0.1-0.6,0.1c-0.3,0-6.9,0-6.9,0
				s4.4-4.8,4.7-4.8s3.8-0.2,3.8-0.2l1-3.1l0.7-0.9L389.6,480.6z"/>
		</g>
	</g>
	<g>
		<g>
			<g>
				<path class="st4" d="M455,174.9V333c0,8.3-6.7,15-15,15H227.5c-8.3,0-15-6.7-15-15V174.9c0-6.7,5.5-12.2,12.2-12.2h218.2
					C449.6,162.7,455,168.2,455,174.9z"/>
				<g>
					<path class="st3" d="M440,349.2H227.5c-8.9,0-16.2-7.3-16.2-16.2V174.9c0-7.4,6-13.4,13.4-13.4h218.2c7.4,0,13.4,6,13.4,13.4
						V333C456.2,341.9,449,349.2,440,349.2z M224.7,163.9c-6.1,0-11,4.9-11,11V333c0,7.6,6.2,13.8,13.8,13.8H440
						c7.6,0,13.8-6.2,13.8-13.8V174.9c0-6.1-4.9-11-11-11H224.7z"/>
				</g>
			</g>
		</g>
		<g>
			<g>
				<path class="st6" d="M428.5,169.5c-1,0-1.9,0.8-1.9,1.9c0,1,0.8,1.9,1.9,1.9c1,0,1.9-0.8,1.9-1.9
					C430.3,170.3,429.5,169.5,428.5,169.5z"/>
				<path class="st7" d="M436.4,169.5c-1,0-1.9,0.8-1.9,1.9c0,1,0.8,1.9,1.9,1.9c1,0,1.9-0.8,1.9-1.9
					C438.3,170.3,437.5,169.5,436.4,169.5z"/>
				<path class="st8" d="M444.4,169.5c-1,0-1.9,0.8-1.9,1.9c0,1,0.8,1.9,1.9,1.9c1,0,1.9-0.8,1.9-1.9
					C446.3,170.3,445.4,169.5,444.4,169.5z"/>
			</g>
		</g>
		<g>
			<rect x="271.1" y="182.5" class="st3" width="183.2" height="2.4"/>
		</g>
	</g>
	<g class="st9">
		<path class="st10" d="M353.4,257.4c-2.7-3.5-3-8-7.2-10.4c-3.5-2-5.2-4.1-7-6.1c3.8-2.8,9.2-8.1,11.6-12.9c2-3.9,1.5-6.9-0.2-5.6
			c-4,3-17,10.3-21.1,14.7c0,0-0.1,0.1-0.1,0.1c-3.4,2.6-9.8,16.4-10.2,19.5c-0.6,4.6,8.5,7.6,5.8,18.8c-0.1,0.1-15,33.7-20.3,43.8
			c-2,3.3-4,6.6-6,9.9c-2.6-1.4-5.3-2.9-7.9-4.3c-0.9-2.7-20.3,14-21.8,11.3c0,0-32.5-21.6-56.6-30.9V333c0,8.3,6.7,15,15,15h111.7
			c2.2-28,3-64.5,3-64.5c-1.5-10.1,4.4-10.2,8-13.9C353.9,265.9,356,260.9,353.4,257.4z"/>
	</g>
	<g class="st9">
		<path class="st10" d="M409.1,310.8H252.6c-6.5,0-11.8-5.3-11.8-11.8v-58.9c0-6.5,5.3-11.8,11.8-11.8h156.5
			c6.5,0,11.8,5.3,11.8,11.8V299C420.9,305.5,415.6,310.8,409.1,310.8z"/>
	</g>
	<g>
		<polygon class="st11" points="147.8,69.1 133.8,49.4 157.9,47.1 		"/>
		<g>
			<g>
				<path class="st1" d="M146.4,64.7l-14.5-20.4l24.9-2.4L146.4,64.7z M132.8,44.7l13.5,19l9.7-21.2L132.8,44.7z"/>
			</g>
		</g>
	</g>
	<g>
		<path class="st7" d="M61.9,205.3L61.9,205.3l5.4-6.8l-8.4-1.1l-0.1,0.4C58.5,200.6,59.5,203.5,61.9,205.3z"/>
	</g>
	<path class="st8" d="M64.8,110c-0.2,1-1.2,1.6-2.2,1.5c-1-0.2-1.6-1.2-1.4-2.2c0.2-1,1.2-1.6,2.2-1.4C64.4,108.1,65,109,64.8,110z"
		/>
	<path class="st8" d="M417.7,17.3c-0.2,1-1.2,1.6-2.2,1.4c-1-0.2-1.6-1.2-1.4-2.2c0.2-1,1.2-1.6,2.2-1.4
		C417.3,15.4,417.9,16.3,417.7,17.3z"/>
	<path class="st7" d="M159.7,132.6c-0.2,1-1.2,1.6-2.2,1.4c-1-0.2-1.6-1.2-1.5-2.2c0.2-1,1.2-1.6,2.2-1.4
		C159.3,130.6,159.9,131.6,159.7,132.6z"/>
	<path class="st12" d="M240.1,27.4c-0.4,2-2.3,3.3-4.3,2.9c-2-0.4-3.3-2.3-2.9-4.3c0.4-2,2.3-3.3,4.3-2.9
		C239.2,23.5,240.5,25.4,240.1,27.4z"/>
	<path class="st8" d="M491.3,43.4c-0.4,2-2.3,3.3-4.3,2.9c-2-0.4-3.3-2.3-2.9-4.3c0.4-2,2.3-3.3,4.3-2.9
		C490.4,39.5,491.7,41.4,491.3,43.4z"/>
	<g>
		<g>
			<path class="st1" d="M298.2,217.2h-3.1V204c0-7.8,6.3-14.1,14.1-14.1c6.1,0,11-4.9,11-11v-49.3h3.1v49.3
				c0,7.8-6.3,14.1-14.1,14.1c-6.1,0-11,4.9-11,11V217.2z"/>
		</g>
		<g>
			<path class="st1" d="M330,217.2H327V204c0-7.8,6.3-14.1,14.1-14.1c6.1,0,11-4.9,11-11v-49.3h3.1v49.3c0,7.8-6.3,14.1-14.1,14.1
				c-6.1,0-11,4.9-11,11V217.2z"/>
		</g>
		<path class="st2" d="M295.7,208.2l2.2,0c1.2,0,2.2,0.9,2.4,2.1l1.9,11.3l-11.2-0.2l2.2-11.2C293.5,209,294.5,208.2,295.7,208.2z"
			/>
		<path class="st2" d="M327.6,208.2l2.2,0c1.2,0,2.2,0.9,2.4,2.1l1.9,11.3l-11.2-0.2l2.2-11.2C325.3,209,326.4,208.2,327.6,208.2z"
			/>
		<path class="st2" d="M354.5,153.8l-2.2,0c-1.2,0-2.2-0.9-2.4-2.1l-1.9-11.3l11.2,0.2l-2.2,11.2C356.7,153,355.7,153.8,354.5,153.8
			z"/>
		<path class="st2" d="M322.6,153.8l-2.2,0c-1.2,0-2.2-0.9-2.4-2.1l-1.9-11.3l11.2,0.2l-2.2,11.2C324.9,153,323.8,153.8,322.6,153.8
			z"/>
	</g>
	<g>
		<path class="st1" d="M396.2,296.8H239.7c-6.5,0-11.8-5.3-11.8-11.8v-58.9c0-6.5,5.3-11.8,11.8-11.8h156.5
			c6.5,0,11.8,5.3,11.8,11.8V285C408,291.5,402.7,296.8,396.2,296.8z"/>
		<path class="st2" d="M401.3,226.1V285c0,6.5-5.3,11.8-11.8,11.8H233c-6.5,0-11.8-5.3-11.8-11.8v-58.9c0-6.5,5.3-11.8,11.8-11.8
			h156.5C396.1,214.3,401.3,219.6,401.3,226.1z"/>
		<g>
			<path class="st4" d="M366.9,284.4H255.7c-5.8,0-10.5-4.7-10.5-10.5c0-5.8,4.7-10.5,10.5-10.5h111.2c5.8,0,10.5,4.7,10.5,10.5
				C377.4,279.7,372.7,284.4,366.9,284.4z M255.7,265.7c-4.5,0-8.1,3.7-8.1,8.1c0,4.5,3.7,8.1,8.1,8.1h111.2c4.5,0,8.1-3.7,8.1-8.1
				c0-4.5-3.7-8.1-8.1-8.1H255.7z"/>
			<path class="st4" d="M366.9,247.7H255.7c-5.8,0-10.5-4.7-10.5-10.5c0-5.8,4.7-10.5,10.5-10.5h111.2c5.8,0,10.5,4.7,10.5,10.5
				C377.4,243,372.7,247.7,366.9,247.7z M255.7,229c-4.5,0-8.1,3.7-8.1,8.1c0,4.5,3.7,8.1,8.1,8.1h111.2c4.5,0,8.1-3.7,8.1-8.1
				c0-4.5-3.7-8.1-8.1-8.1H255.7z"/>
			<g>
				<path class="st4" d="M269.7,277.7l-1.8-1.4c0.6-0.6,1.1-1.2,1.7-1.8c0.2-0.2,0.4-0.4,0.5-0.4c-0.2,0-0.7-0.2-1.7-0.4
					c-0.7-0.2-1.1-0.3-1.3-0.4l0.7-2.1c1,0.4,1.9,0.9,2.7,1.4c-0.2-1.3-0.3-2.3-0.3-3.1h2.1c0,0.6-0.1,1.6-0.3,3.1
					c0.2-0.1,0.5-0.2,1-0.5c0.7-0.3,1.3-0.6,1.9-0.8l0.6,2.1c-0.9,0.2-1.9,0.4-3,0.6l1.4,1.6c0.3,0.3,0.5,0.6,0.7,0.8l-1.8,1.2
					l-1.6-2.6C270.8,275.8,270.3,276.7,269.7,277.7z"/>
				<path class="st4" d="M285.6,277.7l-1.8-1.4c0.6-0.6,1.1-1.2,1.7-1.8c0.2-0.2,0.4-0.4,0.5-0.4c-0.2,0-0.8-0.2-1.7-0.4
					c-0.7-0.2-1.1-0.3-1.3-0.4l0.7-2.1c1,0.4,1.9,0.9,2.7,1.4c-0.2-1.3-0.3-2.3-0.3-3.1h2.1c0,0.6-0.1,1.6-0.3,3.1
					c0.2-0.1,0.5-0.2,1-0.5c0.7-0.3,1.3-0.6,1.9-0.8l0.6,2.1c-0.9,0.2-1.9,0.4-3,0.6l1.4,1.6c0.3,0.3,0.5,0.6,0.7,0.8l-1.8,1.2
					l-1.6-2.6C286.8,275.8,286.2,276.7,285.6,277.7z"/>
				<path class="st4" d="M301.5,277.7l-1.8-1.4c0.6-0.6,1.1-1.2,1.7-1.8c0.2-0.2,0.4-0.4,0.5-0.4c-0.2,0-0.8-0.2-1.7-0.4
					c-0.7-0.2-1.1-0.3-1.3-0.4l0.7-2.1c1,0.4,1.9,0.9,2.7,1.4c-0.2-1.3-0.3-2.3-0.3-3.1h2.1c0,0.6-0.1,1.6-0.3,3.1
					c0.2-0.1,0.5-0.2,1-0.5c0.7-0.3,1.3-0.6,1.9-0.8l0.6,2.1c-0.9,0.2-1.9,0.4-3,0.6l1.4,1.6c0.3,0.3,0.5,0.6,0.7,0.8l-1.8,1.2
					l-1.6-2.6C302.7,275.8,302.2,276.7,301.5,277.7z"/>
				<path class="st4" d="M317.5,277.7l-1.8-1.4c0.6-0.6,1.1-1.2,1.7-1.8c0.2-0.2,0.4-0.4,0.5-0.4c-0.2,0-0.7-0.2-1.7-0.4
					c-0.7-0.2-1.1-0.3-1.3-0.4l0.7-2.1c1,0.4,1.9,0.9,2.7,1.4c-0.2-1.3-0.3-2.3-0.3-3.1h2.1c0,0.6-0.1,1.6-0.3,3.1
					c0.2-0.1,0.5-0.2,1-0.5c0.7-0.3,1.3-0.6,1.9-0.8l0.6,2.1c-0.9,0.2-1.9,0.4-3,0.6l1.4,1.6c0.3,0.3,0.5,0.6,0.7,0.8l-1.8,1.2
					l-1.6-2.6C318.6,275.8,318.1,276.7,317.5,277.7z"/>
				<path class="st4" d="M333.4,277.7l-1.8-1.4c0.6-0.6,1.1-1.2,1.7-1.8c0.2-0.2,0.4-0.4,0.5-0.4c-0.2,0-0.7-0.2-1.7-0.4
					c-0.7-0.2-1.1-0.3-1.3-0.4l0.7-2.1c1,0.4,1.9,0.9,2.7,1.4c-0.2-1.3-0.3-2.3-0.3-3.1h2.1c0,0.6-0.1,1.6-0.3,3.1
					c0.2-0.1,0.5-0.2,1-0.5c0.7-0.3,1.3-0.6,1.9-0.8l0.6,2.1c-0.9,0.2-1.9,0.4-3,0.6l1.4,1.6c0.3,0.3,0.5,0.6,0.7,0.8l-1.8,1.2
					L335,275C334.5,275.8,334,276.7,333.4,277.7z"/>
				<path class="st4" d="M349.3,277.7l-1.8-1.4c0.6-0.6,1.1-1.2,1.7-1.8c0.2-0.2,0.4-0.4,0.5-0.4c-0.2,0-0.7-0.2-1.7-0.4
					c-0.7-0.2-1.1-0.3-1.3-0.4l0.7-2.1c1,0.4,1.9,0.9,2.7,1.4c-0.2-1.3-0.3-2.3-0.3-3.1h2.1c0,0.6-0.1,1.6-0.3,3.1
					c0.2-0.1,0.5-0.2,1-0.5c0.7-0.3,1.3-0.6,1.9-0.8l0.6,2.1c-0.9,0.2-1.9,0.4-3,0.6l1.4,1.6c0.3,0.3,0.5,0.6,0.7,0.8l-1.8,1.2
					l-1.6-2.6C350.5,275.8,349.9,276.7,349.3,277.7z"/>
			</g>
			<rect x="263.5" y="234.5" class="st4" width="95" height="5.4"/>
		</g>
	</g>
	<g class="st9">
		<path class="st10" d="M341.9,257.4c-2.7-3.5-3-8-7.2-10.4c-3.5-2-5.2-4.1-7-6.1c3.8-2.8,9.2-8.1,11.6-12.9c2-3.9,1.5-6.9-0.2-5.6
			c-4,3-17,10.3-21.1,14.7c0,0-0.1,0.1-0.1,0.1c-3.4,2.6-9.8,16.4-10.2,19.5c-0.6,4.6,8.5,7.6,5.8,18.8c-0.1,0.1-4.6,10.3-9.6,21.2
			h26.4c0.3-8,0.4-13.3,0.4-13.3c-1.5-10.1,4.4-10.2,8-13.9C342.4,265.9,344.6,260.9,341.9,257.4z"/>
	</g>
	<g>
		<g>
			<path class="st2" d="M452.5,76.2c-3.4-0.1-6.7,0.3-9.8,1c0.3-1.7,0.5-3.5,0.6-5.3c0.8-21.2-15.8-39.1-37.1-39.8
				c-9.8-0.3-18.9,3-25.9,8.9c-8-20.1-27.3-34.7-50.3-35.5c-31-1.1-57.1,23.2-58.2,54.2c-0.1,1.9,0,3.8,0.1,5.7
				c-5.4-3-11.5-4.8-18-5c-22.1-0.8-40.6,16.5-41.4,38.5c-0.8,22.1,16.5,40.6,38.5,41.4l202.3,7.2l0-0.2
				c18.1-1.1,32.7-15.8,33.3-34.3C487.6,93.4,472.2,76.9,452.5,76.2z"/>
			<g>
				<path class="st3" d="M473.9,110.9c0,18.5-14.1,33.7-32.1,35.4v0.2H239.3c-22.1,0-40-17.9-40-40c0-22.1,17.9-40,40-40
					c0.2,0,0.5,0,0.7,0h0c6.3,0.1,12.2,1.7,17.5,4.4c-0.2-1.9-0.3-3.8-0.3-5.7c0-1.6,0.1-3.1,0.2-4.7c2.4-28.9,26.5-51.5,56-51.5
					c1.2,0,2.4,0,3.5,0.1h0c21.5,1.3,39.7,14.8,48,33.6c5.6-5,12.7-8.4,20.6-9.4c1.6-0.2,3.3-0.3,5-0.3c3.6,0,7.1,0.5,10.4,1.4h0
					c16.2,4.5,28.1,19.4,28.1,37.1c0,1.8-0.2,3.5-0.4,5.3c3.1-0.9,6.4-1.4,9.7-1.4C457.9,75.3,473.9,91.2,473.9,110.9z"/>
			</g>
		</g>
		<g>
			<g>
				<path class="st2" d="M308.5,116.1c2,3.5,4.5,6.6,7.5,9.1l-3.3,7.9l11.9,6.3l4.6-7.2c3.8,1,7.7,1.5,11.8,1.1l3.2,7.9l12.9-3.9
					l-1.8-8.4c3.5-2,6.6-4.5,9.1-7.5l7.9,3.3l6.3-11.9l-7.2-4.6c1-3.8,1.5-7.8,1.1-11.8l7.9-3.2l-3.9-12.9l-8.4,1.8
					c-2-3.5-4.5-6.6-7.5-9.1l3.3-7.9l-11.9-6.3l-4.6,7.2c-3.8-1-7.8-1.5-11.8-1.1l-3.2-7.9L319.6,61l1.8,8.4c-3.5,2-6.6,4.5-9.1,7.5
					l-7.9-3.3l-6.3,11.9l7.2,4.6c-1,3.8-1.5,7.8-1.1,11.8l-7.9,3.2l3.9,12.9L308.5,116.1z M315.1,106.3
					c-3.9-12.9,3.3-26.5,16.2-30.4c12.9-3.9,26.5,3.3,30.4,16.2c3.9,12.9-3.3,26.5-16.2,30.4C332.6,126.4,319,119.1,315.1,106.3z"/>
			</g>
			<g>
				<polygon class="st13" points="375.2,95.8 380.9,93.5 377.9,83.8 377.3,84 380.1,93.2 375,95.2 				"/>
			</g>
			<g>
				<path class="st13" d="M356.8,137.4l0.6-0.1l-1.7-8.1c4-2,7.1-5.4,7.1-5.5l-0.4-0.4c0,0-3.2,3.5-7.2,5.4l-0.2,0.1L356.8,137.4z"
					/>
			</g>
			<g>
				<path class="st13" d="M324.6,119.6l0.3-0.5c-15.7-11-9.4-27.8-9.3-27.9l-0.6-0.2C315,91.2,308.6,108.4,324.6,119.6z"/>
			</g>
			<g>
				<path class="st13" d="M304.3,96.6c0.4-3.5,1.2-6.4,1.2-6.4l0.1-0.2l-2.6-1.7l-0.3,0.5l2.3,1.5c-0.2,0.7-0.8,3.3-1.2,6.3
					L304.3,96.6z"/>
			</g>
			<g>
				<g>
					<g>
						<path class="st1" d="M337.3,132.8c-5.9,0.7-10.4-0.7-11.5-1.1l-4.7,7.2l-12.4-6.6l3.4-7.9c-4.4-3.6-6.8-7.9-7.3-8.9l-8.4,1.8
							l-4.1-13.4l8-3.2c-0.6-5.8,0.8-10.4,1.1-11.5l-7.2-4.7l6.6-12.4l7.9,3.4c3.1-4,7.9-6.8,8.9-7.3l-1.8-8.4l13.4-4.1l3.2,8
							c6.2-0.6,10.5,0.7,11.5,1.1l4.7-7.2l12.4,6.6l-3.4,7.9c3.6,2.6,6.7,7.8,7.3,8.9l8.4-1.8l4.1,13.4l-8,3.2
							c0.4,5.6-0.8,10.4-1.1,11.5l7.2,4.7l-6.6,12.4l-7.9-3.4c-3.2,4-7.9,6.8-8.9,7.3l1.8,8.4l-13.4,4.1L337.3,132.8z M351.5,127.9
							l0.2-0.1c0.1,0,5.5-3,9-7.5l0.1-0.2l7.8,3.3l6.1-11.4l-7.1-4.6l0.1-0.2c0-0.1,1.7-5.3,1.1-11.7l0-0.2l7.9-3.2l-3.8-12.4
							l-8.3,1.8l-0.1-0.2c0-0.1-3.6-6.4-7.4-9l-0.2-0.1l3.3-7.8l-11.4-6.1l-4.6,7.1l-0.2-0.1c0,0-4.7-1.8-11.6-1.1l-0.2,0l-3.2-7.9
							l-12.4,3.8l1.8,8.3l-0.2,0.1c-0.1,0-5.7,3-9,7.4l-0.1,0.2l-7.8-3.3l-6.1,11.4l7.1,4.6l-0.1,0.2c0,0.1-1.8,5.2-1.1,11.7l0,0.2
							l-7.9,3.2l3.8,12.4l8.3-1.8l0.1,0.2c0,0,2.5,5.1,7.4,9l0.2,0.1l-3.3,7.8l11.4,6.1l4.6-7.1l0.2,0.1c0,0,5,2,11.6,1.1l0.2,0
							l3.2,7.9l12.4-3.8L351.5,127.9z"/>
					</g>
				</g>
				<g>
					<g>
						<path class="st1" d="M310.2,98.2c0-13.6,11.1-24.7,24.7-24.7c13.6,0,24.7,11.1,24.7,24.7c0,13.6-11.1,24.7-24.7,24.7
							C321.2,122.9,310.2,111.8,310.2,98.2z M310.8,98.2c0,13.3,10.8,24.1,24.1,24.1c13.3,0,24.1-10.8,24.1-24.1
							c0-13.3-10.8-24.1-24.1-24.1C321.6,74.1,310.8,84.9,310.8,98.2z"/>
					</g>
				</g>
			</g>
		</g>
	</g>
	<g>
		<defs>
			
				<rect id="SVGID_1_" x="8.7" y="166.2" transform="matrix(-1 -1.224647e-16 1.224647e-16 -1 350.8203 657.7211)" width="333.5" height="325.3"/>
		</defs>
		<clipPath id="SVGID_00000062170922882119941420000009774814562034354310_">
			<use xlink:href="#SVGID_1_"  style="overflow:visible;"/>
		</clipPath>
		<g style="clip-path:url(#SVGID_00000062170922882119941420000009774814562034354310_);">
			<g>
				<path class="st1" d="M86.4,401.3c0.2,3.4-18,7.3-40.6,8.7c-22.6,1.4-30.8-1.7-31-5.1c-0.2-3.4,7.6-6,30.2-7.4
					C67.7,396.2,86.2,397.9,86.4,401.3z"/>
				<g>
					<path class="st15" d="M72.2,508.5c6.7,1.5,17.6,2,17.6,2s-16.9-90.6-20.1-116.3c-1-8.2-39.2-24.8-42.2,10.1
						c-2.3,27.5,40.4,72.5,41.2,95.3C68.9,504,70.9,508.2,72.2,508.5z"/>
					<path class="st15" d="M69.4,505.8c0,0-4.2,31,6,26c10.9-5.4,32-0.6,32-0.6s-0.8-19.1-9.1-22.1c-19.9-7.2-19.8-21.3-19.8-21.3
						L69.4,505.8z"/>
				</g>
				<g>
					<path class="st7" d="M115.7,285.9c-9.5-7-32.4-8.9-49.6,9.7c-17.2,18.6-38.4,51.5-51.3,109c0,0,36.1-15.3,71.5-3
						c0,0,30.4-41.8,37.6-64.7C131.1,314,126.2,293.7,115.7,285.9z"/>
				</g>
			</g>
			<g>
				<polygon class="st15" points="28.3,734.1 55.2,745.9 77.3,714 43.7,699.2 				"/>
				<g>
					<path class="st16" d="M63.9,736c0,0-6-5.3-15.6-0.8c-9.6,4.5-10.6-2.5-12.3-4.3c-1.6-1.7-4-3.4-7.8-3.5c0,0-9.2,33.2-7.1,59.1
						l89.7,1.4c0,0,2.9-9-4.8-13.3c-7.7-4.3-41.5-14.6-45.9-23.5C55.8,742.3,63.9,736,63.9,736z"/>
					<g>
						<path class="st1" d="M38.4,780.5l-1.5,0c0.2-16.5-14.1-22-14.7-22.2l0.5-1.4C23,756.9,38.7,762.9,38.4,780.5z"/>
					</g>
					<path class="st1" d="M20.6,778.4c-0.1,3.2,0.4,6.1,0.4,8.2l89.7,1.4c0,0,1.4-4.2-0.2-8.2L20.6,778.4z"/>
					<g>
						<path class="st1" d="M68,767.2l-0.2,0C67,767,47.5,763,45.6,754.3c-1.9-8.6,5.2-16.8,5.6-17.2l1.1,1c-0.1,0.1-7,8-5.2,15.9
							c1.6,7.4,19.1,11.4,20.9,11.8l10.4-2.7l0.4,1.4L68,767.2z"/>
					</g>
					<g>
						
							<rect x="58.3" y="758.8" transform="matrix(0.9509 -0.3095 0.3095 0.9509 -231.9465 56.8524)" class="st1" width="9.9" height="1.5"/>
					</g>
					<g>
						
							<rect x="50.6" y="753" transform="matrix(0.9509 -0.3094 0.3094 0.9509 -230.4485 54.1699)" class="st1" width="9.9" height="1.5"/>
					</g>
				</g>
			</g>
			<path class="st8" d="M69.7,604.7c-13.5,14.1-19.3,15.6-38.4,57.1C25.9,673.6,5,771.3,5,771.3c6.5,10,60.4-7.1,90.4-1.1
				c0,0,40.4-99.9,40.4-169.5C135.8,581.7,93.2,580,69.7,604.7z"/>
			<path class="st8" d="M50.2,489.4c-3.8,16.1-5.7,122.7,2.7,139.7c5.9,12.1,72.8,42.1,79,8.4c5.4-29.6,21.6-128.6,20.2-146.3
				C150.6,474.1,61.7,441.1,50.2,489.4z"/>
			<g>
				<path class="st1" d="M46.4,632.9l-1.2-0.9c12.4-16.5,34.6-9.1,34.8-9l-0.5,1.4C79.4,624.3,58.2,617.3,46.4,632.9z"/>
			</g>
			<path class="st1" d="M154.6,456.1c-0.8-11.3-40.1-30.2-70-27.4L76,533.6c2.6,3,10.9,15.6,12.5,19c11.8,26,22.6,44.1,49.4,51.3
				C145.3,552.3,155.5,469.5,154.6,456.1z"/>
			<g>
				<polygon class="st15" points="173.6,733.9 200.6,745.4 222.3,713.3 188.6,698.9 				"/>
				<g>
					<path class="st16" d="M209.2,735.4c0,0-6.1-5.2-15.6-0.6c-9.5,4.6-10.7-2.4-12.3-4.1c-1.7-1.7-4.1-3.4-7.9-3.4
						c0,0-8.8,33.3-6.5,59.2l89.7,0.3c0,0,2.8-9-4.9-13.2c-7.7-4.2-41.7-14.1-46.2-22.9C201.2,741.8,209.2,735.4,209.2,735.4z"/>
					<g>
						<path class="st1" d="M184.3,780.2l-1.5,0c0.1-16.5-14.3-21.8-14.9-22l0.5-1.4C168.6,756.8,184.4,762.6,184.3,780.2z"/>
					</g>
					<path class="st1" d="M166.5,778.3c-0.1,3.2,0.4,6.1,0.5,8.2l89.7,0.3c0,0,1.3-4.2-0.3-8.2L166.5,778.3z"/>
					<g>
						<path class="st1" d="M213.7,766.6l-0.2,0c-0.8-0.2-20.4-4-22.4-12.7c-2-8.6,5.1-16.9,5.4-17.2l1.1,1c-0.1,0.1-6.9,8.1-5,16
							c1.7,7.4,19.2,11.1,21.1,11.5l10.4-2.8l0.4,1.4L213.7,766.6z"/>
					</g>
					<g>
						
							<rect x="203.9" y="758.2" transform="matrix(0.9472 -0.3208 0.3208 0.9472 -232.3858 107.081)" class="st1" width="9.9" height="1.5"/>
					</g>
					<g>
						
							<rect x="196.2" y="752.5" transform="matrix(0.9473 -0.3203 0.3203 0.9473 -230.6871 104.1196)" class="st1" width="9.9" height="1.5"/>
					</g>
				</g>
			</g>
			<path class="st8" d="M156,620.6c-6.6,18.4-38.6,103.8-12.4,162.5c10,6.5,57.1-10.5,87-15.3c0,0,12.7-109.9-13.5-190.8
				C211.2,558.9,167.5,588.5,156,620.6z"/>
			<path class="st8" d="M80.7,475.9c2.4,16.3,54.4,150.8,68.5,163.5c10,9,47,11.2,65.9-17.5c18.8-28.7-31.3-166.5-39.2-182.3
				C168.3,424.3,73.4,426.8,80.7,475.9z"/>
			<path class="st7" d="M171.6,280.6c23.4,14.3,32.5,49.5,34.2,110c1.7,60.5,12.5,99.9,5.8,115.6c0,0-69.8,63.6-171.6,23
				c0,0,3.1-17.3,10-92.3c6.9-75,6.7-95.3,16.7-124.6c10-29.3,57.3-55.9,70.1-48.9C149.7,270.5,153.5,269.6,171.6,280.6z"/>
			<g>
				<path class="st15" d="M234.6,311.1c0,0,15.6,9.1,28.3,17c2.6-3.3,5.4-6.6,8.1-9.9c7.4-10.1,29.4-43.7,29.6-43.8
					c5-11.2-3.3-14.1-1.8-18.8c1-3.1,10.4-17,14.3-19.5c0,0,0.1-0.1,0.1-0.1c5-4.4,19.5-11.7,24.2-14.7c2.1-1.3,1.9,1.7-1,5.6
					c-3.4,4.8-9.9,10-14.3,12.9c1.4,1.9,2.7,4.1,5.7,6.1c3.7,2.4,3.1,6.9,5,10.4c1.9,3.5-1.3,8.5-5.7,12.2
					c-4.4,3.7-10.3,3.7-11,13.9c0,0-17.3,74.2-26.3,92.2c-5.8,11.5-13.2,15.5-20.3,14.7c-18,0.1-50.3-10.5-73.1-27.8
					C172.2,343.2,201.6,294.5,234.6,311.1z"/>
				<path class="st7" d="M140.3,289.5c-6.3,7.5-11,18.7,2.5,38.5c13.5,19.8,50.8,46.1,83.1,60.6c0,0,39.8-36.7,28.3-72.9
					c0,0-55.2-26.9-73.8-34C161.8,274.7,147.2,281.2,140.3,289.5z"/>
				<g>
					<path class="st4" d="M210.9,353.5c-0.2,0.1-19.8,11.5-38.5-5.1l1-1.1c17.9,15.8,36.6,5,36.8,4.9L210.9,353.5z"/>
				</g>
				<g>
					<path class="st4" d="M242.1,371.4c-7.3,10.8-15.1,17.9-15.2,18l-0.3,0.3l-0.4-0.1c-0.5-0.1-46.7-10.6-72.7-39.6l1.1-1
						c24.4,27.3,67.1,38,71.6,39c2.1-1.9,15.1-14.6,22.3-31.3l1.4,0.6C247.7,362.4,244.9,367.2,242.1,371.4z"/>
				</g>
			</g>
			<g>
				<path class="st1" d="M158.9,621.3c-8.7-9.9-23.5-5.9-23.7-5.8l-0.6,0.2l-25.4-57.4l1.3-0.6l24.8,56.2c3-0.7,16.3-2.9,24.5,6.4
					L158.9,621.3z"/>
			</g>
			<g>
				<path class="st4" d="M105.8,473.5c-17.8,0-28.9-9.8-29-9.9l1-1.1c0.2,0.2,24.8,21.8,59.9-0.8l0.8,1.2
					C126.1,470.9,115,473.5,105.8,473.5z"/>
			</g>
			<g>
				<path class="st1" d="M135.2,757.5c-0.1-0.3-8.4-28.1,5.6-88.1l1.4,0.3c-13.9,59.5-5.7,87-5.6,87.3L135.2,757.5z"/>
			</g>
			<path class="st1" d="M147.8,262.4c0,0-5.1-5.5-11.1-16.3l10.2,2.5L147.8,262.4z"/>
			<path class="st15" d="M165,219.8c-1.4-11.5-0.9-29.2-14.5-26.8c-3.5,0.6-19.6,2.3-23.2,4.1c-8.5,4.2-5.5,17.2-7.7,29.1
				c-0.7,3.5-0.4,10.3,1,13.4l-3.5-0.3l-0.9,28.3c0,0,18.4,12.4,32,1.8l-1-15.1c3.2,0.8,5.8,1.1,7.2,0.8
				C164.3,252.9,166.7,232.8,165,219.8z"/>
			<path class="st1" d="M159.4,199.3c-1.2,0.6-5.1,2.2-5.1,2.2s-0.8,9.8-2.2,13.5c-1.4,3.7,3.7,16.4,10.5,17.4
				c6.8,1.1,2.7,8.4,2.2,11.6c-0.7,4.5,3.5,9.1-4.8,12.3c-5.6,2.1-19.8-0.7-16.3-9.7c3.5-9,9.5-20.3,3-29.9
				c-6.5-9.6,1.4,11.9-10.6,20c-3.3,2.2-6,4.1-8,5.6c-3.3,2.4-7.7,2.2-11.1,0c-0.4-0.2-0.8-0.5-1.2-0.6
				c-3.5-1.2-13.7-12.9-14.5-28.4c-0.7-15.5,6.2-20.9,19.8-24c13.7-3.1,8.6-8.7,17.1-10.6c8.5-1.8,19.1-12.4,19.1-12.4
				S170.8,193.7,159.4,199.3z"/>
			<path class="st15" d="M132.5,225.6c2.5,4.9,7.9,7.2,12.2,5c4.2-2.1,5.6-7.9,3.1-12.8c-2.5-4.9-7.9-7.2-12.2-5
				C131.4,214.9,130,220.6,132.5,225.6z"/>
			<g>
				<path class="st1" d="M145.1,226.9c-0.2,0.2-0.4,0.4-0.7,0.6c-0.6,0.3-1.2,0.3-1.8,0.1c-1.4-0.6-1.4-1.6-1.5-2.5
					c-0.1-0.8-0.1-1.6-1.1-2.5c-0.8-0.7-1.7-0.9-2.5-1.1c-1.3-0.4-2.8-0.8-2.5-3.4c0.1-0.9,0.5-1.6,1.2-2.1c2-1.5,5.7-1.1,5.9-1.1
					l-0.2,1.5c-0.9-0.1-3.6-0.2-4.8,0.8c-0.4,0.3-0.6,0.7-0.6,1.1c-0.2,1.4,0.2,1.5,1.5,1.9c0.9,0.2,1.9,0.6,3,1.4
					c1.5,1.2,1.6,2.5,1.7,3.5c0.1,0.8,0.1,1,0.6,1.2c0.3,0.1,0.5,0.1,0.6,0c0.6-0.3,0.9-1.5,1-2l1.4,0.3
					C146.2,224.6,145.9,226,145.1,226.9z"/>
			</g>
			<g>
				<path class="st4" d="M55.4,383l-1.2,0c0.8-39.1,12.6-72.3,12.7-72.7l1.2,0.4C67.9,311.1,56.2,344.2,55.4,383z"/>
			</g>
		</g>
	</g>
	<g>
		<rect x="25.6" y="491.5" class="st17" width="448" height="3"/>
	</g>
</g>
</svg>
