<svg version="1.1" id="Layer_1" xmlns="http://www.w3.org/2000/svg" xmlns:xlink="http://www.w3.org/1999/xlink" x="0px" y="0px"
	 width="100%" viewBox="0 0 1024 720" enable-background="new 0 0 1024 720" xml:space="preserve">
<path fill="#000000" opacity="1.000000" stroke="none" 
	d="
M394.980774,411.448669 
	C380.343811,410.918182 366.118256,410.414642 351.645111,409.902344 
	C354.308105,402.738739 361.017792,397.845490 367.413208,397.830353 
	C375.512787,397.811127 379.806793,394.397949 382.638092,386.105377 
	C386.312500,375.343353 387.817352,364.118042 389.992706,353.031586 
	C392.488434,340.312256 395.075714,327.610870 397.583466,314.893860 
	C397.898102,313.298248 397.970642,311.654907 398.225616,309.416870 
	C387.426605,309.416870 376.901459,308.584778 366.608429,309.769562 
	C361.498230,310.357758 357.556213,315.672516 353.545746,319.378967 
	C351.082367,321.655609 351.882080,325.185516 352.330322,327.972473 
	C353.620575,335.994843 350.904510,341.015503 342.837189,342.947906 
	C340.815521,343.432190 339.163727,345.306274 336.620575,344.606415 
	C335.625031,341.615906 336.300354,338.501526 337.330261,335.918213 
	C340.699097,327.468170 344.308411,319.198883 351.349915,312.762238 
	C364.093719,301.113129 378.955353,296.196777 396.022552,296.618408 
	C408.673950,296.930908 421.340668,296.569183 433.997772,296.728424 
	C439.695923,296.800110 445.282074,295.902191 450.896667,295.334381 
	C457.740509,294.642273 462.511047,291.012756 464.818237,284.242615 
	C466.778717,278.489929 472.668823,279.293091 477.370911,276.438873 
	C477.212555,280.401672 476.193024,282.941071 474.508606,285.208893 
	C465.802979,296.929596 454.130463,303.893311 439.999908,307.291260 
	C433.438995,308.869019 426.907043,309.519684 420.236511,309.194916 
	C417.030273,309.038818 415.545288,310.203400 414.908295,313.552460 
	C411.896027,329.389832 408.228088,345.110077 405.526825,360.996704 
	C403.105988,375.233948 397.469635,387.289520 385.701752,396.068146 
	C384.942322,396.634644 384.213318,397.241943 382.850189,398.321014 
	C391.582153,399.483459 399.734436,398.186798 408.942139,399.817749 
	C404.357666,404.771790 402.152618,410.571228 394.980774,411.448669 
z"/>
<path fill="#000000" opacity="1.000000" stroke="none" 
	d="
M690.769348,396.703461 
	C688.633240,382.825684 693.084045,370.402954 699.486877,359.551117 
	C705.832764,348.795746 713.775879,338.928955 725.490540,332.084961 
	C740.617920,323.247253 756.346680,325.990845 772.095215,325.926788 
	C776.670471,325.908234 775.696228,329.188965 774.950073,332.019989 
	C769.435120,352.943359 765.945923,374.281677 761.900574,395.506989 
	C761.438171,397.933258 761.125183,400.255524 763.483582,401.782227 
	C765.840759,403.308044 768.259277,402.894714 770.460510,401.274719 
	C775.272827,397.733124 780.504395,394.692963 784.108887,389.705627 
	C784.857666,388.669647 785.662415,387.489746 787.552246,387.509552 
	C788.751465,389.592773 787.909851,392.018524 786.834778,393.394623 
	C778.852844,403.612366 769.488770,411.824768 755.504395,411.820221 
	C749.414124,411.818237 745.807068,407.826752 745.607910,401.764587 
	C745.431213,396.386017 746.403992,391.184387 747.508118,385.966370 
	C748.568481,380.955048 749.413208,375.898102 750.618164,369.437622 
	C744.247437,382.682465 736.921997,393.545197 727.106812,402.676025 
	C719.718262,409.549377 711.226379,412.660950 701.208252,411.585236 
	C697.239563,411.159088 691.147644,402.700989 690.769348,396.703461 
M754.236450,351.660980 
	C754.955994,348.246094 755.642578,344.823792 756.407349,341.419067 
	C756.871033,339.354736 756.435364,337.690674 754.336609,336.955658 
	C740.096802,331.968292 726.854858,331.523193 718.875061,347.932587 
	C717.127686,351.525879 715.157776,355.057495 713.861023,358.814484 
	C710.163452,369.528076 706.978699,380.378693 708.057190,391.952637 
	C708.752747,399.416718 713.472473,401.573090 719.782043,397.601990 
	C726.261597,393.523895 731.221375,387.878265 735.916382,382.091888 
	C743.250061,373.053558 750.264282,363.711884 754.236450,351.660980 
z"/>
<path fill="#000000" opacity="1.000000" stroke="none" 
	d="
M586.761841,354.574585 
	C594.485474,343.565765 603.462341,334.302124 614.362366,326.924316 
	C617.932312,324.507965 626.951233,323.732269 630.576477,325.759399 
	C632.296936,326.721466 633.110168,327.861084 632.019470,329.780548 
	C630.209106,332.966675 628.412170,336.160461 626.621765,339.357880 
	C625.902039,340.643250 624.861938,341.546936 623.378296,341.029816 
	C612.058777,337.083954 604.873535,344.700073 597.981079,351.022186 
	C585.537537,362.436188 585.778687,363.356842 592.441650,378.737061 
	C594.692810,383.933411 596.849548,389.173401 599.223450,394.313049 
	C602.077393,400.491638 605.707703,401.454376 610.987183,397.391144 
	C613.826111,395.206146 616.394226,392.669159 619.596924,389.838104 
	C620.302917,395.862610 618.231384,400.012360 614.357361,403.444824 
	C602.380493,414.056549 590.431213,417.355347 582.981445,397.785828 
	C580.400024,391.004547 577.290527,384.424316 574.061523,376.913116 
	C569.459290,382.691223 565.267273,387.588898 561.488220,392.786774 
	C556.177307,400.091675 548.703125,404.943451 541.772217,410.319061 
	C537.672119,413.499115 532.513306,411.957489 527.859985,410.333679 
	C527.417603,410.179291 526.776489,409.807434 526.718811,409.455994 
	C525.942871,404.725525 529.795227,401.666534 531.069397,397.657990 
	C531.801636,395.354279 533.570129,395.257446 535.516541,395.889740 
	C541.149902,397.719757 545.597900,395.729034 550.342285,392.514221 
	C557.812134,387.452667 563.543396,380.878235 569.088501,374.001648 
	C570.449768,372.313507 571.729431,370.771118 570.603882,368.204620 
	C567.059937,360.123871 563.930725,351.858826 560.297729,343.820221 
	C556.920959,336.348572 554.056641,335.911530 548.158569,341.599304 
	C545.904358,343.773163 543.912659,346.219208 541.535522,348.833527 
	C539.637573,346.138092 541.204163,343.719147 541.836487,341.680573 
	C544.374390,333.497803 550.570312,328.230286 557.976562,325.002167 
	C563.680176,322.516174 570.420654,327.171295 573.778564,334.666443 
	C577.100647,342.081573 580.281555,349.559967 583.447327,356.833527 
	C585.391968,356.943604 585.685059,355.514954 586.761841,354.574585 
z"/>
<path fill="#000000" opacity="1.000000" stroke="none" 
	d="
M229.855011,323.853577 
	C218.134399,335.960541 206.129669,347.352234 195.314407,359.779114 
	C180.078796,377.285004 173.722656,397.279999 181.369247,420.416626 
	C188.211945,441.120819 194.653091,461.957916 201.220505,482.752472 
	C201.637115,484.071625 202.831985,485.422516 201.634628,486.976196 
	C199.659943,486.901093 199.425735,485.134705 198.768677,483.927399 
	C188.176239,464.465271 177.569580,445.010406 167.089523,425.487671 
	C153.134079,399.490814 158.875504,371.504272 181.954849,353.041992 
	C204.333618,335.140137 226.786682,317.331116 249.228271,299.507965 
	C250.578430,298.435699 251.843994,297.023254 255.528427,297.006317 
	C246.439163,306.512878 238.270493,315.056641 229.855011,323.853577 
z"/>
<path fill="#000000" opacity="1.000000" stroke="none" 
	d="
M511.583679,352.403198 
	C503.183228,369.378876 487.853516,374.667450 471.243469,377.922516 
	C468.797089,378.401947 465.297363,376.681213 464.201813,380.038818 
	C462.917938,383.973755 462.462799,388.273621 464.584503,392.174164 
	C469.650116,401.486755 477.934753,404.582458 488.372742,400.782013 
	C495.385498,398.228729 502.571777,395.916351 508.560516,391.135834 
	C509.699036,390.226990 510.936066,389.286377 512.640381,389.376709 
	C513.801636,391.901123 513.176270,394.096405 511.136475,395.610260 
	C499.230896,404.446228 486.549713,411.664520 471.203766,411.826599 
	C457.609131,411.970184 447.219086,401.131561 446.623688,387.457947 
	C445.881836,370.421234 451.795715,356.249939 462.752197,343.330414 
	C469.351013,335.549255 477.281433,330.319550 486.105438,325.958496 
	C492.580811,322.758179 504.879913,324.344452 509.214935,328.752075 
	C514.415894,334.040161 515.611084,344.886017 511.583679,352.403198 
M482.180420,367.784088 
	C491.951965,362.753265 498.591766,355.643707 498.746613,343.856293 
	C498.800598,339.748383 498.291199,335.671997 494.501007,333.960297 
	C490.883453,332.326569 486.815887,332.890625 483.187225,335.464386 
	C472.140015,343.300079 467.331238,354.747742 464.414001,367.303009 
	C463.684448,370.442932 465.096924,371.968323 468.504364,371.609070 
	C473.035278,371.131378 477.168274,369.316650 482.180420,367.784088 
z"/>
<path fill="#000000" opacity="1.000000" stroke="none" 
	d="
M923.881470,399.938416 
	C913.027222,406.186035 902.429626,411.344299 889.643738,411.673492 
	C877.517700,411.985718 866.750854,401.384216 865.582031,389.044342 
	C863.413208,366.146667 873.999878,348.687256 890.187744,334.521423 
	C897.614929,328.021912 906.878845,323.109558 918.041565,324.527771 
	C925.465210,325.470947 931.237915,330.127411 932.245178,337.533966 
	C933.839905,349.259888 928.878784,358.183533 920.151611,365.354614 
	C910.158752,373.565674 898.436035,377.242889 885.661194,377.915100 
	C884.324524,377.985443 883.072205,377.874664 882.443054,379.559326 
	C880.378723,385.087189 885.141174,399.594666 890.485962,401.062469 
	C896.169434,402.623260 902.411438,402.750793 908.149536,400.502228 
	C915.096924,397.779755 922.290466,395.465607 928.161194,390.530243 
	C929.051270,389.782013 930.115479,389.248413 931.639404,389.525360 
	C932.859741,395.629608 927.541687,396.991516 923.881470,399.938416 
M888.179443,371.579987 
	C891.683838,370.574890 895.217346,369.660431 898.687439,368.548279 
	C910.637024,364.718414 917.729004,354.803528 917.534424,342.324524 
	C917.411133,334.417999 910.568726,330.363251 903.669434,334.480011 
	C891.328430,341.843842 886.092590,353.836212 883.353577,367.238251 
	C882.734192,370.269043 883.877258,372.128326 888.179443,371.579987 
z"/>
<path fill="#000000" opacity="1.000000" stroke="none" 
	d="
M645.247681,408.586182 
	C640.928467,403.636932 642.219727,398.003662 643.112549,393.019073 
	C647.241394,369.967590 651.287537,346.868469 656.585327,324.070435 
	C660.272217,308.204865 668.666260,294.148804 682.194397,284.771179 
	C694.277893,276.394989 708.344299,273.509094 723.137146,277.252258 
	C723.613586,277.372803 724.080627,277.602692 724.494690,277.870270 
	C724.745178,278.032196 724.885010,278.365326 725.271912,278.888306 
	C722.953064,282.645386 719.468506,285.473572 716.304565,288.552917 
	C714.844177,289.974243 713.159485,288.786835 711.630920,288.232666 
	C705.616882,286.052399 699.541382,284.612549 693.142639,286.487091 
	C685.125427,288.835815 681.238281,294.999634 678.488525,302.250732 
	C672.788330,317.282013 670.899231,333.217194 667.543213,348.795044 
	C664.324829,363.733521 661.656860,378.790649 658.758423,393.797852 
	C658.570068,394.773468 658.412842,395.764404 658.358276,396.754639 
	C658.246521,398.782257 658.214294,400.855927 660.294434,402.048218 
	C662.289978,403.192017 664.167725,402.508270 665.917725,401.377197 
	C671.097290,398.029602 676.085754,394.448425 680.440979,390.026031 
	C681.759521,388.687103 682.858521,386.749939 685.459595,386.997345 
	C686.586426,393.220673 682.098267,396.687195 678.377808,399.753357 
	C670.888062,405.925964 663.345398,412.506042 652.510315,411.934814 
	C649.681946,411.785706 647.257019,411.261658 645.247681,408.586182 
z"/>
<path fill="#000000" opacity="1.000000" stroke="none" 
	d="
M168.240875,321.223358 
	C182.194122,315.515289 194.704407,307.818634 207.774078,301.227570 
	C218.472260,295.832489 229.000717,290.100708 239.600159,284.510132 
	C240.615509,283.974609 241.584625,283.231720 243.063538,284.337921 
	C241.891037,287.163666 239.020142,288.154449 236.898880,289.739655 
	C217.032959,304.585266 197.163010,319.429138 177.101166,334.007843 
	C157.535385,348.226135 136.781418,349.584442 115.681732,337.846222 
	C95.612030,326.681091 75.908127,314.858398 56.044209,303.323425 
	C54.927113,302.674683 53.643181,302.193756 53.097012,300.555573 
	C55.136856,299.435059 56.670609,300.727081 58.225300,301.299561 
	C76.492165,308.025574 94.679321,314.974609 113.020241,321.491150 
	C131.247192,327.967163 149.602905,327.159729 168.240875,321.223358 
z"/>
<path fill="#000000" opacity="1.000000" stroke="none" 
	d="
M806.839172,370.046265 
	C809.042969,358.859009 811.124146,348.081757 813.347107,337.333862 
	C813.942444,334.455688 812.997375,333.340363 810.137512,333.224731 
	C806.245300,333.067322 802.264893,333.736786 798.030762,332.549316 
	C799.613953,328.155426 802.296936,326.597473 806.433105,326.542389 
	C815.109070,326.426849 815.105774,326.302979 817.051086,317.827850 
	C817.199951,317.179382 817.428345,316.548401 817.563171,315.897583 
	C819.920349,304.519684 823.233093,301.942261 835.634949,302.179810 
	C835.972595,310.004852 832.358887,317.292145 832.200500,325.580139 
	C840.979370,326.569580 849.709534,326.563232 858.523315,326.609131 
	C856.803284,332.152313 853.792053,334.244049 848.861938,333.611786 
	C830.651367,331.276428 830.644775,331.275116 827.112488,349.139496 
	C824.305603,363.334991 821.479187,377.526855 818.752625,391.737854 
	C818.197998,394.628815 817.185669,398.034180 820.247314,400.003754 
	C823.044556,401.803284 826.324646,401.296356 829.334351,399.876129 
	C834.701172,397.343719 839.720154,394.225555 844.413208,389.645874 
	C845.758240,393.485413 845.228027,396.088593 843.317505,398.064240 
	C834.944885,406.722504 825.449585,413.018402 812.606628,411.693726 
	C807.585571,411.175842 802.954590,406.142944 802.659363,401.051880 
	C802.111389,391.604462 804.425964,382.545685 806.233276,373.412933 
	C806.427063,372.433990 806.591675,371.449310 806.839172,370.046265 
z"/>
<path fill="#000000" opacity="1.000000" stroke="none" 
	d="
M628.283569,461.083069 
	C627.832275,464.402924 626.628296,467.208618 626.958008,470.184540 
	C629.753906,471.257874 630.540100,467.807617 632.783203,467.923645 
	C632.476379,471.570404 628.471191,474.908966 624.809875,474.482910 
	C620.361328,473.965240 621.173584,470.587402 621.311951,467.511963 
	C619.355591,469.394653 617.616821,471.313721 615.625183,472.919189 
	C613.391907,474.719452 610.682312,475.180328 608.149353,473.730255 
	C605.873779,472.427582 605.607971,469.991974 605.760315,467.552948 
	C606.246155,459.774323 613.158386,451.342224 620.676147,450.120514 
	C623.869446,449.601624 625.596802,448.459686 626.862366,445.457886 
	C628.839478,440.768219 632.725708,437.894135 637.584595,436.399963 
	C640.052551,435.641052 642.440857,435.552277 644.620911,437.241180 
	C643.957581,440.384064 641.883972,440.538971 639.602600,440.028687 
	C635.226135,439.049805 632.875793,441.255249 631.875122,445.110779 
	C630.539673,450.256165 629.498718,455.477997 628.283569,461.083069 
M620.519043,462.964691 
	C621.054260,462.132172 621.662415,461.336853 622.110229,460.459717 
	C623.206665,458.312347 625.277954,455.689697 622.452820,453.922760 
	C619.582275,452.127380 616.581665,453.447449 614.869507,456.388458 
	C612.955627,459.675903 611.492676,463.231140 611.420410,467.107635 
	C611.368835,469.879059 612.851624,470.928650 615.128784,469.025574 
	C617.002197,467.459900 618.462097,465.399475 620.519043,462.964691 
z"/>
<path fill="#000000" opacity="1.000000" stroke="none" 
	d="
M278.944672,253.279999 
	C285.224060,238.783371 298.910400,233.805206 308.636505,235.014816 
	C323.961914,236.920761 333.032623,245.698059 335.629059,260.130310 
	C338.150848,274.147644 328.716003,288.828400 314.655731,292.765106 
	C299.752716,296.937744 283.975708,289.091034 278.792572,275.070374 
	C276.134705,267.880768 276.092346,260.787842 278.944672,253.279999 
M323.761810,285.305969 
	C333.760529,276.418152 336.590698,263.243317 330.835602,252.376312 
	C324.817169,241.012024 312.311829,234.936447 300.780670,237.839127 
	C289.145966,240.767883 281.899261,248.197220 279.560486,259.870819 
	C277.433472,270.487640 282.772064,281.887268 291.940002,287.334106 
	C302.653992,293.699524 313.119598,293.146484 323.761810,285.305969 
z"/>
<path fill="#000000" opacity="1.000000" stroke="none" 
	d="
M458.577026,464.786621 
	C459.251801,460.971741 459.860382,457.580933 460.462158,454.227875 
	C457.504242,452.675781 456.677887,456.292816 454.516937,456.077393 
	C455.131989,452.288635 459.217010,449.020782 462.661652,449.838196 
	C466.971191,450.860931 465.795807,454.126038 465.423553,457.098022 
	C464.922394,461.098846 462.925079,464.936707 463.974152,470.223572 
	C469.199554,466.302795 472.141266,461.758942 474.021698,456.407867 
	C474.570831,454.845184 474.801208,453.157837 475.455933,451.648346 
	C476.148224,450.052277 477.672760,449.618164 479.250488,450.106781 
	C480.995117,450.647095 480.694977,452.137054 480.365234,453.444946 
	C478.995667,458.877106 477.820099,464.333679 477.354034,469.738861 
	C480.332611,471.117889 481.314880,467.543274 484.109131,468.250519 
	C482.313293,472.479584 479.141602,474.594482 474.971588,474.489075 
	C470.822723,474.384186 471.945038,470.592255 471.506897,467.869385 
	C467.943970,470.934357 465.565765,476.808899 459.684540,473.817200 
	C456.193665,472.041412 457.802948,468.263306 458.577026,464.786621 
z"/>
<path fill="#000000" opacity="1.000000" stroke="none" 
	d="
M543.668213,463.637421 
	C545.887085,460.469971 547.720276,457.596100 548.035034,453.899261 
	C548.226318,451.651917 549.338562,449.428192 552.197632,450.141937 
	C555.347534,450.928253 553.606628,453.337616 553.306458,455.079468 
	C552.444153,460.083710 550.909180,464.980072 550.668274,470.020081 
	C553.532715,471.344055 554.394165,467.846466 556.611938,468.073486 
	C555.893372,471.855560 551.919556,474.964081 548.376709,474.459808 
	C543.896484,473.822113 544.842346,470.496735 545.148621,467.400696 
	C543.440308,469.194794 541.840088,470.829437 540.292175,472.512238 
	C538.189087,474.798492 535.552612,475.092896 533.012817,473.853607 
	C530.471619,472.613739 530.787415,470.095917 531.231934,467.695984 
	C532.066040,463.192993 533.515137,458.771454 533.446045,454.186493 
	C530.623657,452.972839 529.765869,456.534882 527.487061,456.121979 
	C528.316772,452.208038 532.856384,448.927704 536.295471,449.840393 
	C539.911133,450.799927 539.465088,453.667480 539.028198,456.318146 
	C538.315491,460.641022 536.624084,464.840363 537.271912,469.770142 
	C540.531494,468.674896 541.906860,466.195557 543.668213,463.637421 
z"/>
<path fill="#000000" opacity="1.000000" stroke="none" 
	d="
M888.033936,454.077271 
	C887.902832,455.038239 887.796509,455.678345 887.598022,456.873260 
	C889.825073,454.800903 891.561035,452.926697 893.560486,451.396790 
	C895.606018,449.831665 898.061035,448.860260 900.513367,450.417358 
	C902.910217,451.939148 902.431458,454.497162 902.042725,456.782562 
	C901.281677,461.256134 900.354431,465.701447 899.510803,470.081360 
	C902.589294,471.099152 903.599670,467.861664 905.931213,468.165161 
	C904.615173,472.224609 900.560120,475.050018 897.166931,474.431305 
	C894.317871,473.911835 894.032593,471.967407 894.283936,469.559174 
	C894.794312,464.669098 896.752319,459.962891 896.415039,453.514374 
	C890.354309,457.372345 887.531372,462.315460 885.331116,467.763947 
	C884.319641,470.268677 885.238525,475.070648 880.807922,473.888458 
	C876.756287,472.807343 879.975647,469.115021 880.222107,466.714203 
	C880.655762,462.490143 881.741699,458.333038 882.537537,454.235199 
	C879.347351,452.599701 878.582825,456.849091 875.608032,455.984589 
	C876.902832,451.994873 879.951416,450.392181 883.565857,449.784180 
	C886.390015,449.309082 887.949585,450.858185 888.033936,454.077271 
z"/>
<path fill="#000000" opacity="1.000000" stroke="none" 
	d="
M751.031616,470.973785 
	C747.994263,472.921417 744.731689,476.291229 741.193542,473.832703 
	C737.655762,471.374359 740.135803,467.151581 740.490479,463.659760 
	C740.784973,460.760254 742.581299,457.976257 740.859924,453.983917 
	C735.405273,457.408417 732.682922,462.428131 730.461914,467.858185 
	C730.339417,468.157715 730.380310,468.519867 730.292053,468.838135 
	C729.615051,471.280731 729.728394,475.009644 725.858765,473.952393 
	C722.413269,473.011078 724.827881,470.007416 725.097839,468.021912 
	C725.733154,463.348907 727.355713,458.814728 727.440186,454.100647 
	C724.632935,453.143524 723.629089,456.356659 720.917908,456.075806 
	C722.297974,451.893890 725.286011,450.187378 728.995361,449.798920 
	C732.993408,449.380157 733.053040,452.796753 733.716797,455.941010 
	C735.925720,453.946899 737.539673,451.811432 739.914856,450.635651 
	C744.494507,448.368652 747.540588,450.164185 747.254333,455.270050 
	C747.079102,458.394562 746.234985,461.480682 745.705322,464.586487 
	C745.402710,466.361237 744.806580,468.143921 745.700928,469.913696 
	C747.505920,470.691650 748.416504,469.027405 749.742920,468.575623 
	C751.901245,467.840546 751.296753,469.366852 751.060059,470.739441 
	C751.000244,471.008575 751.031616,470.973785 751.031616,470.973785 
z"/>
<path fill="#000000" opacity="1.000000" stroke="none" 
	d="
M791.077637,474.331787 
	C785.934326,472.988251 786.459412,469.149933 786.937500,465.773285 
	C788.306213,456.106995 796.887451,449.344879 806.606262,449.701477 
	C810.296875,449.836914 811.718323,450.932037 810.657104,454.870575 
	C809.305725,459.885712 807.803467,464.942902 807.991028,470.224945 
	C810.624817,470.920929 811.516968,468.063660 813.593628,468.146667 
	C813.354370,471.677643 809.430603,474.807312 805.634277,474.414520 
	C801.116516,473.947083 801.840942,470.720367 802.313782,467.243256 
	C798.960571,470.438416 796.582397,474.578247 791.077637,474.331787 
M801.452087,462.910553 
	C802.230042,461.635406 803.097290,460.404938 803.763123,459.073700 
	C804.584473,457.431488 805.523865,455.519562 803.692566,454.092041 
	C801.986023,452.761719 799.916016,453.053833 798.059509,454.096069 
	C795.862427,455.329498 794.814087,457.540680 794.253784,459.752441 
	C793.455750,462.902466 790.108398,467.070923 793.879578,469.147919 
	C796.955688,470.842072 798.601013,466.022827 800.719788,463.889801 
	C800.835754,463.772980 800.921204,463.625793 801.452087,462.910553 
z"/>
<path fill="#000000" opacity="1.000000" stroke="none" 
	d="
M718.829468,468.307343 
	C719.988159,467.797241 720.937988,467.897797 720.697327,469.045837 
	C720.044312,472.161499 713.198608,475.417511 710.365540,474.064941 
	C707.457214,472.676392 708.521301,469.914703 708.367981,467.638916 
	C706.194458,469.593903 704.328674,471.795044 701.999451,473.258667 
	C697.119324,476.324982 692.987793,473.872101 692.908875,468.131592 
	C692.765442,457.700317 703.783813,448.219391 714.015747,449.800812 
	C717.357910,450.317352 717.494751,452.207825 716.919067,454.796844 
	C715.816040,459.757355 714.143066,464.636902 714.349731,469.713257 
	C716.463074,470.764526 717.342957,469.108765 718.829468,468.307343 
M703.978577,454.367371 
	C699.035400,459.845734 697.482544,466.482422 700.328003,469.968933 
	C704.009583,467.936920 706.570557,465.274750 709.406982,460.435638 
	C710.504456,458.563385 711.907532,456.323914 710.559204,454.436737 
	C709.159302,452.477478 706.684448,453.144409 703.978577,454.367371 
z"/>
<path fill="#000000" opacity="1.000000" stroke="none" 
	d="
M390.401611,452.460144 
	C390.962189,443.907837 397.368958,439.339935 405.234131,441.458740 
	C409.699921,442.661743 410.214600,444.119171 407.734619,448.542603 
	C406.423340,448.713959 406.212463,447.612976 405.638977,446.832916 
	C403.486786,443.905609 399.473633,443.218994 397.009033,445.474457 
	C394.013306,448.215942 395.252289,450.829163 397.656769,453.170959 
	C399.680420,455.141815 401.952118,456.871521 403.869904,458.934845 
	C407.933319,463.306671 407.440460,468.129333 402.737885,471.834442 
	C397.547729,475.923676 390.650665,476.209534 385.037750,472.442871 
	C385.734497,469.851746 387.134308,468.947174 389.741150,470.256104 
	C390.774719,470.775085 391.872009,471.285919 392.996002,471.483276 
	C396.038361,472.017487 399.063171,472.174957 400.868469,468.900940 
	C402.703400,465.573303 400.302216,463.683929 398.343872,461.637695 
	C395.621613,458.793274 391.815186,456.912842 390.401611,452.460144 
z"/>
<path fill="#000000" opacity="1.000000" stroke="none" 
	d="
M856.888977,474.232666 
	C851.974548,470.907806 850.642639,467.137360 852.398193,462.168671 
	C854.302368,456.779449 857.506470,452.459534 863.012695,450.351532 
	C869.155945,447.999695 874.099182,451.357697 874.327393,457.886230 
	C874.650940,467.145050 866.376770,475.118774 856.888977,474.232666 
M859.170166,470.451691 
	C860.358337,471.722748 861.665771,471.806702 863.190491,471.017548 
	C867.233582,468.924988 870.249756,459.102386 868.012085,455.008057 
	C866.240723,451.767151 863.681763,451.847839 861.667908,454.366241 
	C858.018860,458.929565 856.046265,464.060181 859.170166,470.451691 
z"/>
<path fill="#000000" opacity="1.000000" stroke="none" 
	d="
M596.814453,462.991486 
	C594.780334,463.823853 593.100403,464.543640 591.362610,465.074188 
	C589.870178,465.529785 588.287292,465.863251 588.670227,467.902466 
	C588.970337,469.500763 590.075806,470.499725 591.733459,470.749634 
	C593.599182,471.030945 595.308716,470.528503 597.056335,469.872589 
	C598.489441,469.334778 599.743713,467.729248 601.605957,468.752350 
	C598.684021,473.436127 590.776001,475.991425 586.557617,473.654846 
	C582.759888,471.551239 581.683228,466.233948 583.935547,460.723846 
	C585.620483,456.601624 588.210693,453.250610 592.197571,451.119415 
	C595.312134,449.454559 598.711609,448.407501 601.190979,451.687439 
	C603.721069,455.034576 602.101074,458.302551 599.560669,461.058624 
	C598.901855,461.773407 597.957031,462.224548 596.814453,462.991486 
M595.949158,459.187317 
	C596.951294,457.561523 597.488770,455.847778 596.314941,454.126343 
	C595.671753,453.182983 594.512268,453.129669 593.669922,453.748688 
	C590.936401,455.757507 589.136475,458.286591 589.500977,461.990509 
	C592.139709,462.380280 593.810791,461.079468 595.949158,459.187317 
z"/>
<path fill="#000000" opacity="1.000000" stroke="none" 
	d="
M795.094849,439.630188 
	C793.506958,440.500122 792.195129,440.168549 790.884216,439.938232 
	C787.553162,439.353088 785.315857,440.801727 784.296570,443.879333 
	C781.475708,452.396729 780.270691,461.248810 778.644165,469.964508 
	C781.884338,471.301575 782.672546,467.365692 785.140747,467.756622 
	C784.841125,471.823395 778.693298,475.823395 775.286743,474.189209 
	C773.728333,473.441650 773.092285,472.117493 773.363281,470.491516 
	C774.808594,461.818634 775.498657,452.938873 779.229004,444.825439 
	C781.795898,439.242493 788.220398,435.306610 793.171448,435.986237 
	C794.905334,436.224274 798.000610,436.104248 795.094849,439.630188 
z"/>
<path fill="#000000" opacity="1.000000" stroke="none" 
	d="
M421.848145,443.707642 
	C424.272583,445.227295 421.945618,447.260986 422.874634,448.858276 
	C424.328827,450.884796 427.623505,448.857697 428.833893,451.391693 
	C428.717010,451.691772 428.670044,451.975983 428.594177,451.983887 
	C419.489594,452.936340 420.150909,460.299408 419.071472,466.501343 
	C418.878967,467.607452 418.163116,468.708801 418.973511,469.980377 
	C421.332916,471.797455 422.912689,467.987152 425.213135,468.884674 
	C423.924194,472.751282 419.667786,475.491211 416.286041,474.453491 
	C412.030487,473.147583 412.759460,469.903625 413.475494,466.673065 
	C414.050720,464.077606 414.242310,461.377686 415.017792,458.851044 
	C415.949249,455.816193 415.875061,453.361633 412.037170,451.337616 
	C418.083130,451.621094 415.958984,443.490631 421.848145,443.707642 
z"/>
<path fill="#000000" opacity="1.000000" stroke="none" 
	d="
M827.705505,448.112427 
	C828.860474,451.024811 831.891968,449.007568 833.421448,450.881531 
	C833.722351,452.718262 832.300049,453.210052 831.004639,453.056732 
	C826.791199,452.558136 825.846619,455.257202 825.505981,458.458405 
	C825.092590,462.342834 823.358521,466.054626 823.525391,469.846588 
	C826.359558,471.348083 827.786804,468.311859 829.979370,468.743958 
	C829.156311,472.567596 825.171631,475.235626 821.398926,474.375122 
	C817.223328,473.422760 817.713196,470.345276 818.325806,467.253998 
	C818.908020,464.316559 819.328979,461.339844 820.064697,458.442322 
	C820.775513,455.643127 821.401306,453.054810 816.776123,452.201965 
	C819.717957,449.728149 822.528503,448.547119 823.134888,445.231659 
	C823.428284,443.627686 825.480469,443.302673 826.941956,443.855743 
	C828.991577,444.631348 827.666138,446.405548 827.705505,448.112427 
z"/>
<path fill="#000000" opacity="1.000000" stroke="none" 
	d="
M511.688599,463.930939 
	C512.078735,461.881226 512.249084,460.195068 512.795959,458.641449 
	C513.851929,455.641541 513.620422,453.200104 509.801147,451.216370 
	C516.135742,452.237732 513.648376,442.326477 520.479797,443.961914 
	C520.479797,445.729797 520.479797,447.326141 520.479797,448.556000 
	C522.183472,450.825958 525.136658,448.931122 526.455383,451.135742 
	C526.363342,451.503021 526.379822,451.886353 526.197083,452.096710 
	C524.342163,454.232574 520.724731,451.827881 519.148682,454.861359 
	C518.350464,456.397766 516.570496,467.220947 516.854431,469.928528 
	C519.080688,471.512451 520.590088,467.946259 523.351929,469.319611 
	C521.511047,473.361755 518.309937,474.839600 514.305664,474.304810 
	C509.991943,473.728699 510.678009,470.293823 511.027374,467.284485 
	C511.141998,466.297424 511.430176,465.330536 511.688599,463.930939 
z"/>
<path fill="#000000" opacity="1.000000" stroke="none" 
	d="
M666.998657,451.926392 
	C659.764221,452.423248 658.425781,457.271942 658.022278,463.015381 
	C657.862915,465.283112 656.719971,467.495270 657.635437,469.770691 
	C659.947510,471.342316 661.479797,467.878601 664.194336,469.213654 
	C662.441467,473.363953 659.081482,474.550110 655.175842,474.254456 
	C651.038696,473.941315 651.464661,470.560913 651.769043,467.798218 
	C652.112671,464.679016 652.895203,461.604950 653.546021,458.523743 
	C654.142578,455.700226 654.535400,453.002014 650.758789,452.156738 
	C651.535828,449.196594 655.751770,450.555542 655.846863,447.067078 
	C655.927979,444.089111 658.108093,443.409363 660.583252,443.887451 
	C661.845764,445.704987 660.786011,447.440857 661.242310,448.953369 
	C662.679688,451.103058 666.165527,448.459229 666.998657,451.926392 
z"/>
<path fill="#000000" opacity="1.000000" stroke="none" 
	d="
M572.869141,457.913452 
	C569.577026,461.583405 567.443115,465.468018 566.622742,470.002625 
	C566.178711,472.456848 565.524048,474.953064 562.324707,474.038116 
	C559.401428,473.202118 561.014587,470.890381 561.314453,469.066040 
	C562.130005,464.102753 563.934265,459.254944 563.666748,454.166473 
	C560.723938,453.490479 559.851196,456.807281 557.459839,456.368378 
	C558.459473,452.534393 562.523438,449.395844 565.871216,449.769562 
	C570.024841,450.233185 569.273560,453.522522 569.574646,456.693268 
	C573.463562,453.600250 576.154480,448.243530 582.462219,450.349792 
	C582.282654,453.021118 581.316833,454.963013 578.973938,454.651062 
	C576.056396,454.262573 574.761963,456.084717 572.869141,457.913452 
z"/>
<path fill="#000000" opacity="1.000000" stroke="none" 
	d="
M687.125244,450.696655 
	C689.201782,449.705353 690.920227,449.287415 692.656128,450.644867 
	C693.181885,452.648285 692.090149,454.310699 690.462341,454.469543 
	C681.377930,455.356110 680.029907,462.878418 677.337463,469.282715 
	C677.149231,469.730255 677.201721,470.272827 677.077026,470.754333 
	C676.533569,472.853027 675.597717,474.663635 673.009949,474.110474 
	C670.077637,473.483704 671.428284,471.264130 671.724670,469.664673 
	C672.680420,464.507751 673.794006,459.380127 674.825134,454.346558 
	C671.439575,453.042175 670.469727,456.714417 667.336731,456.266296 
	C669.352600,452.166870 672.249146,449.788208 676.502319,449.815186 
	C680.606445,449.841156 680.108093,453.372986 680.429138,456.935211 
	C682.408813,454.188507 684.259216,452.120941 687.125244,450.696655 
z"/>
<path fill="#000000" opacity="1.000000" stroke="none" 
	d="
M449.849060,454.635620 
	C443.860474,457.333679 441.328156,462.464294 439.294312,467.950348 
	C438.895172,469.027039 438.738495,470.197327 438.509064,471.332336 
	C438.074097,473.484100 436.806915,474.597076 434.619934,474.094910 
	C432.198822,473.538940 432.926910,471.720490 433.257904,470.097961 
	C434.335022,464.818634 435.388947,459.534576 436.438354,454.318939 
	C433.068329,452.868713 432.253235,456.691223 429.873260,456.458893 
	C430.268494,453.017548 434.279053,449.614807 437.759521,449.760406 
	C440.789459,449.887146 441.651459,451.284332 441.831024,456.768707 
	C445.549561,453.413727 448.282654,448.270447 454.789825,450.442352 
	C454.111298,453.171082 453.210815,455.039764 449.849060,454.635620 
z"/>
<path fill="#000000" opacity="1.000000" stroke="none" 
	d="
M485.449219,462.789978 
	C488.752441,454.033356 493.788910,449.680084 500.349457,449.705078 
	C502.136139,449.711853 504.350952,449.318817 505.161865,451.388672 
	C505.890472,453.248474 505.677002,455.300903 503.470001,456.918915 
	C501.653259,454.290131 500.102875,450.826752 495.953522,453.654907 
	C492.446686,456.045105 489.392761,463.973267 491.556213,468.049469 
	C495.086761,474.701416 499.775391,467.901276 504.038300,468.218811 
	C502.018066,472.509186 494.700409,475.658112 490.223389,474.344391 
	C486.284393,473.188507 484.584290,469.306915 485.449219,462.789978 
z"/>
<path fill="#000000" opacity="1.000000" stroke="none" 
	d="
M750.985962,471.027161 
	C752.815674,469.760223 754.675537,469.960724 756.620483,470.862732 
	C758.632019,471.795593 760.704041,471.740784 761.969116,469.773071 
	C763.282349,467.730621 761.262634,466.469604 760.251587,465.051910 
	C759.770996,464.378052 759.153809,463.802582 758.609802,463.172852 
	C756.463013,460.688049 754.580139,457.981354 756.343994,454.627655 
	C758.109375,451.271240 761.194763,449.728638 764.999207,449.700745 
	C769.533142,449.667511 770.189575,450.808014 768.347046,455.506561 
	C767.301697,455.849274 766.901306,455.110382 766.423767,454.413361 
	C765.201965,452.629974 763.584412,451.991211 761.751770,453.363495 
	C759.580994,454.989075 760.375610,456.844818 761.736755,458.556305 
	C762.771973,459.857819 763.976135,461.028870 764.968872,462.359619 
	C768.028137,466.460999 767.701538,469.404663 763.965637,472.231415 
	C759.469971,475.633057 753.707642,475.417267 751.002563,471.359314 
	C751.031616,470.973785 751.000244,471.008575 750.985962,471.027161 
z"/>
<path fill="#000000" opacity="1.000000" stroke="none" 
	d="
M906.557495,471.074188 
	C908.176636,469.456573 909.589050,470.274384 910.951477,470.821411 
	C912.945251,471.622040 914.981445,472.032104 916.321472,469.958984 
	C917.697510,467.830078 916.151550,466.213898 914.809448,464.689117 
	C914.369263,464.188995 913.923218,463.693756 913.492004,463.185974 
	C911.393982,460.715393 909.275879,458.125946 911.133240,454.695618 
	C913.046753,451.161621 916.289978,449.596924 920.273743,449.713898 
	C924.341553,449.833313 924.976257,451.254974 922.962769,455.481262 
	C922.156433,455.609955 921.820984,455.023743 921.438171,454.493896 
	C920.091431,452.629700 918.299805,451.658508 916.358154,453.269196 
	C914.104309,455.138916 915.415833,457.154419 916.806091,458.933350 
	C917.727966,460.112976 918.790527,461.183136 919.704407,462.368408 
	C922.316101,465.755341 922.568298,469.005646 919.069702,472.024231 
	C915.645020,474.979004 908.525391,475.656708 906.118774,473.126129 
	C905.850342,472.843933 906.237000,471.938751 906.557495,471.074188 
z"/>
<path fill="#000000" opacity="1.000000" stroke="none" 
	d="
M839.992920,461.263702 
	C841.213013,457.660706 841.046875,455.038544 836.127258,454.519562 
	C839.641174,451.380310 843.178284,450.977356 847.151733,449.898590 
	C847.664551,457.031799 843.526611,463.244202 844.605103,469.854675 
	C847.036255,470.853058 848.036987,467.559937 850.209106,468.447876 
	C848.933228,472.425842 844.289124,475.321533 840.939636,474.234589 
	C838.571106,473.466034 838.133118,471.613190 838.472595,469.468048 
	C838.886230,466.855438 839.416931,464.261322 839.992920,461.263702 
z"/>
<path fill="#000000" opacity="1.000000" stroke="none" 
	d="
M377.564240,467.086792 
	C379.135193,468.438141 381.130493,469.441895 379.979401,471.624786 
	C379.297455,472.917999 378.024048,474.075989 376.449219,473.980743 
	C374.793213,473.880585 373.849945,472.383179 373.521149,470.982025 
	C372.836945,468.066406 375.043396,467.445282 377.564240,467.086792 
z"/>
<path fill="#000000" opacity="1.000000" stroke="none" 
	d="
M362.317596,472.724243 
	C360.557129,470.466705 360.863495,468.919250 363.014008,467.612091 
	C364.549255,466.678894 365.745575,466.905701 366.865814,468.229034 
	C367.866241,469.410828 368.778259,470.677032 367.432617,472.078186 
	C366.095123,473.470825 364.643829,475.146118 362.317596,472.724243 
z"/>
<path fill="#000000" opacity="1.000000" stroke="none" 
	d="
M349.110352,469.317261 
	C350.588806,467.757690 351.847595,466.165131 353.879639,467.480469 
	C354.966278,468.183868 355.979248,469.243195 355.923157,470.640656 
	C355.855011,472.338654 354.396973,473.333191 353.059418,473.635071 
	C349.977905,474.330505 349.251495,472.104706 349.110352,469.317261 
z"/>
<path fill="#000000" opacity="1.000000" stroke="none" 
	d="
M845.386597,445.958282 
	C842.936218,446.414398 842.696838,445.354584 843.714478,443.904816 
	C845.055786,441.994141 847.005127,440.843140 849.591187,440.228424 
	C850.392456,443.711121 847.897583,444.678589 845.386597,445.958282 
z"/>
<path fill="#000000" opacity="1.000000" stroke="none" 
	d="
M309.876526,262.870789 
	C309.534576,266.629089 309.455933,270.422241 309.309204,274.212769 
	C309.260162,275.480255 309.544281,277.148071 307.647736,277.300140 
	C305.709717,277.455566 305.701904,275.871338 305.685608,274.535767 
	C305.610565,268.384583 305.591095,262.232727 305.513153,256.081573 
	C305.491150,254.345047 306.055267,253.183121 307.943268,252.973694 
	C309.888702,252.757904 311.168030,253.649170 311.810303,255.403152 
	C313.513489,260.054382 315.155182,264.728180 317.076874,270.108429 
	C320.010651,265.457031 320.996826,260.782501 322.689240,256.424103 
	C323.473114,254.405380 324.365021,252.692871 326.887543,253.074387 
	C329.414032,253.456497 329.232300,255.527298 329.242645,257.338470 
	C329.274902,262.991516 329.268738,268.645050 329.229309,274.298035 
	C329.218964,275.780914 329.298370,277.550873 327.086639,277.471954 
	C325.074524,277.400146 324.835541,275.782074 324.814148,274.230103 
	C324.768341,270.909668 324.800110,267.588196 324.169617,264.064728 
	C323.084412,267.020905 322.079834,270.010132 320.885223,272.921417 
	C320.108337,274.814819 319.966125,277.592163 317.153870,277.571045 
	C314.612152,277.552002 314.417633,275.000671 313.744415,273.210999 
	C312.462311,269.802521 311.315948,266.342987 309.876526,262.870789 
z"/>
<path fill="#000000" opacity="1.000000" stroke="none" 
	d="
M291.934875,276.937256 
	C291.639740,271.691406 291.553223,266.731384 291.549408,261.771332 
	C291.547211,258.943970 290.984222,256.846771 287.408173,257.181976 
	C285.958282,257.317902 284.066467,257.211060 284.028473,255.178268 
	C283.983398,252.768112 286.122833,252.953735 287.696960,252.916977 
	C291.677094,252.824127 295.661560,252.861801 299.643250,252.918854 
	C301.116608,252.939987 302.983795,252.882187 303.127960,254.865631 
	C303.306763,257.326080 301.194489,257.240906 299.593475,257.186768 
	C296.219910,257.072662 295.343323,258.627228 295.619537,261.807892 
	C295.963135,265.763977 295.927521,269.764587 295.845245,273.741577 
	C295.800110,275.923096 295.574646,278.364960 291.934875,276.937256 
z"/>
</svg>