<?xml version="1.0" encoding="utf-8"?>
<!-- Generator: Adobe Illustrator 27.3.1, SVG Export Plug-In . SVG Version: 6.00 Build 0)  -->
<svg version="1.1" id="Layer_1" xmlns="http://www.w3.org/2000/svg" xmlns:xlink="http://www.w3.org/1999/xlink" x="0px" y="0px"
	 viewBox="0 0 262 252" style="enable-background:new 0 0 262 252;" xml:space="preserve">
<style type="text/css">
	.st0{fill:#030F14;}
	.st1{fill:#0B255A;}
	.st2{fill:#0047FF;}
	.st3{fill:#1C54AF;}
	.st4{fill:#FFFFFF;}
	.st5{fill:#759BFF;}
	.st6{fill:#002C9D;}
	.st7{fill:#3D3D3D;}
	.st8{fill:#01022E;}
	.st9{fill:#C5DDFF;}
	.st10{fill:#F8F9FD;}
	.st11{fill:none;stroke:#A5B2BF;}
</style>
<path class="st0" d="M138,143.9l30.8-27.7c0,0-0.4-7-16.6-1.6c-16.2,5.5-60.4,20.9-60.4,20.9l3,15.6L138,143.9z"/>
<path class="st1" d="M51.1,243.8c-0.7,0-1.3-0.3-1.6-0.9c-0.3-0.6-0.2-1.2,0.1-1.7l1.7-2.4c-14.5,3.1-29.3,4.3-44.1,3.9
	c-2.7-0.1-5.6-0.4-6.8-3c-0.4-0.8-0.5-1.7-0.4-2.6c0.2-2.2,1.6-4,3-5.8c8.8-11,19.5-20.8,29.8-30.2l-6.5,0.7
	c-0.6,0.1-1.1-0.2-1.3-0.7c-0.2-0.5-0.2-1,0.2-1.4c7-7.8,18.8-16.2,31.5-22.4c0.1-0.1,0.3,0,0.3,0.1L90,230.5c0.1,0.1,0,0.3-0.1,0.4
	C78.9,239,65.1,243.6,51.1,243.8C51.2,243.8,51.1,243.8,51.1,243.8z M52.1,238.1c0.1,0,0.2,0.1,0.2,0.1c0.1,0.1,0.1,0.2,0,0.3
	l-2.1,3c-0.2,0.3-0.3,0.8-0.1,1.1c0.2,0.4,0.6,0.6,1.1,0.6c13.8-0.2,27.3-4.7,38.2-12.7l-32.6-52.8c-12.5,6.2-24.1,14.5-31.1,22.1
	c-0.2,0.2-0.2,0.5-0.1,0.8c0.1,0.2,0.4,0.4,0.8,0.4l7.3-0.8c0.1,0,0.2,0.1,0.3,0.2c0,0.1,0,0.2-0.1,0.3
	c-10.5,9.6-21.3,19.5-30.3,30.7c-1.4,1.8-2.7,3.5-2.9,5.6c-0.1,0.8,0,1.7,0.3,2.4c1.1,2.4,3.8,2.6,6.3,2.7
	C22.3,242.6,37.4,241.2,52.1,238.1C52,238.1,52,238.1,52.1,238.1z"/>
<path class="st1" d="M42.1,203.8c-0.1,0-0.2,0-0.2-0.1c-0.1-0.1,0-0.3,0.1-0.4l12.8-8.5c0.1-0.1,0.3,0,0.4,0.1
	c0.1,0.1,0,0.3-0.1,0.4l-12.8,8.5C42.2,203.7,42.1,203.8,42.1,203.8z"/>
<path class="st1" d="M18.3,233.6c-0.1,0-0.2,0-0.2-0.1c-0.1-0.1-0.1-0.3,0-0.4c13-9.9,26.7-19.2,40.7-27.7c0.1-0.1,0.3,0,0.4,0.1
	c0.1,0.1,0,0.3-0.1,0.4c-14,8.4-27.7,17.7-40.6,27.6C18.4,233.6,18.3,233.6,18.3,233.6z"/>
<path class="st1" d="M55.7,223.6c-0.1,0-0.2-0.1-0.2-0.1c-0.1-0.1,0-0.3,0.1-0.4l11.1-6.5c0.1-0.1,0.3,0,0.4,0.1
	c0.1,0.1,0,0.3-0.1,0.4l-11.1,6.5C55.8,223.6,55.7,223.6,55.7,223.6z"/>
<path class="st2" d="M89.7,225.4l3,24.1c0.2,1.9,2.4,2.8,3.9,1.7c10.4-7.5,41.3-31.9,39.8-57.8L89.7,225.4z"/>
<path class="st3" d="M60.7,179.8l-20.5-12.8c-1.6-1-1.5-3.3,0.1-4.3c11.1-6.4,46.1-24.4,68.8-12.1L60.7,179.8z"/>
<path class="st3" d="M222.2,108L222.2,108c-41.4-12.2-140.1,50.3-163.4,65.7c-3.1,2.1-4.7,5.9-4,9.6c3.9,19.1,13.6,34.5,29.3,46
	c3,2.2,7.1,2.4,10.3,0.4C118,214.8,215.8,150.9,222.2,108z"/>
<path class="st4" d="M100.2,207.8c-9,5.8-21,3.2-26.8-5.9c-5.8-9.1-3.1-21.2,5.9-27c9-5.8,21-3.2,26.8,5.9
	C111.9,189.9,109.2,202,100.2,207.8z"/>
<path class="st5" d="M97,202.7c-6.2,4-14.5,2.2-18.5-4.1c-4-6.3-2.2-14.6,4.1-18.6c6.2-4,14.5-2.2,18.5,4.1
	C105,190.4,103.2,198.7,97,202.7z"/>
<path class="st6" d="M195.2,146.9c-0.1,0-0.1,0-0.2-0.1c-10-7.7-17.4-19.2-20.1-31.6c0-0.2,0.1-0.3,0.2-0.3c0.2,0,0.3,0.1,0.3,0.2
	c2.7,12.3,10,23.7,19.9,31.3c0.1,0.1,0.1,0.3,0.1,0.4C195.4,146.9,195.3,146.9,195.2,146.9z"/>
<path class="st4" d="M127.3,167.9c-3.8,4.1-6.9,7.8-7.6,9.4c-2.3,5-1.3,31.2,1,37.6c0,0,5-5.1,12-12.6c0.9-5.6,1.7-14.1,0.9-17.8
	C131.5,175.3,130.1,172.9,127.3,167.9z"/>
<path class="st0" d="M150.2,126.1c-26.2,6.6-47.2,13.7-47.2,13.7l-3.4-7L88.8,138c0,0-4.4,26,14.2,23.9c18.6-2,43.2-13.5,43.2-13.5
	s-11,10.9-18.9,19.5c-0.2,7.7,0.3,21.5,5.4,34.4c14.6-15.5,37.8-41.1,43.1-52.6C183.6,132.6,176.4,119.4,150.2,126.1z"/>
<path class="st7" d="M147.6,147.9c-0.1,0-0.2,0-0.2-0.1c-0.1-0.1-0.1-0.3,0-0.4l4.9-3.9c0.1-0.1,0.3-0.1,0.4,0
	c0.1,0.1,0.1,0.3,0,0.4l-4.9,3.9C147.7,147.9,147.7,147.9,147.6,147.9z"/>
<path class="st8" d="M119.7,65.8c-0.6-2.2-2.8-3.8-5.1-4.3c-2.3-0.4-4.7,0.1-6.8,1.1c-2.1,1-4,2.3-6.1,3.5c-3.8,2.3-7.9,4-12.2,5.2
	c-8.8,2.4-18.1,2.3-26.7,5.4c-3.6,1.3-7.4,3.5-8.3,7.3c-0.6,2.4,0.2,4.9,1.7,6.8c1.5,1.9,3.8,3.1,6.1,3.6c0.4,2.3,2.1,4.1,4.1,5.3
	c2,1.1,4.3,1.6,6.6,1.8c9.8,1.2,20-0.3,28.4-5.5c4.2-2.6,7.9-6.1,10.6-10.3c1.3-2.1,2.5-4.3,3.3-6.6c0.8-2.2,0.8-4.7,1.6-6.8
	c0.4-1.1,1.4-1.6,2-2.5C119.8,68.6,120.1,67.1,119.7,65.8z"/>
<path class="st4" d="M167.6,61.7c5.5-2.6,15.3-8.1,21.2-9.6c0.5-0.1,1.1-0.2,1.6-0.1c0.5,0.1,1,0.5,1,1.1c0,0.5-0.4,1-0.8,1.3
	c-1.3,1.1-3.1,2-4.8,2.5c0,0,2.2,1.1,1.4,3.2c0,0,1.3,0.7-0.2,3.1c0,0,0.1,2.3-2,2.8c-1.6,0.4-2.3-0.2-2.3-0.2s-13.5,7.8-16.9,8.8
	C162.3,75.6,164.6,63.1,167.6,61.7z"/>
<path class="st7" d="M167.6,74.2c-0.1,0-0.2-0.1-0.2-0.2c-0.1-0.1,0-0.3,0.1-0.4c3.3-1.5,14.9-8,15-8.1c0.1,0,0.2,0,0.3,0
	c0,0,0.7,0.5,2.1,0.1c1.9-0.5,1.8-2.5,1.8-2.6c0,0,0-0.1,0-0.1c0.7-1.1,0.7-1.8,0.6-2.2c-0.1-0.4-0.3-0.5-0.3-0.5
	c-0.1-0.1-0.2-0.2-0.1-0.3c0.7-1.9-1.2-2.8-1.2-2.8c-0.1,0-0.2-0.2-0.1-0.3c0-0.1,0.1-0.2,0.2-0.2c1.5-0.4,3.3-1.3,4.7-2.5
	c0.3-0.3,0.8-0.7,0.7-1.1c0-0.4-0.4-0.7-0.8-0.8c-0.5-0.1-1,0-1.5,0.1c-4.3,1.1-11.1,4.5-16.6,7.3c-1.7,0.8-3.3,1.6-4.5,2.3
	c-0.1,0.1-0.3,0-0.4-0.1c-0.1-0.1,0-0.3,0.1-0.4c1.3-0.6,2.9-1.4,4.5-2.3c5.5-2.8,12.4-6.2,16.7-7.4c0.5-0.1,1.1-0.3,1.7-0.1
	c0.6,0.1,1.2,0.6,1.3,1.3c0,0.7-0.5,1.2-0.9,1.6c-1.3,1-2.9,1.9-4.3,2.4c0.7,0.6,1.5,1.6,1,3c0.1,0.1,0.3,0.3,0.4,0.7
	c0.2,0.7,0,1.5-0.6,2.6c0,0.4-0.2,2.5-2.2,3c-1.3,0.3-2.1,0-2.4-0.1c-1.3,0.7-11.7,6.6-14.9,8C167.7,74.1,167.7,74.2,167.6,74.2z"/>
<path class="st7" d="M182.6,64.2c-0.6,0-1.1-0.2-1.5-0.7c-0.2-0.3-0.3-0.8-0.2-1.2c0.1-0.3,0.3-0.6,0.6-0.7c0.1-0.1,0.3,0,0.4,0.1
	c0.1,0.1,0,0.3-0.1,0.4c-0.2,0.1-0.3,0.3-0.3,0.4c-0.1,0.2,0,0.5,0.1,0.7c0.3,0.4,0.9,0.5,1.3,0.4c0.5-0.1,0.9-0.3,1.4-0.7
	c0.6-0.4,1.3-1,1.9-1.8c0.2-0.3,0.3-0.5,0.4-0.8c0.1-0.1,0.2-0.2,0.3-0.2c0.1,0,0.2,0.2,0.2,0.3c-0.1,0.3-0.3,0.6-0.5,0.9
	c-0.6,0.8-1.4,1.4-2,1.9c-0.5,0.3-1,0.7-1.7,0.8C182.9,64.2,182.8,64.2,182.6,64.2z"/>
<path class="st7" d="M183.9,61.8c-0.1,0-0.1,0-0.2,0c-0.4-0.1-0.7-0.3-1-0.5c-0.2-0.2-0.5-0.3-0.7-0.4c-0.4-0.1-1,0.1-1.3,0.3
	l-0.2,0.1c-0.4,0.2-0.9,0.5-1.4,0.5c-0.6,0-1.4-0.3-1.5-1c0-0.1,0.1-0.3,0.2-0.3c0.1,0,0.3,0.1,0.3,0.2c0.1,0.4,0.5,0.6,0.9,0.6
	c0.4,0,0.8-0.2,1.2-0.4l0.2-0.1c0.5-0.2,1.1-0.5,1.7-0.3c0.3,0.1,0.6,0.3,0.9,0.5c0.3,0.2,0.5,0.4,0.8,0.4c0.2,0,0.5,0,0.8-0.2
	c0.3-0.3,0.5-0.7,0.5-1c0-0.9-0.7-1.6-1.1-1.9c-0.8-0.6-1.7-1-2.7-1.2c-0.1,0-0.2-0.2-0.2-0.3c0-0.1,0.2-0.2,0.3-0.2
	c1.1,0.2,2.1,0.6,2.9,1.3c0.5,0.4,1.3,1.2,1.3,2.3c0,0.5-0.3,1.1-0.7,1.5C184.6,61.6,184.3,61.8,183.9,61.8z"/>
<path class="st7" d="M183,65.5c-0.5,0-0.9-0.1-1.2-0.4c-0.4-0.3-0.5-0.8-0.4-1.3c0-0.1,0.2-0.2,0.3-0.2c0.1,0,0.2,0.2,0.2,0.3
	c-0.1,0.2,0,0.5,0.3,0.7c0.2,0.2,0.5,0.3,0.8,0.3h0c0.3,0,0.7-0.1,1-0.2c1-0.3,1.8-0.8,2.3-1.3c0.1-0.1,0.3-0.1,0.4,0
	c0.1,0.1,0.1,0.3,0,0.4c-0.6,0.6-1.4,1.1-2.5,1.5C183.8,65.4,183.4,65.5,183,65.5C183,65.5,183,65.5,183,65.5z"/>
<path class="st7" d="M182.6,65.9c-0.1,0-0.2,0-0.2-0.1c-0.1-0.2-0.1-0.4-0.2-0.6c0-0.1,0.1-0.3,0.2-0.3c0.1,0,0.3,0.1,0.3,0.2
	c0,0.1,0.1,0.3,0.1,0.4c0.1,0.1,0,0.3-0.1,0.4C182.7,65.9,182.7,65.9,182.6,65.9z"/>
<path class="st9" d="M130.9,96l-2.7,22.9c-0.3,2.7-2.1,5.1-4.6,6.1l-37.2,15.7l3.1-22.4l-14.9,7.9l-1.7,16.3
	c-0.1,1.1,0.5,2.1,1.5,2.5c1.3,0.5,2.9,1.2,3.9,1.6c1.7,0.6,2.1,3.6-1.6,3.1c-3.6-0.4-4.1-0.4-5.6-0.1c0,0-5.2,2.3-8.1,6.5
	c-1.7,2.4-1.7,4.4-6.3,4.2c0,0-3.9,2.4-3.5-1.9c0,0-5.7-1.9,7.5-8.9c0,0-3.7-20.3,2.9-31.4c7-11.7,42.1-27.2,42.1-27.2l62-29.3
	c-1.3,4.5-1.6,8.6,0.1,12.2L130.9,96z"/>
<path class="st7" d="M51.9,157.1c-0.2,0-0.3-0.1-0.3-0.3c0-1.9,3-4.4,8.7-7.5c-0.4-2.1-3.3-21,2.9-31.4
	c6.9-11.6,40.8-26.7,42.2-27.3l62-29.3c0.1,0,0.2,0,0.3,0c0.1,0.1,0.1,0.2,0.1,0.3c-1.5,5-1.5,8.8,0.1,12c0.1,0.1,0,0.3-0.1,0.3
	l-36.7,22.1l-2.7,22.8c-0.3,2.8-2.2,5.2-4.7,6.3c-0.1,0.1-0.3,0-0.4-0.1c-0.1-0.1,0-0.3,0.1-0.4c2.4-1,4.1-3.3,4.4-5.9l2.7-22.9
	c0-0.1,0.1-0.2,0.1-0.2l36.6-22c-1.4-3.1-1.5-6.9-0.1-11.6l-61.5,29c-0.4,0.2-35.1,15.6-42,27.1c-6.5,10.8-2.9,31-2.8,31.2
	c0,0.1,0,0.2-0.1,0.3c-7.4,3.9-8.5,6.1-8.5,7.1C52.2,157,52.1,157.1,51.9,157.1z"/>
<path class="st7" d="M79.3,148.1c-0.1,0-0.2-0.1-0.3-0.2c-0.1-0.5-0.5-0.9-1-1.1c-1-0.4-2.7-1-3.9-1.6c-1.1-0.5-1.8-1.6-1.6-2.8
	l1.7-16.3c0-0.1,0.1-0.2,0.1-0.2l14.9-7.9c0.1-0.1,0.2,0,0.3,0c0.1,0.1,0.1,0.2,0.1,0.3l-3,21.8l1.8-1c0.1-0.1,0.3,0,0.4,0.1
	c0.1,0.1,0,0.3-0.1,0.4l-2.3,1.2c-0.1,0.1-0.2,0-0.3,0c-0.1-0.1-0.1-0.2-0.1-0.3l3-21.8l-14.3,7.6l-1.7,16.1
	c-0.1,0.9,0.4,1.9,1.3,2.2c1.2,0.5,2.9,1.2,3.9,1.6c0.6,0.2,1.2,0.8,1.4,1.5C79.7,147.9,79.6,148.1,79.3,148.1
	C79.4,148.1,79.4,148.1,79.3,148.1z"/>
<path class="st7" d="M60,143.2c-0.1,0-0.2-0.1-0.3-0.2c0-0.1,0-0.3,0.2-0.3c4.2-1.3,8.6-2.5,12.9-3.5c0.1,0,0.3,0.1,0.3,0.2
	c0,0.2-0.1,0.3-0.2,0.3C68.6,140.7,64.3,141.9,60,143.2C60.1,143.2,60,143.2,60,143.2z"/>
<path class="st7" d="M65.5,136.2c-0.4,0-0.7-0.1-1-0.3l-0.1,0c-1.5-0.6-3.1-0.7-4.6-0.4c-0.1,0-0.3-0.1-0.3-0.2
	c0-0.1,0.1-0.3,0.2-0.3c1.6-0.4,3.4-0.2,5,0.4l0.1,0c0.3,0.1,0.6,0.2,0.9,0.2c0.3,0,0.6-0.3,0.8-0.5l0,0c2.1-1.8,4.6-3,7.3-3.5
	c0.1,0,0.3,0.1,0.3,0.2c0,0.2-0.1,0.3-0.2,0.3c-2.6,0.5-5,1.7-7.1,3.4l0,0c-0.3,0.3-0.7,0.6-1.1,0.6
	C65.6,136.2,65.5,136.2,65.5,136.2z"/>
<path class="st7" d="M160.2,78.7c-0.1,0-0.2-0.1-0.3-0.2c-0.4-2.3,0-4.7,1.1-6.7c-1.4-1.7-2.3-3.8-2.6-6c0-0.1,0.1-0.3,0.2-0.3
	c0.1,0,0.3,0.1,0.3,0.2c0.3,2.1,1.2,4.2,2.6,5.8c0.1,0.1,0.1,0.2,0,0.3c-1.1,1.9-1.5,4.3-1.2,6.5C160.5,78.5,160.4,78.7,160.2,78.7
	C160.3,78.7,160.2,78.7,160.2,78.7z"/>
<path class="st7" d="M54.1,158.2c-0.1,0-0.2-0.1-0.3-0.2c0-0.1,0.1-0.3,0.2-0.3c0.8-0.1,1.6-0.5,2.3-0.9c1.2-0.7,2.5-1.4,3.7-2.2
	c3.5-2.1,7.1-4.3,11.1-5.3c0.1,0,0.3,0,0.3,0.2c0,0.2,0,0.3-0.2,0.3c-3.9,1-7.5,3.2-11,5.3c-1.2,0.7-2.5,1.5-3.7,2.2
	C55.9,157.6,55.1,158,54.1,158.2C54.2,158.2,54.2,158.2,54.1,158.2z"/>
<path class="st7" d="M56.8,160.5c-0.1,0-0.1,0-0.2-0.1c-0.1-0.1-0.1-0.3,0-0.4l5.9-5.2c0.1-0.1,0.3-0.1,0.4,0c0.1,0.1,0.1,0.3,0,0.4
	l-5.9,5.2C56.9,160.5,56.9,160.5,56.8,160.5z"/>
<path class="st7" d="M90,118.3c-0.1,0-0.2-0.1-0.2-0.1c-0.1-0.1,0-0.3,0.1-0.4l5-2.7c0.1-0.1,0.3,0,0.4,0.1c0.1,0.1,0,0.3-0.1,0.4
	l-5,2.7C90.1,118.3,90.1,118.3,90,118.3z"/>
<path class="st7" d="M106.7,114.4c-0.6,0-1.1,0-1.7-0.1c-2.7-0.4-5-2-6.1-4.1c-0.1-0.1,0-0.3,0.1-0.4c0.1-0.1,0.3,0,0.4,0.1
	c1,1.9,3.2,3.4,5.7,3.8c2.1,0.3,4.4,0,7.1-0.9c0.1,0,0.3,0,0.3,0.2c0,0.1,0,0.3-0.2,0.3C110.3,114,108.4,114.4,106.7,114.4z"/>
<path class="st7" d="M121.4,109.4c-0.1,0-0.2-0.1-0.3-0.2c0-0.1,0-0.3,0.2-0.3c2.4-0.7,4.4-2.4,5.4-4.6c1-2.2,1.1-4.9,0.1-7.2
	c-0.1-0.1,0-0.3,0.1-0.4c0.1-0.1,0.3,0,0.4,0.1c1.1,2.4,1,5.2-0.1,7.6C126.1,106.8,124,108.6,121.4,109.4
	C121.4,109.4,121.4,109.4,121.4,109.4z"/>
<path class="st4" d="M108.1,78.7l-2.6,10.1c0,0,3.5,0.4,5.1,0.2c1.6-0.2,2.8-2.2,2.8-2.2l1.7-6.5L108.1,78.7z"/>
<path class="st7" d="M109.3,89.2c-1.7,0-3.7-0.2-3.8-0.2c-0.1,0-0.1,0-0.2-0.1s-0.1-0.1,0-0.2l2.6-10.1c0-0.1,0.2-0.2,0.3-0.2l7,1.5
	c0.1,0,0.1,0.1,0.2,0.1c0,0.1,0,0.1,0,0.2l-1.7,6.5c0,0,0,0,0,0.1c-0.1,0.1-1.2,2.1-3,2.4C110.2,89.2,109.8,89.2,109.3,89.2z
	 M105.8,88.5c0.9,0.1,3.4,0.3,4.7,0.1c1.4-0.2,2.4-1.8,2.6-2.1l1.6-6.2l-6.4-1.3L105.8,88.5z"/>
<path class="st10" d="M103,91.6l0.9-4.6l7.3,1l3.4-3.6l1.1,1.2l6.9-3.2l-9.9,15c-0.5,0.7-1.3,1-2.1,0.8c-3.1-0.7-10.6-2-14-2.2
	c-0.3,0-0.3-0.3-0.1-0.5L103,91.6z"/>
<path class="st4" d="M111,98.7c-0.2,0-0.3,0-0.5-0.1c-3.3-0.8-10.7-2-14-2.2c-0.2,0-0.4-0.2-0.5-0.4c-0.1-0.2,0-0.5,0.2-0.6l6.6-4
	l0.9-4.7l7.4,1l3.5-3.7l1.1,1.3l7.6-3.5l-10.4,15.8C112.4,98.3,111.7,98.7,111,98.7z M104.1,87.4l-0.9,4.4l-6.8,4.1
	c3.3,0.1,10.8,1.4,14.1,2.2c0.7,0.2,1.4-0.1,1.8-0.7l9.4-14.2l-6.2,2.8l-1-1.1l-3.3,3.4L104.1,87.4z"/>
<path class="st4" d="M110.8,93.3C110.7,93.3,110.7,93.3,110.8,93.3c-2.4-0.9-4.8-1.3-7.3-0.9c-0.2,0-0.3-0.1-0.3-0.2
	c0-0.1,0.1-0.3,0.2-0.3c2.4-0.3,4.9,0,7.1,0.8l0.4-3.4c0-0.1,0.1-0.3,0.3-0.2c0.2,0,0.2,0.2,0.2,0.3l-0.5,3.8c0,0.1-0.1,0.2-0.1,0.2
	C110.9,93.3,110.8,93.3,110.8,93.3z"/>
<path class="st4" d="M114,91.5c-0.1,0-0.1,0-0.2-0.1c-0.9-0.7-1.7-1.5-2.3-2.4c-0.1-0.1-0.1-0.3,0.1-0.4c0.1-0.1,0.3-0.1,0.4,0
	c0.6,0.7,1.2,1.4,1.9,2c0.4-1.4,0.8-2.7,1.4-4c0.1-0.1,0.2-0.2,0.4-0.1c0.1,0.1,0.2,0.2,0.1,0.4c-0.6,1.4-1.1,2.9-1.5,4.4
	C114.3,91.4,114.2,91.5,114,91.5C114.1,91.5,114.1,91.5,114,91.5z"/>
<path class="st4" d="M118.4,74.6c0.2,1.5,0.3,3.1-0.4,4.4c-0.8,1.5-2.4,2.4-4.1,2.4c-1.6,0-3.3-0.7-4.5-1.8c-0.8,0.3-1.8,0.3-2.6,0
	c-0.8-0.3-1.5-1.1-1.5-2c0-0.9,0.7-1.7,1.6-1.7c0.6,0,1.1,0.4,1.5,0.8c0.1,0.1,0.3,0.3,0.5,0.3c0.3,0,0.6-0.3,0.6-0.7
	c0-0.3-0.2-0.6-0.3-0.9c-0.8-2,0-4.3,1.5-5.8c1.2-1.2,2.9-1.8,4.5-2.2c0.2,0,1-0.3,1.2-0.2c0.2,0.1,0.4,1,0.4,1.3
	c0.3,0.9,0.5,1.9,0.8,2.9C118.1,72.5,118.3,73.5,118.4,74.6z"/>
<path class="st7" d="M113.8,81.7c-1.5,0-3.1-0.6-4.4-1.8c-0.9,0.3-1.9,0.2-2.6-0.1c-1-0.4-1.6-1.3-1.6-2.3c0-0.5,0.2-1.1,0.6-1.5
	c0.4-0.3,0.8-0.5,1.3-0.5c0.7,0,1.2,0.4,1.7,0.9c0.1,0.1,0.2,0.2,0.3,0.2c0.1,0,0.1,0,0.1-0.1c0.1-0.1,0.1-0.2,0.1-0.3
	c0-0.2-0.1-0.4-0.2-0.7c0-0.1,0-0.1-0.1-0.2c-0.8-1.9-0.1-4.4,1.6-6.1c1.1-1.1,2.7-1.8,4.6-2.3c0.1,0,0.1,0,0.2,0
	c0.5-0.1,0.9-0.2,1.2-0.1c0.3,0.1,0.4,0.6,0.5,1.2c0,0.1,0,0.2,0.1,0.3c0.3,1,0.6,1.9,0.8,2.9c0.2,1.1,0.4,2.2,0.6,3.2
	c0.2,1.5,0.3,3.2-0.4,4.6c-0.8,1.5-2.5,2.5-4.3,2.6C113.9,81.7,113.9,81.7,113.8,81.7z M109.5,79.3c0.1,0,0.1,0,0.2,0.1
	c1.2,1.1,2.8,1.8,4.3,1.7c1.6,0,3.1-0.9,3.8-2.3c0.7-1.3,0.6-2.9,0.4-4.3c-0.1-1-0.3-2.1-0.6-3.2c-0.2-0.9-0.5-1.9-0.8-2.8
	c0-0.1-0.1-0.2-0.1-0.3c0-0.2-0.2-0.7-0.2-0.8c-0.2,0-0.6,0.1-0.7,0.1c-0.1,0-0.2,0-0.2,0.1c-1.8,0.4-3.3,1.1-4.4,2.1
	c-1.6,1.5-2.2,3.7-1.5,5.4c0,0,0,0.1,0.1,0.2c0.1,0.3,0.2,0.5,0.2,0.9c0,0.3-0.1,0.6-0.3,0.7c-0.2,0.1-0.3,0.2-0.5,0.2
	c-0.3,0-0.5-0.2-0.7-0.4c-0.4-0.4-0.9-0.7-1.4-0.7c-0.3,0-0.6,0.1-0.9,0.3c-0.3,0.3-0.5,0.7-0.5,1.1c0,0.7,0.5,1.4,1.3,1.8
	C107.7,79.6,108.5,79.6,109.5,79.3C109.4,79.4,109.4,79.3,109.5,79.3z"/>
<path class="st7" d="M108.6,78.7l-1.3,0c-0.1,0-0.3-0.1-0.3-0.3c0-0.1,0.1-0.3,0.3-0.3l1.3,0c0.1,0,0.3,0.1,0.3,0.3
	C108.9,78.6,108.8,78.7,108.6,78.7z"/>
<path class="st6" d="M56.9,177.7c-0.1,0-0.2-0.1-0.2-0.1c-0.1-0.1,0-0.3,0.1-0.4l34.8-18.5c0.1-0.1,0.3,0,0.4,0.1
	c0.1,0.1,0,0.3-0.1,0.4L57,177.6C57,177.6,56.9,177.7,56.9,177.7z"/>
<path class="st6" d="M89.7,230.9c-0.1,0-0.2-0.1-0.2-0.1c-0.1-0.1,0-0.3,0.1-0.4l28.8-16.8c0.1-0.1,0.3,0,0.4,0.1
	c0.1,0.1,0,0.3-0.1,0.4l-28.8,16.8C89.8,230.9,89.8,230.9,89.7,230.9z"/>
<path class="st11" d="M169,30c17.4-15.6,52.4-39.3,68-24c4.3,4.2,3.1,11,0.7,16.5c-5.2,11.7-8.7,26.2,2.3,28.3
	c1.4,0.3,2.8,0.1,4.2,0c12.2-1.3,28.1,2.6,6.9,28.3"/>
<path class="st11" d="M216.8,41.4c-1.2,5.6-2.1,15.7,3,16.5c1.4,0.2,2.7-0.5,4.1-1c5-1.8,11-1.2,5.8,12"/>
</svg>
